<?xml version="1.0" encoding="UTF-8"?>
<svg id="Layer_2" xmlns="http://www.w3.org/2000/svg" version="1.1" viewBox="0 0 1000 1000">
  <!-- Generator: Adobe Illustrator 30.1.0, SVG Export Plug-In . SVG Version: 2.1.1 Build 136)  -->
  <g id="Layer_1-2">
    <g>
      <g>
        <path d="M283.3,618.8c-11.9.3-22.6-.6-32.7-6.1-.5-.3-.8-.8-.9-1-.2-.4-.2-1.4.3-1.7-.6.4,13.4,2.9,16.1,2.9,13.2.3,39.6-.3,52.2-2.4,9.2-1.5,18.1-2.1,27.4-2.7l13.2-.9c25.6-1.7,53.6,1.9,75.6.2,7.3-.5,14.1-.4,21.4,0l22.9,1,21.3,1.7c11.2.9,21.8.7,32.9-.4,8-.8,15.7-.5,23.7-.2l41.7,1.8,15.7.7c7,.3,13.9.2,21.3.4,7.9-16.3.6-28,2.3-45,6.6-.4,12.7-1.4,18.9-3.2l20.5-5.9c12.5-3.6,25.9-5.9,38.8-6.9.8,2.1,3.4,3.5,4.7,4.4l-1.8,9.8c-.7,4-1.4,8.3-3.1,11.8l-5.3,10.4c3.8-.2,7.2-.6,10.9-1.1,10-1.5,7.9-3.1,15.7,3.5-3.2,3.7-5.4,6.8-6.9,11.7l15.3.8c9.1.4,17.8-.9,26.9.5.8.1,1.7-.6,1.9-.9.2-.4-.1-1.1-.2-1.8l-2.5-14.8c-3.3-19.4-5.8-34.5-16.1-52.1-13.2-22.6-22.4-34.8-39.6-54.4-3.9-4.4-7.5-8.6-11.9-12.8l-16.9-16.1-6.3-5.7-16.3-14.5c-5.7-5-11.1-10-17.2-14.5l-21.2-15.9-15.7-11.8-20.1,7.4c-8.1,3-15.8,6.1-24,8.5-3.6,1.1-6.3,1.9-10-.1-1.3-.7-3.7-.3-4.5-2.6,3.1-2.2,6.5-3.3,10.2-4,6.2-1.3,11.6-3.9,17.4-6.2,8.8-3.4,17.1-6.8,26.1-9.6,1.6-.5,5.5,0,7.1.6,5.8,5,12.1,9.4,18.2,14.1l10.8,8.2c8,6.1,16.5,11.2,23.9,18l14.5,13.3c11.6,10.7,23,21,34.5,31.8l6.2,5.9c6.7,6.3,12.6,13.2,18.1,20.6l4.1,5.5,7.5,10c2.5,3.3,5.4,5.8,6.6,10.1.5,1.9,3.2,3.1,3.5,5s.7,3.4,2.4,4.8c5.8,4.6.9,10.3,6.7,10.4.7.2.5.6,0,1-1.6,1.1-.2,2.4.5,3.6,1.1,2,1.5,4.6,3.4,6.2.7.6,2.1,0,2.4,1.9,0,.6.2,1-.5,1.2-1.8.4-.8,2.3-1,3.3-.3,1.9,2,1.5,2.8,2.5,3.8,4.9,4,10.9,4.9,16.8.5,3,1.4,5.6,1.6,8.8.1,2.4,5.1,21.4,4.1,26.5-12.7,2.8-8.3-2.2-12.6-2.5-12.9-.9-23.3.2-38.6-.7-3.5-.2-7.3,1.5-10.9.2-1.6-.6-4.5-3.5-4.5-5.2,0-3.3,3.5-6.2,4-9.5-5.3.6-10.9.8-15.7,3-2.8,1.2-4.6.8-7-1.6l-3.1-3,11-21.2c.8-1.4,3-10.9,2.8-11.3-.3-.4-1.1-.9-2-.8-28.9,3.2-37.2,13.5-63.6,15.5-1.4,5.8,0,11.3.3,17.1l.7,10.2c.2,3.6-.2,6.9-1.5,10.1-1.1,2.7-.2,5.4-1.6,8.2l-23.3-.4c-3.3,0-6.4-.6-9.7-.7l-19.2-.8c-16.7-.7-33-2.3-49.8-1-14.8,1.1-28.7.6-43.5-.4l-30.2-1.9c-19.9-1.3-29.7.8-48.9,0l-17-.7c-30.3-1.2-59.9,3.8-90.1,4.6l-30,.8h0ZM746.3,507.3c0-.2-.2-.4-.4-.4s-.4.2-.4.4.2.4.4.4.4-.2.4-.4ZM765.5,543c-.8,1.5.4,2.4,1.3,1.6.3-.3,1.1-.9.5-1.1-.4-.2-1.6-1-1.8-.5h0ZM768.4,549.2c0-.2-.2-.4-.4-.4s-.4.2-.4.4.2.4.4.4.4-.2.4-.4ZM770.9,561.9c-.5,1.2.4,1.3,1,1.2.3,0,.5-.5,0-.8-.2-.1-.8-1.2-1.1-.4h0ZM773.3,565.5c-.2-1-.9-1-1.1,0,.1,1.8.9,1.8,1.1,0ZM774.8,570.2c0-.3-.2-.5-.5-.5s-.5.2-.5.5.2.5.5.5.5-.2.5-.5ZM777.2,586c0-.3-.2-.5-.5-.5s-.5.2-.5.5.2.5.5.5.5-.2.5-.5ZM778,589.2c0-.5-.4-.9-.9-.9s-.9.4-.9.9.4.9.9.9.9-.4.9-.9Z"/>
        <path d="M663.9,492.2c3.8,2.2,3.7,24.2,4.1,26.5l1.6,10.6c-1.7.5-6.7,1.3-8-.7-2.5-4.1-1.6-9-3.7-13.6-3.6,3.9-11.9.9-12.2.4-.7-1.1-.4-2.2-.9-3.9-3.9,2.1-9.3,2.1-12.5-1.3-2.3-2.4-1.2-6.3-2.9-9.4-2.4,4.1-4.4,8.5-9,9.6-3.4.9-7.1-.8-10.3-2.1-1,.5-.9,2.2-1.8,2.7-2,1.1-4.3-.4-6.3-.4-1.3,2.4-1.5,5.6-3.4,7.2-3,2.4-7,1.2-10.6,1-5.5-.3-10.5-.7-15.9-2.6-3.1,4.7.5,7,.9,11.4-2.8.9-8.9,1.5-10.9-1.9-2.4-4.1-2.5-9.3-6.5-12.9-5,5.5-6.9,15.7-12.9,17.9-2.1.8-7,0-8.4-1.6-2.6-3.1-.4-14.7-2.7-20.1-3.1-.2-6.5.8-9.4-.7l-16.2-8.1c-7-3.5-21.7-12.8-24.8-20.3l13.5-7.9,9.6-2.8c-.8-4.8-1-11.4-4.8-14.7.3-1.7-16.2-1.3-13.3-4.2,2.4-2.3,19-2.9,22-1.6-.6,1.1-2.2,1.7-1.6,2.3,2.3.3,3,.9,3.8,2.6,3.2,6.5,5.6,13.1,4.6,20.7-9.7-2.4-14.4,2.6-22.5,7.7,4.1,7.6,18.3,15.4,25.5,19,2.1-.3-.2-10.1,4.4-9.5,1.8.2,3.4,1.3,5.7.7,3.2-.8.7,9.6,2.1,10.4,3.7-1.6,8.2-2.2,11.3.4.5,5.6,1.5,5.2,2.3,11.7l5.9-9.2c1.1-1.7.1-2.9-1.1-3.8-3.9-2.9-7.7-5.1-12.1-7-1-.4-2.6-1.7-2-3,14.6-2.5,26.7-9,41.8-14.1,2.1-.7,3.5-1.2,6.5,0-.9-5.4-9.7-6.6-10.8-9.9,3.5-2.2,7.5-1.4,10.9.4,13.7,7.2,32.2,1.9,59,14,2.5,1.1,3.6.8,5.9,0,1.8-.7,5.9,0,7.5.9,2.1,1.2,0,5.4.9,7,1.3,2.4,5.5.9,7.6,2.1h0ZM596.4,478l-1.5.9,2.3,3.8,1.5-.9-2.3-3.8ZM619.1,501l7.5-15.7-17.9-4.3,1.8,12h4.4c2.8.2,2.1,5.3,4.1,8h0ZM571.9,510.7c9.4-3,17.4,0,16.1-3.6l-5.5-15.5c-.8-2.4-1.7-6.3-4.1-7.3-1.9-.7-18.5,6.8-24.3,8.5-2.6.8-5.4.7-7.3,2.7,2.2,2.1,4.6,3.2,7.2,4.3,1.2-.4,2.1-2.2,3.3-2.4,2.5,1.1,6,.2,8.2,1.4,3.9,2,.9,13.7,6.3,11.9h0ZM643.4,488.9c-1.8-.8-2.4-.9-3.2-.6-2.2.9-1.3,7,0,8.7,2-2.8,2.2-5.4,3.2-8.1ZM588.6,513.6c-2.8-.9-6.1-.8-8.3.8,6.7,2.7,10-.2,8.3-.8Z"/>
        <path d="M318.9,530.1c3.2,1.6,6.3-1.3,9.2-1.5,15.5-1.1,15.5-.9,27.7,5,2.9,1.4,6.2,4.9,9.8,4,5-1.3,8.6-6,11.5-9.9-1.5-1.7-3.1-1.8-4.9-2.6-13.8-6-19.5-12.8-20.5-28.1,4.1-3.1,8.1-4.8,11.9-8.7-5.9-.9-11.7-1-17.2-2.9-9.9-3.4-2.8-10.1-8.2-18.7-7.7,1.2-17.4,9.8-24.4,4.5,1.1-3.4,34.5-13.9,28.4-7.1,1.2.6,2.9,0,4.6.4,5.4,9.4,0,18.6,6.7,19.3,5.6.6,19.4.5,22,5.9-2.6,1.5-13,7.7-13.4,9.6-1,4.1.9,8.9,2.9,12.7,5.6,10.2,17.3,10,23.8,16.7-5.8,5.7-12,13-20.8,14.1-6.1.8-12.9-3.4-18.1-6.4-18.5-10.6-25,2.2-41.3-3-2.4-10.2.9-18.2-5.3-28.8-2.6-4.4-8.7-4.3-11.6-7.7,6.6-2.1,13.3-2.6,20.1-5.6-2.8-3.1-6.1-4.7-9.5-6.3l-13.1-6.5c-1.2-.6-1.6-1.7-1.7-3-.3-8.2-.8-16.1-2.2-24,3.4-1.6,6.8-1,9.9-2.3l25.5-10.1c20.6-8.2,35.2-13.4,56.7-19.3,5.3-1.5,10.1-3.4,15.6-4.2s15.7-5.9,20.9-5.6c-.9.9-1.8.7-2.3.9-.4.1-1.3,1-.4,1.5,2.2,1.3,4.7-.2,7.1-.8,1.6,1.8,1.1,4.5,2.1,6.7l2.9,6.5,4.7,21.8c14.6-2.3,28.6,4.9,40,5.5,2.9.1,5.6.9,7.7,2.4-2.6.1-4.7-1.3-7.4-.2,2.1,1.7,4.8.6,7,1.8,2,1,1.3,3.4,1.2,5.3l-.5,43c-1.8,1.9-5.4.2-7.3-.7-16.5-7.8-27-10.6-45.4-10.4,5.3,5,27.8,5.3,27.4,9.3-.3,2.8-17.9-1.3-21.7-2.1-7.2-1.4-13.4-4.7-19.9-7.6-2.4-1.1-5.5-1.3-6.6-4.4,5.5-1.3,10.7.1,16.1.1,15.4,0,30.1,2.1,44.5,7.4,1.1-3.7.4-6.5.6-9.7.8-9.5.8-18.6-.5-28-.2-1.4-1.5-2.5-2.8-2.8l-16.6-3.8c-4.6-1.1-10.1.1-14.2,2.1-1.8.9-2.2,2.9-4.4,2.6-4.7-.6-3.2-1.9-9.8-4.2.8-9.5-2.5-24.8-6.6-34.2-27,5.9-53.4,12.8-78.8,23.3l-7.4,3c-8.8,3.6-17.3,7.4-26.7,9.6-.6,2.4.2,4.2.5,6.4.6,5.3,0,10.8,1.7,15.8,1.1,3.3,15.3,6.9,23.5,14.4.6.5,1.1,1.1,1.1,1.7.2,2-13.3,4.7-16.2,5.7,1.2,2.1,3,2.2,4.1,3.6,11,13.3,4.1,26.5,7.9,28.4h0Z"/>
        <path d="M310.2,587.4c-.7.2-13.1.5-13.2-3.4,0-1,.9-2,2.1-2.3l18.6-5.6c1.5-.9,9.3-15.3,5.5-13.7-8.3,3.4-17.5,2.9-24.7-2.4-3.5-2.6-3.6-9.6-5.4-10.8-3.8-2.6-2,5.1-9,13.5-3.4,4.1-8,5.4-13.2,5.2-7.8-.3-20,.1-21.4-9.4,9.5-5,18.9-8.7,28.9-12.3,1.7-.6,2.9-1.5,3.3-3.4,1.5-7,1.7-14.1.8-21.2-.6-4.7-7.6.2-16.3-.8-9.3-1.1-10.6-4.1-16.3-10.6-11.5,5.6-20.6,11.6-33.7,8.6-1.5-.3-4.3-2.8-3.2-4.4,2.4-3.5,5.7-6.4,8.8-9.2,8.5-7.7,15.3-4.6,24.8-5.7,2.4-4.5,1.8-9.2,2.4-13.9,1.6-12.5,1.3-27.7-2.3-39.8-1.9-6.3-2.8-12.7-5.1-19-.3-.8,0-2.6.7-3.1,1.5-1,4.8-1.2,5.9.5,1.6,2.2,2.9,4.7,3.6,7.3l3.7,13.9c1.2,4.4,2.9,8.7,3.1,13.4.6,12.6.5,25.2-1.2,37.7-.5,3.3-1.4,5.2.3,8.5,2,3.9,3.9,9.2,8.7,11.1,3.9,1.6,16.9-4.9,25.6-.3,3.4,13,1,16.6-.6,28.8,4.9.5,9.2,1.4,13.2,3.6l1.8,7.7c.5,2.1,3.3,5.2,5.9,4.2,7.2-3.1,14.5-4.9,22.4-3,.8.2,1.3,1,1.5,1.5.2.7-1.3,1.4-1.4,1.9-.7,6.1-3.4,10.5-6.6,15.7-.8,1.3.5,12.8,5.5,10.1,9.7-5.3,9.1-6.5,19.1-6,1.3,0,1.2,2.6,2,3.3,3.2,2.9,6,5.9,7.3,10.1-4.7,1.5-10.6,1-13.6-2.8-5.6-7.1-7.6,1.8-17.6.9-5-.4-9-2.3-11.5-6.9l-8.9,2.4h0ZM244.3,504.2c-6.1-2.4-12.3,0-16.5,4.8-2.2,2.6-5.1,4.2-6.7,7.3,1.3,2.8,23.3-9.2,23.2-12.1h0ZM276.1,559.2l3.4-7c-1-.5-1.9-.4-2.8,0l-16,7c-1,.4-1,1.8-.3,2.6,2.2,2.6,5.7,3.4,9.2,2.9,2.4-.3,5.1-2.4,6.6-5.5h0Z"/>
        <path d="M462.1,515.7c2.8,2.1,1.5,16.4,1.1,20.6-.5,5.4.2,12.5-1.5,17.6-1.4,1.8-7.1,1.2-8.3-.8v-17.6c0-1.5,0-2.9-1.6-3.6-1.7,3-3.2,6.1-6.5,7.1-3.1.9-6.4-.2-9.4-.9l-2.5-4.6c-2.3,5.2-7.2,6.6-12.4,5.3-7.4-1.8-3.3-3-7.5-7.4-3,4-11.7,5-14.2-.1-2.9-5.8-.2-18.9-3.7-23.6-3.8-.1-9.9.4-12.4-2.9-2.1-2.7-1.3-8-1.3-11.3-.2-9.4-1.5-17.8-4.6-26.4,3.5-1.8,9.3-1.4,11.1,2.2,4.6,9.7,4.4,20.5,4.4,31.2l8.9-.7c-.3,1.2-1.8.5-2.6,2.1,1.9.9,4,.2,6.2.5,4.4,7.3,1,15.7,3.6,21.1,2.1-1.5,3.1-3.5,5.2-5.4,2.2,2.2,5.1,2.1,8.2,1l2.8,12.6c5.6-6.4,5.2-14.1,13.6-15.5-.3,1.7-1.9,1-2.6,2.3l6.9.5c1,3.4-.5,6.7,1.4,10.4,4.1-4.5,6.7-9.8,8.8-15.3,2.1.4,7.2,0,9.1,1.5h0Z"/>
        <path d="M547,474.4c-4.3.5-12.5-.6-12.9-6.1-2.1-8.1-2.2-16.3-3.2-24.6s-3.1-16.7-5.8-25.3c-16.2-2.5-32.2-2.5-48.6-.9l-21.2,2c-3.6.3-7,0-10.1-2.3,1.7-1.4,3.6-1.9,5.8-2.2l19.9-2.3c28.7-3.3,29.4.4,51.4.2,5.1,0,9.9-.3,14.7,2-2.8,1.5-5-.1-7.8.4,2,1.8,4.4,1.2,7.1,1.6,1.8,8,5,17.9,5.4,26,.5,10,.6,21.7,5.2,31.5h0Z"/>
        <path d="M772.7,548.2c-.5-.4-.7-2.3,0-2.3.5,0,1.2.8,1.1,1s-.6.5-1.2,1.3h0Z"/>
      </g>
      <path d="M782.5,615.2c-1.5.3-2.3-1-3-2.2,1.2.7,2.4.4,3,2.2Z"/>
    </g>
  </g>
</svg>