<?xml version="1.0" encoding="UTF-8"?>
<svg id="Layer_2" xmlns="http://www.w3.org/2000/svg" version="1.1" viewBox="0 0 1000 1000">
  <!-- Generator: Adobe Illustrator 30.1.0, SVG Export Plug-In . SVG Version: 2.1.1 Build 136)  -->
  <g id="Layer_1-2">
    <g>
      <path d="M507.9,449c-.6,0-5.2-1.6-5.6-1.9-3-2.2-.1-4,.4-6.3.7-3.1.7-6.4,1.3-9.2.6-3,4.7-16.5,4.2-18.1-.4-1.4-2.8-.5-2.2-2.7h3c-.3-3.6,1.4-7.2.7-10.9-.4-2-3.8-3.5-2.2-4.5l6.6-2,.4-3.7c1-1.5,16-1.3,18.7-1.5,6-.3,12.5-.4,18.8-.7,6.9-.4,13.9-3.2,20.6,0l-3.7,1.1,3.8,1.5c0,1.5-.2,2.9,0,4.4,1.6,10.1,3.9,17.9,3,27.8-.5,5.2.6,11.9,2.2,16.8-3.7,0-6.7-1.7-10.5-1.9-1.3,0-1.9-.9-3,.8,0,1.3,13.5,1.8,13.5,5.2,0,1.5-2,1.9-2.9,3.1-3.2,4.4-6.2,10.2-7.5,15.5.9,3.7,18.7,10.4,22.7,11.8s10,3.8,13.7,4.3c2.1.3,9.9-.8,11.1.8.5,2.8.4,5.8.4,8.7,0,5-.7,13,0,17.9.5,3.8,4.1,12.6,4.1,15.8,0,.6-1.1,3.9-1.3,4l-15.9.9-1.6,3c-3.3.5-3.9-1.9-4.2-2.1-1-.4-18.9,1.8-21.8,2.1-2,.3-7.2,2.1-8.2,2-1.4-.2-3.4-2.6-5.6-2.2-2.1-1.8,3.3-21.8,2.2-25.6l-12.1-7v-10.7c-5.2.6-9.8,3.2-14.6-.7-.1-3,1.5-17.4-.4-18.6-3.6.3-7.3-.5-10.8-.7-1.8,0-3.9,1.8-5.7-.5-1.6-2,2.6-12.8,1.6-16.2-4.1-.4-9.1.5-13.1,0h0ZM550.9,393.2v12.4c1.6.2,2.4-1.3,3.3-2.3,1.6-1.9,7.1-9.6,7.2-11.5,0-1.5-.2-1.2-1.5-1.1.3,3.4-8.1-.2-9,2.6ZM542.7,392.8c-4.2-.5-3.9,4.5-3.7,7.5,1.5-.5,4.4-6.9,3.7-7.5ZM531.5,393.6h-6.8c.5,3.8.1,6.8-.7,10.5,1.6.3,1.7-.8,2.4-1.7,2-2.7,3.1-6.1,5.1-8.7h0ZM520.2,402.6c-.4-2.6,1.5-8.1-2.2-8.2-1.1,4.2-3.6,7,2.2,8.2ZM535.2,395.1c-1.7-.4-1.2.3-1.7.9-1.2,1.5-2.9,4.2-3.8,5.8-.4.8-2.5,3.4-1.2,4.1l6,.3.8-11.2h0ZM542,404.8l4.9-.7c.8-3,.5-6.1-.4-9-1.2.9-2.3,3.6-2.9,5-.4.9-2,4.4-1.6,4.8ZM562.9,398.8c-1.4-.3-1.5.5-2.1,1.2-.8.9-5.4,6.9-5.4,7.4.1,2,3.6,3.5,4.1,4.8.4,1.2-1,6.4-.3,8.3l5.2-1.5c.7-2.3-1.9-1.1-2.7-2.2l1.2-18h0ZM520.1,405.7l-5.1-2.3-1.5,4.9,3.7,1.5c0,.6-9.3,3.2,3,4.1-1.8-2.7.5-5.2-.1-8.1h0ZM568.2,418.3l-1.9-10.5c-1.7,1.3-1.5,8.7-.8,9.8l2.6.7h0ZM545,465.9c-1,3.6.7,11.2,0,15.4,5.7,0,10.8-2.1,16.5-.7l-3,1.5,2.8,1.8-2,11.1,15.3,8.7c.7,1.3-1.2,2.7-1.8,4.3-.2.8-1.1,5.9-.9,6.1,6,.4,4.5-6.1,11.2-4.5-3.8,5.7.7,1.7,2.7,1.5,1.5-.2,2.9.8,4.4.7,1.5-.1,12.7-2.5,13.1-3-1.3-6.3.5-16.3-5.9-19.8l3-1.6-1.6-7.6c-9.4-3.9-20.5-6.3-29.3-11.5-1.5-.9-7.9-5.5-8.4-6.6-2.3-5.4,5.1-13.4,7.1-18.3-3.3-3.9-6.3.4-9.3-.4-1.4-.4-.4-2-1.2-2.5-1.7-1.2-5.9-1.5-7.1-4.2-2.3-5.1,5.1-23,1.7-25.3-.3-.2-7.1-2.3-7.5-2.3-2.4.2-4.6,2.7-6.2,2.9-2.3.3-5.2-1.9-7.6.2l-6.8,48.8c.6,2.7,11.9.4,14.5.4s4.7,1,7.1.8l-3,.7c-.6,2.6,2.2,1.2,3.7,1.5,0,.8-1.4,1.4-1.5,1.9h0ZM516.5,415.3l-3.8-.4-.7,3.4,4.5-3h0ZM524,417.5c-4.3-.2-8.2,1.7-12,3.4,3.3,2.8,8,2.9,12,4.1v-7.5ZM563.7,422.8l-4.6.5c-.9,2.2-4.4,12.4-2.5,13.8,1.8,1.3,2.5.4,3.5-1,1-1.6,4.4-12.5,3.6-13.3h0ZM515.7,425.1l-5.2-.8-.7,6c.3.3,4.5-3.1,5-3.5.5-.4,1.5,0,1-1.7h0ZM565.9,435.5l5,.7c2.3,0,1.3-5.8,1.1-7.9-.1-1.1-.1-1.9-1.2-2.6-1.6,3.3-5,5.7-4.9,9.7h0ZM523.2,426.5c-1-1.1-8,3.5-9.2,4.6-.7.7-1.6.7-1.3,2.1h9.6c0,0,.9-6.7.9-6.7h0ZM514.2,435.5l-6-.8-.8,4.5c1.5,1.1,5.9-2.2,6.7-3.7ZM522.5,435.5l-13.5,7.1c-6.5,5.2,8.4,5.5,12.2,2.7l1.2-9.8h0ZM574.7,516.6l-3.6-.9-.8,6.7,4.4-1.9c.9-1.3.7-2.6-.1-3.9h0ZM582.5,516.2l-3.4,1.7,1.1,2.2,3.4-1.7-1.1-2.2ZM608.6,518.7c-1.7-.8-6.9-.5-6.7,2.2,1.7.1,3.4-.2,5-.6,1.3-.4,2.1.6,1.7-1.6h0Z"/>
      <path d="M933.2,389.2c-2,3.6,2.3,2.7,3.6,4,.3.3,3.6,7.1,3.7,7.5.7,3.7-1.7,10.4-6,10.8v1.5c1.8.1,4.6,7.1,5,8.8,2.2,9.5-7.7,14.8-15.5,16.7-1.2,1.7,6.7,10.2,4.4,15.1-1.5,3.1-12.2,9.3-15.7,10.7-3,1.3-10.6,3.7-13.5,2.3-1.3-.7-4.3-8.2-2.3-9.8,6.8-.3,13.8-3,19.5-6.8,1-.6,5.4-3.6,4.6-4.8-7.4-4.9-17.7,3.6-24.3,3-2.3-.2-4.8-5.6-3.2-7.3.2-.2,5.5-2.7,6.3-3,3.8-1.4,8-1.8,11.8-3.1,8.6-3,16.1-7.7,22.8-13.9-5.3-4.9-19.6,5.7-22.4-1.5-2.9-7.3,3.3-6.9,8.7-10,1.6-.9,12-7.3,12.2-8,.1-.4.3-1.9-.4-1.9-4.8,0-13.6,2.2-17.8-.1-1.8-1-2-7.2-1.9-9.5l17.1-9.9-.4-1.5c-5.7-2.1-11.2-4.9-10.8-11.9l16,6c3,4.8,5.1,9.4,1.2,14.6-.8,1.1-2.7,1.7-2.8,2h0Z"/>
      <path d="M868.2,372.6c6.4.8,7.6,5.9,10,11.1-.6,6.8-4.7,11.9-8.8,17l5.6,2.6c-.8,3.7,3,4.3,2.7,7.8-.6,5.9-9.4,10.9-14.2,13.2v1.1c4.2,4.6,9.6,10.9,4.2,16.6-2.1,2.2-10.1,5.5-11,7.4-.7,1.4,2,1.3,2.7,2.6.4.8-.3,1.8-.2,2.5.2,1,1.8,2,2.3,3.6,1.8,6.1-12.2,10.7-14.6,7.8l-.6-2.2,7.4-9.5c-5.6.2-8.2-2.3-8.9-7.8,6.4-4.6,14.3-7.3,19.4-13.6-4.6-2-10.7-6.1-9.8-12,.4-2.6,11.7-7.4,13.5-10.5-.8-1.5-1.4-.7-2.2-.8-3.5-.3-7-.3-10.4-.4l-2.3-7.6c.4-1.8,8.9-6.7,10.8-8.7,1.1-1.2,6.4-8.1,7.1-9.4.5-.9,1-1.4.7-2.6-1.7-1.7-28.2,2.6-32.5-.8-2.4-1.5-4.4-7.4-.8-7.4,8.9,0,21.6-1.1,30,0h0Z"/>
      <path d="M803.5,408.4c.2.3,4.5,2.3,5.5,3.1,5.5,4.5,12.3,14.3,10.7,21.9-.2.7-2.8,7.1-3.2,7.3-1.2,1.1-6.5,4.3-8.2,5.3-2.6,1.5-5.5,2.3-8,4v1.1c.6,0,1.1.1,1.5.6.6.8,2.3,6.4,2.3,7.3s-1.6,4.5-2.4,5.2c-.5.5-11.1,6.8-11.7,7-4.7,1.4-7.8-2.2-6.6-6.6,4.7-2.6,9-6.1,11.6-10.8-6.7.5-8.7-5-8.9-10.8,10.2-3.2,18.9-8.3,26.5-15.8,4.8-7.7-12.3-10-14.6-12.3-1.4-1.3-.5-3.9-.7-5.6-2.9-.8-.4,2.8-2.2,3-4.6-9.2,2.1-15.7,6-23.6,0-1.1-15.5-5.9-17.7-6.3-3.5-.7-7.3-.4-10.1-1.1-3.8-1.1-4.2-4.4-6-7.5,1-1.3,2.5-1.8,4.1-2,4.8-.4,28.1,5.9,31.5,9,.9.8.5,1.9,1,2.6,2.6,3.3,4.6,3.6,4.6,9,0,.9-1.5,7.2-1.8,8-.8,2.1-4.8,5.6-3.4,7.9h0Z"/>
      <g>
        <path d="M752.4,416.9c1.2,2.1,1.5,8-.6,9.3-27.3,1.4-54.7-1.3-82.1-.4-16.5.5-33,3.1-49.4,3.8-6.5.3-13.2,0-19.7-.2-1.8-2.7-2.5-6.3-2.3-9.5,1-1.6,20.1-.6,23.5-.8,15.6-.8,31.5-2.7,47.1-3.1,27.9-.7,55.6,1,83.5.9h0ZM724.4,419.1c-5.1-1.2-14.3.9-19.8,0l17.6,2.3h10.2s-6.2-.9-6.2-.9c-.8-.1-1.4-1.3-1.7-1.3h0ZM742,420.6c-1.9,0-3.8,0-5.6,0-.9,0-2.8-.6-2.6.7,1.9,0,3.8,0,5.6,0,.9,0,2.8.6,2.6-.7Z"/>
        <path d="M729.9,465.4c-6.3-.6-12.6-1.7-19-2-30.6-1.6-65.2,4.3-95.1,1.3-6.2-.6-9.7-3.1-8.3-9.8l89.8-1.9c9.9.2,19.6,1,29.5,1.7,2.4.2,5.5-1.4,7.7,1.4l-4.6,9.2h0Z"/>
        <path d="M700.8,395.8l1.5-1.5h-11.2l.4,1.5-1.5.8c-1.5.1-3-1.1-4.5-1.2-4.7-.3-14.1,1.6-19.5,1.9-21.7,1.1-43.5,1.6-65.1,4.5-4.9-.3-7.5-10.4-1.2-11.6,10.6-2.1,22.7-1.2,33.5-1.8,28.7-1.5,57.3-3,86.2-3.4,3.4.1,3,8.5,1.1,10.5l-19.5.4h0ZM692,390.8c4-1.8,23.7,1.6,26.4-1.7-.1-2.9-4-.6-6-.7-24.2-.8-48.4.9-72.6,2.2-5.8.3-12.1-1.4-16.9,1.8,13.4.6,26.7.8,40.1.4,6.2-.2,16.1,0,21.8-.7,1.5-.2.7-.8,1.5-1.6,1.5-.3.4,2.2,4.5,1.6,1.4-.2,1-1.2,1.3-1.3h0Z"/>
      </g>
      <g>
        <path d="M398.1,562.1l7.1-3.7,4.1,4c-.2.9-11.9,10.1-13.8,12.4-.5.5-5,6.6-3,6.8,2.2-.4,4.8-1.1,6.9-2.1,1.2-.6,10.7-6.4,11.1-6.8,1.3-1.4,2.5-6.8,4.2-9.3,6.5-9.4,20-2.6,13.5,9.8-1.9,3.7-9.6,7.5-9.8,8.2-1.3,5.4,7.1,4.9,10.4,4.1-1.1,8-10.8,3.2-14.6,0-1.5-1.2-4.1-6.3-5.9-5.9-3.1,3.5-10.3,7.6-15,6.7-2-.4-3.7-3.1-6.3-2.1-2.9,4.6-5.4,9.4-6.1,14.9-7.2-.8-6.8-3.8-4.8-9.7,3.4-10.5,11.6-23.1,15.9-34.3.8-2,2.9-10.7,3.3-11.3.6-.9,3.2-1,4.4-.6,7.8,2.4-2.3,18.4-1.5,19.2h0Z"/>
        <path d="M350.9,567.4l-.4,1.5-7.3-2.2c-7.8,8-13,20.3-12.9,31.4,1.4,2.2,10-3.6,11.3-5.2,2.2-2.9,4.6-10.6,7.5-15,4-6.1,11.4-18.3,19.4-11.3,2.2-1.5,1.7-6.5,4.5-6.8,2.7-.2,5.1,2.1,4.9,4.8-.3,3.1-7,14.7-8.5,19.3-1.1,3.5-3.2,10.7-1.3,13.7l-1.5.8c-4.5-.4-4.1-6.9-6.3-6.4-.4.1-1.8,2-2.7,2.6-5.5,3.5-8.5,4.9-13.8-.3-5,3.9-8.5,10.3-15.6,6.6-8-4.1-4.2-16.1-1.8-22.6,1.2-3.3,7.1-16,10.1-16.9,5.4-1.6,9.7,4.5,14.5,5.9h0ZM361.9,582.1c2.8-3.7,5.6-8.4,5.2-13.2-5.1,5.4-11.3,10.7-14.9,17.3-1.3,2.3-5,10.1.2,5.4,2.9-2.6,7.3-6.5,9.6-9.6h0Z"/>
      </g>
      <path d="M283.4,569c2.2,3.3-10.5,25.9-5.1,31,1.3,1.3,3.1.7,4.5,1.5-2.1,2.2-9.1.1-9.8-2.6h-1.1c-4.8,5.8-9.8,13.8-18,7.4-6.2-4.8-1.9-11.3,1.3-16.7,5.2-9,12.7-16.5,21.6-21.9l6.6,1.2h0ZM272.3,578.6l-4.5,4.1c-4.5,6-7.6,12.9-10.5,19.8,1.5.3,2-.2,3-1.1,1.1-1,5.5-7,6.5-8.5,2.8-4.4,4.6-9.2,5.5-14.3Z"/>
      <path d="M709.1,507.4c10.8,3.1,21.3-2.7,32.1-2.2-.7,4.2-5.7,6.1-9.2,7.6-5.1,2.3-13,5.2-18.5,4-5.6-1.2-8-3.9-9.5-9.2-3.7-12.9,13.2-23.2,23.6-27,4.4-1.6,16.4-5.6,16,2.4-.3,5-4.2,3-6.3,3.4-6.3,1.2-12.9,4.4-18.1,8.2-2.2,1.6-12.5,9.8-10,12.6h0ZM723.2,485c-3.9.8-8.4,4.2-11.7,6.6-.9.7-2.1.8-1.7,2.4,0,0,13.5-9,13.5-9Z"/>
      <g>
        <path d="M129,582.6c4,3.6,3.3,19.4.2,23.4-3.1,4-6.6,3.8-11,5.6.5,11.6,5,7.5,9.3,1,4.2-6.3,6.2-13.6,9.8-20.1,4.8-2.4,5.2,6.3,8.6,5.7.6-.1,5.5-8.4,7.9-10.1,1.8-1.3,7.1-4.2,8.2-1.2-4.1.8-4.7,4.9-6.4,7.5-4.9,7.2-8.2,13.9-11.9,21.8l-6.3-3.1c-.8-1.3,1.1-11.5,1.3-13.8.2-1.5-.2-1.1-1.4-1.1-3.1,8.9-6.6,30.5-20.5,22.4-5.2-3-3.7-6.9-5.5-10.9-1.2-2.7-5.2-2.7-4.7-6.2l5.2.8c.9-5.4,4.1-24.5,11.6-24,.8,0,4.8,1.9,5.4,2.5h0ZM125.4,586.9c-1.6-.3-1.7.8-2.4,1.7-2.5,3.6-3.2,10.4-4.3,14.8,1.5,1.6,4.8-5.6,5.1-6.5,1.1-3.1,1.5-6.7,1.7-9.9h0Z"/>
        <path d="M96.9,633.3c-11.9.4,0-22.9-2.2-25.4l-12.4,3.7-2.7,20.5-1.8,1.3c-4.8.4-3.2-7.6-3.4-10.9,0-1.5-.8-2.9-.8-4.5,0-2.5,2.1-5.1-.3-7.2-.6-.5-7.2-2.6-6.4-3.7l7.5-.8c1.1-7.7.4-15.9,1.6-23.5.6-3.7,1.9-5.5,5.8-3.6,4.1,1.9.5,6.5.2,10.3-.4,5.3.8,11.3,0,16.9,6.6,0,14.4-3.2,15.7-10.2.8-4.2,1.5-12.8,1.6-17.2,0-2.1-1.2-4.1-.8-6.8.4-2.7,4,.2,4.8,1.2,4.2,4.9,2.2,22.1,1,28.6-1.9,10.2-5.9,20.8-7.3,31.3h0ZM94.7,624.3c2.7-9.2,5.5-18.7,5.2-28.5l-5.5,23.1.3,5.3Z"/>
        <path d="M174.7,608.4c-2.3,2.1-5.9,2.5-8.8,1.7l2,6.8c3.8.9,5.3-2.3,8.5-3-1.7,9.8-15.2,6.3-16.4-1.9-1.2-7.5,3.8-30.2,14.2-27,8.6,2.7,5.7,18.8.5,23.4h0ZM173.4,589.9l-4.3,5.8-3.2,9.9c1.4,1.6,5.4-6.4,5.8-7.3,1-2.6,1.6-5.6,1.7-8.4h0Z"/>
      </g>
      <path d="M513.3,475.4c1.5,7.8,5.3,14,3.9,22.3,5.4.2,10.8,1,15.7,3l-.8,2.2c3.4-.9,5,7.8,5.1,10.3.1,3.7-5.4,12.4-6.8,16.8-1.3,4.1-3.7,11.6-1.3,15.2-3.2,3-6.9-1.4-10.8-1.9-8.1-1-20.6,3.7-27.9.2-1.8-.9-3.7-3.4-1.3-3.9.6-.1,2.9,1.4,4.5,1.5,9.1.9,18.3-2.8,27.3-.8,1.8-9.7,4.4-19.4,8.9-28.3.6-1.7-1.7-7.9-2.9-8.8-3.9-2.7-9.3,1.4-12.3,1.1-1.2-.1-3.8-1.9-5.3-2.2-1.3-7.3,1.8-15.6-3.7-21.8l-23.2,23.3c-1.7,3.1.4,5.1-5.4,5.1-5,0-11.5-1.3-16.5-1.4-27.2-.7-54.7,0-81.6,0-73.3-.1-146.1,9-218.8,15.1-11.8,1-24.5.3-35.3,3-8.3,2-23.1,1.1-32.1,1.5-9.3.5-21.1,3.9-30,0-1.7-.8-4.6-1.7-3-3.8,8.7,2.2,17.5-.2,26.2-.7,76.8-4.5,153.3-11.7,230-15.7,35.9-1.9,72.6-1.9,108.6-2.2,14.7-.1,29.5,0,44.2,0,2.4-.5,3.3-3.3,4.9-4.9,6.6-6.6,13.7-14.6,20.6-20.6,6.2-5.4,10.8-8.9,18.9-3.5h0Z"/>
      <path d="M213.1,583.1c.3,2.1-1.7,1.6-2.9,3.5-3.9,6.2.8,8.2,1.4,12.7.3,2.6-1.8,8-3.4,10-.8,1-5.9,5.6-6.9,5.9-1.1.3-2.1.2-3.2.2.5-5.1,4.7-8.9,5.7-14.2,1.3-7.5-2.9-19.9,9.3-18h0Z"/>
      <path d="M189.5,572.7c6.3-.4,3.9,14.9,2.3,14.9-1.1-.8-1.4-1.4-1.8-2.7-.5-1.5-2.4-12.1-.4-12.3h0Z"/>
    </g>
  </g>
</svg>