<?xml version="1.0" encoding="UTF-8"?>
<svg id="Layer_2" xmlns="http://www.w3.org/2000/svg" version="1.1" viewBox="0 0 1000 1000">
  <!-- Generator: Adobe Illustrator 30.1.0, SVG Export Plug-In . SVG Version: 2.1.1 Build 136)  -->
  <g id="Layer_1-2">
    <g>
      <path d="M640,471.3c3.7,3.3,2,9-.9,11.9-1.1,1.1-.6,2.8,0,3.7.5.8,1.7,1.6,3,1.4l6.2-1c1.4-.2.2,2.9-1.2,3.3-4.7,1.4-9.2,0-13.4-2.8-11.2,6.6-23.7,9.8-36.8,8.3-1.7-.2-3.3-1-3.7-2.7,2.3-.5,3.1-2.3,3.2-4.6.4-9,.4-17.9,0-26.9l-.6-12c-.1-2.4-1.1-4.5,0-6.9,2.5.4,6,.9,7.2,3.5,1.5,3.1,1.7,21.8,1.6,26.9,4,.2,7.6.4,10.9,1.9,6.9,3.1,2.4,9.7,4.8,11.5,3.2-.8,6.3-2.8,8.5-5,1.3-1.4-3.6-9.9-.5-12.3,2.9-2.2,8.6-1,11.6,1.7h0ZM611.4,480.1c-3.4,3-4.9,6.9-4.2,11.1,3.9-2.1,5.8-6.3,4.2-11.1Z"/>
      <g>
        <path d="M490.5,538.7c-4.9,1.7-7.2-5.7-14.8-7.7-1.9,2.4-.3,10.4-2.2,11.8-2.9,2.1-10.3-5.2-8.7-7.7,3.5.6,3.2-14.3,2.9-15.4-.4-1.4-3-1.9-3.2-3.3l-1.3-9.1c-.2-1.6-5-2.4-6-1-1.7,6-.8,13.6-1.2,20.1,0,1.3-2.4.7-3.2.1l-4.6-4c-2.5-2.2,1-15.1-.9-18.5-1.3-2.4-6.2-2.1-8.7-2-.6,4.8.9,9.7-2.5,13.6-1.1,1.3-5.1-.9-5.3-2.5-1.1-7.2,2.2-12.8-2.3-13.9l-11.3-2.7c-3.1,4.8-1.5,16.4-4.5,20.9-1,1.5-5.1-1.1-5.2-2.7-.2-9.8,3.7-19.5,0-20.6l-7.1-2.2c-3.8-1.2-8.4,2.9-12.2,4.8-7.7,3.9-15.2,6.3-23.2,9.2-4.9,1.7-10,2.8-14.1-1.3,1.4-1.8,3.4-2,5.4-2.6,13.7-3.7,26.3-9.2,38.9-15.7,3.2-1.7,7.1-2.3,10.5-1.3,1.8.5,1.6,2.9,4.1,4,2.7-5.4-2.3-15.7,3-15.4,1.2,0,2.4.6,2.9,2.1,3.3,8.5-1,15.5,4,16,3.4.3,7.3,2.9,10.9,2,2.1-.5,1.1-6.7-1.3-6.8-2.5.4-2.4,3.6-4.2,4.5-3.5,1.8,2.4-12.8-5-16.6-5.4-2.8-11.9-3-17.5-5.1l-9.8-3.6c-.8-.3-1.2-.8-1.5-1.2-4.7-7.5,24.4,4.9,27,4.1-1.3-4.4-3.6-7.3-5.7-10.7-4.4-7.3-8.4-14.5-13.3-21.6-.5-.7-.8-2.8.5-2.7,2.5.3,6.6.5,8.1,2.6,4.7,6.7,14.5,23.2,18,30.4,1.7,3.6,3.6,5.8,7.8,6.5,3.8.6,7,3.5,11.2,3.8-4-9-8.7-17.1-13.2-25.6-.6-1-1.9-4.1-.5-4.6,4.6-1.3,8.1,2.6,9.8,6.2l9.5,19.2c3.9,4.4,13.9,5.8,19.7,9.4l1.7-2.1c.6-.8,7.8,0,8.7,2.4.5,1.2-.1,2.7.7,3.3,1.4,1,2.6,1.2,4.4.7,3.1-.8,5.6,2.1,5.9,5.1.2,2.3,2,3.5,3.7,4.1,2.6.9,3.2-2.1,4.9-3.4,2.1-1.7,5.2-2.3,6.6-5.4l4.6,3,20.5-6.9c2.7-.9,5.1-1.9,6.6-4.6,5.1,3.3,2.8,8.1,3.8,11.2.3.8,2.1.6,3,1.4,6.4,5.2,11.2,12,18.2,16.5,2.1,1.3,2.9,2.5,4.5,4.3,5.9,6.5,13.2,11.6,19.4,17.6,2.7,2.6,1.4,4.6.9,7.4-.8,4-.2,8.1-.8,12.5,2.9-.9,4.2-10.7,6.5-10.4,1.7.2,4.4,6.6,4.7,7.8l5.2,21c.4,1.6-.8,3.5-1.4,5-4.1-2.9-5.2-18.7-7.8-23.8-2.8,2.5-2.3,5.8-3.7,8.4-1.2,2.2-3.5,3.8-4.7,6.9-2.7-1.5-2.2-4.1-3.7-6.3-1.1-1.7-5.1-2.1-6.4-.6-1.6,1.8-1.3,4.3-3.2,5.9-5.1-1.8-2.4-8.6-8.3-8.7-4.4,0-15.1-2.7-22.4-2.5-4.5.1-6.4-1.6-8.5-5.2-1.4-2.5-3.2-4.7-2.1-8.5-9.4,2.3-18.3,4.7-27.1,8.3-1.6.6-.6,4-1.4,5-1.2,1.6-2.8-.4-3.8-1.1-6.8-4-1.6-8.4-4.8-10.7-.9-.6-2.6-1.6-4.2-1.1h0ZM447.9,496.4c1.4-2.9,1.3-8.6-.1-11.2s-5.7-3-8.2-4c-.5,5.3-.4,9.3,0,14.5,1.7,1.1,7.2,3.1,8.4.7h0ZM463.2,484.9c-.7-1.7-3.4-1.9-5.2-2.8-1.4,4.9.2,10.6,5.7,13.1,0-3.3.8-7.1-.5-10.3ZM526.5,515.2c2-.6,4.4,4.1,3.3,5.3-2.2,2.6-7,3.4-10.1,4.7l-13.3,5.1c-2.4.9-2.1,5.4-1.2,7.3,7.2-1.9,13.9-5.3,21.4-6,2.8-.2,3.2,4.4,4.7,6.3,2.2-13.3,4.7-24.9,4.6-38.3,0-3.6,1.4-6.7.9-10.4-11,4.8-18.2,7.7-29.1,12.8-1.3.6-1.9,1.6-1.8,2.7,0,.6.5,2.3,1.6,1.9l19.4-5.9c1.3-.4,2.7-2.3,4.3-1.5,1.8.9,3.7,4.4,2.8,6.4-.7,1.6-3.5,2.2-5,2.7l-22.3,7.2c-1.8.6-1.9,6.2-.2,6l20.1-6.2h0ZM482.8,491.8c-1.4,5.6,0,10.3.3,15.8,2.3.3,1.2-14.7-.3-15.8ZM550.4,519.7l8.2-7.4-11.6-11.3c-.8-.8-2.2,1.9-2.9,1.8-.9-.1-2.7-2-2.2-2.6,1.1-1.2,2.7-1.6,1.8-3-.4-.7-.9-2-2-2.1-1.4,5.2-.5,10.2-1,15.6l-1.5,15.7c4.7,2.1,5.9-20.7,5.8-23.4,0-.7,1.5-.4,2,.1,4.5,5.5-2.2,21.5,3.4,16.5h0ZM494,526.1c1.2-1.1,3.5-.7,4-1.6,2.3-4.4-.2-8.6-.6-12.9-.2-2,3.3-4.3,1.5-6.8-.9-.2-2.3.5-3.5-.3.7-1.7.2-4.8-2.2-4.7-1.9,0-.9,2.8-1.1,3.8-.6,5.1-.3,9.8-.6,15-.2,4.4-1.7,9.6-.3,13.8.6,1.4,4.2,3.1,5.5,2.4,3-3.3-6.2-5.7-2.7-8.7h0ZM569.5,527.2c4-3.9-5-9.6-5.9-9.4-3.4.6-5.6,3.9-8.3,5.9-1.9,1.5-4.3,2.1-5.4,4.9,5.1.3,17.3-6.9,19.6-1.3h0ZM581.5,535.4c.8-1.3.3-2.8-1-3.6-2.4-1.4-3.7-3.5-6.5-4.8-.5,7.2-1.8,13.9-.5,20.6,2.9,1.9,4.6-6.4,8-12.2h0ZM567.5,546.6l.9-14.5c-3.1,1.2-5,3.5-7.6,5l-11.1,6.2c5.9,1.9,11,2.1,17.8,3.3ZM583.5,546.7c0-1.8.5-3.1-.4-4.5-.7,1-2.8,5.8-1.6,6.5.4.3,1.1.4,1.5,0s.6-.8.5-2h0Z"/>
        <path d="M480.2,470.1c-6.8-1.6-10.7-7-11.8-13.6-.8-4.7.2-9.9,1.1-14.6.5-2.3,2.5-3.8,4.1-4.4,3-1.1,9.8,3.2,8.5,5.7l-3-.2c-1.4,6.9-4.9,19.3,1.5,24.5,12.1-2.7,7-9.4,9.5-16.9,2.8-8.4,5-18.7,14.2-19.2,2.1-.1,4.8,2,4.7,4.2-.3,4.1.5,7.8.7,11.8.2,4.2-.2,8.1,1.6,11.9,2.8,5.6,6.9,2.3,7.8,3.7,1.7,2.5-7.2,2.4-11.5-.7l-2.1,7c-7.9,5.7-14.8-2.6-16-2.8-1.8-.2-3.6,5-9.4,3.7h0ZM498.8,463.8c1.8-3.9,5.1-16.4,2.8-17.8-1.4-.9-6.4,19.4-2.8,17.8Z"/>
        <path d="M564,469.3c-.7-4.9-1.8-12.8-5.2-12.2-2.8.5-3.4-2-5.1-3-8.5-5.2-6.1-9.6-8.2-21,3.6-1.4,6.9,1.3,7.5,5.1,1,7-1.6,9.6,2.4,13.4.9.8,1.5,2,2.3,2.1s3,0,3-.9l-.3-7.8c-.2-4.8-1.4-9.3-.7-14.3.2-1.5,2.7-.8,3.9-.5,2.2.6,4.2,16.1,3.9,19.8,2.9.5,9.3-5.2,11.3-2.6,1.2,1.6-7.7,6.3-10.5,9.6-3,3.5,1.6,12.9-.8,14.9-1.2,1.1-3.4-1.2-3.6-2.6h0Z"/>
        <path d="M545.2,459.4c-1.8.6-5.2-.8-6.5-2-2.9-2.6-3.7-6.3-5.7-9.6-2.8-3.4-1.5,15.2-3.1,17.5-1.9.2-4.3,0-5.8-1.2-2-1.7-2.2-4.6-2.4-7.2-.6-8.2-2.5-16.1-1.1-24.2.3-1.6,5-1.5,5.4,0,.7,2.1,0,4.2.4,6.4,3.9-1.5,10.3,1,12,5.3,1.3,3.4,3.6,6.3,4.1,10.2l3.6-.2c.8,1,1.2,4.4-.9,5.1h0Z"/>
        <path d="M407,459.5c-2.7-.5-2.6,1.2-3.7,2.4-1.2,1.3-3.6-.8-3.6-2.4,0-3.2-2-5-3.6-7.4-5.4-7.9-10.7-15.4-16.9-22.6-3.2-3.8,8.6-3.1,12.9,5.2,1.5,3,3.9,4.9,5.8,7.6,1.9,2.6,3.4,5.3,5.6,7.9,1.8,2,1.8,5.1,4.8,6.5.4.2.3,1.2.4,1.5.2.5-.7,1.5-1.6,1.3h0Z"/>
      </g>
    </g>
  </g>
</svg>