<?xml version="1.0" encoding="UTF-8"?>
<svg id="Layer_2" xmlns="http://www.w3.org/2000/svg" version="1.1" viewBox="0 0 1000 1000">
  <!-- Generator: Adobe Illustrator 30.1.0, SVG Export Plug-In . SVG Version: 2.1.1 Build 136)  -->
  <g id="Layer_1-2">
    <g>
      <path d="M747.9,437.3c-5.5.1-7.3-5.9-8-10.6-3.1,3-5.9,6.8-9.9,5.9-2.4-.6-4.8-1.9-5.5-3.4-.9-2-1-5.1.1-7.1,3.2-5.5,6.6-10.7,11-15.2,2.9-3,6.7-3.3,9.8-.3,1.4,1.4,2.5,3.3,4.7,4.6-3.3,7-6.9,14.4-4.6,22.4l9.5-13.9c1.2-1.7,4.3,1.7,6.1,3,4-4.2,6.5-8.8,11.8-11.5,2.4-1.3,7.4.4,7.2,3.6-.3,3.9-4.1,6.4-5.8,9.9-.9,1.9,1.7,4.7,3.7,5.4,3.3-5.4,6.6-10.5,12.3-13.4,2.6-1.3,5,1,7.2,2.4,3.2-3.7,4.9-8.3,8.7-11.2,1.9-1.4,4.2,0,5.4.9,1.8,1.5,2,3.3,1.9,5.5-.4,9.3-7.6,14.9-15.4,19.2,1.8,4.9,17.7-12.6,18.4-13.5,1.5-1.9,3.2-2.7,4.7-2,2.7,1.3,2.9,3.1,2.6,6.6,2.5-.7,3.8-3,6.3-4.2,4.4-2,9.1,1.3,9.8,6.1.5,3.2,1,13.5,6.5,13.7,1.6,0,4.9-.3,5-2.4.6-11.4,8.1-29.4,16.1-22.7,1.7,1.5,3.5,3.7,2.7,6.2-2.4,8.2-7.5,14.9-13.7,20.5.1,5.1,14.4-4.3,15.4-5.6,2.9-9.3,8.9-16.5,16.5-22l7.5-24.7c11.9,2.3,0,32.6-3,39l-3.2,6.7c-4.2,9-1.8,23.1-4.4,24.4-.7.3-1.1,0-1.2-1.1l-1.5-13.5c-4.5,2.9-8.1-1.3-10.8-3.5-18.1,9.2-9.4,2.4-23,2.1-7.6-.1-12.9-8.2-13.2-15.3,0-2.2,0-3.7-1.2-5.2-8.8,3.2-14.8,23.1-19.9,16.9-3-3.7,1.9-8.7,1-11.5-14.7,14.8-15.3,8-20.8,7-3.2-.6-6.7,2.6-9.9,3l-6,.6c-5.8,10.6-5.3,23.9-12.2,33.8-1.1,1.6-4.6-1.6-4.2-3.3,2.9-12.6,11.4-23.8,9.3-41.2-4.1,2.3-7.4,4.6-10.4,7.2-1.2,11.5-7.9,28.5-14.7,37.8-.6.4-2.5-.4-2.8-1-.3-.7-.8-1.9-.4-3l5.5-14.9c2.7-7.3,4.7-14.5,7.8-21.7.9-2,.6-4.3,0-6.3-2.8,1.4-4.5,11.2-9,11.3h0ZM893.7,414.9c3-4.9,4.4-10.1,4.4-15.8-1.7,5.3-3.5,10.1-4.4,15.8ZM729.1,429.4c6.9-3.9,10.7-9.8,14.6-15.6,1-1.6.3-5.1-1.3-5.2-3.5,0-17.2,17.6-13.3,20.8ZM801.3,424.4c4.5-3.1,8.3-7,7.7-12.9-3.1,4.2-6.4,7.9-7.7,12.9ZM857,433.4c5.1-4.5,8.2-10,9.5-16.5-5.8,3.6-8.2,10.1-9.5,16.5ZM783.4,433.3c5.9-2.7,7.6-7.8,9.3-12.5-4.3,3.3-9.1,7.1-9.3,12.5ZM876.9,442.2c4-2.4,7.7-5.6,8-10.7-.8-.8-11.4,8.4-8,10.7Z"/>
      <path d="M418.4,544.2c-5.9,2.5-10.6-5.4-10.3-10.5.2-3.9.6-6.9-.5-10.4-5.2,8.4-8.8,16.5-14.5,23.9-1,1.4-3,.4-4.1.2-5.8-1.1,2.1-19.3.8-24.9l-11.3,19.9c-1.4,2.5-3.1,4.5-5.9,4.3s-4.6-2.2-6.2-5.8c-2.8,5.2-6.6,8.1-11.6,5.5-2.4,1.2-3.8,4.1-6.3,5.1-4.4,1.6-7.5-3.1-7.6-7.3,0-4.9,1.3-9.1.6-14.4-5.7,5.3-8.9,11.7-12.4,18.2-.7,1.2-2.2,1.7-3.2,1.5-5.1-1.1,2.1-13.9-1.6-22.9-11.2,5.2-18,42-21.4,42.2-1,0-1.9-.3-2.8-1.2-.6-.6-.2-2,.3-3.4,3.6-9.4,6.6-18.4,8.8-28.2,1.1-4.8,2.5-9.6,5-13.5.5-.9,2.5,0,2.6.6.2.7.4,1.7.7,3.1,2.2-1.8,4.6-2.9,7.5-2.4,4.9,1,4.6,8.2,5.2,12l7.4-8.8c1.4-1.7,3.9-2.5,5.7-1.7,6.9,2.9,0,16.4,2,23,2.6.1,5.6-2.2,7-4.4.7-11.4,4.1-22.6,12.3-30.7,3.2-3.2,9.7-5.3,12-.7,2.6,5.3-8.1,22-4.9,30.4,7.1-7.4,11-16,15.6-24.5.9-1.7,2.8-4.5,4.9-3.2,6,3.9-.9,17.7.4,24.5,4.9-7.6,8.5-14.8,13.8-22,1.1-1.5,5.5-3.9,6.1-1,1.5,6.6-.9,22.2,1.2,24,3.2,2.7,14.2-17.9,15.9-20.8.7-1.3,2.6-1.1,3.5-1,4.1.3-3.5,10.8.8,15.1,3-1.3,3.2-4.1,5-5.7,1.4-1.2,3.8-.1,5.1.9s1.5,3.3,2.7,5.5l11-5.6c2.2-1.1,5.2,1.1,7.4,3.1-6.4,3.2-12.2,5.5-17.9,9.8-.2,9.1-2.2,17.5-5.8,25.8-2.5,5.7-10.4,26.5-18.4,22.4-12.6-6.5,3.4-35,7.4-39.1l10.6-10.8c1.3-1.3,1.1-3.9.2-5.4-2.1.8-2.3,3-3.9,3.4-3.9.7-7.3-2.6-9.4-5.4-3.5,3.2-4.7,9.4-9.6,11.5h0ZM357.7,543.8c9.5-9.7,10.4-15.8,13.8-28.6-6.7.6-15.5,22.4-13.8,28.6ZM424.6,587.7c8.8-12,14.9-25,17.3-39.6-10.8,7.2-16.7,18.7-18.5,31-.5,3-1.5,6.4,1.2,8.6h0Z"/>
      <path d="M236,558.7c-9.2,16.4-.4,15-3.9,25.8-7.5,1.1-7.3-11.3-7.4-17.2-4.3,5.6-4.8,12-7.1,18.3-.5,1.4-3.4,1.5-4.3.3-2.1-2.6-3.8-5.5-7.2-6.9-2.4,4-5.5,6.6-9.2,7.1-4.4.7-8.4-1-11.5-4.9l-7.9,5.6c.2,9-2.5,33.4-16.5,28.5-6.2-2.2-9-7.3-10-13.4-5,1.4-9.8,1.6-13.2-2.2,2.1-1.5,3.7,1,6.1,0,2.9-1.1,7.9-4,8.5-7.6,2.9-15.6,6.7-30.6,14.9-44.1.9-1.4,2.5-2.4,3.5-2.8,1.2-.5,4.3-.2,4.8,1.4,1.7,5.7-3.2,11.6-2.7,17.1.6,5.6,4.8,10.9,4.1,17.6,3.1-.8,6.5-2.8,7.2-5.6,1.4-6.2,3.1-21.7,11.2-19.8,2.9-2.7,7.4-13.6,14.2-10.1,5.4,2.8,3,22.8-1.4,29.6.4,2.4,3.5,4.9,5.8,5.7,2.6-6.9,4.2-13.4,8.1-19.3,1.8-.8,3.9-.3,5.9-.6,3.4-4.7,6.9-10.1,13.2-10.7,0,3.9-3.5,5.3-5.2,8.2h0ZM204.4,572.3c4.2-7.6,6.9-16.3,3.8-24.7-5,3.4-8.1,8.4-8.5,13.6-.3,4.1,2.1,7.9,4.7,11.1ZM171.6,551.3c-1.9.8-6.2,10.1-5.8,11.3,1.9,4.6,6.7-9.5,5.8-11.3ZM160.4,579.2c3.6-4.4,4.9-8.6,6.9-13.3-5.1,2.6-7.3,8.4-6.9,13.3ZM193.3,583.3c4.1-.9,8.3-4.4,9.4-8.1l-6.6-9.2-6.4,10.2c-.9,1.4-.8,3.3-.3,4.5.4,1.1,1.7,3,4,2.6h0ZM173.9,582.9c1-5.4-.7-10.8-2.6-15.2l-7.3,15.7c2.6,1.4,8.9,2,9.9-.4ZM167.4,609.9c4.7-6.9,6.8-14.5,7-22.8-4.3,0-7.7.3-11.8-.8-1.8,3.3-4,5.7-5.4,9.1-2.1,5-1.4,12.1,2.4,16.2,1.9,2.1,6.2.4,7.8-1.8h0Z"/>
      <path d="M445.4,437.9c8.6,7.7-.9,20.4-8.7,26.5-1.9,1.5-4.4,1-6.1.4-1.8-.6-3.4-2.3-2.7-4.9,1.8-.2,2.5,1.3,3.9,1.8,5-1.7,15.9-16.5,10.2-22-6.2,3.5-8.4,12.4-12.1,14.1-3.9,1.7-7.1-2.1-8.7-5.9l-5.5,11.6c-1.4,2.9-3.9,5.2-6.5,5.3-3.8.2-6.2-1.6-8.9-3.8-1.5-.4-4.2.6-5.6-.5-5.4-4.6-.2-14.3-1.6-22-6.7,6.7-11.4,14.3-16.3,22.2-1.4,2.2-2.8,3-5.2,2.6s-3.5-3-2.8-5.7c5.4-19.2,6-43.2,8.8-52.5.3-1.1,2.6-.4,3,.2s1.4,1.8,1.1,3.1c-1.4,5.2-1,10.3-1.9,15.5l-5.3,30.9c4.9-5.4,13.3-22.1,19.9-20.9,8.5,1.5.1,20.8,2.8,24,6.3-2.5,3.6-13.4,12.6-27.3,2.5-3.8,8.2-6.7,12.1-3.7,1.2.9,1.9,4.2,3.9,5l.7,18c3.1,3.2,5.1-9.1,11.9-13.5,2-1.3,5.6.4,7,1.7h0ZM421,433.4c-1.6-1-1.9-2.4-2-4.3-7.8,3.1-14.3,25.5-13.6,32.5,7.3,0,15.1-23.6,15.6-28.2h0Z"/>
      <path d="M715.4,445.7c-10.2,0-.3-20.8-.8-24.7-6.1,3.5-9,12.2-15.2,9.8-1.7-.6-3.5-2.4-2.8-5.1.4-1.8,2.7-3.4.7-5.6-3.5,8.5-8.4,15.6-13.8,23-1,1.3-2.2,2.3-3.6,1.7-.9-.4-2.8-1.8-1.8-3.2,8.9-13.3,16.2-26.9,23.3-41.2l8.1-16.3c1.3-.2,3.5.6,4.1,1.7,2,3.7-.2,7.4-1.4,10.9l-10.2,28c4.4-1.3,10.6-12.5,15.6-10.4,8.2,3.4-3.9,20.1-3.3,28.2l4.6,1.2c-.7,1.4-2.2,2-3.5,2h0Z"/>
      <path d="M522.8,429.3c-.9,1.4-3,.5-4,0"/>
      <path d="M551.1,552.4c6.4-2.1,29.6-9.2,32.1-13.2.8-1.4,0-4-.2-5.5l-3.1-48.3c-5.7-2-12.3,6.2-16.7-.6,4.8-3.1,26.4-7.8,24,2.9-1.2,5.3-.5,10.2-.2,15.6l.8,14.7c.4,8.2.7,15.9,2.5,23.8-3.8,2.5-37.7,18.7-39.2,10.6h0Z"/>
      <g>
        <path d="M249,485.5c-2.6,1.2-3.5,4.8-5.7,7-2.4,2.4-9.4,3.1-10.4-1.2-2.3-10.3,6.4-30.6,15.8-25.8-8.1,6.5-13.1,15.6-11.9,26.3,14.9-9.9,9.6-32.7,19-27.4,3.1,1.7-5.5,12.9-3.8,18.5,7.3-2.4,4.7-16.1,11.8-9.8,1.9-3.7,4.4-20.9,11.4-17.4,5.3,2.6,4.7,11.5,5.3,17.2,7.8-2.8,17.8-18.6,24.3-16.5,4.2,1.3,3.8,11.6,1.4,16.9,1.7.8,4.4-.3,5.6-1.7-.4-6.2.9-13.3,6.4-16.9,1.9-1.2,5-.5,6.5.4,5.6,3.2,1,16-7.7,20.2.3,8.8,7.8,5.6,11.1,7.6-5.8,3.4-12.4,0-15.1-5.9-12.9.4-8.1,7.7-14.2,11.2-3.9,2.2-10.7-1.2-11.6-7.8,1.5-4.2,12.1-2.1,13.6-5.6,1.9-4.4,2.7-9.1,2.4-14.3-5.2,2.9-8.5,6.9-12.5,10.6-3.3,3-7.7,4.8-10.4,8.3-1.7,2.2-1.4,5.8-3.9,7.7-1.5,1.1-3.2.3-4.6-.9l-7.3,4-4.2,28.4c-.2,1.3-1.6,1.9-2.4,1.9-1.2,0-2.2-1.7-2.1-3.2,1-10.7,3-20.8,2.5-31.8-2.9.4-6.2-.8-9.3.3h0ZM316.4,470.7c4.3-3.3,8-8.3,6.1-13.8-4.2,3.6-6.1,8.6-6.1,13.8ZM276.4,476.4c-.3-6,.2-11.7-2.4-17.4-5.1,8.4-7.4,17-8.2,25.8,4.5-2.8,7-5.2,10.6-8.4ZM299,480.3c-3.9-.4-4.9.2-6.6,1.4-1.2,1.3,0,4.9,1.9,4.3,2.6-.7,4.1-4,4.7-5.8h0Z"/>
        <path d="M175.2,470.4c5.9-2.3,10.9,2.8,11.6,8.4,1.1,8.5-7.2,23.2-13.3,24.2-4,.7-8.2-.8-10.2-4.4-1.2-2.1,0-4.4-.9-7-2.9,3.1-5.9,4.9-10,4.2-3.3-.6-6.4-3.6-7.2-8.1-1-6.1,1.2-13.2,5.2-18,3.9-4.7,9.9-3.2,14,.6.6.5,1.2,1.1,1.4,1.6.3.7,0,1.6-.4,1.7-3.3.9-3.7-2.8-5.8-3-5.7-.7-12.9,17.8-7.5,22.4.8.7,2.4.7,3.4.1,12.7-6.7,11.2-19.4,19.7-22.7ZM179.9,472.1c-1.1-.7-2.4,0-3,.7-.4.5.2,1.1.8,2.1-5.4,6.7-10.1,15.4-9.2,24.6,7.7.9,19.8-22,11.4-27.4h0Z"/>
        <path d="M218.2,456.4c10.2-6.3-1.9,41.9,3.9,47.9-9.3.6-4-31.1-5.2-37.8-4.7,10.1-8,19.9-11.8,30.1-1,2.8-1.2,6.6-4.4,7.8-3.4,1.3-6.2-2.1-7-5.1-1.3-5.1-.6-9.7,0-14.9l2.9-31.1c1.8-.9,5.3,1.1,5.1,3.3l-2.5,26.2c-.6,5.9-3.1,11.7-.3,18,5.1-8.1,8.5-15.9,11.7-24.2l7.7-20.2h0Z"/>
      </g>
      <path d="M105,476.9c-2.1,12.7-3.6,37.7,14.4,38.6-2.8,3-5.8,1-8.3,0-20-8.6-8.9-35.6-12.3-57.3-.2-1.4,0-3.3.8-4.4,1.8-2.8,20-6.3,26.2,2.7-4.4,6.8-7.9-8.7-20,1.2-1.9,6.2.3,13.1-.8,19.4h0Z"/>
      <g>
        <path d="M652.8,441.2c-3.7.9-6.6-1-9.3-3.3-2.8,3.8-4.8,9.2-9.7,10.9-3.7,1.3-7-2.3-9.8-4.9-4.5,2.1-7,14.9-14.9,11-6.3-3.1-1.1-7.2-7-12.8-2.7,2.5-3.5,5.6-6.8,6.8-3.9,1.3-8.6-2.5-8.1-6.5.8-6.9,13.5-21.9,22.4-21.2-.9,3.6-4.3,4.6-6.6,6.7-5.2,4.7-10.4,10.5-11.4,17.6,12.9-5.5,12.6-22.9,19.2-15.1-1.5,3.8-5.5,7.4-3.8,12.4,4.9-8.4,9.5-26,21.8-26l6.5-16.4c.4-1.1,1.5-1.2,2.3-1.1,5.1.6.7,8.2-.2,11.4-2.7,9.2-5.8,17.7-9.4,26.5-1,2.5-.3,6.7,2.1,8,5.1-2.5,7.9-8.4,10.9-13.1,1-1.5,2.4-1.1,3.8-.7,2.8.9,1.6,4.3,3.1,5.7,1.8,1.7,2.6-4.6,6.2-3.7,6.4,1.7,4.5,13.8,3.5,19.6-1.8,10.6-7,19.9-12.7,28.8-3.2,5-7.3,8.4-13.5,9.5-2.8.5-8.7-.3-9-4-.5-5.4,3-11.1,5.4-15.4,4,.8-3.8,11.4-1.5,16.4,3.8-1.1,8.4-2.7,11-5.9,7.3-9.3,17.5-27.9,15.7-41.4h0ZM626.6,421c-9,8.1-15.5,19.4-17,31.4,9.5-4.9,16.7-21.7,17-31.4Z"/>
        <path d="M509.3,438.2c-3.4,5.1-4.4,10-9.2,13.1-3.9,2.6-10.9.3-12.8-4-3-6.9,8.4-24.6,14.2-29.7,5.2-4.6,13.8-5.5,17.1.9-1.8,1.1-2.7-1.2-4.4-1.2-14.2-.7-30.2,37.5-19.5,31.1,13.4-8,11.3-26,17.9-22.2,2.7,1.5-1.2,14.7,4.4,18.7,1,.7,4.8,1,4.8-.3-.4-12,6.5-34.7,12.2-44.5.8-1.4,3.8-.7,4.8,0,5.5,3.4,0,20.5-1.1,26.7-1.5,8-4.9,14.8-10.1,21-.5,1.2,1.9,3.2,3,3.3,8,.6,17.2-24.7,19.8-31.4.4-1.1,2.2,0,2.8.3.8.5.9,1.5.8,2.6l-2.5,19.9c1.6-.8,16.5-20.3,18.7-15.9l-15.5,20.3c-2,2.7-6.9,2.3-8.5-.2-1.1-1.8.7-3.6-.1-5.6-3.6,3.2-5.5,11.6-12.2,13.4-4.1,1.1-6.8-3.7-10.1-4.5-6.7-1.5-13.4-4-14.5-11.7h0ZM526.6,439.9c6-11.2,10.2-22.8,10.7-35.6-5.1,3.3-11.3,30.8-10.7,35.6Z"/>
        <path d="M577.1,441c-1.5,1.3-.4,4.5.6,5l4.8,2.3c-5.8,3.8-11.8-7.4-11.9-8.6,0-.9,1.3-1.5,1.6-2.6,2-8.6,6-16.6,12.5-22.5,1.8-1.6,3.4-3.1,5.6-3,1.6,0,5.1.5,5.4,2.6.4,3.1-2.6,5.7-4,8.3-3.8,7.2-8.5,12.8-14.6,18.5h0Z"/>
      </g>
      <path d="M488.3,529c-1.5,1.1-6.1-1.6-5.9-3.7.2-2.2,1.7-5.2,2.8-7.2.9-1.6,6,0,5.5,2.1-.8,3-1.9,5.8-2.4,8.8h0Z"/>
      <path d="M508.1,525.2c-1.4,1.3-3.9-.6-4.5-1.8-1.6-3.6,2.7-8.6,3.9-8.5,1.5.1,3.7.7,4.8,2.3-.6,2.4-1.9,5.8-4.3,8Z"/>
      <path d="M529.4,522c-1.6,1.4-5.3-1.1-4.6-2.8,1-2.9,3.1-4.7,3.9-7.7,2.5-.4,4.4.6,6.1,2.5-1.5,2.7-2.6,5.5-5.4,8h0Z"/>
    </g>
  </g>
</svg>