<?xml version="1.0" encoding="UTF-8"?>
<svg id="Layer_2" xmlns="http://www.w3.org/2000/svg" version="1.1" viewBox="0 0 1000 1000">
  <!-- Generator: Adobe Illustrator 30.1.0, SVG Export Plug-In . SVG Version: 2.1.1 Build 136)  -->
  <g id="Layer_1-2">
    <g>
      <g>
        <path d="M330.5,518.3c-.2-.2,0-1-.3-1.2-.5-.4-1.7-.2-2.7-1-3-2.2-4.3-16.1-5.3-20.2l-2.6-7c-2.6,3.6-2.8,8.9-3.8,13-.9,3.8-2.2,7.6-2.9,11.4-.4,2.4-.6,8.5-1.2,9.9-1.1,2.3-11.7,3-10.8-1.2l9.9-40.3c1.2-1.7,8.7-.4,10.8.4,3.1,1.2,6.5,6.7,7.8,9.7.3.8.8,2.4,1.7,1,.2-.3,1.5-6.8,1.6-7.6.2-1.9-.9-3.2-.9-4.7,0-2,1.2-5.8,1.6-8,.1-.8,0-2.6,0-2.7.5-.5,8.3.2,9.2,1.6.2.3,1.1,3.8,1.1,4.5.2,2.5-1.3,7.6-1.6,10.3-1,9.3-1.9,21-4.2,30.1-.3,1.3-1.2,2.9-2.6,3-.5,0-4.8-.9-5-1h0ZM334.3,481c.4-.5.8-3.1.8-4-2.4.3-1.7,5.1-.8,4Z"/>
        <g>
          <path d="M371.1,472.2c-2.8,7.1-7.3,14.1-8,22-.1,1.2,1.8,9.3,2.4,9.9.4.5,2-.3,2.3-1.3.4-1.2.7-7.9,1-8.2.4-.4,8.3-1.9,10.3-2.8s4.7-4,7.2-2.4c1.7,1.1-.4,5.3-1.6,6.4-2,1.8-7.4,2-8.4,3.6-1.9,2.8,2.4,10.2-4.8,10.5-4.8.2-12.8-3.8-14.9-8.3-1.4-3-1.8-8-1.4-11.3.6-5.3,6.3-18.8,9.2-23.5,3.1-5.2,8.9-6.1,13.9-2.8.6.4,3,2.7,3,3.1,0,.3-.8,4.3-.9,4.5-1.8,2.7-8.7.3-9.2.8h0Z"/>
          <path d="M398.9,518.4c-.1.2-2.9.1-3.5,0-2.4-.4-2.8-1.7-4.4-2.7s-4.4-.8-4-4c0-.3,3.6-2.2,4.4-2.8,2.4-2,4.9-4.9,7.2-7.2.5-.5,1.5-.6,1.8-.9.2-.2,1.5-3.1,1.6-3.6.8-3.6-1.8-6.5-2.9-9.6-2.4-6.8-2.5-14.8-.6-21.8.5-1.9,2.4-7.3,4.1-7.8,1.9-.6,10.1,1,10.6,2.7.7,2.4-4,1.6-5.2,2.8-.7.7-2.6,9.1-2.8,10.8-.2,2.3-.2,6.4.2,8.6,1.3,7.5,10.7,14.8,5,22.9-2.6,3.7-9,7.2-10.8,10-.8,1.2-.7,2.6-.8,2.8h0Z"/>
        </g>
        <g>
          <path d="M138.1,510.5c.5.6,12.4-5.6,14.1-6.2,2.2-.7,4.6.1,5,2.6-2.6,2.7-3,6.8-5.9,9.3-2.1-1.4.2-2.5.4-4.4.2-1.2,0-1.4-1.2-1.2-.8.2-6.6,3.4-7.8,4.1-5.4,3.2-4.5,3.4-5.4,9-.2,1.4-1.5,6.8-.8,7.6.5.5,7.8-2.5,9.4-3,1.7-.5,8.6-2.4,9.7-1.7.2.1.3,1.3.8,1.9.8,1,3.1,1,2.5,2.3-1.1,2.4-4.9,1.7-6.7,2-3.8.8-9.1,2.6-12.6,4.1-4,1.8-4.7,4.8-5.3,9-.6,4.2-.5,9.2-.9,13.5,0,.9-1.3,3.1-.8,3.6.9.9,9.9-2.5,11.8-3,5.7-1.5,16-4.6,21.4-5,.8,0,3.5.6,3.6,1.2.7,5.1-7,5.2-10.4,6.3-8.3,2.7-16.3,5.6-24.7,8-.7.2-1.4.9-2.1,1.1-2.4.6-2.5-.7-4-1.3-1.2-.5-3,0-3.8-1.8-.7-1.4-.6-7.3-.4-9.2.2-2.7,3.5-15.1,2.4-16.3-.2-.2-3.4,1.5-5.9.7-3.6-1.1.7-3.3,1.7-4.2.2-.2,0-1,.7-1.4,1.1-.7,3-.8,3.9-2.4.8-1.5,1.9-9.6,1.2-10.4-.1-.2-2.3,1.2-2.8,1.6-4.1,3.3-8.8,9.9-14.3,9.6-3.5-.1-2.9-1.5-1.2-3.7,4.5-5.9,11.8-9.9,17.2-14.7,4.1-3.7,2.5-6.7,2.8-11.5.2-3,1-5.2.7-8.8-.1-1.8-2.1-4.9,1.3-5.9,3.2-.9,5.8,1.3,7.1,3.9.4.7-.4,1-.4,1.2,0,1.9-.5,12.7,0,13.2h0Z"/>
          <path d="M271.2,486.7c.3.3,3.1,6.2,3.2,6.8,1.2,5.5-3.6,16.2-6.4,21.3-4,7.2-8.2,11.7-13.4,17.7-2.3,2.7-8.2,11.6-11.6,11.6s-5.6-1.8-6.4-3.2c-.4-.7-.2-1.7-.6-2.2-.2-.2-1,0-1.4-.7-1.1-1.7-.9-5.7-.7-7.8.8-11.3,2.3-22.9,1.6-34.4-.2-2.8-3-8.2,1.8-6.6,1,.3,1.5,1.9,3.2,1.4.6-.2,4.7-4.4,6.6-5.4,6.2-3.4,13.1-3.2,19.6-.7.4.2,4.2,2.2,4.4,2.4ZM246.6,530.4l9.1-12c3.6-7.4,10.9-19.7,9.1-28.1-1.1-5.2-8.1-2.5-11.3-.4-10.9,7-9.3,22.5-10.1,33.8,0,.8-1.9,5.5.4,4.3.9-.5,1.2-2.7,1.6-2.4,1.7,1.1,1.2,3.1,1.2,4.8ZM258.8,518.9l-3.4,4.7,1.1.8,3.4-4.7-1.1-.8Z"/>
          <path d="M213.7,533.4c-.3.3-2.9,1.7-3.4,1.8-2.7.4-3.1-1.3-4.1-1.5-.8-.2-1.6.9-2.7.3-3-1.7-7.7-15.3-9.4-19.4-.5-1.1,0-1.3-1.7-1-2.3,8.4-5.9,16.4-8.4,24.7-2.4,7.9-4,13.8-3.6,21.9.2,3.6-.3,6.2-4.4,6.8-10,1.5-6.1-6.4-4.6-12.5,3.5-14,7.7-28.8,12.5-42.5.6-1.8,2.9-4.7,3.6-6.8,2.2-1.5,3.3.7,4.6,1.1,1.1.3,2.5-.1,3.5.5.3.2,4.7,5.4,5.1,6,1.6,2.4,1.7,6.4,4.4,7.9l7.6-23.9c2.4-4.6,3.7-8.7,9.2-10,4.1-1,2.9,1.7,2.1,4.5-2.3,7.1-5.5,16.1-6.8,23.5-.2,1.5.2,3.2,0,4.7-.4,2.1-2.7,13.1-3.3,13.8h0Z"/>
          <path d="M283.9,529.4c-2.1.4-3.1,3.2-5,3.4-5.3.6-1.6-7.9-1.2-10.8.7-6.1,1.4-13.8,1.7-19.9.4-8.1.1-15.2-1.8-23-.2-.8-1-1.7.6-2.2,1.2-.3,6.4,1.5,7.2,2.4,1.6,1.7,3.3,6.9,3.5,9.2.4,3.6-.7,5.8-.8,8.7-.3,9.3-.3,18.5-2.6,27.8-.4,1.5-1,3-1.6,4.4h0Z"/>
        </g>
      </g>
      <g>
        <path d="M505.8,456.2c.7.7,6.3-1.9,7.7-2.2.9-.2,2.6-.4,1.9,1-1.2,2.3-8.6,4.4-9.5,7.3s0,10.5,0,14.3c-.3,7.2-.5,15.8-2.3,22.5-1.3,5-1.1,8.1-7.4,3.8.4-10.1-.4-20.2,0-30.3,0-1.4,1-2.6.9-3.9,0-.5-.8-2.8-1.3-2.9-.8,0-4.5,1.2-5.4,1.6-.7.3-.4,1.2-.7,1.4-.5.4-1.5.2-2.2.6-1.6,1-8.4,15.3-9.8,18.2-1.9,4-4.4,14.7-8.6,16.1-3.2,1.1-7.8.3-7.1-3.9.4-2.3,3.1-8.5,4.2-10.9,2.9-6.5,6.8-12.4,9.9-18.8.5-1.7-1.4-.9-1.6-1.5-.5-2.6.6-1.7,2.2-2.6,3.4-2,7-10.1,9.4-13.7,1.3-1.9,7.9-11,9.1-11.6,2-1,6.8.8,8,2.3.6.8,2,7.9,2.3,9.7.1.9-.1,3.4,0,3.5h0ZM496.3,455.4c-1.3-1.5-1.7,1.2-2,1.6-.6.9-3.4,4.2-2.8,4.8s3.9-.8,4.4-1.6c.5-.7.6-4.6.4-4.8Z"/>
        <path d="M538.5,444.3c-.2.1-3.4.4-4.8,1.2-2.4,1.4-8,9.3-8,11.9,0,4.9,6.9,6.8,9.6,9.5,1,1,4.5,6.1,4.6,7.3.4,2.5-5,5.5-5.7,8-5.2,3.5-9.2,7.6-16.1,6.6-1.5-.2-5.2-2.1-4-4,2.2-3.4,4.3-1.7,7.1-2.5,2.3-.7,11.3-9.3,11.6-11.6.1-.7-1.8-3.3-2.3-3.8-4.1-3.8-13.5-5.8-10.8-14,.9-2.7,6.8-9.9,9.4-11.3,2.2-1.2,7.4-2.2,9,.1.5.6.5,2.3.4,2.4h0Z"/>
      </g>
      <g>
        <path d="M646.4,467.6c-.2.2,0,1-.3,1.2-.6.4-1.7,0-2.6,1-1.6,1.6-3.5,7.7-4.2,10.2-1,3.5.2,8-4.6,7.4-9.4-1.1-1.1-15.2-1.2-20.3,0-1.4-1-2.7-.9-4,.1-1.5,2.9-4.1,3.7-6,1.5-3.7,1.5-8.9,2.8-12.8l-11.2,3.6c4.6-2.5,11.9-11.9,16.3-5.2.5.8.7,3.7,2.4,3.2,3.9-4.2,6.4-9.6,11.3-12.7,8.6,0,8.7,11.3,6.3,17.5-.4,1.2-1.6,2-1.9,2.9s0,2-.3,2.9c-.6,1.9-9.5,8.9-11.6,9.9-1.1.5-3.1.3-4,1.2h0ZM657.4,445.9c-.6-.6-2.4.9-2.8,1.6-.3.5.2,1.4-.2,2.1-1,1.8-8.5,11-7.4,12.2.7.8,2.3-1.1,2.8-1.6,1-.9,2.4-2.2,3.2-3.2,1.1-1.5,5.4-10.1,4.4-11.1h0Z"/>
        <path d="M792.2,449.8c.5.5,7-.6,8.2-1s5-3.2,3.8.6c-.6,1.7-9.5,3.6-11.4,4.6-2.6,1.3-3.7,7.2-4.3,10-.4,1.8-2.2,14.6-3.8,14.5-.2,0-3.1-2.2-3.2-2.4-1.9-2.7-.4-4.5-.4-6.8.1-3.7.3-6.1.7-9.6.6-5.3-1.1-3.5-4.2-4.5-.9-.3-1.5-1.7-2.5-1.5-2,.5-7.2,16.5-8.8,19.1-2,2.9-4.8,1.1-5.1-2-.7-6.3,5.4-18.3,8.9-23.8,3.7-5.8,8.5-10.3,12.2-15.7,1.6-2.3.5-4.2,4.7-3,.4.1,3,1.8,3.4,2.2,1.3,1.3,2.6,7.8,2.8,10,.1,1.9-1.2,8.9-.8,9.2h0ZM785,441.9c-1.8-.4-1.8,1-2.5,1.8-1.6,1.8-3.9,4.1-5,6.1-.4.8.3,1.4.8,1.5,1.5.4,3.5-.1,5.1,0l1.6-9.6h0Z"/>
        <path d="M687.7,437.1h8.8v2.4c-1.9,0-6.5.9-8,2-.9.7-4.2,8.5-4,9.6.4,1.5,1.4.7,2.2.6,3.2-.5,6.6-2.5,9.4-2.6,2.2-.1.9,2.4.3,3.1-.8.8-7.7,3.2-9.1,3.3-1.6.1-3.2-.9-3.8-.7-1.1.2-3,5.5-3.5,6.9-.9,2.7-2.7,8.5-3.2,11.1-1.5,8.1,4.5,4,8.2,1,2.9-2.3,4.4-4.5,5.6-8,.6-1.7,0-3.7,2.8-2,1.8,1.1-.7,7-1.7,8.7-1.1,1.8-3,2.9-4.2,4.5-.7.9-.9,2.5-1.4,3-.4.4-5.2,2.3-6,2.4-4.5.7-10.2-5.4-10.6-9.9-.2-2.5,1.7-10.6,2.6-13.3.7-2.3,4.9-10.6,4.5-12-.3-1-2-1.5-1.5-3.3.3-1.1,5.2-2.6,6.2-7.4.3-1.2-.2-4.7,1.4-5s6.6,3,5.2,5.6h0Z"/>
        <path d="M609.9,456.2c-2.5-.4-8-2.7-9.9-4.4-1.3-1.2-2.1-1.8-1.5-3.8.1-.4,5-4.6,5.9-5.3,2.5-2,10.3-8.1,12.9-8.6,3.1-.7,7.4.8,10.1,2.4.6.3,2.4,1.6,1.7,2.3l-6.3-.8c-4.1.3-11.2,5.9-14.4,8.8-.6.5-3.6,3.3-3.6,3.6,0,1.9,9.1,1,10.8,1.2,3,.2,9.3,1.6,11.5,3.6,3.4,3-1.5,8.6-3.6,11.6-.9,1.2-1.2,1.5-2.4,3.2-1.6,2.4-10.1,8.7-12.9,10.3-3.3,1.9-8.4,4.5-11.1.1-.6-1,1.4-4.7,2.1-5.9,3.2-5.2,9.2-11.8,14.3-15.2.6-.4,1.5-2.2,2.4-.8l-13.6,18.3c.3,1,1.7.3,2.4,0,5-2.4,13-11.7,16.3-16.4.8-1.2,2.1-2.5,2-3.9-4.1-.4-9.2.6-13.2,0h0Z"/>
        <path d="M842.5,473h13.2c.5,0,2.2-2.1,4-1.6s1.2,3.7.3,4.6c-.5.5-11.2,4.8-12.2,4.9-3,.5-10.6.5-12.7-1.6-4.7-4.6,0-12.4,2.6-17.3,4-7.6,9.3-14.4,12.8-22.4.3-.8-.2-1.3,1.3-1.1,1.9.3,3.9,3.6,4.2,5.3,1.2,5.6-7.9,16.5-10.7,21.8-1.1,2.1-2.1,4.9-2.8,7.2h0Z"/>
        <path d="M729.2,438.7c-.6.5-3.2-1.4-4.4-1.6-5.6-.8-9,2.7-12.4,6.8-2.5,3.1-12.2,18.4-12,21.5,0,.6.9,4.1,1.2,4.5,1.1,1.8,7.1-.2,8.7-.8.7-.3.4-1.2,1-1.6,1.2-.9,3.8-1.5,5.3-2.5,6.3-4,12.1-8.7,18.5-12.6,1.6-.3,1.5.5.8,1.6-2.8,4.1-11.2,9.4-15.2,12.7-.8.7-.9,1.8-1.3,2.2-.6.6-11.2,5.4-12.3,5.6-8,1.7-13.4-6.1-12.1-13.7,1-6,12.7-22.3,17.8-26.1,3.8-2.8,10.8-2.2,14.4.8.6.5,2.7,2.5,2,3.2h0Z"/>
        <path d="M777,431.5c.4,2.3-.6,1.2-1.8,1.8-5.8,2.5-11.5,2.9-17.2,5.6-1.5,4.6-2.1,9.6-3.7,14.2-1.6,4.7-4.4,9-6.4,13.5-.6,1.3-3,10.4-4.8,10.4-1.1,0-3.8-2.9-3.5-4.3.2-.8,1.8-1.5,2.2-2.6.3-1,0-2.3.5-3.5,2.3-7.2,6.9-16.8,8.3-23.6.2-.9.2-1.8.2-2.6-4.8,1.3-11.1,4.3-15.1.4-2.3-2.3-1.8-3.1,1.2-3.6,1.8-.3,3.8-.6,5.6-.8,2.6-.3,9.7.5,10.7-2.9.7-2.6-1.3-4.7,3.3-3.1,1.8.6,2.6,2.6,4.3,2.8,5,.8,11.2-2.5,16.4-1.6h0Z"/>
        <path d="M883.3,450c0,1.9-6.4,10.4-5.7,11,.2.2,3.3-.1,4.3,0,1.1.2,2.7.6,3.8,1,.9.2,2.8.4,2.2,1.8-.9,2-5.7,1-7.6,1.2s-3.8,1.2-5.9.9c-.2,3.2-6.8,11.2-.5,11.2,3.3,0,4.8-3.3,6.4-3.3,3.3,0,1.6,4,.2,5.4-3.4,3.3-8.6,3.7-11.8-.2-1.1-1.3-3.1-5.6-3.2-7.2,0-.7.7-5.3,1-6.2.4-1.4,2.3-4.9,3.2-6.4.8-1.4,5.4-6.9,5.4-7.3s-3.7-3.1-2.3-4.4c1.6-1.4,7.2-.3,7.3-4.3,1-.5,1.2-3.6,2.7-2.9,1.9.8,1.7,3.3,2.8,4.4,1.4,1.4,5.7.9,6.4,3.2.3.9-.5,1.7-1.6,1.6-2.5-.2-4.5-1.1-7,.5h0Z"/>
        <path d="M823.5,467.6c-.4.4-.6,1.5-1.3,2.2-1.1,1-4.2,2.4-5.6,2.4-5.2,0-10.2-10.2-10-14.8.2-4.5,2.7-10.3,5-14.2,3.4-5.9,7.9-11.2,15.4-10.1,2.8.4,8.9,6.7,8.4,9.1-.2.9-1,1.3-2,.4-1.2-1.1-3.1-5.4-4-5.6-.5-.1-6.6,3-7.5,3.6-3.4,2.5-9,15-9.6,19.1-1.3,9.8,5.8,7.2,11.1,3.1,1-.8,4.1-4.7,5.2-4.3,3.8,1.1-1.7,6.5-2.8,7.6-.7.8-1.7.9-2.2,1.4h0Z"/>
      </g>
    </g>
  </g>
</svg>