<?xml version="1.0" encoding="UTF-8"?>
<svg id="Layer_2" xmlns="http://www.w3.org/2000/svg" version="1.1" viewBox="0 0 1000 1000">
  <!-- Generator: Adobe Illustrator 30.1.0, SVG Export Plug-In . SVG Version: 2.1.1 Build 136)  -->
  <g id="Layer_1-2">
    <g>
      <path d="M711.8,505.7c2.8-4.1,10.7.8,11.2,2.8.2.8-.6,2.1.3,2.4,1.8.6,4.8-3.7,4.7-1.1,0,1.6-3.5,2.1-2.8,3.4,1.2,2.4,5.4,2.3,3.9,4.5-1.2,1.9-3.2-.1-5.5.4-.1,5.6-2.4,11.9-.9,16.9,3.1-1.5,9.3-13.7,10.7-17,1.8.5,9.4,1.9,8.9,4l-4.9,18.8c-1.3,4.8-2.5,9.2-3.2,14.2l-1.5,12.6c-.6,5-.7,9.7,0,14.9-2.1.1-3.9-.3-5.8-.6-4.7-.9-3-10.3-2.3-15.6l2.8-23c.6-4.8-6.4.5-11.7-5.9-2.3-2.8-2.5-6.6-2-10.2.3-2.6-.6-4.9.3-7.7.2-.6-.8-.8-1.1-.7-.5,0-1.1.6-1.5,1.3l-11.2,19.5c-1.6,2.8-3,6.2-7.2,5-1.7-.5-3.5-1.8-5.6-2.2.2-5.2,2-9.6,3.1-14.6l2-9,1.5-8.9-17-2.9c-7.5-1.3-14.5-2.6-21.8-5.2-1.2-.4-3.7-1-4.5.2-3,4.8-4.2,10.1-7.9,14.5-1.8,2.1-5.1,5.3-8,5.8-7,1.2-14.4-2.1-18.7-7.4-4.3-5.3-4.8-11.8-6.1-18.5-2.6,3.2-3.3,6.9-6.4,9.3-2,1.6-5.4,3.5-8.3,3.5-6.1,0-13.4-3.6-16.3-9-3.1-5.8,1.8-24.7.9-31.7-2.3,2.9-4.1,5.5-5.7,8.4l-9,15.6c-3.2,5.7-6.8,11.7-13.2,14.3-8.9,3.6-18-2.1-20.9-10.6-3-8.8-1.3-22.1,2-31.1,5.1-13.9,10.6-27.2,19.4-39,1.1-1.5,5.9-.8,7.2.3,2.6,2.2.6,5.7-1.5,7.9-2.1,2.2-3.4,5-5,7.7-6.7,11.5-11.3,24.1-14.1,37.2-.4,2-1.6,27.9,5.8,24.2,8.1-4.1,13.3-14.6,18.2-22.2,2-3.1,4.3-5.7,6.2-9,1.6-2.9,2.7-6,5.5-8.1-1.3,4.2-4.8,6.7-6.2,10.5-1.1,3.1-3.2,5.3-3.9,8.6,4.3-4.4,11.1-17,13.8-20.1,2.2-2.5,1.1-4.8,1.5-7.4.6-4.1,2.8-7.8,1-11.9,4.5-1.3,4.5.6,7.4-2,.3,2.2,2.8,2.4,3.3,3.6,2.4,5.5.8,11.3.4,17-.4,5.7-1,11.1-1.7,16.6-.9,7.9-2.5,15.4-1.1,23.4,3.9-.1,5.4-3.2,6.7-6.3,1.5-3.5,2.9-6.9,4.6-10.2,1.2-2.4,2.7-4.2,3.4-6.9.3-1.1,3.8-1.3,3.4-3.2-.7-3.5-.9-6.9.7-10.2,9.9.3,3.8,2.1,10.5,3.8l2.4,23.3c.8,7.6,1.5,15,4.1,22.3.5,1.4,2.8-.6,3.4-1.3,5.7-6.2,9.2-13.4,11.6-22.1,3.2,2.4,6.1,2.2,9.1,3,10.4,2.9,20.5,5,31.2,6.9l12.2,2.1c5.7,1,3-14.6,6.2-20.4,2-3.6,9.5.2,9.8,3.9,2.9,1.5,4.8,1.4,7.5,2.3,1.1,2.9,3,4.8,5.9,5.9,3.5,1.4,43.1,17.8,39.2,23.1-2-1-5.1-.9-7.2-2.2-8.8-5.6-17.7-10.6-27.6-14.3-5.6-2.1-10.5-4.9-15.3-8.5s-5.5,10-5.4,12c0,1.2,2.3,1.6,3.2,1.6,1,0,2.2-.9,2.9-1.9h0ZM705.3,513.2c.3-1.9-1.7-2-1.7-.2,0,1.2-1.2,1.6-.5,2.9.7-.7,2-1.4,2.2-2.6Z"/>
      <path d="M857.4,706.4c3.7.5,7.5.8,8.7,4.9-3.4,1.8-7.2-.5-10.5,0-4.4.5-7.7,1.1-12-.9l-21.3-10.2c-11.2-5.4-22.3-9.9-34.4-13-6.4-1.6-12.3-3.4-18-6.9-1.1-.7-4.6-1.2-4.8-2.8l-.6-25.8c-.1-5.1-.4-9.9-.8-15l-.8-11-.7-9.5-2.2-18.2c3.4-1.3,7.6-.8,10.8,1,4.4,2.5-1.5,5.9,8.9,11.6,14.5,7.9,24.7,16.5,25.8,33.6l1.2,19.8c5.7-3.4,10.4-4.9,16.3-4.4,1,3.4,4.8,1.6,6.8,3,3.1,2.1,5.8,6.5,6.9,10,4.6,14.5-3.4,27.3,2.1,29.1,5.9,1.9,11.9,3.9,18.5,4.8h0ZM823,665.8c-4.6.5-8.2,3.3-11.1,6.2l-5.1,5.2c-1.9,1.9-9.3.1-10.5-2.5-2.1-4.7-.8-27.6-3.9-41.3-2.2-9.5-8.6-14.9-18.1-20.1,0,9.4.5,18.3,1,27.5l.8,13.5c.3,6.2.2,12.3.5,18.6.2,3.6,2.1,6.1,5.5,7.3l16.7,5.3c9.2,3,17.9,6.3,26.5,10.6,1.6-1.5,1-3.2,1.2-4.9,1.3-7.7,2-19.2-3.4-25.5h0Z"/>
      <path d="M723.7,594.1l-17.2-3.2c-1.1-.2-47.9-10.7-46.7-10.3l-12.9-4.3c-5.3-1.8-10.2-4-15.4-5.9-4.4-1.6-8.2-3.4-11.7-6.6-.5-.4-1.2-.7-1.3-1.1-.9-2.9,7.6-2.2,10-1.1,1.7.8,2.2,3.3,3.9,4.2,7.8,4.4,16.3,7.1,24.9,9.2,1.3-3.5.4-6.4.7-9.5l1-11.8c.3-4.2,0-8.5.8-12.7.6-2.6,6.9-1,7.3,1.6,1,6.4,0,12.3-.6,18.8,2.1-.6,2.5-2.7,3.7-4.2,6-7.7,15.8-9,18.4-6.1,5.2,5.8,6.5.2,9.9,13.6l6.2-6.8c2.2-2.3,5.9-1.1,8.9.2,9.8,4.4,3.2,28.8,7.2,30.5,3.3,1.4,6.7,1.6,9.4,4.8-2.2.4-4.6,1-6.5.6h0ZM710.2,563.7c-6.2,3.8-6,10.6-9.6,11.7-1,.3-7.4-1-8.4-3.9-1.5-4.2-2.2-16.7-5.3-16.8-5,0-9.1,4.5-11.4,8.6l-5.6,10.2c-.6,1.1-1.1,4.4.4,4.9,12.9,3.8,26,6.1,39.7,8.8,2.5-7.5,1.2-15.8.2-23.5h0Z"/>
      <path d="M846.3,338.3l-15.6,3.2-43,9.7c-6.9,1.6-13.4,3.4-20.3,4.2-4.7.5-9.8-1.6-10.2-6.3-.1-1.3,2.7-.3,3.5-.3,5.9.3,11.7-1.6,17.4-2.9l49.9-11,41.2-8c5.9-1.1,11.3-1.8,17.2-2.6l21.4-3c2.8-.4,39.9-4.3,36.1-.3-1.6,1.7-3.9,2-6.1,1.9-5.7-.2-11,.9-16.7,1.2-6,.3-11.5.8-17.4,1.7l-12.3,2c-3.3.5-6.3-.3-10,.7,1.9,1.4,4.2,1,6.5.8,2.4,0,4.6-1.1,7.2,0-4.2,1.8-8.7,1.4-13.3,2.3l-35.6,6.6Z"/>
      <path d="M818.2,547l-19.5,2.5c-5.6.7-11.2-.2-16.7-.3-8.2-.2-25.5-1.8-29.8-9.1,5.8.2,9.9,2.6,15,3.1,14.5,1.4,28.7,1.1,43.3,1.2,2.7,0,5.4.2,7.7,2.7h0Z"/>
      <path d="M828.1,574.1c-5.8,2.3-1.8-1.9-18.4-2.4l-9.4-.3c-3.5-.1-27.5,4.7-33.3-5.4,21.3,4.1,33.4-4.2,54.7,3,1.9.6,4,.6,4.9,2.4-1.3.3-2.2-.5-3,.5,1.2,1.4,2.8.6,4.5,2.1h0Z"/>
      <path d="M821.3,528c.2,1.3-3.5,1.2-6.9-.5-8.2-4.1-16.8-6.2-25.7-8.3s-16.2-5.6-24.2-8.9c-1.3-.5-10.6-5.1-7.5-6.1,7.1,1.6,13.6,5,20.8,7.1l21.8,6.1c2.5.7,21.4,8.7,21.7,10.7h0Z"/>
      <g>
        <path d="M549.5,378.9c-2.2-4.2-4.4-18.5-.6-22.1,4.3-4.2.7-5.9,3.8-7.5.9-.5,3.4-.1,3.9,1.2,2,5.8,2.4,11.9,5.3,17.5.5-6.9.7-23.1,8.8-24.5,1.9-.3,4.1,1.2,5.9-.3-3.6-8.2-5.5-16.3-6.2-24.9-.2-2.4-.8-4.9-2.7-6.1-.8,2.7.4,5.1-.8,7.7-1,2.1-5.6,3.1-7.1,1.1-2.4-3.2-.6-16.7,7.6-16.5,1.2.1,1.4,2.6,2.9,3,1.4-3.3,1.9-11.5,6.7-12.9,1.6-.5,3.5.6,5.2.6,1.9,4.4,5,12.4,1.5,15.5-1.4,1.2-3.5,1.9-6,1.3,3.3-2,2.2-8-.2-10.4-.8,3.9-3.4,8.1-1.7,12,5.3,12,8.9,16.2,8.6,31,0,2.8-4.4,2.8-6.7,1.7.7,4.8,1.3,9.5-1.4,13.6-1.6,2.5-4.8,3.2-7.5,4.2-3,1.1,1,7.6-5.6,8.6-5.8.8-1.9,5.9-7.6,7.9-2.1.7-5.1.4-6.3-1.8h0ZM571.1,348.7c-1.7,1.4-3.8,13.3-1.5,12.6,3-.8,3.8-10,1.5-12.6ZM553.2,360.3c-2.2-6.6-1.9,15,.8,16.3,1.2-5.5,1.1-10.8-.8-16.3Z"/>
        <path d="M467.8,344.7c-.3-.4-.5-4.7,2.5-5.9,1.5-.6,2.4.6,3.3,2.5l7.4-4.7c1.2-.8,2.8-1.3,4.2,0l-8.6,5.9c-4.3,2.9-1.2,5.2,1.4,12.1,2.5-2.4,3-5.3,4.3-8,.4-.8,1.2-1.2,1.5-1.8.3-.5,2.2-.4,2.1.4-.7,4.8-3.1,9.2-5.9,13.4,1.8,3.9,5.7,12.4,10.3,11.5,2.4-.5,2.5-8.7,2.1-10.9-1.1-5.1-6.6-18.3-3.8-20.9.7-.7,3.2-.9,3.5.5.6,3,0,6,2.2,8.4.9-3.3,0-11.2,3.8-12.9,6.2-2.7,7.1,7.4,10,11.6,1-7.8-3.1-15,5.8-20.2l-1.2-8.4c-.2-1.8,4.2-3.6,5-1.8,4.6,10.5,1.8,24.6,9.4,29,1.2.7,2.7-1.3,3-2.5,3.3-12.9-2.8-20.5.6-21.6.8-.3,2.6-1.2,3.2.3,2.1,6,3.1,12,5.6,17.8-1.4,1.4-3.2.6-4.9.2-.1,3.2-1.7,5.5-3.7,7-5.3,3.9-8.6-2.6-10.8,1.5-1,1.8-2.5,3.1-3.9,3.5-2.3.8-4.2-.2-6.1-1.4-1.3-.8-3.8.6-4.5-.7l-6-10c-2.5,12.5,1.8,10.5-3.5,21.5-1.2,2.4.5,5.6-.5,8.2-1.1,2.6-3.6,4-5.7,4.2-8.8.8-10.6-7.1-13.9-11.7-.9-1.2-2.9-.4-3.8-1.6.4-.9,2.4-1.4,2.1-2.2l-4.3-10.9c-.3-.7-1.6-1-1.9-1.5h0ZM514.5,329c-5,6.8-.5,21.3.9,19.2,2.9-4.2,2.4-13.7-.9-19.2Z"/>
        <path d="M558.4,327.5c-9.2,5.2-9.3-11.9-13.6-12.5l-.6,12.9c0,1.5-4.2,1.5-4.7,0-2.1-6.4-3.3-15.6-9-19.1,1.4-2.1,4.1-2.1,6.1-.4,1.5,1.3,2.2,3,3.7,4.8,1.8-1.4,4.4-3.9,6.9-2.8,6,2.7,4,12.6,11.1,16.9h0Z"/>
      </g>
      <g>
        <path d="M917.4,712.9c-2.9-.3-6.6-.9-9-2.5-1.7-1.1-2.4-5.4-5.4-4.5-2.7.8-5,1.5-7.7-.6l-6.4-4.9c1.5-.9,2.6-1,3.2-1.6,1-1.1.9-2.9.4-4.8-1.9,1.1-4,1.7-6.1,1.1-2.5-.7-4.3-2-5.4-5.1l-2.8,8c-4.4,1-8-1.9-10.3-5.4-1.1-1.6-3.5-1.5-5-3.1,1.8-14,1.5-25.1-1-39.2,3-.7,5.1.6,7.5,1,1.8.3,2.3-2.2,3.7-2.7,8.5-2.8,17.7,1.8,20.5,10.5,2.3-1.2,3.7-3.6,5.8-4,6.4-1.1,10.2,3.2,14.4,6.7,2.3,1.9,7.5.3,9.3,4.3.6,1.3.9,3.2,1.5,4.9,7.7,3.9,3.7,9.4,5.1,16.3l5.3-8c1-1.5,6.8-.1,6.7,1.8-.5,9.8-1,18.8,1.4,28.3.2.9-2.6.9-3.2.5-6.9-3.6-10.4,4.9-19.3,1.1-1.2-.5-1.8,2-2.8,1.9h0Z"/>
        <g>
          <path d="M876.1,602.1c7.3,1.7,8.1,13.8,5.8,20.5-.8,2.2.4,5.3-1.1,7.1-1.2,1.5-3.7-.7-4.9-1.4-3.4-2,.9-11.3-2-23.6-.4-1.6-1.7-2.3-3.2-1.8-12.2,3.7-8.2,16.8-12.9,22.8-17,1.8,2.2-19.5-5.1-27.2-3.4-.8-9.6,2.6-11.6,5.6-10.1,15.5-5.1,28.9-13.9,24.5-2.6-1.3-3.9-3.4-3-6.4,3.4-11.1,4.7-22.3,5.6-34,.2-2,.1-4.1,1.3-5.8,2.1,1.2,4.1,2.4,6.6,2l1.3-10.8,4.5.7c1.4-1.6,1.5-3.6,2.7-5.4,3.4.4,6.3,1.8,8.8,4,1-1.6.8-3.6,2.1-3.8,1.2-.2,2-.1,3.5-1.4,0,1.8-.2,2.3.7,2.7,5.3,2.3,1.2-6.2,10.2-5l.6,3.3c2.1-1.5,3.8-2,6.2-1.5l-3.7-4.1c-1.5-1.6,3.9-27.9,1-33.8-3.2,4.8-3.8,9.6-5.8,14.2-3.1,7.4-.4,8.7-3.2,10.5-.5.3-7.4-.9-6.8-6.1.7-7,2.8-23.4-.8-29.5-8.5,9.7-17.1,31.9-18.7,43.3-.3,2.1.8,4.5-1.7,5.9l-4.5-1.2c-2.3-.6-4.3-2.2-3.8-4.8,3-15.1,6.6-43.9.4-58.7,3.6-1.2,6.4.6,8.3,3.3,6,8.8,2.3,10.1,5.1,18.4,4.2-5.6,6.9-15.9,14.9-13.5.3.6,0,1.8.4,2.2,1.5,1.7,4.3.8,5.8,2.4,1.8,2,2.1,4.8,4.2,6.4,1.1-1.3,1.4-3.9,3-3.7,2.3.4,5.4,1,7.4,2.5,10.1,7.9,3.1,30.8,2.8,41.3,0,2.6-1.4,4.3-3.1,6.2,3,.2,3.6,2.3,5,4s4.8.7,6.2,2.3c2.2,2.3,4.8,4.7,8.3,3.9.9-.2,1.1-2.5,2.1-2.6,2.4-.4,4.7.9,7.3,1.2.7,3.3,1.5,6.3,1.6,9.6,0,2.6-1.4,5.3-.8,7.9s.3,5.1.7,7.8c.2,1.6,3.7,1.5,5.2,1.4,2.8,7-.4,24.8-2.1,33.2-3.7.2-6.7-1.8-9.6-3.9-4.5-3.1-3.2.5-9.2,0-.6,1.7.3,5.4-1.7,6.2s-4.8-1.5-6.7-1.9c-.7-4.6.7-8.4.7-12.8l.4-24.5c0-.7-.8-1.6-1.1-1.9-1.7-1.4-1.6,3.8-8.9,1.2-2.8-1-4.2-3.5-5.2-5.8-3.4-2-18.8-2.2-21-3.8-.7-.5-2.3-.1-2.9.2-.7.5-1.2,2.6-.3,3,3.7,1.6,7.7,2.2,11.2,4.1,1.9,1,3.2,1.9,5.7,1.2,5.2-1.4,5.4,2.1,11.7,3.5h0ZM841.9,594c.2-1-1.8-.7-2.5-.7s-1.7,1.1-1,1.9,3.3-.1,3.5-1.1h0ZM906,606c1.7-.5,1.2-3,.8-4.1-.3-.8-1.4-1.9-2.6-1.4-2,.8-3.5,2.1-5.2,3.4,2,1.4,4.4,2.8,7,2h0Z"/>
          <path d="M904.7,570.6c-3.8,2.8-9.1.3-12.2-2.8,8.3-4.8,19.4-14.6,25.7-21.1,10.5-11,10.8-5.8,9.6-5-3.9,2.5-3.8,6.3-5.6,9.8-2.5,5-11.9,15.1-17.5,19.2h0Z"/>
          <path d="M902,544c-3.4,2.2-9.2.9-10.6-3.1-.5-1.2,2.5-2,3.4-2.6,8.4-5.9,18.7-18.8,27.6-22.2.9-.3,1.6-.4,1.9.2.3.6,0,1.3-.7,1.7-2.4,1.4-2.7,3.7-3.7,6-1.7,3.9-5,6.5-7.6,9.7-3.2,3.8-6.1,7.5-10.4,10.2h0Z"/>
          <path d="M905.5,511.3c-1.8,2.3-4.1,3.4-6,3.6-4.6.5-9.1-4.4-8.8-3.7-.3-1,0-2.3,1.2-2.8,7.4-3.4,24.5-17.9,25.7-13.6-3.4,8.9-5.3,8.1-12,16.5h0Z"/>
        </g>
      </g>
      <path d="M904.6,287.1c0,2.6,0,5,.7,7.5,11.4-.4,25.4-1.6,36.7,2-9.9,3.5-11.7-.8-27.1,1.6-2.8.4-10.4-1.2-9.9,3.4.3,2.8.4,5.5-.7,8.5-2.2-1.4-.7-8.5-1.9-11.7-5.7,1.1-11.1,1.8-16.8,1.7-7.6-.1-29.5,3.9-38.4,5.4l-34.5,5.9-6.9,3.1,7-.5,4.9-2.5c2.2.7,3.9.7,6.4.3l55.9-10,20.8-1.3c-3.2,2-6.8,1.4-10.5,2.6-7,0-13.6.8-20.4,2.1-5.6,1.1-11.1,2-16.8,3.1l-22.9,4.2c-11.4,2.1-22.2,4.1-33.7,5.7l-43,6-29.5,4.6-11.6,2-23.6,4.1c-15,2.6-29.4,5.8-44.5,7.4-9.8,1-18.9,2.6-28.4,5-4.7,1.2-9.3,1.9-13.8,3.6-2.1.8-3.6-.2-5.6-.9-1.1-.4-3-3.5-1.6-3.8l9.8-2.1c11.2-2.4,21.9-5.9,33.3-7.8l28.2-4.6c20.4-3.3,39.8-7.6,60.3-10.7l42-6.3,39.7-5.5,69.8-12.3,12.4-1.2c3.2-.3,6.1-.4,8.8.5,1-1.3,2.5-1,3.9-2.1M783,317.9c4.2-1,15.8-.9,17.1-3.6,1.2-2.5-7.5,0-8.7.1-6,.7-11.8.5-17.3,2.3l9,1.1ZM689.2,330.4c5-1.7,9.9-1.6,14.7-3.5-6.5-.4-12.3,1.4-18.4,2.8s-11.5,1.1-16.8,3.8c2.7,1,5.1-.2,7.6-1,.4.9,13-2.1,12.9-2.1h0Z"/>
      <path d="M575.7,463.4c-.3-1.5,1-2.3,2.2-3-.7,1.2-.4,2.4-2.2,3Z"/>
      <g>
        <path d="M93.1,475.6c-5.8-7.3,1.9-15.1.3-25.3-.2-1.7-4.1-2.1-4.2-4.4-.7-8.2,4.2-7.7,3.6-15.7-.5-5.7-.2-11.3-1.7-16.9-.4-1.4-2.3-1.8-3.7-1.9l-23.5-.4c-3,0-5.8-.6-8.8-.6-1.4,0-2.2-1-2.2-1.9,0-.8,1-2.2,2.2-1.9,3.5.7,6.5-1.2,9.6-1.3s23.1-.9,24.2-2.6c1.2-1.9-2.3-5.1-.7-7.5,1.1-1.8,3-2.8,4.9-3.8-2,4.7,3,2.9,3.2,7.9.2,7.1,29.7-3.6,29.7-3.7l15.8-13.3c1.4-1.2,3.1-.1,3.8,1.4,1.7,3.5-3.8,5.8-4.8,10.1,6.2-1.3,10.2.4,14.3-3.8.8-.8,1.6-1,2.5-1.2.8-.1,1.3,1.9,1.9,2,6.2.5,12.4-2.2,18.5-2.8,4.3-.4,8.4.3,12.8-1.1,2.2-.7,5.8.9,7.6-1.1l11.3-12.4c.7-.8,1.6-1.1,2.4-.9,1.8.4,3.7,5.5,1.8,7.5-1.5,1.6-3.3,2.9-4.3,4.8,2.9,1.4,5.7.1,8.6.2,3.7,0,5.9-1,8.2-3.8,1.7-1.9,6.6-6.1,7.6-3.9l2.7,5.7c1,2,6.5.4,8.9-1.3,2.9-2.2,4.7-5.4,7.7-7.3,2.4-1.5,3.9,5.8,3.9,5.5,0,.9-1.2,1.2-1.9,2.7,4.1,0,8.8,1,13.1-.3,2.3-.7,7.4-6.5,10.8-5.1,2.6,1.1-.7,6.1,6.2,6.3,9.3.3,18.2.8,27.5,1.6,4.2.4,8.2,1.5,12.2.4-1.8-1.6-4.1-.8-5-3.2,4.1-.8,7.8,1,11.5,2.5,2.3.9,4.1-.5,6.3-1l37-9.3c3.5-.9,7-6.1,11.2-2.8,5.2,4,13.4.5,19.8-.3,3.4-.4,7.2.8,10.9.6,11.4-.6,22.5-.4,33.8.8,9.1,1,17.5,4.1,26.4,5.5,3.5.6,5.9,1.8,9.2,3,13.4,4.9,26.9,8.8,40.8,11.9l20.2,4.4c9.5,2.1,18.9,3.5,28.5,4.9,2.6.4,5.3-.6,6,2.9-1.4,0-2.8.8-4.4.7-22-1.5-34.4-5.8-55.3-9.6,3,7.3.2,10.7-1.9,19,2.6-.5,4.2-2.5,6.3-4,19.3-13,20.8,2.2,29.2.8l10.5-1.7,18.5-5.2c.8-.4.5-3.2,2-3.3,2.3-.2,2.5-3.2,3.9-4,2.4-1.4,4.6-2.5,6.7-4.6,8.4-8.3,16.7-16.4,27.1-22.6,21.2-12.6,42.2-13.7,66.2-9.2,10.6,2,50.8,15.6,57.9,21.9l16.4,14.4c1.1.6,3.3-1.8,4.3-2.6,9.1-8.1,19.5-14.6,31.3-17.9,14.6-4.1,29.4-5.8,43.9-.2,5.3,2.1,10.3,6.7,13.4,11.2,2.9,4.2,4,8.7,6.5,12.9,2.4-1.3,4.8-2.7,6.8-4.5,5.3-4.7,11.2-7.6,17.2-11.3,5.5-3.4,11-5.9,17.2-8.3,4.6-1.8,8.6-4.1,13.7-4.4,11.9-.9,13.6-6.3,26.7-4.6l-1.4,2.7c-.4.8.6,1.3,1,2.2,5.8,12.3-4.1,53.9-7,56.8-.8.8-2.5.3-3.5.7-8,2.9-9.7,8.3-16.3,7.6-1.3,4.5-8.1,9-12.1,11.6-6,3.8-11,9.4-17.9,11.9-16.3,5.9-31.8.2-45.2-8.8-5,4.3-19,16.8-23.9,18.7l-9.3,3.6c-3.4,1.3-7.9,2.8-11.9,2.9-18.4.5-36.7-4.4-52.7-13.5-4.5-2.6-7.8-5.7-12-8.7-3.1-2.2-6.4-7.4-10.9-7-9.3.7-18.3,13.1-29.8,16.1-8.2,2.1-16.5,3.6-25,2.3-5.9-.9-11.9-.5-17.7-2.4-18-5.7-35.8-16.4-48.3-30.6l-16.2-18.4c-2.3,1.4-4.5,1.1-7.1-.2-3.6-1.7-8.2.9-12,1.1-13.2.7-25.9,1.3-39,3.7-1.4.3-3.4,1.8-4.3,2.7-3,3.2-6.5.5-9.5.4-21.4-.2-45.1,11.1-60.1,12.3-17.3,1.4-41.3-3.7-56.9-10.6-1.4-.6-3.4.7-4.7-1.3-2.3-3.5-30-16.8-35.4-19.5-2,2.3-.9,4.8-4.8,5.1-1,0-3-.5-3-2.2,0-2.2,2.1-3.8,2.5-6.2-1.7-2.3-16.3-10.4-18.3-10.4-3.2,0-8.2,1.3-10.8,3.2-1.5,1.1-1.8,3.1-3.8,4.2-4.7,2.7-9.1,6-13,9.9l-24.9,25.6c-4.9,5-14.3,4.3-20.8,3.7l-20.7-2c-6.5-.6-12.6-1.4-19.1-2.3l-49.5-6.6c-2.2-.3-4.3,1.8-5.8,2.9l-19,14.1-8.7,6.4c-9.3,6.9-17.9,14.3-27.9,20.2-6.8,4-9.9,8.2-13.8,7.6-1.1-.2-1.5-1.8-2.3-2.8h0ZM913.5,437.9c-3.5-13.7,2.5-34,6.9-46.6,1.1-3.1,1.7-6,3.1-8.9.4-1,0-2.2-.6-2.6-1.9-1.2-10.4,2.6-12.2,4.2-4.3,3.9-4.8,9.8-5.4,15.3l-1.5,13.5c-1.2,11-3.3,21.4-6,32.2-.3,1.2-3.3.1-4.2-.5-3.6-2.4-.9-24.1,0-30,1.5-8.7,6.7-21.2,4.5-24.3-9,4.7-15.8,10.8-23.6,17-2.4,1.9-8.6,2.1-11.3,1-7.1-3-8.1-14.2-16.8-23.4-3.2-3.4-6.6-5.6-11.4-6.1-8-.8-15.5.9-23.1,2.9-13.1,3.4-24.4,9.6-33.7,19.5-2.1,2.2-4.4,4.2-4.8,7.6-14.9-1.7-23.3-17-34.6-24.7-6.9-4.7-34.9-15.7-43.1-17.1-11.5-1.9-23-3.6-34.6-2-15.3,2-31.8,9.9-42.7,20.4l-14.8,14.4c-2,1.9-4.9,3.6-6.3,5.7-.2.7,1.3,2.2,1,2.9-.4.9-1.2,1.7-2.3,2l-5.8,1.8,21.7,24.3c8,8.9,17.4,15.6,28,21,13.5,6.9,29,9.1,43.6,4.7,11.3-3.4,23.8-21.3,42.3-17.6-.6.9-1.7.9-1.6,2.2l4.6.4c5,.4,7.8,4.7,11.6,7.3l14,9.7c10,6.9,33.5,14.6,45.7,8.8,15.6-7.4,19.1-9.4,31.2-22.5,11.8-.7,4.3-3.9,11-3.2,2,.2,3.7.5,5.3,2.1,6.3,6.1,14.2,9.9,22.9,11,3.9.5,6.2-.9,9.3-2.6,4.8-2.5,9.6-4.4,14.2-7.3l19.4-12.6h0ZM419.2,375.9c-3.3-.9-5-.1-7.3,0,0,2.5.4,4.6,1.2,6.9,2.4-2.5,4.6-4.2,6.1-6.8h0ZM462.9,388.5c.5,0,1.6,0,2-.7,1.3-2.5,4.1-3.5,5.4-5.8s-29.9-6.8-33.4-6.1c2,4.3,2.9,8,2.6,12.4-.4,5,4.3-2.9,10.8-5.6,7.6-3.2,11.1,5.7,12.6,5.9h0ZM394.1,416.6l9.1-23.3c2.1-5.4,3.4-10.9,3.1-16.9-4.3,1.5-6.4,5.1-9.2,7.6-12.2,10.9-10.5,13.4-18,27.2,4.3,1.8,13.3,9.7,15,5.5h0ZM459.3,405.5c-3.5,6.9-7.2,13.4-10.4,20.2-.7,1.5-5.6-.8-5.2-2.6,1.4-7,9.9-18.2,12.5-33.2,1.6-8.8-14.7,8.6-15.3,9.3-8.7,10.5-10.1,25.2-13.1,28.2-1.4,1.4-5.7-1.1-5.4-3.1,2-11.1,13.5-27.6,10.4-45-1.7-9.8-18.1,10.6-19.8,13.4l-7.5,12.2-7.4,16.1c9.9,5.1,27.3,9.6,38.2,10.7,9.8.9,19.6-.8,28.6-4.4,1.5-.8,1-3.6,1.5-4.9,4.7-10.2,9.5-19.9,13.1-30.4.9-2.5,1.5-4.9,1-7.8-5,.8-8.1,4.3-11.4,7.8l-6.8,7.4-3.1,6.1h0ZM395.1,377.5c-2.2-.8-3.6-.5-4.1.7-.4.9-.8,2.2-.2,3.6,1.8-1.2,3.4-2.4,4.3-4.3ZM374.2,408.4c5.7-13.1,9.3-15,11.8-29.7-5.1-1.9-9.6,1.1-12.8,4.9-4.7,5.7-9.9,10.5-13.9,16.9,4.8,3.3,9.1,6.1,14.9,7.8h0ZM353.2,396.9c1.9,1,3-2.3,3.8-3.2l10-12.2c-9.4,1.7-18.8,3.8-27.5,7.1-.2.9,1.1,1.7,1.9,2.2l11.9,6.2h0ZM501.5,404c2.9-2.3,4.6-4.6,7.1-6.8,1.5-1.3,3.4-1.4,4.6-3.4l-25.7-7.5c.2,4.1-1.1,7.5-2.6,11.3-1.2,4.5,3.8-3.7,9.6-5,3.1-.7,6.4,2,6.8,5.1.3,2.3-.4,4,.3,6.2h0ZM249,402.7c4.4-5.2,8.6-10,13.6-15-4,0-9.2-1.6-12.6.3-10.9,7.4-18.6,18.5-25.3,29.6-.4.7-1.1,1-.6,1.6.3.4.6.7,1.4.3,3.6-1.6,20.5-13.1,23.6-16.9h0ZM277.5,399.6c3.3-3.5,6.8-6.3,9.6-10.8-11.4-3.7-11.8,1.8-22.3,9.9-4.2,3.2-8.1,6.5-12.1,10.1-4.4,4.1-6.5,10.6-7.3,16.6,9.6-1.1,25.4-18.8,32.1-25.8h0ZM208.4,410.6c9.9-6.3,21.1-13.8,28.9-21.7-4.8-1.7-8.1.7-11.2,3.6l-17.8,16.3c-.7.6-.8,1.4.1,1.8ZM275.1,414.7c8.5-4.2,14.8-10,21.5-15.7,3.5-2.9,7.3-5.2,10.5-9.3-4.2-1.5-8,0-11.9-1.1-1.3-.3-2.6-.1-3.1,1.3,1.6,2.8,0,4.7-1.8,6.7-5.6,5.7-11.6,10.7-15.1,18.2h0ZM193.4,407.7l-7.9,5.8c-.6.4-1,1.2-.7,2.1.3.8,2.7-.4,2.3-.1,11.5-6.9,21.1-15.5,30.3-25.7-4.7-.2-8.8.4-13.5,1-2.7,3-5.9,5.1-8.5,9.1l8.3-2.6c-4.6,2.5-8.7,5.7-13.4,8.6-1.1.7.6,2,1.3,1.9.4,0,1-.4,1.6-.1h0ZM172.1,412.7c7.1-6.7,14.2-12.9,21.1-20.7-3.9-.9-7.3.6-11.2.6-7.4,11.2-16.4,17.8-25,27.5,4.1,4.9,10.8-3.4,15-7.4ZM316.6,394.3c0-.3-.2-.5-.5-.5s-.5.2-.5.5.2.5.5.5.5-.2.5-.5ZM141.1,417.7c8.6,4.9,12.6-4.6,16.9-10.2l9.7-12.4c-10.5,0-7.1,1.4-16.7,11.7l-10,10.8h0ZM132.8,415.3c5.2-6.1,9.5-11.7,14.8-17.4-4.4.4-10-.3-12.9,2.7l-12,12.3c3,1.3,7.5,3.8,10.1,2.3ZM487.7,421.8c-.1-6.6,5.6-14.2,6.2-21.2-9.5,6.8-12.1,14.3-17.9,23.3,4.7-.2,7.6-1.5,11.7-2.1h0ZM511,417.5c2.1-5.4,4-10.2,4.4-16-4.7,2.3-7.7,5.8-10.3,9.9-1.8,2.8-4.8,4.5-5.4,8.2,3.9-.5,7.3-.9,11.3-2.1h0ZM112.1,410.1c2.8-.7,4.8-4.5,6.5-6.5l-17.7,2.8c-1.3.2-2.8,0-3,1.9,4.7-.4,9.3,3,14.2,1.8h0ZM123.4,405.2c.7-.9.3-1.2-.6-.6-.7.9-.3,1.2.6.6ZM185.6,424.6l33.5,4.1c-6.6-7.7,1.2-10.8,1.6-17.4-5.6,3.3-9.7,6.8-15.2,8.9-5.5,2.1-4.8-6.2-8.3-2.9-3.6,3.3-7.7,4.9-11.6,7.3h0ZM545.3,412.9c-2.2-1.5-4.9-1.4-6.2.5,2.2.2,4,.9,6.2-.5ZM107.8,415.2c-3.8-1.6-6-1.7-9.1-2.3.1,4.3-.4,8,1.2,11.9l8-9.6h0ZM101.3,441.4c8.1-3.5,14.5-9.1,21.1-14.2,2.7-2.1,5-4,6.8-7.4-3.1-.9-6.1-2-9.1-1.9-1.9,0-2.7,2.7-3.8,3.9l-15.4,17.1c-.4.5-1.1,3.1.5,2.4h0ZM223.2,429.6c7.5,1.7,14.3,1.9,21.5,2.4-2.1-7.4-3.6-4.8-3-14.4l-12.1,8.3c-2.1,1.4-4.6,1.3-6.4,3.7h0ZM181.1,423.4c-.9-2.8-1.5-3.1-2.6-4.3-1.7,1.8-3.8,1.8-5.1,3.8,2.8,1.2,5.3.7,7.7.5h0ZM143.3,423.2c-3.7-2.2-6.4-.7-9,1.6-5.5,4.8-10.7,9.9-13.3,16.8,6.8-3.7,17.4-13,22.3-18.4ZM278.2,424.5c-3.6.1-7.2,5.5-10.8,2-1-1-.9-2.4-2.1-4.3-3.7,4.3-7.9,7-12.6,10.9,11.8.9,18.7,1.1,25.5-8.6h0ZM147.4,425.6c.6-.8.4-1.5-.2-1.6-1.2,1.6-2.6,2.2-3.4,3.9l3.7-2.2h0ZM156.8,426c.1-.9-2-1.2-2.7-.7-.8.5-1.5,3-.5,2.9,1.1,0,3-1.1,3.2-2.2h0ZM140.3,431.2c1.5-.8,1.8-1.3,2.5-2.2-.6-.4-1.1.5-1.9.6-.6,0-1.7,1.2-.6,1.6ZM99.7,452.5l-.9,13.2c2.6-1.5,5-2.1,7.6-3.1,12.3-4.8,23.1-16.2,35.7-23.7,2.4-1.4,3.9-3.8,2.4-6.7l-13.4,11.4c-3.1,2.7-6.6,5-9.9,7.4-2.6,1.8-5.2,1.7-7.2-.1-2.2-1.9-2-4-.8-7.9l-9.8,5.2c-1.8,1-3.5,1.6-3.7,4.3ZM147,439.1c.9-4.8-10.9,6.4-10.4,6.9,3.8-1.6,6.5-4.4,10.4-6.9ZM840.7,452c-.5,1.2.4,1.3,1,1.2.3,0,.5-.5.1-.8-.2-.1-.8-1.2-1.1-.4h0Z"/>
        <path d="M197.7,404.9c.8.4.5.9-.4,1-1.8-.1-1.6-1.1.4-1Z"/>
        <circle cx="205" cy="396.6" r=".4"/>
      </g>
    </g>
  </g>
</svg>