<?xml version="1.0" encoding="UTF-8"?>
<svg id="Layer_2" xmlns="http://www.w3.org/2000/svg" version="1.1" viewBox="0 0 1000 1000">
  <!-- Generator: Adobe Illustrator 30.1.0, SVG Export Plug-In . SVG Version: 2.1.1 Build 136)  -->
  <g id="Layer_1-2">
    <g>
      <path d="M516.7,462.5c-2.2,12.5,5.7,27.6,6.2,34.5.2,3.1-6.5,3.9-7.9,1.8l-13.7-21.6c-.7,5.7,1.2,10.8,2.3,16.3,2.8,13.7,6.5,11.3,3.4,16.7-.6,1-3.7,1.7-4.4.1-5.7-11.8-7.9-24.7-9.6-37.7-.3-1.9,1.2-3.4,2.1-4.1,4.4-3.7,11.5,5.2,14.4,9.6.7-6.6-2.7-15.5,3.1-18.2,2-.9,4.1,0,6.1.8,5.6,2.5,11.4,4,17.6,5.5.7-5.6,3.9-8.3,8.9-7.8,2.2.2,4.6,1.5,5.6,2.9,1.4,1.9,1.6,5.4,0,6.9-2.5,2.3-6.1,1.5-9.4,2.1-1,4.4-.4,8.7.8,12.8,7.5-.2,13.8-3.3,19.1-8.4.9-.9,2.3-2.1,3.3-1.1-2.4,6.3-8.1,10-14.5,12.2,2.5,4.8,5.7,9.2,5.5,14.6,0,2.2-3.6,3.1-5.4,2.5-13.3-4.3-14.6-22.1-14.6-34.6l-18.9-5.6h0ZM550.1,498c-.8-4.8-1.9-9.8-6.9-12.1-.3,5,3.3,9,6.9,12.1Z"/>
      <path d="M435.2,513.5c.2,1.9,1.2,5.4-.4,7.3s-4.8.2-5.6-1.6c-2.1-4.8-2.1-9.5-3.9-14.3-1.3,7.4-5.7,14.5-12,13.1-5.7-1.2-6.7-9.5-9.3-14.8-3.2,9.1-6.8,17.9-14,24.3-1.5,1.3-2.9,2.7-4.7,2.3-7.4-1.6-.8-7.1-6.7-19-3.1-6.2-2.6-11.7-1.7-18.4.4-3.2-1.2-18.2,4.1-15.5,1.7.8.1,6.1,1.4,10.5,5-3.1,10.3-2.8,15.9-2.8,2.3,0,4.1-1.1,6.2.5,4,3.1,5.7,22.5,10.1,29.1,5.6-3.9,5.5-20,7.9-25.1,1.8-1.3,4.9-1,6.6-.8l2.9,25.1c0,.4.8,1,.9,1.3.2.5.6-.4,2.1-1.1h0ZM388,524.5c7.9-9.2,10.3-19.8,10.6-30.5-1-2.9-1.4-5.6-5.1-6.2-3.3.5-9.7,3.3-9.7,7.7,0,9.6,1.9,19.2,4.2,29h0Z"/>
      <g>
        <path d="M666.1,467.6c-2.7,2.1-5.4,27.4-12.8,23.8-4.4-2.1-1.4-18.9-3.4-26.6-2.2,2.3-2.3,5.3-2.7,8.4l-4.6,32.9c-.2,1.8-1.4,3.2-2.2,4-1.1,1.1-3.3,1.3-5.3.4l4.8-29.2c.9-5.3,4.2-26.6,8.7-28.8,9.4-4.5,7.8,18.8,8.1,24.4,2.4-4.1,5-19.2,9.6-20.5,6.9-2,6.3,11.2,6,16.2-.3,4.3-2.4,8.1-1.2,12.4,5.9-9.9,8.1-24.7,13.3-33,1.2-1.9,2.6-2.7,4.5-2.4,2,.3,2.1,2.4,2.1,4.7,3.2-.7,5.3-3.6,9-3.1-.8,4.1-6,4.6-8.2,7.3-2,.8.1,19.7.1,19.7.2.5,7.7,3.7,10.1,1.2,1.9,1.5,4.5,1.8,6.2,3.5.8.7-.1,2.4-.7,2.6l-3.4,1c-.8,5.3.7,15.9-6.5,17.5-12.7,2.8-12.2-21.4-13-22.6l-2.7-3.7c-1.1-1.6,2.1-3,2.5-4.6.9-4.4.9-9.5-.5-14.2-4.9,9.7-6.3,19.6-10.4,29-1,2.3-3,3.5-4.8,2.9-6.8-2.3-.7-15.7-2.6-23.3h0ZM700.7,486.1l-9-2.1c-.2,6,.2,12.1,3.9,16.9,3.9-4.1,4-9.3,5.1-14.8h0Z"/>
        <path d="M608.6,516.6c-4.5.7-6.9-6.9-5.4-7.6,1.5,1.2,1.5,3.1,3.8,3,1.1-10.5,0-20.7-1-31.3-.3-3.1.2-6.1-1.3-9.1-2.8,1.6-27.4,7.7-22.9,1,.5-.8,10.2,1.2,21.8-6.4,1-.7.7-2.7,1.5-3.1,1.2-.6,2.8.1,4-.2,6.3-1.9,14-8.7,18.4-5.6s.2,31.8-1,37.8c-.7,3.5-2.5,6.5-2.7,10.3,0,1.5-1.4,3-2.7,3-1.5,0-2.8-1.5-2.5-3.4,2.7-14.5,4.2-28.6,4-43.4-4.8,1.5-8.4,4-11.9,7.3l2.4,23.4c.4,3.9.8,23.8-4.4,24.6h0Z"/>
      </g>
      <path d="M330,519.3c1.9,6.3.2,11.7-.8,18s-8,11-14,10.9c-13.4-.3-15.6-12-16.2-23.2l-4.7-2c3.5-4,6.1-7.7,4.4-12.9-2.4.8-5.1,1-7.3-.8,1.5-2.7,5-2.2,6.9-3.9,1.9-3.2-2.1-12.8,5.1-13.3,3.2-.2,4.4,2,4.6,5.9,3.2-1.3,9.6-12.4,11.9-8.5-2.8,6.3-7.7,10.8-12,15.9-.4,4.4-.3,8.6,0,13,2.8-.9,11.3-10.3,12.6-9.8,3.8,1.5-10.7,12.7-12.4,14.7-1.1,4.7.8,20.5,7.5,20.8,9.7.4,12.5-17.5,14.5-24.9h0Z"/>
      <path d="M438.9,481.5c-.7-2.6-2.2-6,0-8.3.8-.8,3.9-.8,4.4.2l4.3,18.1c1.8-4.3,5.9-15.4,10.4-14.7,11.1,1.8-16.2,18.8-3.1,28.1,2.5,1.8,6.2-1.2,7.5-3.4,2.6-4.2,3.4-8.6,4.6-13.4.4-.8,1.7-.4,2.4-1-.9-6.7-1.5-12.9-.9-19.7.1-1.4,2.4-1,3.4-.6,1.2.4.9,1.6,1.1,3.2l3.1,24.8c.4,3,1.5,6.1,2.4,8.5-1.5,2.2-4.8.6-6-1.3-2.4-3.7-2.2-7.6-3.3-12.3-1.8,3.9-1.4,14.1-7.8,17.2-3.5,1.7-6.6,1.2-10.8.2-1.9,5.4,2.3,12.3-3.3,13.3-1.6.3-3.1-.9-3.3-3.1-1-12.2-1.9-24.1-5.1-35.9h0Z"/>
      <path d="M341,537.4c-.5,4.4-3.3,15.5-8.8,12.5-1.7-1,1.8-9.9,2.4-17.3.9-10.9,2.4-21.7,6.4-32,1.5-1.3,5.8-1.8,7.3-.8,3.3,4,4.5,8.9,7.6,13.3.9,1.1,2.2-1.4,2.5-2.6,2.5-10.4,4.6-21.1,10.9-30.7,1.5,5.6-1.1,10.4-1.5,15.5l-.9,13c-.4,5.3-1.5,9.9-6.7,10.9-9.8,2-9.9-5.7-14.9-11.4-2.2,10.1-3,19.5-4.3,29.5h0Z"/>
    </g>
  </g>
</svg>