<?xml version="1.0" encoding="UTF-8"?>
<svg id="Layer_2" xmlns="http://www.w3.org/2000/svg" version="1.1" viewBox="0 0 1000 1000">
  <!-- Generator: Adobe Illustrator 30.1.0, SVG Export Plug-In . SVG Version: 2.1.1 Build 136)  -->
  <g id="Layer_1-2">
    <g>
      <path d="M403.4,437.6c.4.2.4,1.8.9,2.4.6.7,1.7,1,1.9,1.4,3,5.3,0,7.8-.2,13,0,1.7.3,7,.6,8.7.5,2.3,2.2,4.5,4.3,5.4-1.1,2.5-9.6.9-10.9-1.9-1.9,2.5-2.2,5.9-4.5,8.3-.6.7-6.5,4.6-7.2,4.8-1.6.6-8.5-.8-9.9-1.8-.7-.6-1.7-2.7-1.9-3.6-1.1-6.1,8-25.1,12.2-30.2,2.5-3,10.6-9.2,14.5-6.6h0ZM387,474.2c4.7-8.3,8.8-17.3,9.8-27-4.3,4.7-12,20.6-11.2,26.6l1.5.4Z"/>
      <path d="M297.1,455.6c0,3.4,1.5,6.3.1,9.6l9,.8c3.2,7.7,3.4,16,4.5,24.2,5.2,1.9,3.4,4.3-1.3,4.8-7.3.8-8-5.8-8.8-5.8-2.6,6.3-2.9,12.8-11.7,8.7l-1.4-41.3c1.5-4.2,6.4-2.3,9.6-1h0ZM304.6,490c.3-.3-.9-5.8-2.2-6,.1,2.1-1,6,2.2,6Z"/>
      <g>
        <path d="M303.9,557.4c3-.2,5.5-1,8.6-.7,1.1,0,2.2-.6,1.9,1.1l-11.6,5.6-1.8,15.7c1.5,1.7,21.5-16.2,23.6-18,.8-.7,1.2-1.8,2.6-1.5-7.4,10.3-14.4,20.5-26.3,25.9-.9,3.6,3.7,14,7.8,13,.4-.1,5.5-4.5,6.1-5.2,5.1-5.8,6.3-14.5,11.7-20.2-1,5.3.3,9.3-1.4,14.6-2.6,7.9-9.1,16-18.2,14.4-17.8-3.1-18-20.7-15.5-35l-9.7-1.5c1.7-3.9,6.5-1.2,9.6-3.1,0-2.9.4-12.6,2.9-14.2,1.9-1.2,6.8.8,9.2.4,2,2.4,2,5.9.7,8.6h0Z"/>
        <path d="M341.4,570.1c1,1.1,5.5-6.6,6.4-7.4,2.6-2.4,8.1-2.4,11-.8.5.3,3.3,5.9,3.4,6.5.4,3.1-1.2,6.3.5,10.7.8,2.1,2.1,1.5,2.6,3-9.4,1.6-10.2-6-13.1-12.7-.5,0-4.6,7-5.3,8.2-3.6,6.9-5.7,19.2-16.1,14.6l-.8-2.2,6-39.6c12.5-5.7,3.9,18.2,5.3,19.7h0Z"/>
      </g>
      <path d="M345,439.2c2.6,4.8,2.6,9.4-2.1,12.6l-1.9-7.5c-.7-.9-.8-.9-1.5,0-1.6,2-5.2,15.4-5.6,18.4-.4,3.7,5.6-3.2,6.2-3.6.9-.7,5.9-4.1,6.5-3.5-3.3,6.2-7.2,10.9-12.4,15.7-1.8,5.8,1.6,13.3,0,18.8-.4,1.3-2.2,2.6-1.9,4.4-2.8-.5-4.7-1.1-7.5,0-.5-.6-.6-13.2-.8-15.3-.2-1.9-2-6.3-2-6.7,0-.8,1.2-1.9,1.3-3.2.7-8.8.8-17.3,5.4-25.3,4.7-8.1,8.1-5.5,16.2-4.9h0Z"/>
      <path d="M267.7,516.7c-3.4,3.4-6.5,2.5-7-2.5-1.7-15,1.7-33.2-.4-49.2-.2-1.2-1.5-2.4-1.4-3.9,0-.5,2,.1,1.6-3.1-.2-1.5-1.5-.8-1.6-2.2-.4-4.9.4-11.9.1-17.3-.3-4.9-4-10.1,3.3-10.9,5.1-.5,5.5,1.7,5.7,6.4.1,2.8,0,5.9,0,8.9.6,24.5-.3,49.1-.3,73.6ZM263.4,479.5v13.5h.8v-10.9c0-.4,1.2-1.6.8-2.6h-1.5Z"/>
      <path d="M526.4,453.3c5-5,6.3-14,9.1-20.5,1.1-2.2,9.1-.9,10,.9.1,4,.3,17.2,3,19.5,2.5,2.2,4.8,0,6.8-.7,1.4-.4,1.1.4,1,1.4-4.1,1.8-10.1,2.2-13.8-.8-1.2-1-1.5-4.1-3.1-3.7-.9.2-4.3,12.6-12,12.8-5,0-8.8-1.9-9.4-7.1-1-8.3,1.9-19.7,3.6-27.9,1.9-3.1,7.3-2.6,7.7,1.6.6,6.8-4.5,17-3,24.4h0Z"/>
      <g>
        <path d="M514.9,533.7c8.5,7.4,3.7,32.2,1.3,42.3-2.6,10.9-7.5,22.5-18.7,27-6,2.4-18.5,3-16-6.6,2.6,0,2.1,3.8,4.5,4.9,5.4,2.4,8.2-4.9,12.7-5.7l-.6-1.3c.7-.4,1.6-.6,2.1-1.2,7.2-9.2,7.9-25.9,10.5-37.1-2.3-.1-2.3,2.8-4.2,4.4-3.3,2.6-10.8,3.3-12.1-1.2s5.2-18.4,8.8-21.6c.8-.7,7.5-5.4,8-5.5.3,0,3.4,1.3,3.7,1.6h0ZM507.7,541.7c-1.4-1.4-6.2,7.7-6.6,8.7-.7,1.4-3.9,7.9-1.2,8.5,3,.6,7.8-14.4,7.9-17.2h0Z"/>
        <path d="M432.6,531.4c.2,0,.1,1,.8,1.2,1.1.4,2.7.4,3.9.8-1,4,.2,8,0,12.4-.2,6.9-3.2,22.3,1.9,28.1.6.7,1,1.2,1.9.4l5.6-7.8,7.1-8.3c-2.4,4.6-5.5,17.3-11,18.6-7.1,1.6-11.9-3.8-13-10.3-2.1-.3-2.1,2.6-3.8,4.1-3.9,3.5-12,5.2-15.7.8-2-2.4.7-10.9,1.7-14,1.4-4.3,4.9-13.1,7.1-16.8,1.8-3.1,4.9-7.8,8.7-5.6.8-.2,1.5-5.1,4.7-3.5h0ZM419.3,566.4c4.1-7.7,8.2-15.8,9-24.7-5.9,6.8-7.2,16.1-10.5,24.3l1.5.4h0Z"/>
        <path d="M462.7,547.7c1.9.4,1.3-.5,1.9-1.4,2.3-3.2,3.6-8.1,7.4-9.9,3.2-1.5,2.8.2,4.7.6,2,.4,2.5-1.7,4.4,3.2,3,8.2-.7,17.8,1.9,26.2-8.3-.9-6.6-13.2-8.1-19.2-.3-1,.4-2.1-1.2-1.7-1.1.3-7.6,17.4-9.4,19.9-2.6,3.6-5,2.8-8.7,1.1.9-8.9,3.3-17.7,4.2-26.6.3-3.1-.7-12.7,1.1-14.6,2.1-2.2,4.7,1.2,4.9,3.4.2,2.9-1.1,11.5-1.6,14.8-.3,1.5-1.3,2.8-1.3,4.3h0Z"/>
      </g>
      <path d="M605.8,417.3c1.2,1,6.1-1.8,6.7.8-9.7,2.7-7.3,4.9-8.2,12.4-.9,6.5-2.3,12.8-3,19.5-.4,3.7.9,9.7-1.4,12.6-1,1.2-3.6.3-4.2-1-.4-.8-1-5.8-1.1-7.1-.8-10.1.7-20.3.8-30.3l-5.6-.7-.4-2.3h6.6c0-.1,3.2-19,3.2-19,11.9-7.7,7.9,8.7,6.6,15.2h0Z"/>
      <path d="M367.6,450.3c1.9-4.1,9.9-12.1,14.2-13.2,1.3-.3,1.4-.4,2.3.8-4.6,5.9-8.3,12.7-11,19.7-2.7,7.1-3.9,14.8-6.6,21.9-1.1,1.7-9.7-.8-9.9-1.9,2.1-8.5-1-20.3.6-28.5,1-5.1,7.4-2,9.4,1.1h1.1Z"/>
      <path d="M459.7,416.6c2.1-.3,7.5.2,8.5,2.4,1.7,4-1.1,21.5-.3,22.3h3c-2.5,2.6-3.3,4-4.1,7.5-2.2,8.8-1.8,19-3.5,28l-3.9,2.1c-2.6-.4-.5-14.6-.4-16.9,0-2.7-1.3-6,0-9.4-3.8.3-7.9,2.6-11.2-.4-.2-2.9,9.1-3.2,10.9-5.6-.1-1.7,1.1-5.3,1.1-6.4v-23.6h0Z"/>
      <path d="M517.4,425.6c1.6,1.7-10.2,16.9-11.5,19.6-1.7,3.5-1.8,7.6-2.9,10.6-.6,1.6-3.1,2.5-2.9,4.9-3.3,1-5.8-1-8.9-1.8l-2.7-25.9c1.3-1.9,7.7.6,9.1,2.2.9,1.1.8,3.6,2.2,3,1.3-.5,5.9-6.3,7.9-7.8.9-.7,9.3-5.4,9.7-4.9Z"/>
      <g>
        <path d="M638,430.8l6.2-13.3c1.1-1.2,8.5-.2,9.6.9,3,8.6,1.5,17.8,3,26.6l6.7-4.5c-1.1,7.2-5.5,11.1-12.2,6l-5.1-10.5c-1.5,3.1-2.6,8.1-4.6,10.8-1.1,1.5-2.1,1.7-3.3,2.7s-.7,3.1-3.6,2.2c-.5-.2-.5-1.2-1.1-1.4-1.3-.4-4.6-.5-5.2-1-4.2-3,4.6-35,6.6-40.6.4-.8,1-1,1.8-1.2,12.5-2.4.1,17.7,1.1,23.2h0Z"/>
        <path d="M709.9,418.1l-.6,2.6c3.1,1.5.7,7.3.6,10.4,0,3.4,0,6.8.8,10.2,1.1,1,6.5-6.1,8.6-6.7,1-.3,1.4,0,1.1,1.1-.2.6-4.6,7.7-5,7.9-3.5,2.1-7.8,0-11-1.5-1.1.3-3.2,5.1-4.2,6.3-1.4,1.8-4,3.9-6.2,3.3-.6-.2-.6-1.1-1.1-1.4-3.2-1.6-4.1-.3-4-5.7s5.8-20.3,9.5-24.3c3.5-3.8,6.8-4.9,11.5-2.3h0Z"/>
        <path d="M680.7,421.8c3.3-1.2,8.3-5.4,11.8-4,1.1.5,1.2.2,1,1.7-4.6.6-8.6,7.6-10.6,11.5-2.1,4.2-3.7,14.4-9.2,14.1-1.1,0-6.3-1.9-6.2-3.3l8.2-33.8c2.3-4.2,6.3-1,7.1,2.5.3,1.4-3,8.6-2,11.2h0Z"/>
      </g>
      <path d="M451.5,436c-5.1-1.1-6.3-1.9-10.8,1.5-5.9,4.4-6.1,8.8-2.2,14.9,4.2,6.5,14.4,7.2,8.4,16.8-2.6,4.1-5.1,3.7-9.6,3.5.4-5.4,3.8-9.2-.7-13.9-4.5-4.8-9.2-5.5-10.4-13.6-1.3-9.4,18.7-19.3,25.7-11.4l-.4,2.2h0Z"/>
      <path d="M392.1,529.9c3.1,2.7.5,12.9.2,16.7-.6,8.1-1,16.2-2.3,24-.5,3-1.9,9.5-5.6,8.7-1.5-.5.2-19.2-1.2-22.5-3.8,2.2-6.9,3.6-11.5,3l-.4-1.9,12.4-7.1,1.7-20c.5-2.5,5.6-1.7,6.8-.8h0Z"/>
      <path d="M740.5,397.3c.4.4,1.6,4.5,1.7,5.4.5,4.3-3.6,38.5-5.2,42-1,2.2-3,2.3-3.8.5-.5-1-1.4-7.3-1.5-8.8-.8-11.3-.3-26.1.7-37.5,0-1.1.3-2.8,1.2-3.4,1.2-.3,6.1.9,6.8,1.7h0Z"/>
      <path d="M587.1,430l.4-2.2c-3.4-5.9-10.8,11.8-11.4,14.1-1.4,5.1-2.8,13.1,1,17.4l7.5-5.2c1.4-.4-1.5,4.4-1.9,4.9-5.6,6.5-14.9,1.9-15.8-6-1.7-16.1,8.7-40,27-24.7l-6.7,1.9h0Z"/>
      <g>
        <path d="M621.5,504.2c1.4,12.4-4.3,25.7-3.8,37.9.2,5,1.4,15.5,7.5,16.1-.7,2.4-4,.9-5.6,0-4.6-2.4-8.3-9.3-9.3-14.3-2,1.9-2.1,3.7-4.5,5.6-3.6,2.7-9.9,4.1-13.5.9-7.5-6.8,3.9-23.5,12-25.6,1.8-.4,5.7,0,6.4-1.1l3.4-19.4h7.4q0,0,0,0ZM610.3,528.9c-9.1,1.5-15.5,10.3-14.2,19.5,2.8.6,5.5-2.4,7.1-4.5,1.2-1.6,8.1-14.1,7.2-14.9h0Z"/>
        <path d="M542.9,558.1c-9.5,1.3-7.4-12-6.5-18.1,1.9-13.9,6.3-28.6,9.4-42.3l1.4-1.6c3.8-.9,5.5,2.1,5.6,5.5,0,3.2-2.4,14.7-3.2,18.6-1.4,6.5-6.6,20.1-6.6,25.6v12.4h0Z"/>
        <path d="M565.5,555l8.1-1.3c-.9,4.5-6.5,4.1-9.9,2.8-3.3-1.3-4.5-3.2-5.5-6.5-.6-2.1-1.2-9.1-2-10.4-.4-.7-4.8-2-5.1-3.9l6.7.7c.7-8.7,7.1-17.4,16.5-11.6,10.1,6.4-4,14.6-10.9,15.3-1.5,5.5-1.3,10.1,2.1,14.9h0ZM564.6,534.2c1.5,0,7.5-7.7,4.1-7.5-.9,0-4.1,6-4.1,7.5Z"/>
      </g>
      <rect x="258.2" y="481" width=".7" height="15.7"/>
    </g>
  </g>
</svg>