<?xml version="1.0" encoding="UTF-8"?>
<svg id="Layer_2" xmlns="http://www.w3.org/2000/svg" version="1.1" viewBox="0 0 1000 1000">
  <!-- Generator: Adobe Illustrator 30.1.0, SVG Export Plug-In . SVG Version: 2.1.1 Build 136)  -->
  <g id="Layer_1-2">
    <g>
      <path d="M279,578.3c1.5,1.5-1.8,19.4-2.3,22.7-.2,1.3.1,2.6,0,3.9-.4,3-3.6,9.3,0,11.2.9.5,2.1.1,2.4.8l-1.3,2-5.1-.8c.3,3.5-5,14.4-8.4,14.4-1.1,0-5.9-2.4-7.1-3.2-.8-.5-.2-1.7-.9-1.7-2.5,0-4.2,4.1-8.6,3.1-1.5-.3-2.9-2.3-4-2.2-1.3.2-5,3.6-6.6,4.6-3.5,2.1-5.2,3.1-9.2,1.5-1.3-.5-2.5-2.7-3,.6-.4,2.5-1.5,14.5-2.4,15.5-1.1,1.1-7.2-.9-7.1-3.5,0-3.2,3-9.1,3.2-12.8,0-2.6,1.7-16.9.8-17.9-1.3-1.3-5.9-.6-6.3,1.2-.2.8,1.3,3.3,1.5,4.7.8,6.2-1.4,18.5-4.9,23.8-2.3,3.5-6.5,2.2-9.7.4-1.4-.8-3.5-3.6-4.2-3.8-.8-.2-1.9,1.5-3.9,1.6-6.8.4-6.9-6.7-5.2-11.7l.4-8.3c-2.7,2.9-4.4,7-6.1,10.6-2,4.1-4,8.4-5.8,12.5-1.4,3.1-1.2,8.6-6.2,7.9-2.9-.5-2.7-1.3-4-2.8-.3-.3-1.1-.1-1.2-.3-.1-.2-.9-4.6-.9-5.1,0-.8.7-1.6.7-2.4.7-9.1,2.5-18.1,4.1-27,1.3-7.3,2.7-14.6,3.9-22,.3-.3,6.9,1.6,6.4,3.6-.8,4.5-1.6,9.1-2.4,13.6-.4,2.5-1,4.9-1.4,7.3-1.4,7.8-3.1,15.5-3.4,23.3,1.2-.2,1.5-1.5,2-2.4,2.6-4.6,9.1-19.9,13.1-22,4.9-2.5,8.8,3.2,8,7.9-.1.7-1.1.3-1.4.6-.9.9-1.8,8.7-1.8,10.6s-.3,2.8,1.2,2c4.8-2.4,7-17.1,10.1-21.8,2.5-3.8,2.4-1.9,5.1-2.1,1.1,0,3-1.9,5-2.3,2.1-.4,4.2.1,6.2-.7,1.9,1,4.9,2.4,5.8,4.3.4.9-.3,2.5,1.3,1.8,2.3-.9,3.1-5.3,7.9-4.8,4.6.5,6.1,2.5,6.9,6.8.2,1.4-.4,1.3,1.6,1.2,1.8-5.5,2-11.2,4.6-16.5,1.5-3.1,3-4.9,6.8-4.1,1.9.4,4.2,3.3,4.3,5,0,1.5-4.1,9.5-5.2,11.3-1.1,1.9-4.5,5.6-4.8,7.1-.6,2.9,1.2,2.8,3.1,1.5,7.9-5.6,6-8.7,9.2-16.4,1.5-3.7,2.2-5,6.4-4.8,1.3,0,3.6.9,3.9.8,1.8-.4,1.1-3.8,1.3-5.1.4-2.6,1.2-5.1.8-8,1.6-4.4.8-10.9,2.5-15.1.7-1.9,3.7-1.4,4.6-.5h0ZM261.5,626.1c1.4,1.5,4.5-5,5.1-5.6l3.6-10.3c-2.8,1-9.9,14.8-8.8,16ZM209.7,617.3c-.8-1.1-1.4.1-1.8,1-1.5,4.2-4.9,9.6-5.3,14-.1,1.5.8,2.4.7,3.7,0,1.4-1.7,6.6-.8,7.6,1.2,1.4,1.7-1.1,2-1.5,3.3-4.8,6-13,6-18.8s-.7-5.7-.9-6h0ZM226.4,631.7c.3.3,2.5,0,3.2-.4,2.3-1.1,4.1-8.2,4-10.8-2.4.4-8.2,10.2-7.2,11.2h0Z"/>
      <path d="M525.6,457.8c.8.9,9.1-4.9,10.9-5.5,2-.6,2.1,0,1.9,1.9-4.3,3.7-12.2,6.6-14.5,11.8-1.4,6.6-3.5,13.5-4.6,20.2-.2,1.5.3,3.2-.1,4.6-.4,1.3-2.8,3.3-4.2,2.8-3.5-1.1-.6-3.5-.5-5.1,0-1.3-.8-2.5-.9-3.9-.2-4.1,1.1-7.6.8-11.6-1.4.4-2.1,2.1-3.2,2.8-1.3.8-4,.9-4.6,1.4-1.3,1.1-3.3,7.1-4.9,9-2.8,3.4-6.1,4.1-9.9,1.9-1.2-.7-4.5-4.7-4.9-4.7-.7,0-4.9,9.4-9.6,5.6-4.4-3.5-.1-13.4-1.1-18.4-.8.1-1.5,1-2,1.6-1.9,2.6-4.1,6.4-5.9,9.3-2.4,3.9-3.2,10.1-9.2,9.1-.2,0-1.8-2.6-1.9-3-.5-1.5-.1-2.8.2-4.3.9-4,4.6-13.7,6.4-17.5.5-1,1-2.2,1.6-3.2,1.6-2.2,4.1-1.5,3.6,1.2l-5.6,15.6,2.8-1.6,8.5-13.5c.6-.5,4.4.4,4.6.8.3.4-.1,2,.5,3.1.4.7,1.6,1.1,1.9,2.1.7,2.2-.4,4.2-.7,6.2l.4,6.8c1.8-1.1,2.1-3.2,3.2-4.8,1.7-2.3,3.6-4.2,5-6.9,1.1-2.1,3.4-9.3,4.9-10.3s2.5.5,3.5.3c1.8-.4,3.1-3,3.9-3.7,3.6-3.1,7.8-4.7,11-7,1-.7,1.3-2.9,2.4-4,.4-.4,5-4.2,5.3-4.3,1.4-.4,5.1,1.9,5.1,2.7,0,1.8-.4,11.9,0,12.4h0ZM519.2,449c-.5-.5-3.7,1.8-4.4,2.4-3.3,2.7-6,5.7-8.8,8.8-.6.7-1.5.6-1.9.9-.2.2-.2,2.1,0,2.2.3.2,1.2.2,1.9.8.9.8,2.9,2.2,3.4,2.7.5.5-.3,1.8,1.3,1.3,8.1-2.6,6.9-12.3,8.5-19.1h0ZM504,467.3c-1.1-1-6.2,1.8-7.2,2.9-1.2,1.4-3.7,7.8-3.8,9.6-.3,3.3,1.1,4.2,3.4,1.8,1.3-1.4,8.5-13.4,7.6-14.3h0Z"/>
      <path d="M766.5,390.8c1.1-.5,1.3-.8,1.8-1.8,3.3-6.3,5.7-14.2,8.7-20.8,1-2.2,3.4-1.5,4.3.2,1.3,2.6-2.1,7-3.2,9.6-3.3,7.9-6.5,14.2-10.1,21.8-.3.7-2.4,5.2-2.2,5.3.9.8,4.4-1.7,5.2-2.4,6.2-5,11.9-11.4,18.3-16.8,1.7-1.4,4-4.8,6.4-4.8s3.4,2.5,2.7,4.3c-2.8,5.4-6.3,10.4-8.8,16-.6,1.3-.9.9.5,2.1l8.8-7.2c3.4-5.1,7.6-10,12.3-14,.9-.8,6.4-5,6.8-5,.2,0,1.8.8,2,1,.5.5,1.5,5.5,1.5,6.4,0,2.1-4.6,6.8-5.4,9.7-.2.7-.7,3.5,1,2.7.8-.4,4.6-3.2,5.6-4,6.6-5.5,13.2-14.9,17.3-22.6,1.6-3,2.9-8.4,5-10.9,1-1.2.7-.7,1.6,0,3.2,2.6,2.1,5.4.8,8.8-.8,2-2.3,5.3-3.2,7.1-.5,1-2.7,3.4-2.7,3.6,0,1.9,2.9.5,3.6.4.9,0,2.8.3,2.8,1.2,0,1.9-6.5,4-7.9,4.8-6.6,3.7-8.2,13.3-8.8,20.3-5.5,0-3.5-5.8-3.2-9.2.5-4.5-2.4-.5-3.6.4s-4.6,3.7-5.8,3.9c-3.8.7-5.8-4.7-6.2-4.7-2.6-.3-5,4.2-7.3,4.7-1.4.3-3.5-2.2-3.9-2.2-.6,0-6.4,5.7-7.6,6.7-2.9,2.3-4.3,3.1-6.7-.4-2-3-1.4-5.7,0-8.8.6-1.4,3.6-4.2.8-4-1.6,2.2-4.1,3.5-6,5.2-2.9,2.6-10.4,11.6-13.3,12.3-2.3.5-4.2-1.2-5.4-3.1-3.7-5.5,2.2-10.8,3.6-15.9-3,1.3-4,4.2-6.4,6.8-3.4,3.7-10.8,12.7-15.1,5.5-.7-1.1-.7-2.5-1.3-3.5-1.6-2.6-2,.3-2.8,1.2-1.4,1.7-3.3,3.1-4.8,4.8-2,2.2-2.8,6.1-6.7,3.6-.6-.4-.4-1-.8-1.3s-1-.2-1.4-.8c-1.3-2.1-.8-4.2,0-6.3,1.4-3.7,4.3-9.4,6.2-12.9,2.1-3.6,4.5-1.2,5.7,1.6l-4.7,9.3c1.4,1.3,6.4-6.5,8.2-6.3,2.6.4,3.5,1.4,4.3,3.7,1,2.6,0,6.4,3.4,4.6,4.3-2.2,11.8-11.2,15.2-15.2.7-.8.7-1.9.8-2,0,0,1.6-.3,1.6.4,0,1.2-1.1,2.8-1.4,4.2-.2.9,0,2-.2,2.6h0Z"/>
      <g>
        <path d="M154.5,510.6c.3.4.4,1.3,1,1.8,1,.9,2.8,1,4,2.4,2.9,3.1,1.7,4.8-2.4,3.2-2-.8-6.4-5-8.4-5.2-2.1-.2-5.9,2.3-7.1,4.1-5.6,7.7-9.2,27.6-8.4,37.1.3,3.8,2,9.4,6.1,10.7,1.6.5.7-1.1,1.7-1.6,1-.5,2.9-.6,4.3-1.2,1.9-.9,7-3.3,7.8-4.9.8-1.6,3-13.3,2.5-13.8-1-1.1-4.7,3.9-5.6,4.4-1.3.6-2.9.6-4.3.2-2.4-.6-5.2-2.1-3.4-4.7,4.4-2.4,9.3-8.4,14-10,.8-.3,3.9-.9,4.5-.9.7,0,4.3,2.4,5.9,2.1l-9.5,43.1c-7.3,1.4-4.9-10.5-5.6-11.2-1.3-1.3-3.6,2-4.5,2.3-3.8,1.1-12.8-2.1-15.8-4.7-2-1.7-4.3-6-5-8.6-1.5-5.2-.3-14.2.7-19.7,1-6,5.1-21,9.1-25.1,2.3-2.4,6.4-2.8,9.6-2.4,1.2.1,8.5,2.1,9,2.6h0Z"/>
        <path d="M217.7,537.5c1.2,1.4,1.4-.6,1.8-1,2.1-2.9,4.1-8.3,8.2-7.8.6,0,6.4,2.3,6.6,2.6.9.9,1.7,4.8,2.1,6.3.2.8,1.2,1.9,1.2,2,0,.8-2.3,1.8-3.2.8l-5.2-6c-3.3,2.8-7.4,15.6-11.3,16.7-2.8.8-7.2-3.1-7.5-5.9-.2-1.6.4-2.1.7-3.3.4-1.7-1.3-1.2-1.5-1.1-.3.4-.9,3.4-1.4,4.5-.7,1.6-2.9,6.4-4.1,7-1.8.9-5.8,0-6.3.4s-.8,4.1-3,4.6c-.8.2-5.2-1.2-6.1-1.7-5.9-2.9-3.4-10-2.5-15,.2-.9,1-2.6,0-3.2-6.1,5.8-9.1,13.7-11.6,21.5-.3.3-6.6-1.1-7.2-2.1-2-3.3.6-9.2,1.4-12.9.4-1.7.4-7.6,2.2-8.1,3.8-1.1,4.7,2.5,6.2,2.2,1.3-.2,3.7-2.2,5.3-2.8,1.3-.4,4.9-.5,5.5-1.3.5-.6.2-3.1,1.4-3.9,1.6-1,8.1-1.1,9.1,0,.3.4-.7,1.6-.6,2,0,.8,1.4.9,2,1.4.3.3.1,1.1.3,1.2,1.8,1.2,4.5-2.2,2.3,4.5l.4,7.6,8.8-15.1c.9-3.1,0-11,5.2-8.4,2.6,1.3.7,3,.8,4.8,0,1.4,1,2.7.8,4.9,0,1.1-1.3,3.9-.8,4.4h0ZM193.7,546.3c.6-3.8,2.7-7.3,2.4-11.2-2.1,1.4-2.6,6.1-3,8.6-.1.9-.9,2.8.6,2.6h0Z"/>
        <path d="M263.9,498.4l-2.4-2.4v9.2l-.4,2.4c.4,4.9,1.4,10.2.3,15-1.9,8.5-7,15.2-6.2,24.8.1,1.3,1,3.1,1.2,4.4.6.8-.9,1.8-1.6,1.6-1.8-.6-2.6-5-4.4-6-2.9-1.5-7.8-1-10-5.2-1.2-2.4-.8-7.2-.4-9.9.6-4.2,3.5-14.6,7.2-16.8,1-.6,3.7-1,3.9-1.3.4-.4-.1-4,0-5.2.2-1.9.6-4.4.9-6.3.3-1.9,2-10.3,3.6-10.7,1.5-.4,7.3,1.3,7.9,2.3.7,1,.2,2.8.4,4h0ZM245.6,540.7c.9,1,2.2-1.2,2.6-1.8,1.4-2.1,2.3-8.6,2.3-11.3,0-1.5.2-2.6-1.2-3.6l-2.6,10.2c.3,1.3-1.4,6.1-1,6.6h0Z"/>
      </g>
      <path d="M603.8,413.9l-4-.8c-.5,2.1,2.1,2.2,2.8,3.2,1.3,1.9-1.5,13.3-2.2,16.2-3.4,14.2-9.9,26.8-14.5,40.5-.8,2.2-2.7,4.9-2.6,7.6,0,1.4,4,1.5.9,5.9-1.5,2.3-2.7,2.9-4.8.9-2.8-2.7-.5-9.6.6-13,4.2-13.5,11.8-26.2,13.4-40.5-1.9.9-2.6,2.9-4,4.4-.7.7-1.8.9-2.2,1.4-.1.2-.7,3.2-1.8,1.3-.1-.2.2-1.2-.1-1.4-.5-.4-1.7,0-2.5-.3-.5-.2-4.2-2.2-4.4-2.4-.3-.3-.9-2.2-1-2.7-.2-2.7,5.8-11.9,7.6-14.7,4.3-6.3,9.1-14.6,17.4-7.9.9.7,1.7.8,1.3,2.3h0ZM598.2,414.7c-.7-.8-2.3,1.2-2.8,1.6-2.6,2.3-6.4,7.8-8.3,10.9-.6,1.1-3.9,6.8-3.3,7.5.4.4,3.8-2.5,4.4-3.2,3.2-3.4,7.2-9.1,9-13.3.4-.8,1.5-2.8.9-3.5h0Z"/>
      <path d="M626,413.2c1,.8-.2,2.6-1.6,2.8-.1,1.6-4.8,7.3-4,8.3,1,1.1,2.2-1.4,2.5-1.8,1.8-2,3.7-3.8,5.4-5.7.8-.9,1.9-3.9,3.5-3.6.3,0,2.3,2,2.5,2.3,1.7,3.4-3.4,12.9-2.8,13.6,1.1,1.3,14.6-11.6,16-13.2.5-.6,1.5-2.8,2-2.8,1,0,5.3,5.3,3.2,7.2-1.3,2.2-6.1,16.4-7.2,16.7s-1.8-1.1-2.2-1.8c-1.2-2.7,1.9-7.7,1.8-10.9-3.3,2.3-9.1,9.3-13.1,8.8-3.7-.4-5.9-5.6-6.4-5.6-1.3,0-5.1,7.7-8.6,7.1-.6,0-3.9-1.9-4.2-2.3-1.1-1.7.2-4.7.8-6.4,1.8-4.6,5-9.6,6.9-14.3,1-.7,4.5.9,5.4,1.6h0Z"/>
      <path d="M669.2,410.7c.5.4,9.3-5,10.9-5.5,1.1-.7,1.8,1.7,1.8,1.9,0,1.4-10.5,7.5-12.2,9.2-1.2,1.1-1.6,2.3-2.4,3.2-.7.7-1.7.9-2.4,1.6-2.9,3.2-4.4,12.7-5.3,17-1.6,2.6-3.8,1.5-3.7-1.3.6-15.3,7.5-25.1,12.4-38.6,1.3-3.7,2-9.2,3.5-12.5,1.2-2.4,3.5-.6,4.3,1,2,4-2.6,11-2.2,15.4-.2,1.3-5,8.2-4.6,8.5h0Z"/>
      <g>
        <path d="M406.7,444.3c.2.2.1,4.2,0,5.1-.3,2.7-2,5.6-2.3,8.1-2.1,15.5-5.9,25-13.5,38.4-1.2,2.2-3.2,5.3-2.4,7.7,1.2,4,5.6.7,8.2.5,1.8-.1,2.3-.3,2,1.6-4.2,2-7.4,3.6-11.9,1.2-.8-.4-1.3-1.7-2.1-1.9-.6-.1-2,.7-3.1.7-1.6,0-4.9.2-6.3-.1-1.6-.5-3.5-4.1-5-4.6-3.1-.9-5.2,1.4-7.8-2.5-1.4-2.1-1.7-3.7-.6-6.1,1.6-3.6,7-10.9,10.5-12.6,1.7-.8,4.7-1.8,6.4-.8-.3,1-4,4.5-3.2,5.2l4.8,1.6v.4c-.9,2.4-5.5,13.9-4,15.5s5.1-3.3,5.5-4.5c.4-1.5,0-3.1.2-4.6,2.1-12.1,7.1-38.1,13.6-47.8,3.4-5,5.1-2.5,9.3-.7.6.2,1.5,0,1.7.2h0ZM393.2,474.5c1.4-.2,1.4-1.6,1.8-2.6,1.8-4.5,3.4-10.2,3.8-15l-2.2,3.8-3.4,13.8h0ZM367.6,495.2c2.9-1.8,5.1-5.4,5.6-8.8-3,1.7-5.1,5.3-5.6,8.8Z"/>
        <path d="M311.8,498.4c.6.6,12.8-8.2,14.9-8.6,3.1-.7,3.8,1.1,6.5,1.6l.8,2.5c-2,5.3-4.5,10.4-6.6,15.7-.8,2.1-.4,6-4,5.6-3.3-.4-2.4-4.2-1.8-6.6.7-3.3,2.6-6.6,3.5-10.1.3-1.2,1-1.9-.8-1.6-1.7,2.9-4.6,3.1-6.7,4.4-1.5.9-7.4,4.7-8.1,5.6-2.6,3.6-4.1,14.2-4.9,18.8-.3,1.4-1.2,2.7-1.4,4.2-.4,2.8,1.4,8.9-3.5,7.4-.5-.1-2.6-2.2-2.9-2.7-1.1-1.7-.9-3.6-.7-5.6.7-6.8,4.2-18.8,6.3-25.6,3.9-12.6,11.9-30.9,20.4-41.1,2.6-3.2,7.9-9,12.4-6.8.3.2,2.4,2.2,2.4,2.4s-1.6,1.7-2.1,1.8c-.6.1-1.4-.6-1.9-.3-.8.5-7.6,9.8-8.6,11.3-3.8,5.8-5.8,11.7-8.5,17.8-.6,1.4-4.9,9-4.4,9.6h0Z"/>
        <path d="M342.9,484.9c1.2,1.3,4.4-4.4,5.6-5.2,4.4-2.7,10.8.9,10.4,6.4-.1,1.6-.6,4.7-.9,6.3-.6,3.2-3.7,9.6-3,11.9.2.7,2.2,2.2,1.5,2.9-.3.3-2.5,0-3.2-.4-4.2-2.1-1-11.6-.8-15.1.2-2.2-.2-4.6,0-6.8-2.1,1.9-4,4.6-5.4,6.9-1.6,2.7-5.8,13.1-7.8,13.7-8.7,2.6-3.3-10.3-2.7-13.9.5-2.9,1-8.1.6-10.9-.2-1.4-2.5-7.5-2.2-7.8,2-2,7.3,4.5,7.8,6.9.3,1.3,0,4.9.1,5h0Z"/>
        <path d="M409.9,489.7c-.3.2-.5,6.5,0,7.1.1.1,2.1.1,2.8,0,2.1-.2,5.2-2.1,7-3.3,3.4-2.2,5.4-5.8,10.1-4.7-5.4,6.2-10.1,12.6-19.4,11-4.2-.7-7.8-5.6-7.8-9.8s5.6-15,9.3-17c1-.6,1.9-1,3.1-1s5.3,2,5.1,3.5c-.3,1.7-4,10.2-5.1,11.7-1.9,2.4-4.7,2.1-5.1,2.5h0Z"/>
      </g>
      <path d="M686.2,405.3c1-1.3,4.3-5.3,5.5-6.4.4-.3,3.3-2.4,3.5-2.5,2.4-.7,5.9,1.2,5.9,3.5s-6.5,7.9-8,9.6c-1.9,2.1-5.5,5.2-6.8,6.8-.4.5-2.7,4.8-2.7,5.2-.1.8.8,1.9,1.1,1.9.3,0,4.8-1.8,5.7-2.2,4.4-1.9,9.7-6,14-6.7,1-.2,1-1.1,2.2.6-.8,1.2-1.2,2.2-2.4,3.2-2,1.6-8,4.8-10.6,6.2-7.4,3.9-13,2.3-15-6.1,2.5-4.3,4.5-9,7.5-13h0Z"/>
      <path d="M106.6,510.6c.4.5-.4,1.7.9,1.4.9-1.4,2.2-7.8,3.6-7.9.7,0,4.8,1.8,5.1,2.8,1,3.4-2.1,11-2.4,15.1-.1,2.2.9,4.3,1.8,6.3.4.9.9,1.8-.5,2.1-2.9.7-5-3.5-6.5-3.9-1.3-.4-3.1,1.3-5.3.6-.6-.2-5.2-3.1-5.3-3.6-.3-1.1.6-2.1.7-3.1.2-3.2.1-7.9,2-10.7,1-1.5,5.2.2,5.8,1h0Z"/>
      <path d="M899.3,344.5c.3,0,2.8,3.6,2.7,4.2-.2,1.1-2.1,3.8-2.7,5.3-4.4,11.1-8.9,23.3-13.8,34.1-.7,1.5-4,8.2-5.3,8.2-.1,0-1.8-1.7-1.9-2.1-.3-1.2,2.2-4.7,3-6.5,3.1-7.4,4.5-15.7,7.8-23.4,1-2.3,9.2-19.9,10.4-19.9Z"/>
      <path d="M300.6,587c-.4.5-3.1-1-3.6-1.6-.7-.8-1.8-4.1-2-5.2-.2-1.7.9-9.7,1.5-11.2.3-.6.5-1.8,1.3-1.9.6-.1,2.9,1.1,3.2,1.6.1.2,1.1,4.7,1.1,5.2,0,1.6-1.3,4.6-1.5,6.4-.2,1.4.2,6.5,0,6.7h0Z"/>
      <path d="M310.2,583.4c-.4,1.7-2,.9-2.8-.4-2.5-4.4-1.8-7.8-1.6-12.4,0-.5-.7-1.7-.4-2,.4-.4,4.8,0,4.8,1.2,0,3.2.6,11.2,0,13.6h0Z"/>
    </g>
  </g>
</svg>