<?xml version="1.0" encoding="UTF-8"?>
<svg id="Layer_2" xmlns="http://www.w3.org/2000/svg" version="1.1" viewBox="0 0 1000 1000">
  <!-- Generator: Adobe Illustrator 30.1.0, SVG Export Plug-In . SVG Version: 2.1.1 Build 136)  -->
  <g id="Layer_1-2">
    <g>
      <path d="M388.1,460.8c-.9,2.3.6,4.3.6,6.5.1,8,.1,15.7-.3,23.6-.2,4.9-2.1,9.8-.9,14.4,2-2.3,3.1-7.4,6.1-7.6,1.7,0,5.6.3,7.2,1.2,6.8,3.7,8.8,13.2,7.9,20.4-.2,1.4,0,2.1,1.3,2.3.1-5.8,8.5-25,14.2-27.1,1.8,0,3.7,1.5,5.5.7,2-.9,6-.9,6.4,2.1,1.3,10.9-2.7,12.8-1.2,19.5,4.2-1.4,8.4-18.4,11.8-18.2,1.5,0,4.1,1.2,4.5,2.6l2.1,8.2c8.6-8,15.8-11.1,25.9-15.2,1.2-7.2,1.5-14.1,4-21,.5-1.4,5.1-.5,5.3,1,.3,3.6-.8,6.8-.9,10.4-.3,10.9-3,21.1-5.3,31.6-.7,3.1.3,6.4,2.6,8.1,3.8-3,4.8-7,8-10.8.3,4.2-1.7,11.2-5.9,12.7-4.8,1.6-6.8-2.2-8.5-2.9-2.2-.9-3.6,8.7-12.6,4.5s-1.9-14.5.3-21.9c-3.9.9-4.3,4.4-6.1,7.4-1,1.8-3.3,4.6-5.1,5.4-3.4,1.4-6.9-1.4-8.4-4.5-2.7,2.8-3.8,6.4-6.9,8.5-2.7,1.7-6.1.2-9-.5-1.7,5.1-4.6,10-9.1,12-6.4,2.9-10.4-2.1-14-5.9-3-3.2-7-4.3-7.8-9.8-.5-3.5-.7-7.7-2.2-11.7l-10.7,26.6c-.7,1.7-2.1,3.9-3.4,5.2-1.9,1.3-7.2-.9-7.7-3.5-1.2-5.9-.2-11.6.6-17.3l2.4-15.8c2-13.2,2.9-27.6,2.8-41.4M477.6,500.9c-3.5,3.1-12.1,20.9-8.4,24,6.5-6.6,8.6-14.3,8.4-24ZM425.1,516.6l2.9-6c-.3-3.1,1.4-5.7.4-9.2-5,8.5-8.6,16.7-11.2,26.3,4.4-2.3,5.9-6.8,8-11.1h0Z"/>
      <g>
        <path d="M611.7,528.6c2.4-1,14.5-1.8,13.1,5-11.9,5.2-27.5.9-34.3-10.9-1.6-2.8-2.9-6.8-6.4-7.1-2.6.8-1.8,9-6.4,8.4-2.4-.3-6.6-1.3-7.1-3.6l-1.9-8.8c-2.2,4.8-2.8,10.2-5.8,14.6-1.6,2.3-6,2-8.3,1.4-4.9-1.2-1.1,4.3-9.5,7.6-4,1.5-7.4.6-10.7-2.1-9.4-7.8,7.3-28.7,14.3-35.3,2.2-2,4.4-2.3,6.5-1.2,2.6,1.3,3.2,3.2,2.6,6.3-1.1,5.6-2.4,11.2-1.7,17.2,3.4-3.8,7-19.8,10.3-21,2.1-.8,7.6,2.3,7.4,2.2,1.8,1.9,1.5,4.9,3.3,7.4,3.6-3.9,8.6-5.5,12.9-1.7,2.2-2.4,3.1-5.3,5.9-7.3,5.8-4.3,15.5-2.8,19.2,3.8,1.5,2.6-1.7,5.8-3,7.6-3.7,5-8.5,7.2-14.4,8.8-.9.3,0,3,.7,3.6,5.5,4.6,5.2,8.6,13.3,5.2h0ZM598.7,511.2c4.7-1.5,10.3-9.8,7-9.8-6,0-9.8,9.7-7,9.8ZM540.1,529.9c3.9-2.7,9.9-15.5,7.3-19.2-3.2,4-9.1,14.5-7.3,19.2Z"/>
        <path d="M521,517.1c6.3-8.4,8.3-17.5,20.9-19.9.5,0,.9-.2,1.1,0,.4.3,1.1.8.6,1.3-7,7.5-10.6,16.4-14.2,25.7-1.4,3.5-6.9,3.6-9.8,2.8-3.7-1.2-5.6-4.5-6.1-9-3.1,1.5-2.6,12.4-11,10s-4.1-13.1-4.8-19.5c-6.3,5.3.2-5.5,1.2-11.9.1-.6.9-2.1,1.6-2,1.7.3,3.4,1.2,4.9,1.9,1.1,6.2,0,12-1.2,18.5-.3,1.6,1.8,1.8,1.7,0,2.5-4.1,4.5-15.7,8-15.9,1.4,0,4.6,1,5.1,2.3.6,5.1-.3,10.6,2,15.6h0Z"/>
      </g>
    </g>
  </g>
</svg>