<?xml version="1.0" encoding="UTF-8"?>
<svg id="Layer_2" xmlns="http://www.w3.org/2000/svg" version="1.1" viewBox="0 0 1000 1000">
  <!-- Generator: Adobe Illustrator 30.1.0, SVG Export Plug-In . SVG Version: 2.1.1 Build 136)  -->
  <g id="Layer_1-2">
    <g>
      <path d="M209.2,418.2c-.9,2.3.6,4.3.6,6.5.1,8,.1,15.7-.3,23.6-.2,4.9-2.1,9.8-.9,14.4,2-2.3,3.1-7.4,6.1-7.6,1.7,0,5.6.3,7.2,1.2,6.8,3.7,8.8,13.2,7.9,20.4-.2,1.4,0,2.1,1.3,2.3.1-5.8,8.5-25,14.2-27.1,1.8,0,3.7,1.5,5.5.7,2-.9,6-.9,6.4,2.1,1.3,10.9-2.7,12.8-1.2,19.5,4.2-1.4,8.4-18.4,11.8-18.2,1.5,0,4.1,1.2,4.5,2.6l2.1,8.2c8.6-8,15.8-11.1,25.9-15.2,1.2-7.2,1.5-14.1,4-21,.5-1.4,5.1-.5,5.3,1,.3,3.6-.8,6.8-.9,10.4-.3,10.9-3,21.1-5.3,31.6-.7,3.1.3,6.4,2.6,8.1,3.8-3,4.8-7,8-10.8.3,4.2-1.7,11.2-5.9,12.7-4.8,1.6-6.8-2.2-8.5-2.9-2.2-.9-3.6,8.7-12.6,4.5s-1.9-14.5.3-21.9c-3.9.9-4.3,4.4-6.1,7.4-1,1.8-3.3,4.6-5.1,5.4-3.4,1.4-6.9-1.4-8.4-4.5-2.7,2.8-3.8,6.4-6.9,8.5-2.7,1.7-6.1.2-9-.5-1.7,5-4.6,10-9.1,12-6.4,2.9-10.4-2.1-14-5.9-3-3.2-7-4.3-7.8-9.8-.5-3.5-.7-7.7-2.2-11.7l-10.7,26.6c-.7,1.7-2.1,3.9-3.4,5.2-1.9,1.3-7.2-.9-7.7-3.5-1.2-5.9-.2-11.6.6-17.3l2.4-15.8c2-13.1,2.9-27.6,2.8-41.4M803.9,416v2.2M298.7,458.3c-3.5,3.1-12.1,20.9-8.4,24,6.5-6.6,8.6-14.3,8.4-24ZM246.2,474l2.9-6c-.3-3.1,1.4-5.7.4-9.2-5,8.5-8.6,16.7-11.2,26.3,4.4-2.3,5.9-6.8,8-11.1h0Z"/>
      <path d="M730.7,482.6c3.7,3.3,2,9-.9,11.9-1.1,1.1-.6,2.8,0,3.7.5.8,1.7,1.6,3,1.4l6.2-1c1.4-.2.2,2.9-1.2,3.3-4.7,1.3-9.2,0-13.4-2.8-11.2,6.6-23.7,9.8-36.8,8.3-1.7-.2-3.3-1-3.7-2.7,2.3-.5,3.1-2.3,3.2-4.6.4-9,.4-17.9,0-26.9l-.6-12c-.1-2.4-1.1-4.5,0-6.9,2.5.4,6,.9,7.2,3.5,1.5,3.1,1.7,21.8,1.6,26.9,4,.2,7.6.4,10.9,1.9,6.9,3.1,2.4,9.7,4.8,11.5,3.2-.8,6.3-2.8,8.5-5,1.3-1.4-3.6-9.9-.5-12.3,2.9-2.2,8.6-1,11.6,1.7h0ZM702.1,491.5c-3.4,3-4.9,6.9-4.2,11.1,3.9-2.1,5.8-6.3,4.2-11.1Z"/>
      <g>
        <path d="M432.8,486.1c2.4-1,14.5-1.8,13.1,5-11.9,5.2-27.5.9-34.3-10.9-1.6-2.8-2.9-6.8-6.4-7.1-2.6.8-1.8,9-6.4,8.4-2.4-.3-6.6-1.3-7.1-3.6l-1.9-8.8c-2.2,4.8-2.8,10.2-5.8,14.6-1.6,2.3-6,2-8.3,1.4-4.9-1.2-1.1,4.3-9.5,7.6-4,1.5-7.4.6-10.7-2.1-9.4-7.8,7.3-28.7,14.3-35.3,2.2-2,4.4-2.3,6.5-1.2,2.6,1.3,3.2,3.2,2.6,6.3-1.1,5.6-2.4,11.2-1.7,17.2,3.4-3.8,7-19.8,10.3-21,2.1-.8,7.6,2.3,7.4,2.2,1.8,1.9,1.5,4.9,3.3,7.4,3.6-3.9,8.6-5.5,12.9-1.7,2.2-2.4,3.1-5.3,5.9-7.3,5.8-4.3,15.5-2.8,19.2,3.8,1.5,2.6-1.7,5.8-3,7.6-3.7,5-8.5,7.2-14.4,8.8-.9.3,0,3,.7,3.6,5.5,4.6,5.2,8.6,13.3,5.2h0ZM419.8,468.6c4.7-1.5,10.3-9.8,7-9.8-6,0-9.8,9.7-7,9.8ZM361.2,487.3c3.9-2.7,9.9-15.5,7.3-19.2-3.2,4-9.1,14.5-7.3,19.2Z"/>
        <path d="M342.1,474.5c6.3-8.4,8.3-17.5,20.9-19.9.5,0,.9-.2,1.1,0,.4.3,1.1.8.6,1.3-7,7.5-10.6,16.4-14.2,25.7-1.4,3.5-6.9,3.6-9.8,2.8-3.7-1.2-5.6-4.5-6.1-9-3.1,1.5-2.6,12.4-11,10s-4.1-13.1-4.8-19.5c-6.3,5.3.2-5.5,1.2-11.9.1-.6.9-2.1,1.6-2,1.7.3,3.4,1.2,4.9,1.9,1.1,6.2,0,12-1.2,18.5-.3,1.6,1.8,1.8,1.7,0,2.5-4.1,4.5-15.7,8-15.9,1.4,0,4.6,1,5.1,2.3.6,5.1-.3,10.6,2,15.6h0Z"/>
      </g>
      <g>
        <path d="M581.2,550c-4.9,1.7-7.2-5.7-14.8-7.7-1.9,2.4-.3,10.4-2.1,11.8-2.9,2.1-10.3-5.2-8.7-7.7,3.5.6,3.2-14.3,2.9-15.4-.4-1.4-3-1.9-3.2-3.3l-1.3-9.1c-.2-1.6-5-2.4-6-1-1.7,6-.8,13.6-1.1,20.1,0,1.3-2.5.7-3.1.1l-4.6-4c-2.5-2.2,1-15.1-.9-18.5-1.3-2.4-6.2-2.1-8.6-2-.6,4.8.9,9.7-2.5,13.6-1.1,1.3-5-.9-5.3-2.5-1.1-7.2,2.2-12.8-2.3-13.9l-11.3-2.7c-3.1,4.8-1.5,16.4-4.5,20.9-1,1.5-5.1-1.1-5.2-2.7-.2-9.8,3.7-19.5,0-20.6l-7.1-2.2c-3.8-1.2-8.4,2.9-12.2,4.8-7.7,3.9-15.2,6.3-23.2,9.2-4.9,1.7-10,2.8-14.1-1.3,1.4-1.8,3.4-2,5.4-2.6,13.7-3.7,26.3-9.2,38.9-15.7,3.2-1.7,7.1-2.3,10.5-1.3,1.8.6,1.6,2.9,4.1,4,2.7-5.4-2.3-15.7,3-15.4,1.2,0,2.4.6,2.9,2.1,3.3,8.5-1,15.6,4,16,3.4.3,7.3,2.9,10.9,2,2.1-.5,1-6.7-1.3-6.8-2.5.4-2.4,3.6-4.2,4.6-3.5,1.8,2.4-12.8-5-16.6-5.4-2.8-11.9-3-17.5-5.1l-9.8-3.6c-.9-.3-1.2-.8-1.5-1.2-4.7-7.5,24.4,4.9,27,4.1-1.3-4.4-3.6-7.3-5.6-10.7-4.4-7.3-8.4-14.5-13.3-21.6-.5-.7-.9-2.8.5-2.7,2.5.3,6.6.5,8.1,2.7,4.7,6.7,14.5,23.2,18,30.4,1.7,3.6,3.6,5.8,7.8,6.5,3.8.6,7,3.5,11.2,3.8-4-9-8.6-17.1-13.2-25.6-.5-1-2-4.2-.5-4.5,4.6-1.3,8,2.6,9.8,6.2l9.5,19.2c3.9,4.4,13.9,5.8,19.7,9.4l1.7-2.1c.6-.8,7.8,0,8.7,2.4.5,1.2-.1,2.7.7,3.3,1.4,1,2.6,1.2,4.4.7,3.1-.8,5.6,2.1,5.9,5.1.2,2.3,2,3.5,3.7,4.1,2.6.9,3.2-2.1,4.9-3.4,2.1-1.7,5.2-2.3,6.6-5.4l4.6,3,20.5-6.9c2.7-.9,5.1-1.9,6.6-4.6,5.1,3.3,2.8,8.1,3.8,11.2.3.8,2,.6,3,1.4,6.4,5.2,11.2,12,18.2,16.5,2,1.3,2.9,2.5,4.5,4.3,5.9,6.5,13.2,11.6,19.4,17.6,2.7,2.6,1.4,4.6.9,7.4-.8,4-.2,8.1-.8,12.5,2.9-.9,4.2-10.7,6.5-10.4,1.7.2,4.4,6.6,4.7,7.8l5.2,21c.4,1.6-.8,3.5-1.4,5-4.1-2.9-5.2-18.7-7.8-23.8-2.8,2.5-2.3,5.8-3.7,8.4-1.2,2.2-3.5,3.8-4.7,6.9-2.7-1.5-2.2-4.1-3.7-6.3-1.1-1.7-5.1-2.1-6.5-.6-1.6,1.8-1.3,4.3-3.2,5.9-5.1-1.8-2.4-8.6-8.3-8.7-4.5,0-15.1-2.7-22.4-2.5-4.5.1-6.4-1.6-8.5-5.2-1.5-2.5-3.2-4.7-2.1-8.5-9.4,2.3-18.3,4.7-27.1,8.3-1.5.6-.6,4-1.4,5-1.2,1.6-2.8-.4-3.8-1.1-6.8-4-1.6-8.4-4.8-10.7-.9-.6-2.6-1.6-4.2-1.1h0ZM538.6,507.8c1.4-2.9,1.3-8.6-.1-11.2s-5.7-3-8.2-4c-.5,5.3-.4,9.3,0,14.5,1.7,1.1,7.2,3.1,8.4.7h0ZM553.9,496.3c-.7-1.7-3.4-1.9-5.1-2.8-1.4,4.9.2,10.6,5.7,13.2,0-3.3.8-7.1-.5-10.3ZM617.3,526.5c2-.6,4.4,4.1,3.3,5.3-2.2,2.6-7,3.4-10.1,4.7l-13.3,5.1c-2.4.9-2.1,5.4-1.2,7.3,7.2-1.9,13.9-5.3,21.4-6,2.8-.2,3.2,4.4,4.7,6.3,2.2-13.3,4.7-24.9,4.6-38.3,0-3.6,1.4-6.7.9-10.4-11,4.8-18.2,7.7-29.1,12.8-1.3.6-1.9,1.6-1.8,2.7,0,.6.5,2.3,1.6,1.9l19.4-5.9c1.3-.4,2.7-2.3,4.3-1.5,1.8.9,3.7,4.4,2.8,6.4-.7,1.6-3.5,2.2-5,2.7l-22.3,7.2c-1.8.6-1.9,6.2-.2,6l20.1-6.2h0ZM573.5,503.1c-1.4,5.6,0,10.3.3,15.8,2.3.3,1.2-14.7-.3-15.8ZM641.1,531l8.2-7.4-11.6-11.3c-.8-.8-2.2,1.9-2.9,1.8-.9-.1-2.7-2-2.2-2.6,1-1.2,2.7-1.6,1.8-3-.4-.7-.9-2-2-2.1-1.4,5.2-.5,10.2-1,15.6l-1.5,15.7c4.7,2.1,5.9-20.7,5.8-23.4,0-.7,1.5-.4,2,.1,4.5,5.5-2.2,21.5,3.4,16.5h0ZM584.7,537.5c1.2-1.1,3.5-.7,4-1.6,2.3-4.4-.2-8.6-.6-12.9-.2-2,3.3-4.3,1.5-6.8-.9-.2-2.3.5-3.5-.3.7-1.7.2-4.8-2.2-4.7-1.9,0-.9,2.8-1.1,3.8-.6,5.1-.3,9.8-.6,15-.2,4.4-1.7,9.6-.3,13.8.6,1.4,4.2,3.1,5.5,2.4,3-3.3-6.2-5.7-2.7-8.7h0ZM660.2,538.5c4-3.9-5-9.6-5.9-9.4-3.4.6-5.6,3.9-8.3,5.9-2,1.5-4.3,2.1-5.4,4.9,5.1.3,17.3-6.9,19.6-1.3h0ZM672.2,546.8c.8-1.4.3-2.8-1-3.6-2.4-1.4-3.7-3.5-6.5-4.8-.5,7.1-1.8,13.9-.5,20.6,2.9,1.9,4.6-6.4,8-12.2h0ZM658.2,557.9l1-14.5c-3.1,1.2-5,3.5-7.6,5l-11.1,6.2c5.9,1.9,11,2.1,17.8,3.3ZM674.3,558c0-1.8.5-3.1-.4-4.5-.7,1-2.8,5.8-1.6,6.5.5.3,1.1.4,1.5,0s.6-.8.5-2h0Z"/>
        <path d="M571,481.4c-6.8-1.6-10.7-7-11.8-13.6-.8-4.7.2-9.9,1.1-14.6.5-2.3,2.5-3.8,4.1-4.3,3-1.1,9.8,3.2,8.5,5.7l-3-.2c-1.4,6.9-4.9,19.3,1.5,24.5,12.1-2.7,7-9.3,9.5-16.9,2.8-8.4,5-18.7,14.2-19.2,2.1-.1,4.8,2,4.7,4.2-.3,4.1.5,7.8.7,11.8.2,4.2-.2,8.1,1.6,11.9,2.8,5.6,6.9,2.3,7.8,3.7,1.7,2.5-7.2,2.4-11.5-.7l-2.1,7c-7.9,5.7-14.8-2.6-16-2.8-1.8-.2-3.6,5-9.4,3.7h0ZM589.5,475.2c1.8-3.9,5.1-16.4,2.8-17.8-1.4-.9-6.5,19.5-2.8,17.8Z"/>
        <path d="M654.7,480.7c-.7-4.9-1.8-12.8-5.2-12.2-2.8.5-3.4-2-5-3-8.5-5.2-6.1-9.6-8.2-21,3.6-1.4,6.9,1.3,7.5,5.1,1,7-1.6,9.6,2.5,13.4.9.8,1.5,2,2.3,2.1s3,0,3-.9l-.3-7.8c-.2-4.8-1.4-9.3-.7-14.3.2-1.5,2.7-.8,3.9-.5,2.2.6,4.2,16.1,3.9,19.8,2.9.5,9.3-5.2,11.3-2.6,1.2,1.6-7.7,6.3-10.5,9.6-3,3.5,1.6,12.9-.8,14.9-1.2,1.1-3.4-1.2-3.6-2.6h0Z"/>
        <path d="M635.9,470.7c-1.8.6-5.2-.8-6.5-2-2.9-2.6-3.7-6.3-5.7-9.6-2.8-3.4-1.5,15.2-3.1,17.5-1.9.2-4.3,0-5.8-1.2-2-1.7-2.2-4.6-2.4-7.2-.6-8.2-2.5-16.1-1.1-24.2.3-1.6,5-1.5,5.5,0,.7,2.1,0,4.2.4,6.4,3.9-1.5,10.3,1,12,5.3,1.3,3.4,3.6,6.3,4.1,10.2l3.6-.2c.8,1,1.2,4.3-.9,5.1h0Z"/>
        <path d="M497.7,470.8c-2.7-.5-2.6,1.2-3.7,2.4-1.2,1.3-3.6-.8-3.6-2.4,0-3.2-2-5-3.6-7.4-5.4-7.8-10.7-15.4-16.9-22.6-3.2-3.8,8.6-3.1,12.9,5.2,1.5,3,3.9,4.9,5.8,7.6s3.4,5.3,5.6,7.9c1.8,2,1.8,5.2,4.8,6.5.4.2.3,1.2.4,1.5.2.5-.7,1.5-1.6,1.3h0Z"/>
      </g>
    </g>
  </g>
</svg>