<?xml version="1.0" encoding="UTF-8"?>
<svg id="Layer_2" xmlns="http://www.w3.org/2000/svg" version="1.1" viewBox="0 0 1000 1000">
  <!-- Generator: Adobe Illustrator 30.1.0, SVG Export Plug-In . SVG Version: 2.1.1 Build 136)  -->
  <g id="Layer_1-2">
    <g>
      <g>
        <path d="M649.7,474.1l7.1-3.7,4.1,4c-.2.9-11.9,10.1-13.8,12.4-.5.5-5,6.6-3,6.8,2.2-.4,4.8-1.2,6.9-2.1,1.2-.6,10.7-6.4,11.1-6.8,1.3-1.4,2.5-6.8,4.2-9.3,6.5-9.4,20-2.6,13.5,9.8-1.9,3.7-9.6,7.5-9.8,8.2-1.3,5.4,7.1,4.9,10.4,4-1.1,8-10.8,3.2-14.6,0-1.5-1.2-4.1-6.3-5.9-6-3.1,3.5-10.3,7.5-15,6.7-2-.4-3.7-3.1-6.3-2.1-2.9,4.6-5.4,9.4-6.1,14.9-7.2-.8-6.8-3.8-4.8-9.7,3.4-10.5,11.6-23.1,15.9-34.3.8-2,2.9-10.7,3.3-11.3.6-.9,3.2-1,4.4-.6,7.8,2.4-2.3,18.4-1.5,19.2h0Z"/>
        <path d="M602.5,479.3l-.4,1.5-7.3-2.2c-7.8,8-13,20.3-12.9,31.4,1.4,2.2,10-3.6,11.3-5.2,2.2-2.9,4.6-10.6,7.5-15,4-6.1,11.4-18.3,19.4-11.3,2.2-1.5,1.7-6.5,4.5-6.8,2.7-.2,5.1,2,4.9,4.8-.3,3.1-7,14.7-8.5,19.3-1.1,3.5-3.2,10.7-1.3,13.7l-1.5.8c-4.5-.4-4.1-6.9-6.3-6.4-.4,0-1.8,2-2.7,2.6-5.5,3.5-8.5,4.9-13.8-.3-5,3.9-8.5,10.3-15.6,6.6-8-4.1-4.2-16-1.8-22.6,1.2-3.3,7.1-16,10.1-16.9,5.4-1.6,9.7,4.5,14.5,5.9h0ZM613.4,494c2.8-3.7,5.6-8.5,5.2-13.2-5.1,5.4-11.3,10.7-14.9,17.3-1.3,2.3-5,10.1.2,5.4,2.9-2.6,7.3-6.5,9.6-9.5h0Z"/>
      </g>
      <path d="M535,480.9c2.2,3.3-10.5,25.9-5.1,31,1.3,1.3,3.1.7,4.5,1.5-2.1,2.2-9.1.1-9.8-2.6h-1.1c-4.8,5.8-9.8,13.8-18,7.4-6.2-4.8-1.9-11.3,1.3-16.7,5.2-9,12.7-16.5,21.6-21.9l6.6,1.2h0ZM523.8,490.6l-4.5,4.1c-4.5,6-7.6,12.9-10.5,19.8,1.5.3,2-.2,3-1.1,1.1-1,5.5-7,6.5-8.5,2.8-4.4,4.6-9.2,5.5-14.3Z"/>
      <g>
        <path d="M380.5,494.5c4,3.6,3.3,19.4.2,23.4-3.1,4-6.6,3.8-11,5.6.5,11.6,5,7.5,9.3,1,4.2-6.3,6.2-13.6,9.9-20.1,4.8-2.4,5.2,6.3,8.6,5.7.6-.1,5.5-8.3,7.9-10.1,1.8-1.3,7.1-4.2,8.2-1.2-4.1.8-4.7,4.9-6.4,7.5-4.9,7.2-8.2,13.9-11.9,21.7l-6.3-3.1c-.8-1.3,1.1-11.5,1.3-13.8.2-1.5-.2-1.1-1.4-1.1-3.1,8.9-6.6,30.5-20.5,22.4-5.2-3-3.7-6.9-5.5-10.9-1.2-2.7-5.2-2.7-4.7-6.2l5.2.8c.9-5.4,4.1-24.5,11.6-24,.8,0,4.8,1.9,5.5,2.5h0ZM377,498.8c-1.5-.3-1.7.8-2.4,1.7-2.5,3.7-3.2,10.4-4.3,14.8,1.5,1.6,4.8-5.7,5.1-6.5,1-3.1,1.5-6.7,1.7-9.9h0Z"/>
        <path d="M348.5,545.2c-11.9.4,0-22.9-2.2-25.4l-12.4,3.7-2.7,20.5-1.8,1.3c-4.8.4-3.2-7.6-3.4-10.9,0-1.5-.8-2.9-.8-4.5,0-2.5,2.1-5.1-.3-7.2-.6-.5-7.2-2.6-6.4-3.7l7.5-.8c1.1-7.7.4-15.9,1.6-23.5.6-3.7,1.9-5.5,5.8-3.6,4.1,2,.5,6.5.2,10.3-.4,5.3.8,11.3,0,16.9,6.6,0,14.4-3.2,15.7-10.2.8-4.2,1.5-12.8,1.6-17.2,0-2.1-1.1-4.1-.8-6.8.4-2.7,4,.2,4.8,1.2,4.2,4.9,2.2,22.1,1,28.6-1.9,10.3-5.9,20.8-7.3,31.3h0ZM346.3,536.2c2.6-9.2,5.5-18.7,5.2-28.5l-5.5,23.1.3,5.3Z"/>
        <path d="M426.2,520.3c-2.3,2.1-5.9,2.5-8.8,1.7l2,6.8c3.8.9,5.3-2.3,8.5-3-1.7,9.8-15.2,6.3-16.4-1.9-1.2-7.5,3.8-30.2,14.2-27,8.6,2.7,5.7,18.8.5,23.4h0ZM424.9,501.8l-4.3,5.8-3.2,9.9c1.4,1.6,5.4-6.4,5.8-7.3,1-2.6,1.6-5.6,1.7-8.4h0Z"/>
      </g>
      <path d="M464.6,495.1c.3,2.1-1.7,1.6-2.9,3.5-3.9,6.2.8,8.2,1.4,12.7.3,2.6-1.8,8-3.4,10-.8,1-5.9,5.6-6.9,5.9-1.1.3-2.1.2-3.2.2.5-5.1,4.7-8.9,5.7-14.2,1.3-7.5-2.9-19.9,9.3-18h0Z"/>
      <path d="M441,484.6c6.3-.4,3.9,15,2.3,14.9-1.1-.8-1.4-1.4-1.8-2.7-.5-1.5-2.4-12.1-.4-12.3Z"/>
    </g>
  </g>
</svg>