<?xml version="1.0" encoding="UTF-8"?>
<svg id="Layer_2" xmlns="http://www.w3.org/2000/svg" version="1.1" viewBox="0 0 1000 1000">
  <!-- Generator: Adobe Illustrator 30.1.0, SVG Export Plug-In . SVG Version: 2.1.1 Build 136)  -->
  <g id="Layer_1-2">
    <g>
      <path d="M675.9,597l-5.6-5.6c-.4,5.2,4.7,8.7,2.2,13.8-1.4,3-3.1,0-4.6-1.5l-5.6-7.6c-.2,6.4,6.3,17.4,4.4,23.2-1,3-2.1,3-3.8.5-1.2-1.9-2.7-5.3-3.7-7.5-.3-.8-.8-2.3-1.7-1-.1.1,0,2.2-.4,3.2-.7,2-2.9,4.4-4.9,2.4l-4.4-4c0,2.2,2,3.8,2.4,6,.5,3.3.2,6.5-2.4,8.8-3.5,3.2-4.2-3.1-7.2-4.4-.4,1.3.8,2.5.8,3.6,0,3.2-4.8,7.5-8,6.4-1.2-1.4-7.7-10.6-8.4-10.8-.9-.2-2.5,1.8-3.8,2.5-.8.5-4.9,2.6-5.3,2.2-.8-.8.5-2.4,1.2-3.2,3.6-4.3,8.6-8.1,12.4-12.4,4-4.4,8.1-9.7,12-14.4,4.7-5.6,9.5-11.2,13.9-17.2,1-1.3,1.6-4.1,3.3-4.7,2.8-1,2.2,2,1.6,4-.2.7-1.9,2.7-1.2,3.1.3.2,1.6-.3,2.2.1.4.3,1,3.1,2.5,3.1,0-2.6-4-11.9.4-12,2.2,0,1.8,2.4,2.6,3.8,2,3.6,7.6,12.1,8.6,15.3.4,1.4.5,2.6.4,4h0ZM657.5,585.8c-1-1-3.2,2.1-3,3.4l5.4,14.1c-.1-4.9-2.6-10.2-3-15-.1-1.3.8-2.5.7-2.6h0Z"/>
      <path d="M608.6,412.1c.7.8,2.9,4.5,3.5,5.6,4,7.5,7.8,17.5,5.3,25.9-2.1.4-3,3.1-5,3.4-3.5.5-3.9-1.9-5-4.6-.4-.8-.6-2.2-1.7-1-.3.3.9,2.6.9,3.6,0,3.3-3.2,3.8-4.9,5.6-.5.6-.6,1.8-.8,1.9-.9.7-5.7-.9-6.3,1.3-.1.5,2.3,3.9,2.8,5.2,1.3,3.1,2.8,7.8,2.6,11.1-2.1,0-1.5,3.2-4.2,2.4-1-.3-3.1-3.8-3.8-5-4.8-8.1-12.9-27.7-10.9-36.7.1-.7,1.4-3.3,1.8-3.8,1-1.2,2.6-.4,3.7-1.1.6-.4.6-1.8.8-1.9.8-.6,4.7.5,5.5,1.1,1.3,1,3.8,6.3,4,8,.4,4.6-5,9.6,2.1,13.8,4.7,2.8,3.3-4.6,5.1-5.9.7-.5,2,0,1.6-1.6l-8.7-23.3c-.2-4.1,4.1-7.8,8.1-6.5.2,0,3.3,2.3,3.5,2.5h0ZM589.7,442.2c1.5-4.2,1.9-8.6-2.4-11.2.1,3.5-.7,8.7,2.4,11.2Z"/>
      <path d="M658.2,397.4c-.1.2-.9,0-1.2.3-.8.9-2.4,4-4.3,2.6-1-.7-5.2-10.4-6.5-12.7-1.6-2.8-3.9-6.2-6.2-8.5-.9,5.2,4.4,15.8,3,20.2-2.3,7.4-.9,6.2,0,13,.3,2.1,1,7.6.9,9.5-.1,1.9-3.4,5.9-4.8,4.4-.2-.2,0-4.7,0-5.9-1.4-12.6-6.9-24.8-8.7-36.8-.3-2,.3-4.2-.2-6.2-.3-1.4-1.8-2.8-2.1-4.3-.7-3,.4-7.9,3.9-5.5.6.4,1.3,2.8,2,2.8.2,0,2.4-2.5,3.3-3.1,4.8-2.9,4.6-.3,8.3,2.3-.2-3.4-1.8-6.7-2.4-10-.6-3.3-.5-7.1-.9-10.3-.8-6.2-2.1-10.9-1.6-17.6.3-3.5,2.8-3.7,3.2-.8.8,5.6,2.8,11.7,3.9,17.6,2.4,12.4,4.4,24.9,7.4,37.3.5,2.1,3.7,10.4,2.9,11.7h0Z"/>
      <path d="M465.4,609.1c-.2.2-1.6,3.2-1.6,3.4,0,1.4,11.7,13,13.7,15.6,2.2,2.9,9.8,14.2,10,17.1.4,4.4-8,4.2-8.7,5.2-.4.6-.6,5.8-1.8,7-.3.3-4.4,1.6-5.1,1.7-3.2.3-2.8-1.1-4.4-2-.8-.4-2.1-.3-2.3-.5-.2-.1,0-2.9-.7-4.5-3.9-8.6-11.1-17.5-16-25.5-2.3-3.7-3.3-6.9,0-10.5,2.4-2.5,9.9-8.1,13.1-9.6.7-.3,5.1-1.8,5.4-1.8.4,0,1.4,1.3,1.2,2-.3,1.1-2.5,1.6-3,2.2h0ZM477.2,647.2c.4-.3-.4-1.6-.6-2.1-3.3-6.3-10.2-15.6-15.3-20.6s-5.4-4.6-5.6-4.4c-.5.6,1.5,3.3,2,3.9,1.4,1.8,2.9,3.2,4.2,5.4,3.5,5.7,5.7,12.7,9.7,18.2.5.6.9,1.3,1.9,1.1.2,0,3.6-1.4,3.7-1.5h0Z"/>
      <path d="M540.2,517.2c-.5.5-4.7-.2-5.6-1.2-4.7-5.6-7.6-12.8-13.6-17.1-.8,4.4,1.5,8.6,2.2,12.5.2,1.3,0,2.6.2,3.8.5,3.8,2.7,9.6-2.4,11.2-1.1.3-4.1.8-4.7.2-.2-.1-.2-1-.5-1.4-1.6-2.1-3.2-4.5-4.8-6.4-.8-.9-1.3-1.9-2.8-1.6l5.2,14.3c.2,3.1,3.3,7.3.8,9.6-2.6,2.5-3.8,1.6-5.4-1.1-3.9-6.6-6.7-17.9-8.8-25.5-.6-2.2-2.9-6-.5-8.4.2-.2,4.9-2.4,5.2-2.4,4.2-.8,8.5,8.2,11.4,10.3,0-5.6-4.5-16.2.8-20.3,10-7.7,16.2,9.6,19.6,16.3.6,1.2,4.5,6.3,3.5,7.2h0Z"/>
      <path d="M636,553.9c.8-1.5-1.1-7.6-.8-8,1.2-1.4,1.7,1,2,1.6,1.5,3.3,3.2,9.2-1.7,10.2-1.1.2-4.1,0-4.2.1-.3.3.1,6.3-1.5,9.1-.1.2-3,2.4-3.2,2.5-1,.5-3.2.6-4.3.4-.6-.1-.5-3.1-2-1.6-.2.2,1.4,3.2,1.6,4.4.9,6.7-2.9,11.2-9.5,11.5-2.1-6.2-10.8-19.4-9.5-25.7.3-1.2,3.3-6.1,4.3-6.1.6,0,1,1.8,1.4,2.2,1.2,1.2,4.1,2.4,5.4,3.8,1.4,1.4,2,4.3,4,5.2l-5.6-15.6c.5-2.4,2.5-3.2,4.8-2.7,2.3,4.8,4.3,10.5,6.9,15.1.3.5.7,3.1,2,1.6,1.1-1.3-5.6-16.6-2-20.7.3-.3,3-2.3,3.2-2.3.7,0,3.7,4.3,4.3,5.2,1.7,3.1,2,7.7,4.9,9.9h0Z"/>
      <path d="M610.4,600.9c.8.6-1.5,3.9-4.3,3.1-4.2-1.2-6.9-15.5-10.9-18.2.9,2.7-2.4,5.6-2.4,7.6,0,1.2,1.4,2,1.8,3,.5,1.3.5,2.7,1,3.8.7,1.6,4.8,8.3,3.6,9.5-.1.1-2.5.8-2.7.8-1.3-.2-9.1-12.9-10.4-15.1-.7-1.1-.9-2.6-1.7-3.9-.4-.7-3.5-5-4.4-4-.9,1-1.8,6.6-1.5,8.2.5,2.2,6.1,9.5,7.7,12.2,2.2,3.9,3.9,8.2,6.4,12,0,3.5-1.2,4-4.6,3.3l-13.7-22.2c-.6-.2-1.2-.1-1.8,0-1.6.4-2.4,2.4-3.7.3,5.4-3-1.4-9.3,4-12,.7-.4,1.6.9,2.8-.4,1.6-1.7,1.8-8.6,2.8-9.6.7-.7,5.2.2,6.3,1.1.6.5,4.2,6.3,4.6,7.3.4.8.7,2.2,1.7,1,.2-.3-.1-6.2,0-7.6,0-1.3,1.1-2.7.8-3.8-.2-.7-1.3-1.5-1.7-2.4-.7-1.6-3-6.2-3-7.4,0-.9,2.5-3.6,2.8-3.6.5,0,4.4,5.8,5,6.9,1.5,2.6,3.3,6.2,4.5,9,1.9,4.1,6.2,17.9,8.7,20,.8.7,1.9.6,2,.8h0Z"/>
      <path d="M469.2,518.8c.4.4,2.2,8.5,2.8,10.4,2.2,6.3,7.3,19,10.6,24.5.6,1,1.2,1.9,2.1,2.6l1.2-3.2c3.4,2.7,2.1,8-2.8,8-6.2,0-8-10.7-10.9-14.7-2.8-3.9-2.6,1.4-3.4,3.5-.8,2-3.1,3.6-2.9,5.9,3.4,5.6,5.8,11.8,8.9,17.4.6,1,1.9,1.8,2.2,2.6.9,3.1-1.2,4.6-3.9,2.3-2.5-2.1-5.9-8.2-7.8-11.3-2-3.2-3.7-10.6-8.1-8.2,2.1-4.6-1.4-6.5-3.6-9.6-1.5-2.3-6.5-9.4-6.8-11.5-.4-3.1,1.4-6.7,4.8-5.6,2.6,4.8,5.1,9.7,8.1,14.3.5.7,2.9,4.9,3.9,3.7.9-5.1,3-10.2,2.4-15.5-.5-4-3.5-9.4-2.3-13.5.4-1.5,4.8-2.8,5.5-2.1h0Z"/>
      <path d="M560.2,363.2c0,.1,0,1.4.4,2.3.3.6,2.1,3.2,2.4,3.2.2,0,.7-.9,1.2-1.2.8-.3,4.9-2,5.1-2,1.2,0,6.7,1.8,7.9,2.5,3.1,1.9,6.5,6.7,7.3,10.2,1.5,6.5,2.3,16.7-1.7,22.4-1.6,2.3-3,3.7-4.8,6.4-2.7,4.1-4.7,2.4-6.9-1-5-7.9-8.1-17.5-11.4-26.1-1.4-3.6-5.1-9.3-4.3-13,.4-1.7,3.7-5.3,4.6-3.7h0ZM577.7,401.5c1.6-7.2.7-16.3-2-23.2-.8-1.9-7.5-8.9-9.2-7.2-1.4,1.5,3,14.7,3.9,17.2,1.1,2.8,3.1,7.3,4.5,9.9.6,1.1,1.6,2.8,2.7,3.2h0Z"/>
      <g>
        <path d="M387.9,591.4c.2-.2,1.7,0,2.4,0-.8,1.6,0,3.4-.3,5-.6,3.7-3.2,7.8-1.2,11.2.7,1.1,4.2,5,5.5,3.7.2-.2,0-4.9,0-6,0-1.5-1.6-8.4.4-8.3.9,0,5.6,7.3,5.8,8.5,1.7,7.5-9.1,12.2-15.1,10.3-2.1-.7-8.2-6.7-7.9-9.2-1.2,1.5-6.1,2.5-6.4,3.6-.6,2.1,2.1,3.3,3.2,4.8,2.5,3.2,5.5,10.4,4.8,14.4-.1.7-2.7,5.1-3.2,5.6-.9.8-6.3,2.6-7.6,2.8-4.9.6-6.3-2.7-8.5-6.6-1.8-3.2-3-6.6-4.5-9.9-.3-.8-.8-2.4-1.7-1-.1.2-.9,4.5-.9,5.2.1,3.6,3,9.5,3,13.7,0,1.1-.5,4.9-.8,6.1-.3,1.4-1.2,3.9-2.2,5-.4.5-4.9,3.3-5.3,3.4-4.5,1.3-3.1-3.4-3.5-3.9s-2.2.5-2.4,1.2c-.3.9,1.3,2,1.8,3,1,2.2,4,8.8,4.5,10.7.3,1.2.1,2.5.2,3.8l-7.6,2.8c-1.5-.3-2.7-6.1-3.5-7.7-2.4-5.2-5.3-10.9-8-16-1.5-2.8-5.6-6.8-4.8-10.1.3-1.4,2-2.6,2.2-3.5.1-.7-.7-1.9-.7-3,0-3-.9-11.6,2.9-12.3.6-.1,1.4.6,2.2.5,2.7-.3,3.4-4.7,7.7.5,2.4,2.9,1.9,7.7,6.9,5.4,4.4-2,2.8-4.2,3.5-7.6.2-1,3.1-6.6,3.8-7.4.7-.8,1.9-.9,2.2-1.4,1.5-1.8,3.6-5.7,5.4-7s4-1.1,5.6-2.4c1,.5.1,2.2-.2,3-1.8,3.6-6,4.6-4.8,10,.2.7,1.3,2.9,1.8,2.9,2,0,7.5-19.7,8.6-22.5,1.8-4.7,2.4-2.2,4.2-2.3,1.3,0,4.9-12.9,6-15,1.4.6,4.5-1.1,4.7-.9,1.5,1.8-5.2,16.3-4.7,19.4.1.7,2.3,5.3,2.7,5.3,1.6,0,3.1-7.3,3.6-8h0ZM371.9,632.1c.2-.3,0-6.4,0-7.5-.2-1.7-1.1-3.9-1.5-5.7-.3-1.5.6-3.7-1.6-4.3.4,2.2-4.1,6-3.9,7.5.1.7,3.7,7.6,4.3,8.5.5.7,2.1,2.3,2.8,1.6h0ZM344,641.6c2.3-.9,1.7-4.7,1.6-6.8-.3-5-2.5-4.3-2.4,0,0,2.3,1.2,4.4.8,6.8ZM336,632c-3.3-.5-.4,3.1-.8,4.8l.8-4.8Z"/>
        <path d="M414,554.1c2.7,2.6,9.2,13.9,10.7,17.6,1.2,3.1,2,6.3,1.5,9.6-.1.9-7.7,3.6-9.2,3.7-3.9.4-6.4-1.2-9.6-3.2-1.2-.8-.7-1.1-2,.4,1.8,4,2.7,8.3,4.4,12.4,1.2,3.1,6.3,9.8,3.6,12.4-.5.5-4.6,2-5.1,1.9-.8-.2-6.5-11.7-7.3-13.5-1.4-3.6-3.7-10.5-4.2-14.2-.4-2.8-.6-4.1,1.9-5.7.8-.5,5.6-2.3,6.3-2.2,1.6,0,6.7,3.1,8.6,3.9.7.3,2.5,1.1,2.9.6.5-.5-4.2-11.3-4.8-13.1s-1.6-4.7-1.6-6.4c0-.7.7-5,.9-5.2.2-.3,2.6.6,3,1Z"/>
      </g>
      <path d="M537.9,435c.8.8-.5,4.2-2.1,4.7-4.3,1.2-6.5-4.8-7.9-7.9-1.9-4.4-3.4-11.1-5.8-14.9-.7-1.1-.9-2.2-2.6-1.8,0,2-2.7,3.8-3.1,5.3-.8,2.8,2.5,7.1,3.5,9.8.7,1.9,3.6,10.4,3.6,11.6,0,1.8-2.4,3.2-4,2.8l-17.2-35.8c-1.4-3.3,1.5-5.7,4.7-4.7,2.2.7,5.9,10.3,7.3,12.7,2.6-3.1,2.4-9.2,1.9-13.1-.2-1.4-2.3-6.8-1.5-7.6.1-.1,3.4-1.6,3.6-1.6,1.2-.2,3.1,3,3.6,4.2,2.6,5.2,3.7,11.4,6.6,16.5,1.8,2.8,5,20.4,7.1,20.6.5,0,1.7-.9,2-.6h0Z"/>
      <path d="M471.3,443c.3-.4.7-3.1,1.9-1.6"/>
      <path d="M558.8,412.5c.3.3,1.3,0,1.4.6.3,2.3-.4,3.5-2.8,3.6-3.6,0-11-15.2-12.8-15.2-.1,0-1.8,1.7-1.9,2.1.6,4.6,2.7,13,1.4,17.4-.4,1.4-3.3,2.3-4.7,2.1l-3-11.7c-1.2-9.3-3.2-18.5-5-27.8,0-1.8,1.6-1.5,2.2-2.2,1.1-1.2,2.1-4.4,5-3.4l7.6,11.6,2.8,1.6c.6-2.5,2.8-4.7,3.6-7.2s.9-5.5,2-8c.6,0,1.5.9,1.6,1.3.1.7-2.2,7.8-2.8,9.1-1.1,2.8-3.9,6.1-3.6,9.1.2,1.5,4.6,10,5.7,11.9.4.8,3.1,4.9,3.3,5.1h0ZM542.6,396.7c-.1-.1-1.1,0-1.6,0l.8,3.2c1.7,0,1.4-2.6.8-3.2Z"/>
      <path d="M631.1,414.2c-.7.5-3.6-.2-3.9.1-.4.4,2.2,9.3,1.2,11.1-1.3,2.4-5.3,5.4-7.9,3.2l-14-24.5c.1-2.7,5.2-4.7,7-3.4.4.3,1.7,4.1,2.9,4.7l4.9-3.9c1.3-.3,3.3,3.4,4.3,2.3.5-.5-3.7-11.8-4-14-.2-1.7-.1-7.2.8-8.3,1.9-2.3,4.1,7.4,4.4,8,1.8,4.3,6.6,11.8,7.4,15.7.3,1.3.4,4.2,0,5.3s-1.7,1.1-2.3,1.7c-.6.6-.7,1.7-.9,1.8h0Z"/>
      <path d="M659.1,485.3c.2.2,0,3.4.4,4.8,1.6,7,7.3,21.1,10.4,27.9.4.9,1,2.6,1.6,3.2.7.8,2.4-.3,2.8,1.2.2.7-1,4.8-1.4,5.7-1.2,2.8-5.7,6.9-6.5,9.5-.3,1.2.8,2.5.8,3.8,0,4.5-4.2,5.6-3.3.4-1.3-.7-3.6,2.9-4,2.4-1.2-1.4,1.9-5.4,2.2-6.9.9-4.1-1.2-5.2-2.1-8-.9-2.9-1.2-6.1-2.2-9-1.6-5.1-3.8-10-5.2-15.1-2.5-.5-1.2,1.2-1.7,2.6-.3.8-1.4,1.9-2.3,2.1-.3-5.2,2.3-9.9,1.6-15.2l-3.2.8c-1.6-4.1,10.6-11.8,12-10.4h0ZM659.9,511.6c.6-2.2,1.3-4.3.6-6.6l-4.6-8.5c.3,4.2,1.6,8.2,2.4,12.4.2,1.2,0,2.4,1.6,2.8h0ZM663.9,511.6l-3,2.9c-.2.8-.3,4.9-.1,5,1.2,1.5,1.7-1.1,2-1.6.9-2.1,1.5-4.1,1.2-6.4h0ZM668.7,529.9c.5-1.9,1-2.9.6-5-.2-1-3.1-8.8-4.6-6.9l-2.4,7.2c3.2.3,1.8-3.4,3.2-4.4.8-.5,1.6.7,1.6.8,0,.2-1.1,3.5-1.4,4.2-.8,2.1-2.8,3.2-1.8,6.6l1.6-3.2,3.2.8h0Z"/>
      <path d="M561.2,635.5c-.2.3-.2.9-.4,1.1-.6.6-1.8.5-2.1,1.5-.4,1.4,1.1,5.2.7,7.9-.6,4.1-4.9,9-9.2,6-6.1-5.6-11-12.4-17.1-18-1.4-1.3-4.6-2.3-3.9-4.7.6-2.2,5.8-2.9,7-2,.2.2.2,1.1.5,1.4,2.6,2.5,6.6,5.8,8.9,8.2,2,2.1,3.3,6.1,5.8,7.8.8-3.9-3.8-9.2-2-12.8,2.2-4.3,7-1,7.6-1.6.6-.5-3.9-12.1-4-14.7,0-.9.7-6.5.9-6.7,0,0,2.2-1,2.3-.9.1.1.1,2.2.4,3.2,1.4,5.1,9.5,16.1,8.3,20.2-.5,1.9-2.6,3-3.7,4h0Z"/>
      <path d="M567.4,467.7c-1.9-1.2,2.6-3.8,3.2-4.4,1.5-1.4,2.4-3.4,3.6-4.4s2,0,2,.4c0,.9-1.9,4-1.5,5.5.3,1,2.3,1.5,3.2,2.4,1.8,1.9,4.9,8.6,4.8,11.1-.1,1.7-1.7,3.9-1.8,5.9-2,.5-2.7,2.3-4.4,3.2-7.8,3.9-11-2.7-14.5-8.4-1.6-2.6-3.8-6.6-5.1-9.3-1.5-3.2-4.4-10.3-3.7-13.6.1-.6,3.1-5.9,3.4-6.2,2-1.6,10-2.2,10.8.5.3,1.2.1,3.1-1.2,3.5-3.1.9-7.2-3.4-5.8,4.3,1,5.7,7.7,21.1,12.2,24.5,2.8,2.1,3.7,1.8,3.6-2,0-3.6-3.1-11-6.4-12.7-.9-.5-2.2-.3-2.4-.4h0Z"/>
      <path d="M535.5,570.6c.3.3-.6,1.6-.4,2.4.5,2.1,2.6,3.6,3.5,5.2,2.1,3.6,5.9,9.5.5,11.4l-4.8-6.4c-5.9,5.6,6.4,15.9,2,21.2-.5.6-2.8,2.1-3.6,1.9-1.8-.4-4-8.9-5.3-10.7-.8-1.1-2.3-1.2-2.4-1.7-.2-1.5.8-2.8.7-3.8-.2-1.5-2.8-7-3.5-9.3s-2.9-9-2.8-10.8c.3-3.9,2.1-2.3,4-3.2.7-.3,1.4-1.9,2-1.9,1.7,0,5.5,4.5,6.8,5.1,1.1.6,3.1.3,3.2.4h0Z"/>
      <path d="M548.2,469.3c.2.2,0,2.6-.4,3.2-.5.7-2.2,1.1-3.2,2.4-1.5,1.9-3.2,5.9-2.7,8.2.1.4,2.9,6.6,3.1,6.9,0,0,2.3.1,2.3,0,.3-.4.4-3.9,1.2-4.8.6-.7,2.1-4.9,2.4-4.8,1.4.6,1.2,2.1,1,3.4-.5,3.1-2.9,8-3,10.6s2.9,5.6,4.8,7.1c2.9,2.4,3.1.1,3.2-3.2,0-2.2-1.8-10.5-.8-11.6,1.2-1.5,1.7,1.1,2,1.6,3,5.4,5.4,13.7-.9,17.4s-9,1-13.1-3.5c-2.6-2.9-2.3-2.8-3.5-6-1.9-5.3-6.7-9.6-7.6-16.3-.6-4.5,1.2-6.4,4.4-9.1l1,3.8c-.2,1.2,1.6,1.3,1.8,1,.7-1,1-3,2.4-4.4.9-.9,4.6-2.9,5.6-2h0Z"/>
      <path d="M489.3,554.5c-2-4.9-4.8-9.8-6.2-15-.5-2-2.2-10.1-1.9-11.4.2-.9,1.4-2,1.3-2.6,0-.5-1.1-1-1.1-1.6,0-.2,1.1-3.5,1.3-3.9,1.1-1.9,5.4-1,6.9.2,1.1,1,.9,2.3,1.6,3.2,2.5,3.5,4.2,4.9,5.6,9.6.9,3.3,3.2,16.1,1.6,18.4-.9,1.3-7.4,5.1-9.1,3h0ZM490.8,540.3c.3-1.4-.2-2.5-.6-3.8-.2-.9-.7-3.4-1.8-3.4-.3,1.4.2,2.5.6,3.8.2.9.7,3.4,1.8,3.4Z"/>
      <path d="M498.8,582.6c-1.7,2.4-3.9,2.8-4.7,6.1-1,4.6,9.2,24,13.4,26.2.7.3,2.8.7,3.2.3.3-.3,2.3-5.9,2.4-6.8.3-2.1-.2-4.2,0-6.3.4-3.6,2.3-7.1,2.4-10.8,1-.2,1.3,1.5,1.4,2.2.5,3.1.7,7.8,1,11.1.1,1.7-1.4,4.8-.9,7-2.6,5.8-7.2,9.5-13.8,8.5-2.9-.4-10.1-10.1-11.7-13-6.2-10.9-8.1-22,7.3-24.5h0Z"/>
      <path d="M632.8,473.3c1.9.1,1.4.2,1.6-1.2.1-.5,1.2-7.4,3.1-5.2.3.3.2,8,0,9.2-.5,3.9-2.9,2.5.6,7.4.5.6-.2,1.5,1.8,1l-.8-15.2h2.4c.1,4.3,4.8,12.1,2.8,16-.2.5-3.4,3.5-4,4-3.9,2.9-7.5,2-9.9-2.1-3-5.1-3.9-13.1-8.1-16.7.6-2.9-1.5-5.8-.6-8.6.8-2.8,4.1-1.6,5.5-2.5.5-.3,3.5-5.7,4-6.8,1.2-.2,2.5.6,2.3,1.9-.4,2.6-4,8.4-3.8,10.4.3,2.1,3.4,5.8,3.1,8.5h0Z"/>
      <path d="M618.4,470.9l.8,9.9c1,2.8,1.6,6.6,2.7,9.2,1.6,3.8,6,7,1.6,11.2-1,1-5.9,3.3-7.2,3.2-1.3-.1-2.7-1.8-3.6-2.8-3-3.4-6.8-8.3-9.6-12-2.3-3-4.7-4.3-1.1-6.7,5.4-3.6,5.4-1.1,9.1,1.9,3.4,2.8,1.9.7,2-1.2.1-2.8,1.1-9.5,2.7-11.6.6-.8,1.3-1.4,2.4-1.2h0Z"/>
      <path d="M596.1,490.9c.2.2-.2,4,.4,5.6.6,1.8,3.2,4.7,4.3,6.8,1.6,3.2,3,7.3,4.5,10.7.7,1.2,1.7.3,2-.5.5-1.7-.9-6.1,1.3-6.7.6-.2,2.6-.2,2.7,0,.1.2.8,4.4.8,5.2.1,1.7.2,4.7-.2,6.3,0,.3-2.4,5.1-2.6,5.4-.2.2-4.4,2.5-5.2,2.8-1.8.8-4.9,1.8-6.8,2-.6,0-2,.3-2-.4.7-1.6,3.8-2.7,4.4-3.6,1.2-1.7-1.8-8-2.7-10.2-.9-2-5.5-11.8-7-12.1-1.3-.3-6.9,4.8-5-1.9.8-3,6-2.3,7-3,.2-.2,2-4.4,2.3-5.3.4-.8.7-2.2,1.7-1h0Z"/>
      <path d="M551.4,541.9c.1.2,0,1.5.4,2.4,2.1,3.9,6,8.4,9.4,11.3,1.8,1.5,1.6,3.8-.3,5.1-.3.2-4.4,2.3-4.7,2.4-3.1,1.1-8.1-1.2-5.6,2.3,2.5,3.5,5.9,5.4,3.6,10-1.8,3.4-4.3.7-6-1.2-1.8-2-5.5-6.2-6.8-8.4-1.8-3-3-5.5.4-7.5,3.6-2.1,8.4-.1,8.8-.4.8-.8-3.2-8.1-3.1-10,0-.5,1.4-5.8,1.6-6,0,0,2.3-.1,2.4,0h0Z"/>
      <path d="M580.1,511.6c.2.3,0,1.8.4,2.4,2.1,2.4,7.3,17.6,8.8,18.3s1.2-1.3,1.2-2c0-3.1-.3-4.6,1.4-7.4.4-.6.6-2.4,1.7-1,.1.1,0,2.4.2,3.4.9,4.4,3.3,10.8-1,14.5-.2.2-4.3,2.6-4.5,2.7-2.1.6-3.1-.4-4.1-2l-10.4-23.1c-.9-2.4,1.1-5.5,3.4-5.9.5,0,2.7,0,2.8,0h0Z"/>
      <path d="M642.4,553.8l-10.8-23.1c-.8-2.1-5.2,3.8-6,.4-.6-2.8,3.5-3.1,4.4-4.4.4-.6.4-1.6.9-2.3,2.3-3.5,4.7-6.9,5.1-11.2,4.3.2,2.1,7.6,1.2,10.4-.3,1.1-1.6,2-1.1,3.4l10.9,23.4c-.4,2.7-1.8,4-4.6,3.4h0Z"/>
      <path d="M564.2,601.7c.2.2,1.3,4.3,2,5.6,2.3,4.5,5.6,8.2,6.6,13.3l7.3,13c-1.5.1-2.6,1.2-4.3.7-2.1-.6-7.1-9.3-8.4-11.6-2.1-3.9-8-15.6-6.1-19.4.4-.7,2.3-2.2,2.8-1.6h0Z"/>
    </g>
  </g>
</svg>