<?xml version="1.0" encoding="UTF-8"?>
<svg id="Layer_2" xmlns="http://www.w3.org/2000/svg" version="1.1" viewBox="0 0 1000 1000">
  <!-- Generator: Adobe Illustrator 30.1.0, SVG Export Plug-In . SVG Version: 2.1.1 Build 136)  -->
  <g id="Layer_1-2">
    <g>
      <path d="M393.7,449.2l-30,12.8c-7.1,3-15.6,8.1-20.9,9.8-2.6.9-4.2,1-7.2.1-2.3-.7-7.1-4.4-4.7-7.2,3.2-3.8,8.8-5.3,13.1-7.6,10.6-5.7,21.1-10,32.1-14.6l27.8-11.7,13-5.4c27.1-11.3,55.2-18.9,83.3-27.2,5.3-1.6,10.2-2.9,15.1-4.9,8.3-3.5,16.9-4.9,25.4-7.8l29.5-9.9,31.2-10,20.9-7.6c3.3-1.2,6.7-1.2,10-2.1l11.3-2.9c7.2-1.9,15.5-3.6,23-5.4,13.6-3.3,25.7-9.8,38.6-14.9l29-11.4,20.8-8.7,12.1-4.6c4.5-1.8,9.1-4.5,14.3-4.2l12.5.6c4,.2,7.2,3.6,11.5,3.2.5,2.9.8,5.4-.6,7.7-21.8-6.7-24.2,3.6-48.5,10.5-3.5,1-6.4,3.1-9.8,4.4l-31.8,12.5c-17,6.7-20.1,10.6-38.8,14.4-8.3,1.7-16.3,3.8-24.5,6.1l-19.9,5.6c-4.8,1.4-9.5,2.8-14.3,4.5-13.4,4.9-26.8,8.3-40,13l-12.2,4.4-43.9,13.8-45.8,14.3c-2.2.7-4.1.8-6.2-.4-.5.9.5,1.3.7,1.6.2.3-.5.6-1.1.7l-36.7,12.5-9.2,3.6c-10.4,4.1-18.7,7.7-29,12.1h0Z"/>
      <path d="M402.6,389.2c5.4-1.2,9.9-3.4,14.8-5.1l12.5-4.2c2.2-.8,4.4-1,6.6-2.1,2.3-1.2,5.8,0,7.9-1.4,2.1-1.5,4.1-1.7,6.6-2.4,1.7-.5,3.6-2.2,5.7-1.4.4-.8-.6-1.1-.5-1.4.3-.6,3.1-1.4,3.6-1.2.4.2.2,1.2.6,1.2,9.8-7.1,12-1.1,18.4-7.1,1.7-1.6,4.8-1.7,7-2.3,5.1-1.5,9.5-4,14.6-5.1,1.7-.3,3.7,1,5.2-.4.4-.4.3-1,.6-1.2.5-.3,1.4,0,2.3.4-.2-2.4,4.1-2.4,10.4-4.9,2.4-1,5-1.1,7.3-2.4,1.7-.9,3.4-.7,5,.7,1.1-1,0-1.2-1-1.8,2.3-1.8,5.4-1.5,8.3-2.5l11.3-3.7,35.9-10.7c3-.9,6-2.3,9-1.2.7-1.1,1.5-2.5,3-2.7,3.8-.4,7.1-2.5,10.7-3.3,4.2-.8,7.8-2.4,11.8-3.8l7.1-2.5c13-4.6,23.6-6.1,36.9-10.6l36-12.2,20.6-6.4c.9-.3,1.8-.9,2.6-.5,2.2,1.2,1.2,10,.9,12.6-3.8,1.7-7.5,1.8-11.3,3.1l-45.3,15.2c-15,5-29.5,8.7-44.6,13.4l-48.5,15.1c-9,2.8-17.5,5.5-26.5,8.2l-19.5,5.8-10.6,3.8c-23.6,8.4-47.4,14.4-71.1,22.7l-47.5,16.6-59,21.6c-9.2,3.4-17.8,6.8-27,10.1l-17.4,6.3c-3.8,1.4-7.3,2.9-11.1,4-4.5,1.4-9,2.4-13.2,4.3l-14.7,6.5-17.7,7.6c-12.3,5.3-25.1,8.7-37.6,13.9-4.9,2-9.6,1.4-12-3.9-.4-.8-1.2-2.1-.9-3.1.3-.9,1.4-2.2,2.7-2.5,11.9-3.1,30.9-10.2,42.9-14.6l13.9-5.1c4.8-1.8,9-4.2,13.8-5.9,1.6-.6,2.7-2.3,4.5-2.8,11.8-3.3,22.7-7.9,34-12.4l13.8-5.5c7.4-2.9,14.6-5.2,22.1-7.9l27.6-10.2,31.3-11.3c2.3-.8,4.2-2.6,7-3.2h0Z"/>
      <path d="M448.9,465.9l-25.3,9.7c-9.5,3.6-18.3,7.4-27.3,12.2-3.6,1.9-9.7-4.8-9.2-7.6.1-.8.7-2.1,1.9-2.6l21.8-9.8,20.4-8.1,45.4-17.1,7.4-2.7,9.6-3.8,29.5-9.5c5.9-1.9,11.3-4,17.3-5.5,8.2-2,16.3-3.9,24.2-6.6,6.5-2.2,12.8-3.6,19.5-5.1,15-3.3,29.5-6.6,44.1-11.2,2.6-.8,5.2-.6,7.6-1.3l16-4.4c3.7-1,6.8-1.8,10.3-3.1l7.6-2.7,22.5-9.1c2.9-1.2,6.1-1.9,9.1-2.7,11.3-3.1,21.9-6.7,33.1-10.5,11.4-3.9,22.2-8.1,33.9-11.1,2.3-.6,4.2-.6,6.3-1.6,4.3-2,9.6-1,14.2-1.9,5.2-1.1,9.6-.6,13.5,4,.3.9-16.3-2.8-9.7.6,3.1-.2,12.3.7,12.9,2.5.9,3.1-9.6-3.9-20.1,2.4-3.7,2.2-7.3,2.9-11.3,4.5l-16.4,6.3-28.2,9.8-11.8,3.5-20.4,6.3c-4,1.2-7.9,2.5-11.7,4.2-18.6,8.1-23.9,8-41.4,13.3-2.6.8-5,1.1-7.7,1.8l-28.5,7.8-27.9,6.1-30,8.7c-6.5,1.9-12.5,3.5-18.9,5.6l-28.4,8.9c-2.5.8-4.6,1.4-7.1,2.4l-23.9,9.3-23,8.4h0Z"/>
      <path d="M449.1,516.1c-5.2-.1-8.3-5.2-7-9.6l24.1-8.8,8.1-3.1,9.9-4,34.6-11.4,37.5-10.9,16.2-5c4.8-1.5,9.1-3.3,14-4.4,2.3-.5,4.6-1.1,6.9-1.9l29.1-10.1,26.6-7.7,19.9-5.9,12.7-3.8,28.1-7.7c3.3-.9,6.3-1.3,9.5-2.4,8.4-2.9,12.8-4.5,20.8-8.5l12.8-6.3c9.6-4.7,18.9-9.3,29-12.5,4.5-.2,9.1-3,13.4-1.4l7.3,2.7c1.5.6,2.3,3.5,3.4,4.4-2.9,1.7-5.4.1-8.2.4-6.2.6-12.2,2.7-17.2,6.5l-39.1,19.2c-3.9,1.9-8.2,3.8-12.2,5l-26.9,7.4-31.3,8.9c-10,2.8-19.6,5.5-29.6,8.5l-20.8,6.2c-11.8,3.5-22.8,8-34.8,10.9-3.4.8-6.4,2.1-9.6,3.1l-16,4.8c-18.1,5.4-35.8,10.8-54,16.4l-17,5.2c-7.6,2.3-14.3,6.4-22,8.8-6.1,1.9-12,3.6-18,6.9h0Z"/>
      <path d="M526.4,531.7l-28.6,10.3c-2.7,1-4.4,2.2-7.4.6-1.4-.7-4.7-1.7-4.6-3.7,0-1.6,1.4-5,2.9-5.8,7-3.5,14.4-5.1,21.6-7.9,6-2.3,11.6-4.4,17.9-6l37.9-10.2,23.8-6.8,22.8-5,16.8-4.6,17.6-4.7c2.5-.7,4.6-1.6,7.3-2.4l19.8-5.3,7.5-1.8c11-2.7,19.2-4.4,30.1-7.1l31.7-8.1c12.3-3.1,23.5-10.9,36.1-11.2l12.6-.3c5.4-.1,9.9,1.8,12.2,6.5.7,1.5,4.2,1.5,4.5,3.8,1.2-.5,1.2-1.4,2.4-1.3-2.1,7.9-6.7-6.5-23.4.9-1.3.6-2.8.2-4,.9-3.5,2.1-7.2,2.8-11,4.1l-25.3,8.6-48.2,11.1-36.1,9.2c-22.5,5.7-44.5,10.8-66.8,16.9l-17.6,4.8-15.2,4.4-23,6.2-14.3,3.7h0ZM714.2,475.8l7.9-2c3.8-.9,7.9-.7,10.9-3.5l-22.6,4.3c-1.6.3-3.1.3-3.8,1.8,2.6.7,4.8.1,7.5-.6h0ZM704.3,476.9c-2.9-.4-5.2.9-8,1-.9.6-2.1.5-2.1,2.1,3.5-1.3,6.7-1.4,10.1-3.1h0ZM690.2,480.4c-.4-.9-1.3-.7-2-.6-.5,0-.7.7-.1,1.6.5-.6,1-.9,2.2-1.1h0ZM649.9,491c-2.4-.1-4.6.2-6.6,1.8,2.3.7,4.9,0,6.6-1.8ZM634.9,494.9c-4.8-.4-8.8,1.5-13.2,2.5-6.9,1.5-13.2,3.6-20.2,5.5-1.1.3-.4.4,0,1.1,0,0,31-6.3,33.4-9h0Z"/>
      <path d="M579.4,562.4l-10,3c-8.9,2.7-17.5,5.6-25.7,10-1.7.9-2.8,1.8-4.5,1.1-3.3-1.2-4.4-7.5-4.4-7.4.4-.9,1.1-2.4,2.2-2.9,6.2-3,12.4-5.6,19-7.8l21.4-7.1,28.7-9.3,28.8-8.2,25.2-6.5,40.8-9.1c5.5-1.2,10.6-2,16-3.2l14.2-3.2c17.1-3.9,27.2-6.8,43.8-12,5.6-1.7,12.3-2.5,18.1-2.2,4.3.3,7.9,3.7,12.5,2.8.2,2,.5,4.1-1,5-2.5,1.7-5.6-.7-8.3,0s-5.9.6-8.2,1.7c-3,1.5-6.9,1.6-9.3,3.2-3.6,2.4-6.3,3.8-10.5,4.7l-17.4,4-45,10.1-41.9,9.5-37.2,9.3-27.9,7.9c-6.5,1.9-12.5,4.4-19.3,6.4h0Z"/>
      <path d="M621.6,598.9c-8.9,2.8-16.9,6-25.5,8.1-2.8.7-5.1-2.3-5.7-4.2s-.7-6.3,1.9-7c4.3-1.3,8.3-2.2,12.4-3.7l15.4-5.3,32.8-10.8c19.8-6.5,41.4-11.5,61.8-16.4l21.7-5.2c4.3-1,8.4-1.9,12.7-3.1l19.8-5.7,11-2.7c12.4-3.1,7-1.2,20.4,1.2-3.8,3.4-8.7,3.8-13.4,5.4s-8.3,4.5-12.9,6l-25.6,8.5c-4.7,1.5-9.2,2.4-13.9,3.5l-11,2.5-22.1,5.6-26.7,7.2-29.7,8.8-23.2,7.4h0ZM789,545.9c-2.1-.7-3.2-.8-4,0,1.6.5,2.9.5,4,0ZM793.2,545.3c-2-.1-2.3.9-.4,1,.9-.1,1.2-.5.4-1ZM782.1,546.1c-2-.1-2.3.9-.4,1,.9-.1,1.2-.5.4-1Z"/>
      <path d="M645,635.1c-1.2.9-2.3,1.4-3.4,1.2-2.2-.2-4.8-4.6-4-7.1.7-2.1,9.4-7.7,11.5-8.6,10.8-4.6,21.7-8.1,33-11.4l7-2.1c3.6-1.1,6.8-2.3,10.5-3.5l14-4.7c3.9-1.3,7.4-2.6,11.3-3.7l19.8-5.7,25.7-9.1c5.5-2,11-3.3,16.7-4.6-.3,0,7.8.2,8.4,1.8.8,2.2-10.4,7.3-9,6.9l-8.4,2.7c-1.4.5-21.4,11-36.3,14.3-4.5,1-8.7,2.1-13.1,3.6l-40.3,13.4c-9.5,3.1-35.6,11.5-43.1,16.7h0Z"/>
      <path d="M708.2,657.2c-5.9,1.7-11,3.7-16.2,6.2-1.7.8-3.7,0-5.6-.4-.8-2.6-2.2-5.4-1.5-8.1.3-1.2,10.8-6.3,12.9-6.9,11.8-3.4,22.4-8.6,34-12.5l27.3-9.1c10.5-3.5,20.6-6.8,31.5-9-.3,0,12,.8,11.8,2.8-2-.1-2.6,2.7-4,3.2-5.6,2-11.1,3.5-15.9,7.2l-28.4,9.8-20,6.9c-8.7,3-16.7,7.1-25.9,9.8h0Z"/>
      <path d="M762.8,675.1c-20.2,10.7-19,5.5-33.5,12.9-1.4.7-2.2,1.6-3.8,1.2-4.1-.9-4.8-9.4-1.2-11.6,11.2-6.8,19-3.8,32.5-11.7,6.6-3.9,13.1-7.2,20.3-9.6,6.2-2.1,17.8-7.4,24-3.3l-10.3,6.6c-5.4,3.5-8.5,5.1-14.1,8.1l-14,7.4Z"/>
      <path d="M793.6,695.3c-3.1,1.1-11.6,7-16.9,9.4-5.5,2.5-10.8,4.4-15.8,7.9-1.3.9-4,.9-4.8-.5-1.7-2.8-2.1-5.9-1.6-9.1,9.5-4.2,18.8-8.3,28.8-11.4,3.7-1.2,7.1-1.7,10.9-1.1,1.1.1,4.2-1.2,3.4,1.5-.4,1.2-2.8,3-4,3.4h0Z"/>
    </g>
  </g>
</svg>