<?xml version="1.0" encoding="UTF-8"?>
<svg id="Layer_2" xmlns="http://www.w3.org/2000/svg" version="1.1" viewBox="0 0 1000 1000">
  <!-- Generator: Adobe Illustrator 30.1.0, SVG Export Plug-In . SVG Version: 2.1.1 Build 136)  -->
  <g id="Layer_1-2">
    <g>
      <path d="M588.6,514.1c-1.3.9-6.2-.6-5.9-2.5.7-4.4,6.5-26.3,9-27.5,5-2.4,10.2,8.5,11.8,13.8h0l8.4-21c2.4-6.1,4.9-11.9,9.3-17.5h0c1.6,4.3-1.1,7.8-2.2,11.7-3,10.4-4.2,21.1-7.9,31.2h0c-2.9,3.1-9.6.7-11.9-2.2-2-2.5-2-5.3-4.3-7.7h0c-2.6,7.3-4.6,14.5-6.3,21.7h0Z"/>
      <path d="M575,515.8h0c-3.9-1.1-5-4.3-5-7.3.2-10.6,6.3-28.8,7.6-40.6.8-1.2,3.9-.6,4.6.3.8.9,1.8,3.2,1.2,4.9-1.7,4.5-1.8,9.1-3.1,13.5-3,9.6-6.6,18.9-5.3,29.2h0Z"/>
      <g>
        <path d="M472.4,514.5l-4.6,14.9c-.7,2.2-1.7,3.3-3.4,3.1-2.6-.4-3.7-1.9-2.8-4.6,4.6-13.6,8.6-27.2,15.9-39.7h0c1.9-1.5,7,1,7.2,2.9l1,9.7h0c1.9-3,8.5-20.6,14.4-14.8-7.3,5.4-11.2,28.2-14.1,37.9-.7,2.2-3.4.6-4.6,0-3.3-1.5,1.3-22-1.5-28.8-3.8,6-5.6,12.5-7.6,19.3h0Z"/>
        <path d="M403.2,521.2c-5.8,7.5-12.6,26-24.7,17h0c-.9-5.7,2.1-10.8,3.7-16l5.3-17.5,5.2-20.4h0c.7-1.2,3.8-.6,4.6.2s1.8,3.1,1.3,5l-12.9,45.6h0c7.9-1.6,14.3-20.4,17.6-13.9h0Z"/>
        <path d="M427,521.6l3.8-28c.2-1.8,2.5-1.1,3.4-.8,4.7,1.8-1.1,13.2.3,19h0c.9-2.1,17.1-27.5,19.1-20.3h0c-2.8,3.3-5.8,7.1-7.5,11.3l-9.6,22.9c-1,2.4-4,2.7-5.7,1.9-2.1-1-4.2-2.8-3.8-6.1h0Z"/>
        <path d="M518.3,477.7c-2.2,3.7-12,35.7-5.6,37.1h0c2.1-5.1,4.7-10.2,3.8-14.8l-.6-2.9c-.2-.8,3.3-.5,3.8.3-.4,6.3-.6,15.2-4.5,21h0c-6.2.8-10.1-5.9-9.3-11.9,1.7-12.3,5.2-23.8,9.6-35.2.7-1.1,3.2-.8,4.3-.5,5.8,1.6,4.8,20-.6,17-3.6-2,1.2-5.1-.7-10h0Z"/>
        <path d="M455.4,522.2c-.8,3-1.1,5.5.5,8.3h0c-1.7,1.3-3.4.5-4.9,0-1.7-.7-2.2-2.9-1.8-5l8.2-38.5c.3-1.5.6-3.2,1.5-3.6,1.3-.6,2.9-.5,4,.2.9.6,1.1,2.8.7,4-1.7,4.6-1.3,9.4-2.5,13.8,0,0-5.8,20.8-5.8,20.8Z"/>
        <path d="M415.3,524c0,2.2,1.5,4-.3,5.6-1.2,1.1-4.6,1.3-4.9-1-1.1-9.1,5.7-28.9,5.3-39.4h0c1.3-1,5.4-.4,5.7,1.1.6,7.7-6,27.5-5.8,33.7Z"/>
      </g>
    </g>
  </g>
</svg>