<?xml version="1.0" encoding="UTF-8"?>
<svg id="Layer_2" xmlns="http://www.w3.org/2000/svg" version="1.1" viewBox="0 0 1000 1000">
  <!-- Generator: Adobe Illustrator 30.1.0, SVG Export Plug-In . SVG Version: 2.1.1 Build 136)  -->
  <g id="Layer_1-2">
    <g>
      <path d="M416.8,492.9c-4.5-.2-5.5-4.8-6.2-8.7l-8.9,19.7c-.7,1.6-2.6,2.6-4,2.6-4.4,0-5-7.5-4.2-11.6,2.1-9.8,4.7-19.1,7.7-28.6.5-1.7,1.5-2.5,2.8-2.4,1.8,0,3.3,1.1,2.8,3.2-2,8.4-5.1,16-6.3,25,4.3-6.2,5.6-13.1,9.6-19.4.7-1.2,2.6-.9,3.7-.3,3,1.7.9,9.5,2.3,12.5,4.9-6.2,7.8-13.5,14-18.2l7.6-5.8c.8-.6,21.2-16.7,19.9-15l3.5-4.3c1-1.2,2.8.8,3.5,1.6,1.2,1.3.5,2.6-.2,4.1-2.2,4.8-3.5,9.8-6.2,14.4-1.7,2.9-3.8,5.3-4.6,8.7,4.1,2.6,19.3-15.4,20.4-17.4l7.1-12.1c.8-1.3,2-3,3.4-2.5,1,.3,3.3,1.8,2.7,3.1-1.8,3.3-9,14.1-8.2,15.8,1.1,2.6,10.5-7.7,11.7-9.2l15.5-18.5c1.3-1.6,4,.4,5.3,1.4,7.3-4.6,20.1-17,28.5-8.8,7,6.8,1.3,19.5-7.2,24.5-2.6,1.6-5.6,2.1-8.5.8-3.8-1.7-6.3-6.6-3.8-7.2,1.9-.4,1.7,4.2,3.1,4.3,6.9.5,17.9-12,14.2-20.5-5.9-3.6-22,8.8-24.7,13.9s-.4,20.5-16.3,49.5c-3,5.5-11.3,21.8-15.5,24.9-2.6,1.9-5.9-1.6-6.1-4.4-.5-7.7,5.8-29.1,9.6-37l5.5-11.3,7.3-10.6c-7.7,5.3-10.2,16.8-22.4,11l-11.5,11.8c-3.6,3.7-9.3,4.1-13.5.6-2.5,3.3-5.4,5.7-9.5,5.8-2.4.1-3.6-2.2-4.7-3.5-1.7-2.1-.2-4.2.5-7.2-5,2.4-12.1,15.2-14.3,20.9-.8,1.9-2.9,4.8-5.5,4.7h0ZM506.9,444.4c-14.6,16.2-24.8,40.2-27,62,11.5-14.9,26-43.9,27-62ZM442.1,472.1c5.5-4,9-8.9,10.5-15.4-3.5,2.1-4.9,5.6-7.2,8.7-1.5,2.1-3.6,3.6-3.4,6.8h0Z"/>
      <path d="M142.5,546.2c.3-1.2,2.5-.4,2.9.3,1.9,2.9-3,12-1.9,17.1,2.5-2,3.5-4.9,6.1-6.5,2.6-1.6,5.9,0,7.4,2.4,1.2,2,1.3,4.2,3.2,6.2,3.1-4.4,4.3-9.1,7-13.3l3.4-5.3c.9-1.5,3-.9,4.3-.3,5.8,2.5-1,30,4.3,21.6l12.3-19.5c1-1.5,4.9.7,5.4,2.3,1.3,4.4,2.8,15.6,6.3,15.5,1.3,0,1.7-1.3,1.9-2.6,1-7.1,1.7-14,3.7-20.9.4-1.4,2.5-.5,3.3-.2,1.4.4,2.1,2.2,1.8,3.9l-2,13c1.8-1.5,4.2-3.8,4.2-6-.4-11.1.3-29.9,7.2-38.9,1.9-2.6,7.4-1.5,9.3.6,3.9,4.2,3.6,11,2.4,16.2-3.5,14.8-11.9,22.4-12.1,26.3-.2,2.8,5.2,2.8,7.2,1.8,6.6-3.1,18.3-12.4,15.6-19.3-.4-1-2.2-1.1-2.2-2.1-.1-3.2,3.7-3,4.2-7.8l1.3-12.2c.3-2.7-.8-6.9,1.2-9,1.8-1.9,4.5,1.5,4.7,3.5.6,5.6-1.2,15.5-.9,15.9,1,1.6,5.9-1.1,9.1,2.7,2.1,2.4,2.9,5.4,1.7,8.4-.8,2.1-.7,4.3-1.7,6.4-.7,1.3-2.5.8-3.5,0-1.9-1.4,1.9-9.3-.2-13.3-1.7.2-5.6.8-6.2,3.1l-2.9,12c-1.8,7.3-.2,16.6-3.4,17.6-.9.3-2.9,0-3-1.4-.1-3.5,1.9-6.3.5-10.2-2.5,3.7-4.9,5.4-8,7.2-10.2,5.7-14.6-1.9-16.8.4-2.4,2.5-4.5,5-7.3,7-1.6,1.2-1.9,2.5-1.5,4.6.1.8-2.4.8-3,0-3.8-5.5-8.7-.3-14.2-15.3l-8.5,13.5c-1.6,2.5-4.6,3.7-7.5,3.2-9.7-1.7-4.3-11.9-6.3-17.6l-10.1,19.7c-.8,1.5-3.3-.2-4.3-.9-3.5-2.4-.7-10.4-3.5-14.8-3.5,3.1-4.6,7.1-6.8,10.9-3.9,6.7-7,14.4-7.7,21.9-1.4,1.2-5.3.5-5.6-1.3-.5-2.6,3.1-17.9,3.9-21.5l5.8-24.9h0ZM220.9,548.1c6.5-8,9.1-17.1,10.1-26.4-.3-2,0-3.9-2.3-5.4-5.7,4.1-8.4,25.2-7.8,31.7h0Z"/>
      <g>
        <path d="M194.6,624.9c-3.5,3.3-5.5,7.3-8.3,10.8-9.5,11.2-10,20.5-22.1,25.2-3.9,1.5-10.3-1.5-12-4.9-1.3-2.5-1.2-4.3-4-5.4-1.9-.7-3.6-2.7-3.4-4.8,2.8.3,3.4,2.1,6.6,2.9,1-12.7,8-32.2,19.7-38.6,4-2.2,10-1.7,12.1,3.1,2.8,6.4,1.8,13.4-.1,20.3,5.5-4,11.2-16.5,15.3-18.7,2-1,3.4,2.4,2.9,4.2l-6.2,20.8c7.4-4.7,16.3-23.4,24.5-17,6.4,5,1.7,8.2,5.5,12.2,1.7-1.9,4.3-2.1,5.9-3.8,3.1-3.1,6.9-5.9,9.4-9.5,2.8-4,4.2-15.5,11.8-20.7,3.4-2.3,7.3-1.1,10.7,1.7.7-8.3,1.3-15.8,4.5-23,.8-1.8,2.9-1.4,4.5-1.1,6.7,1.2-1.4,22.4-3.3,26.8-2.1,5-.7,14.9,2,14.1,4.5-1.2,6.8-4.9,9.7-8,8.7-9,14.6-19.5,19.7-31,.6-1.4,5.5,1.1,5.1,2.6-1.9,7.2-6.9,13.8-9.4,20.7-1.4,3.9-3.4,3.4-5.9,5.4-3,2.5-10,17.4-18.2,14.3-3.6-1.4-6.8-2.9-8.5-6.8-3.8,3.5-5.6,10.3-12,11.5-3.8.7-6.8-1.8-9.5-4.1l-12.8,11.8c-1.5,1.4-3.7,1.7-5.3,1.3s-2.9-2-3.4-4l-2-8.1c-11.2,4.3-2.8,2-8.1,7-6.3,5.9-13.2,20.3-20,16.4-1.4-.8-1.6-2.7-1.1-4.4l5.8-19.5h0ZM247.1,623.6c2.9,1,20.9-23.9,13-18.8-.5.3-.1,1.6-.6,2.2-5.3,6.8-11.7,8.8-12.4,16.6h0ZM157.1,649c6.5-1.8,11.8-4.7,15.9-9.2,5.8-5.5,12-23.8,6.4-28.3-2.1-1.7-5.2,0-6.8,1.8l-6.7,7.6c-4.8,5.5-6.5,12.6-8.2,19.5-.7,2.9-2.5,5.8-.6,8.7h0ZM169.6,650.2c-4.4,3.3-16.9,2.9-12.6,6.4,3.5,2.9,11-3.7,12.6-6.4Z"/>
        <path d="M336.6,592.3c-6.1-3.2.7-15.1-.9-22.3-6.3,3-16.7,17.5-21.3,23.7-1.2,1.5-4.3,0-5.5-.7-1.7-.9-2.1-4-1.4-6.2,2.1-6.4,3.7-12.6,4.5-19.2-1.9-.6-3.2,2.2-4.8,1.9-1.9-.3.3-2.6,1-3.6,1.5-2.1,3.1-3.8,5.6-3,7.3,2.1,1.7,13.7,1.4,19.6,5.3-3.6,15.8-20.3,22.4-17.4,1.9.8,4.3,2.8,4,5.4l-.7,7.2c-.4,3.9-2.8,7.5-1.6,11.6,6.6-5.4,10.3-9.3,15.6-15.2-8.2-8.5,0-20.2,6.3-27,4.4-4.7,11.7-6.6,17.6-3.4,4.9,2.6,7,8.9,5.6,14-.8,3-3.1,4.8-3.3,7.7,4.3-4.3,8.2-7.8,13.9-7.2,2.7.2,5.1.6,6.6,2.5,1.2,1.5,3.1,4.4,1.7,6.6-3.4,4.9-14.1,10.7-17.9,4.7,5.4-1.5,10.9-4.7,11.2-10.8-24.6,9-10.6,16.8-19.9,34.9-2.9,5.6-6.3,11.3-10.3,16.4-1,1.3-3.5,1.2-4.5.5-.9-.6-2.1-2.7-1.7-4.4,2.7-12.1,7.9-23.1,14.2-33.7-1.8-1-1.8,1.4-2.6,1.8-4.3,1.8-9.2,2.1-13.7,1.1-5.6,5.5-8.4,10.2-14.5,15.2-2.1,1.7-5.1.4-7.1-.6h0ZM376.8,558.2c2.9-3.4,4-9,1.1-11.1-1.9-1.4-5.7,1.2-7.4,2.5,2.9,2.5,4.2,5.6,6.3,8.6h0ZM370.3,557.9c-1.5-4.7-6.5,3.9-6,5l6-5ZM366.6,603.3c4.9-6.6,8-14,9.3-22.2-2.8,1.8-3.4,4.9-4.9,7.6l-4.4,14.6Z"/>
      </g>
      <path d="M326.3,529.4c-5.2,3.4-12.2,6.1-17,1.3-2.9-2.9-4-6.5-4.6-10.6-10.3,7.8-6.8,12-13.7,21.6-3,4.2-7.4,6.5-12.9,5.1l-6.8,20.4c-.3.8-1,2.5-2.1,2.4-3.2-.2-4.5-3.6-3.6-6.7,5.7-18.9,8.9-38.7,8.6-58.3,1.2-.7,2.5,0,3.2.5,2.3,1.4,2.3,13.4,1.8,17-.3,2.1-1,4.3,0,6.7,2.7-4.3,4.9-8.8,8.7-12.2,3.2-2.9,7.1-1.3,9.9,2.3,3.6-3.7,8.4-6.9,9.9-11.8,3-9.9,5.2-19.8,11.2-28.4,1.2-1.8,2.4-3.1,4.6-2.7,1.7.3,4.4,1.3,4.2,3.8-.9,10.7-6.3,19.1-12.9,27.3-7.4,9.2-5.8,21.6-2,22.1,3.5.4,7.7-3,9.6-5.6,1.2-1.7,1.4-3.9,1.5-5.7.2-2.8,1.6-4.7,2.5-7l3.7-9.8c1.7-4.6,5.8-15.9,11.5-14.9,6.5,1.2,1.9,8.8-.6,17-2.4,7.7-6.1,14.5-10.8,20.9-.9,1.2-1,2.9-.4,4,2.9,5.2,19.2-4.5,23.6-6.9,1.8-1,3.7-2,5.4-.6-4.1,3.7-8.8,5.5-13.1,8.5-5.5,3.9-12.9,4.2-19.2.4h0ZM316.2,496.4l5.8-11.4c.2-.4-.8-1.1-1.2-1.2-.8,3.2-6.4,10.5-4.7,12.7ZM335.3,501c-1.9,3.9-3.7,7.5-5.2,12,.5,1.5,7.9-12.9,5.2-12ZM292.8,519.1c-4.1,4.2-8.1,8.4-9.6,14.3,2.8-1.4,12.9-11.2,9.6-14.3ZM281.1,544.7c4-.8,5.5-3.4,6.3-6.7-2.9,1.9-5.5,3.6-6.3,6.7Z"/>
      <path d="M780.4,358.9c8,2.9-12.2,23.8-14.6,26.5l-7.9,9.1c-1.9-2.7-.7-5.8,1.1-8l6.8-8.2c-6.2,4.3-12.3,8.2-19.5,10.5-2.4.8-4.2,1.7-6.2,3.2-4.5,3.2-10,1.4-12.6-3.6-8.6,8.5-23.1,19.7-34.2,11.6-3.2-2.3-3.7-6.1-5.7-9.6-2.5,3.8-6.1,6.2-9.4,9.3s-7.5,6.5-12.3,4.7c-3.8-1.4-2.9-6.4-.8-9.2,7-9.2,16.1-16.3,26.2-22.1,3.2-7.1,5.7-14.8,11.5-20.2,1.7-1.5,4.2,2.9,3.6,4.9-2.9,8.9-6.4,16.8-11.9,24.2-2.9,3.9-4.3,9.6-1.3,13.9,1.8,2.6,6.5,2.9,9.7,2.2,9.4-2,17-7.7,23.5-14.5.9-8.3,5.5-14.7,11.2-20.4.8-.8,1.3-1.8,2.2-2.2,1.3-.6,2,1.4,2.9,1.8,2-.5,4-3.2,6.3-4.1,2-.7,3.3,1.1,4.2,2,2.5,2.5-1.1,17.4-4,22,12.7-4.5,22.9-14.4,31.3-24.1h0ZM751.4,361.5c-6.9,3.4-18.8,18.5-13.4,23.2s15.6-16.1,13.4-23.2ZM669.5,399.2c7.1-3.4,11.8-8.4,16.8-13.4,1.5-1.4,3-3.3,1.6-5.5-3.4,2.4-6,4.7-8.7,7.2-3.4,3.7-8.1,6.3-9.8,11.7h0ZM736.9,388c-1-2.8-1.8-4.2-3.2-6.4-2.2.8-4.6,4.3-2.9,6.8,1.3,1.9,4.7.9,6.1-.4Z"/>
      <path d="M599,425.7c-2.7.9-6.7,1.6-8.9,3.9l-10,10.6c-3.1,3.3-7.9,4.9-11.7,1.1-1.5-1.4-2.5-5.5-1.3-7.7,6.1-12,13.4-23,22.3-33.2,1.2-1.4,4.1,1.2,3.7,2.4-.7,2.4-3,3-4.5,5.4,3.6.2,6.5,1.5,6.7,5.1.2,3.2-1.1,5.7-1.8,9.1,7.1-2.8,11.4-8.3,14.9-14.7l7.2-13.3c2.2-4,4.3-8.3,8.4-10.9,1.2-.8,2.4,1.5,2.9,2.3.7,1.2-.2,2.3-.9,3.7-2.8,6.2-5.1,12.4-9.3,17.7-3,4-6.7,7-9.1,12.3,6.5-1.6,12.6-4,19.4-2.9.6,0-.6,1.7-1.4,1.9-4,.9-7.4,2.3-11.3,3.8-2.4.9-5.2,2.3-5.9,5.2l-3.3,14c-1.3,5.4-1,10.8-3,16.2-9.6-2.9-6.5-23-3.1-32h0ZM587.6,424.6c2.5-3.9,4.9-8.1,5.1-13.3-7.6.9-12,13.3-8.1,13.6.6,0,2.4.5,3-.3ZM584.6,429c-2.7-2.2-4.1-4.1-5.1-7.6-2.9,3.4-9.5,14.2-8.8,17.8,4.1,1.9,10.8-7.1,14-10.3h0ZM600.2,447.4c1.4-6,3-11.6,3.3-17.8-2.8,5.8-4,11.6-3.3,17.8Z"/>
      <path d="M791.1,374.4c-3.7,4-10,13.5-11.5,7.5-.3-1.1.3-1.8,1.2-2.8,9.5-9.4,11.7-10.4,17.1-23.9.7-1.7.1-3.5-.6-4.5-2.6-3.8-9.5,1.1-12.1-1.5-3.5-3.5,10-3.1,12.1-.7,3.3,3.6,2.1,8.8.9,13.6,3.2-.5,11.5-9.5,13.5-6.7,3.7,4.9-7.3,13.6-3.3,18.8,3.7,4.9,26.6-5.3,27.2-9.8-3.1-12.8-.7-7,0-18.9l4.3-2c-1.2.5,9.6-7.9,11.9-3.2,1.4,2.8-7.1,2.9-3.7,3.9,4.9,1.5,7.4,4.8,6.7,10.2,4.4-2.7,8.2-5.8,11.7-10.3,1.3,2.2.1,4.6-1.5,6.3-7.5,7.4-15.7,13.8-24.3,20.4,1.7,5.6,4.5,10.6,4,16.5-.7,7.8-8.9,16.8-20.8,13.9-4.1-1-7.8-5.3-6.8-9.6,1.1-5,4.7-8.8,7.7-12.6,3.6-4.5,8.2-7.3,12.3-11.4.3-.3-1-1.2-1.3-1s-.6,1.1-1.2,1.5c-5,3.9-10.2,7.3-16,10-4.4,2.1-10.1.8-12.2-3.7-2.4-5.1.4-9.8,2.5-15.1-7.4,3.7-12.5,9.4-17.8,15.1h0ZM852.4,350.1c-2.8-2.1-7.2-3-10-1.1-2.2,1.4-5.8,9.2-4,9.6,4.8,1,11.9-3.8,14-8.5h0ZM839.9,364.5c-.8-.2-1.1-.6-1.5-.9-.6,0-.6,1.2-.4,1.9s1.3.5,1.9.4c.4,0,.9-1.1,0-1.3ZM821.9,396.6c4.7,1.8,10.2,1.4,14.3-1.8,7.7-5.9,7.5-14.8,2.5-22.8-3.5,2-25.1,21.2-16.8,24.5h0Z"/>
    </g>
  </g>
</svg>