<?xml version="1.0" encoding="UTF-8"?>
<svg id="Layer_2" xmlns="http://www.w3.org/2000/svg" version="1.1" viewBox="0 0 1000 1000">
  <!-- Generator: Adobe Illustrator 30.1.0, SVG Export Plug-In . SVG Version: 2.1.1 Build 136)  -->
  <g id="Layer_1-2">
    <g>
      <path d="M313.2,444.5c-4.5-.2-5.5-4.8-6.2-8.7l-8.9,19.7c-.7,1.6-2.6,2.6-4,2.6-4.4,0-5-7.5-4.2-11.6,2.1-9.8,4.7-19.1,7.7-28.6.5-1.7,1.5-2.5,2.8-2.4,1.8,0,3.3,1.1,2.8,3.2-2,8.4-5.1,16-6.3,25,4.3-6.2,5.6-13.1,9.6-19.4.7-1.2,2.6-.9,3.7-.3,3,1.7.9,9.5,2.3,12.5,4.9-6.2,7.8-13.5,14-18.2l7.6-5.8c.8-.6,21.2-16.7,19.9-15l3.5-4.3c1-1.2,2.8.8,3.5,1.6,1.2,1.3.5,2.6-.2,4.1-2.2,4.8-3.5,9.8-6.2,14.4-1.7,2.9-3.8,5.3-4.6,8.7,4.1,2.6,19.3-15.4,20.4-17.4l7.1-12.1c.8-1.3,2-3,3.4-2.5,1,.3,3.3,1.8,2.7,3.1-1.8,3.3-9,14.1-8.2,15.8,1.1,2.6,10.5-7.7,11.7-9.2l15.5-18.5c1.3-1.6,4,.4,5.3,1.4,7.3-4.6,20.1-17,28.5-8.8,7,6.8,1.3,19.5-7.2,24.5-2.6,1.6-5.6,2.1-8.5.8-3.8-1.7-6.3-6.6-3.8-7.2,1.9-.4,1.7,4.2,3.1,4.3,6.9.5,17.9-12,14.2-20.5-5.9-3.6-22,8.8-24.7,13.9s-.4,20.5-16.3,49.5c-3,5.5-11.3,21.8-15.5,24.9-2.6,1.9-5.9-1.6-6.1-4.4-.5-7.7,5.8-29.1,9.6-37l5.5-11.3,7.3-10.6c-7.7,5.3-10.2,16.8-22.4,11l-11.5,11.8c-3.6,3.7-9.3,4.1-13.5.6-2.5,3.3-5.4,5.7-9.5,5.8-2.4.1-3.6-2.2-4.7-3.5-1.7-2.1-.2-4.2.5-7.2-5,2.4-12.1,15.2-14.3,20.9-.8,1.9-2.9,4.8-5.5,4.7h0ZM403.3,396c-14.6,16.2-24.8,40.2-27,62,11.5-14.9,26-43.9,27-62ZM338.5,423.7c5.5-4,9-8.9,10.5-15.4-3.5,2.1-4.9,5.6-7.2,8.7-1.5,2.1-3.6,3.6-3.4,6.8h0Z"/>
      <path d="M38.8,497.8c.3-1.2,2.5-.4,2.9.3,1.9,2.9-3,12-1.9,17.1,2.5-2,3.5-4.9,6.1-6.5,2.6-1.6,5.9,0,7.4,2.4,1.2,2,1.3,4.2,3.2,6.2,3.1-4.4,4.3-9.1,7-13.3l3.4-5.3c.9-1.5,3-.9,4.3-.3,5.8,2.5-1,30,4.3,21.6l12.3-19.5c1-1.5,4.9.7,5.4,2.3,1.3,4.4,2.8,15.6,6.3,15.5,1.3,0,1.7-1.3,1.9-2.6,1-7.1,1.7-14,3.7-20.9.4-1.4,2.5-.5,3.3-.2,1.4.4,2.1,2.2,1.8,3.9l-2,13c1.8-1.5,4.2-3.8,4.2-6-.4-11.1.3-29.9,7.2-38.9,1.9-2.6,7.4-1.5,9.3.6,3.9,4.2,3.6,11,2.4,16.2-3.5,14.8-11.9,22.4-12.1,26.3-.2,2.8,5.2,2.8,7.2,1.8,6.6-3.1,18.3-12.4,15.6-19.3-.4-1-2.2-1.1-2.2-2.1-.1-3.2,3.7-3,4.2-7.8l1.3-12.2c.3-2.7-.8-6.9,1.2-9,1.8-1.9,4.5,1.5,4.7,3.5.6,5.6-1.2,15.5-.9,15.9,1,1.6,5.9-1.1,9.1,2.7,2.1,2.4,2.9,5.4,1.7,8.4-.8,2.1-.7,4.3-1.7,6.4-.7,1.3-2.5.8-3.5,0-1.9-1.4,1.9-9.3-.2-13.3-1.7.2-5.6.8-6.2,3.1l-2.9,12c-1.8,7.3-.2,16.6-3.4,17.6-.9.3-2.9,0-3-1.4-.1-3.5,1.9-6.3.5-10.2-2.5,3.7-4.9,5.4-8,7.2-10.2,5.7-14.6-1.9-16.8.4-2.4,2.5-4.5,5-7.3,7-1.6,1.2-1.9,2.5-1.5,4.6.1.8-2.4.8-3,0-3.8-5.5-8.7-.3-14.2-15.3l-8.5,13.5c-1.6,2.5-4.6,3.7-7.5,3.2-9.7-1.7-4.3-11.9-6.3-17.6l-10.1,19.7c-.8,1.5-3.3-.2-4.3-.9-3.5-2.4-.7-10.4-3.5-14.8-3.5,3.1-4.6,7.1-6.8,10.9-3.9,6.7-7,14.4-7.7,21.9-1.4,1.2-5.3.5-5.6-1.3-.5-2.6,3.1-17.9,3.9-21.5l5.8-24.9h0ZM117.3,499.7c6.5-8,9.1-17.1,10.1-26.4-.3-2,0-3.9-2.3-5.4-5.7,4.1-8.4,25.2-7.8,31.7h0Z"/>
      <g>
        <path d="M90.9,576.4c-3.5,3.3-5.5,7.3-8.3,10.8-9.5,11.2-10,20.5-22.1,25.2-3.9,1.5-10.3-1.5-12-4.9-1.3-2.5-1.2-4.3-4-5.4-1.9-.7-3.6-2.7-3.4-4.8,2.8.3,3.4,2.1,6.6,2.9,1-12.7,8-32.2,19.7-38.6,4-2.2,10-1.7,12.1,3.1,2.8,6.4,1.8,13.4-.1,20.3,5.5-4,11.2-16.5,15.3-18.7,2-1,3.4,2.4,2.9,4.2l-6.2,20.8c7.4-4.7,16.3-23.4,24.5-17,6.4,5,1.7,8.2,5.5,12.2,1.7-1.9,4.3-2.1,5.9-3.8,3.1-3.1,6.9-5.9,9.4-9.5,2.8-4,4.2-15.5,11.8-20.7,3.4-2.3,7.3-1.1,10.7,1.7.7-8.3,1.3-15.8,4.5-23,.8-1.8,2.9-1.4,4.5-1.1,6.7,1.2-1.4,22.4-3.3,26.8-2.1,5-.7,14.9,2,14.1,4.5-1.2,6.8-4.9,9.7-8,8.7-9,14.6-19.5,19.7-31,.6-1.4,5.5,1.1,5.1,2.6-1.9,7.2-6.9,13.8-9.4,20.7-1.4,3.9-3.4,3.4-5.9,5.4-3,2.5-10,17.4-18.2,14.3-3.6-1.4-6.8-2.9-8.5-6.8-3.8,3.5-5.6,10.3-12,11.5-3.8.7-6.8-1.8-9.5-4.1l-12.8,11.8c-1.5,1.4-3.7,1.7-5.3,1.3s-2.9-2-3.4-4l-2-8.1c-11.2,4.3-2.8,2-8.1,7-6.3,5.9-13.2,20.3-20,16.4-1.4-.8-1.6-2.7-1.1-4.4l5.8-19.5h0ZM143.5,575.2c2.9,1,20.9-23.9,13-18.8-.5.3-.1,1.6-.6,2.2-5.3,6.8-11.7,8.8-12.4,16.6h0ZM53.5,600.6c6.5-1.8,11.8-4.7,15.9-9.2,5.8-5.5,12-23.8,6.4-28.3-2.1-1.7-5.2,0-6.8,1.8l-6.7,7.6c-4.8,5.5-6.5,12.6-8.2,19.5-.7,2.9-2.5,5.8-.6,8.7h0ZM65.9,601.8c-4.4,3.3-16.9,2.9-12.6,6.4,3.5,2.9,11-3.7,12.6-6.4Z"/>
        <path d="M232.9,543.8c-6.1-3.2.7-15.1-.9-22.3-6.3,3-16.7,17.5-21.3,23.7-1.2,1.5-4.3,0-5.5-.7-1.7-.9-2.1-4-1.4-6.2,2.1-6.4,3.7-12.6,4.5-19.2-1.9-.6-3.2,2.2-4.8,1.9-1.9-.3.3-2.6,1-3.6,1.5-2.1,3.1-3.8,5.6-3,7.3,2.1,1.7,13.7,1.4,19.6,5.3-3.6,15.8-20.3,22.4-17.4,1.9.8,4.3,2.8,4,5.4l-.7,7.2c-.4,3.9-2.8,7.5-1.6,11.6,6.6-5.4,10.3-9.3,15.6-15.2-8.2-8.5,0-20.2,6.3-27,4.4-4.7,11.7-6.6,17.6-3.4,4.9,2.6,7,8.9,5.6,14-.8,3-3.1,4.8-3.3,7.7,4.3-4.3,8.2-7.8,13.9-7.2,2.7.2,5.1.6,6.6,2.5,1.2,1.5,3.1,4.4,1.7,6.6-3.4,4.9-14.1,10.7-17.9,4.7,5.4-1.5,10.9-4.7,11.2-10.8-24.6,9-10.6,16.8-19.9,34.9-2.9,5.6-6.3,11.3-10.3,16.4-1,1.3-3.5,1.2-4.5.5-.9-.6-2.1-2.7-1.7-4.4,2.7-12.1,7.9-23.1,14.2-33.7-1.8-1-1.8,1.4-2.6,1.8-4.3,1.8-9.2,2.1-13.7,1.1-5.6,5.5-8.4,10.2-14.5,15.2-2.1,1.7-5.1.4-7.1-.6h0ZM273.1,509.7c2.9-3.4,4-9,1.1-11.1-1.9-1.4-5.7,1.2-7.4,2.5,2.9,2.5,4.2,5.6,6.3,8.6h0ZM266.7,509.5c-1.5-4.7-6.5,3.9-6,5l6-5ZM263,554.9c4.9-6.6,8-14,9.3-22.2-2.8,1.8-3.4,4.9-4.9,7.6l-4.4,14.6Z"/>
      </g>
      <path d="M222.6,481c-5.2,3.4-12.2,6.1-17,1.3-2.9-2.9-4-6.5-4.6-10.6-10.3,7.8-6.8,12-13.7,21.6-3,4.2-7.4,6.5-12.9,5.1l-6.8,20.4c-.3.8-1,2.5-2.1,2.4-3.2-.2-4.5-3.6-3.6-6.7,5.7-18.9,8.9-38.7,8.6-58.3,1.2-.7,2.5,0,3.2.5,2.3,1.4,2.3,13.4,1.8,17-.3,2.1-1,4.3,0,6.7,2.7-4.3,4.9-8.8,8.7-12.2,3.2-2.9,7.1-1.3,9.9,2.3,3.6-3.7,8.4-6.9,9.9-11.8,3-9.9,5.2-19.8,11.2-28.4,1.2-1.8,2.4-3.1,4.6-2.7,1.7.3,4.4,1.3,4.2,3.8-.9,10.7-6.3,19.1-12.9,27.3-7.4,9.2-5.8,21.6-2,22.1,3.5.4,7.7-3,9.6-5.6,1.2-1.7,1.4-3.9,1.5-5.7.2-2.8,1.6-4.7,2.5-7l3.7-9.8c1.7-4.6,5.8-15.9,11.5-14.9,6.5,1.2,1.9,8.8-.6,17-2.4,7.7-6.1,14.5-10.8,20.9-.9,1.2-1,2.9-.4,4,2.9,5.2,19.2-4.5,23.6-6.9,1.8-1,3.7-2,5.4-.6-4.1,3.7-8.8,5.5-13.1,8.5-5.5,3.9-12.9,4.2-19.2.4h0ZM231.7,452.6c-1.9,3.9-3.7,7.5-5.2,12,.5,1.5,7.9-12.9,5.2-12ZM189.2,470.7c-4.1,4.2-8.1,8.4-9.6,14.3,2.8-1.4,12.9-11.2,9.6-14.3ZM177.4,496.3c4-.8,5.5-3.4,6.3-6.7-2.9,1.9-5.5,3.6-6.3,6.7Z"/>
      <path d="M676.8,310.5c8,2.9-12.2,23.8-14.6,26.5l-7.9,9.1c-1.9-2.7-.7-5.8,1.1-8l6.8-8.2c-6.2,4.3-12.3,8.2-19.5,10.5-2.4.8-4.2,1.7-6.2,3.2-4.5,3.2-10,1.4-12.6-3.6-8.6,8.5-23.1,19.7-34.2,11.6-3.2-2.3-3.7-6.1-5.7-9.6-2.5,3.8-6.1,6.2-9.4,9.3s-7.5,6.5-12.3,4.7c-3.8-1.4-2.9-6.4-.8-9.2,7-9.2,16.1-16.3,26.2-22.1,3.2-7.1,5.7-14.8,11.5-20.2,1.7-1.5,4.2,2.9,3.6,4.9-2.9,8.9-6.4,16.8-11.9,24.2-2.9,3.9-4.3,9.6-1.3,13.9,1.8,2.6,6.5,2.9,9.7,2.2,9.4-2,17-7.7,23.5-14.5.9-8.3,5.5-14.7,11.2-20.4.8-.8,1.3-1.8,2.2-2.2,1.3-.6,2,1.4,2.9,1.8,2-.5,4-3.2,6.3-4.1,2-.7,3.3,1.1,4.2,2,2.5,2.5-1.1,17.4-4,22,12.7-4.5,22.9-14.4,31.3-24.1h0ZM647.8,313.1c-6.9,3.4-18.8,18.5-13.4,23.2s15.6-16.1,13.4-23.2ZM565.9,350.8c7.1-3.4,11.8-8.4,16.8-13.4,1.5-1.4,3-3.3,1.6-5.5-3.4,2.4-6,4.7-8.7,7.2-3.4,3.7-8.1,6.3-9.8,11.7h0ZM633.3,339.5c-1-2.8-1.8-4.2-3.2-6.4-2.2.8-4.6,4.3-2.9,6.8,1.3,1.9,4.7.9,6.1-.4Z"/>
      <path d="M495.4,377.2c-2.7.9-6.7,1.6-8.9,3.9l-10,10.6c-3.1,3.3-7.9,4.9-11.7,1.1-1.5-1.4-2.5-5.5-1.3-7.7,6.1-12,13.4-23,22.3-33.2,1.2-1.4,4.1,1.2,3.7,2.4-.7,2.4-3,3-4.5,5.4,3.6.2,6.5,1.5,6.7,5.1.2,3.2-1.1,5.7-1.8,9.1,7.1-2.8,11.4-8.3,14.9-14.7l7.2-13.3c2.2-4,4.3-8.3,8.4-10.9,1.2-.8,2.4,1.5,2.9,2.3.7,1.2-.2,2.3-.9,3.7-2.8,6.2-5.1,12.4-9.3,17.7-3,4-6.7,7-9.1,12.3,6.5-1.6,12.6-4,19.4-2.9.6,0-.6,1.7-1.4,1.9-4,.9-7.4,2.3-11.3,3.8-2.4.9-5.2,2.3-5.9,5.2l-3.3,14c-1.3,5.4-1,10.8-3,16.2-9.6-2.9-6.5-23-3.1-32h0ZM483.9,376.2c2.5-3.9,4.9-8.1,5.1-13.3-7.6.9-12,13.3-8.1,13.6.6,0,2.4.5,3-.3ZM480.9,380.6c-2.7-2.2-4.1-4.1-5.1-7.6-2.9,3.4-9.5,14.2-8.8,17.8,4.1,1.9,10.8-7.1,14-10.3h0ZM496.5,399c1.4-6,3-11.6,3.3-17.8-2.8,5.8-4,11.6-3.3,17.8Z"/>
      <path d="M687.5,325.9c-3.7,4-10,13.5-11.5,7.5-.3-1.1.3-1.8,1.2-2.8,9.5-9.4,11.7-10.4,17.1-23.9.7-1.7.1-3.5-.6-4.5-2.6-3.8-9.5,1.1-12.1-1.5-3.5-3.5,10-3.1,12.1-.7,3.3,3.6,2.1,8.8.9,13.6,3.2-.5,11.5-9.5,13.5-6.7,3.7,4.9-7.3,13.6-3.3,18.8,3.7,4.9,26.6-5.3,27.2-9.8-3.1-12.8-.7-7,0-18.9l4.3-2c-1.2.5,9.6-7.9,11.9-3.2,1.4,2.8-7.1,2.9-3.7,3.9,4.9,1.5,7.4,4.8,6.7,10.2,4.4-2.7,8.2-5.8,11.7-10.3,1.3,2.2.1,4.6-1.5,6.3-7.5,7.4-15.7,13.8-24.3,20.4,1.7,5.6,4.5,10.6,4,16.5-.7,7.8-8.9,16.8-20.8,13.9-4.1-1-7.8-5.3-6.8-9.6,1.1-5,4.7-8.8,7.7-12.6,3.6-4.5,8.2-7.3,12.3-11.4.3-.3-1-1.2-1.3-1s-.6,1.1-1.2,1.5c-5,3.9-10.2,7.3-16,10-4.4,2.1-10.1.8-12.2-3.7-2.4-5.1.4-9.8,2.5-15.1-7.4,3.7-12.5,9.4-17.8,15.1h0ZM748.7,301.7c-2.8-2.1-7.2-3-10-1.1-2.2,1.4-5.8,9.2-4,9.6,4.8,1,11.9-3.8,14-8.5h0ZM736.3,316.1c-.8-.2-1.1-.6-1.5-.9-.6,0-.6,1.2-.4,1.9s1.3.5,1.9.4c.4,0,.9-1.1,0-1.3ZM718.3,348.2c4.7,1.8,10.2,1.4,14.3-1.8,7.7-5.9,7.5-14.8,2.5-22.8-3.5,2-25.1,21.2-16.8,24.5h0Z"/>
      <path d="M434.5,464.8c-2.9,1.5-5.5,1.8-8.8,1.9,2.8-1.4,5.5-2.6,8.8-1.9Z"/>
      <path d="M424.1,467.9c-3,.8-5,2.7-7.9,2.8,2.1-2.5,5.4-2.1,8.1-4.1,1,.6.8,1-.2,1.3Z"/>
      <g>
        <path d="M553.3,469.5l-30,12.8c-7.1,3-15.6,8.1-20.9,9.8-2.6.9-4.2,1-7.2.1-2.3-.7-7.1-4.4-4.7-7.2,3.2-3.8,8.8-5.3,13.1-7.6,10.5-5.7,21.1-10,32.1-14.6l27.8-11.7,13-5.4c27.1-11.3,55.2-18.9,83.3-27.2,5.3-1.6,10.2-2.9,15.1-4.9,8.3-3.5,16.9-4.9,25.4-7.8l29.5-9.9,31.2-10,20.9-7.6c3.3-1.2,6.7-1.2,10-2.1l11.3-2.9c7.2-1.9,15.5-3.6,23-5.4,13.7-3.3,25.7-9.8,38.6-14.9l29-11.4,20.8-8.7,12.1-4.6c4.5-1.8,9.1-4.5,14.3-4.2l12.5.6c4,.2,7.2,3.6,11.5,3.2.5,2.8.8,5.4-.6,7.7-21.8-6.7-24.2,3.6-48.5,10.5-3.5,1-6.4,3.1-9.8,4.4l-31.8,12.6c-17,6.7-20.1,10.6-38.8,14.4-8.3,1.7-16.3,3.8-24.5,6.1l-19.9,5.6c-4.8,1.4-9.5,2.8-14.3,4.5-13.4,4.9-26.8,8.3-40,13l-12.2,4.4-43.9,13.8-45.8,14.3c-2.2.7-4.1.8-6.2-.4-.5.9.5,1.3.7,1.6.2.3-.5.6-1.1.7l-36.7,12.5-9.2,3.6c-10.4,4.1-18.7,7.7-29,12.1h0ZM817.2,375.4c-.7.4-1.2.8-1.1,1s.8.8,1.3.7l24.3-6.6c.2-1.3-1.5-1.8-2.6-1.1-1.1.6-2.3,2.1-3.7.6,8.5-1.6,16.5-4.7,24-9.4-3.3-1.3-5.2,1.4-7.8,2.3-6.2,2.3-12.5,4.1-19.1,5.4-7.6,1.5-14.6,3.7-22,5.8l-17.8,5.2c.2.8.8,1.3,1.3,1.2l23.5-6.2c1.6.2,1.5,1-.4,1.2h0ZM767.5,388c-3.2.2-4.8,1.1-6.4,2.8,2.8.3,4.9-1.1,6.4-2.8ZM760.2,391.8c2.2-3.3-7.8.1-6.4,1.3,2.4-.2,4.1-1.6,6.4-1.3ZM733,399.2c.7-.9.3-1.2-.6-.6-.7.9-.3,1.2.6.6ZM649.5,426.5l18.2-5c11-3,21.1-7.3,32.1-10.4,3.9-1.1,7.8-1.6,10.8-4.6-18.1,4.7-32.3,10.1-50.1,15.1-2.2.6-13.2,4.2-13.3,4.6,0,.7.2.9.4,1.2.7.6.9-.6,1.8-.9h0Z"/>
        <path d="M562.2,409.6c5.4-1.2,9.9-3.4,14.8-5.1l12.5-4.2c2.2-.8,4.4-1,6.6-2.1,2.3-1.2,5.8,0,7.9-1.4s4.1-1.7,6.6-2.4c1.7-.5,3.6-2.2,5.7-1.4.4-.8-.6-1.1-.5-1.4.3-.6,3.1-1.4,3.6-1.2.4.2.2,1.2.7,1.2,9.8-7.1,12-1.1,18.4-7.1,1.7-1.6,4.8-1.7,7-2.3,5.1-1.5,9.5-4,14.6-5.1,1.7-.3,3.7,1,5.2-.4.4-.4.3-1,.6-1.2.5-.3,1.4,0,2.3.4-.2-2.4,4.1-2.4,10.4-4.9,2.4-1,5-1.1,7.3-2.4,1.7-.9,3.4-.7,5,.7,1.1-1,0-1.2-1-1.8,2.3-1.8,5.3-1.6,8.3-2.5l11.3-3.7,35.9-10.7c3-.9,6-2.3,9-1.2.7-1.1,1.5-2.5,3-2.7,3.8-.4,7.1-2.5,10.7-3.3,4.2-.8,7.8-2.4,11.8-3.8l7.1-2.5c13-4.6,23.6-6.1,36.9-10.6l36-12.2,20.6-6.4c.9-.3,1.8-.9,2.6-.5,2.2,1.2,1.2,10,.9,12.6-3.8,1.7-7.5,1.8-11.3,3.1l-45.3,15.2c-15,5-29.5,8.7-44.6,13.4l-48.5,15.1c-9,2.8-17.5,5.5-26.5,8.2l-19.5,5.8-10.6,3.8c-23.6,8.4-47.4,14.4-71.2,22.7l-47.5,16.6-59,21.6c-9.2,3.4-17.8,6.8-27,10.1l-17.4,6.3c-3.8,1.4-7.3,2.9-11.1,4-4.5,1.4-9,2.4-13.2,4.3l-14.7,6.5-17.7,7.6c-12.4,5.3-25.1,8.7-37.6,13.9-4.9,2-9.6,1.4-12-3.9-.4-.8-1.2-2.1-.9-3.1.3-.9,1.4-2.2,2.7-2.5,11.9-3.1,30.9-10.2,43-14.6l13.9-5.1c4.8-1.8,9-4.2,13.8-5.9,1.6-.6,2.7-2.3,4.5-2.8,11.8-3.3,22.7-7.9,34-12.4l13.8-5.5c7.4-2.9,14.6-5.2,22.1-7.9l27.6-10.2,31.3-11.3c2.3-.8,4.2-2.6,7-3.2h0ZM727.8,362.1c4.9-2.3,9.5-3.4,14.5-4.5.3,0,15.8-4.9,17.3-5.4l12.9-4.1c2.6-.8,4.7-1.5,7.3-2.5,15.3-5.5,30.4-10,45.9-14.4.7-.2,1.3-1.1,1-1.4-1.1-1.3-10.6,1.9-12.8,2.4-6.3,1.6-12.4,3.3-18.4,6.1-3.1,1.4-6.3,1.9-9.5,3-9.3,3-18.1,6.1-27.6,8.2-1.6.3-2.9,1.6-4.4,2l-21.8,6.7c-2.4.7-4.9,1.8-7.2,2.8-.4.7,1.5,1.6,2.8,1h0ZM735.7,355.5c.4-.4-.1-1.2-.6-1l-4.8,2.2c2,.4,3.3-.6,5.4-1.2ZM683.8,372.3l-3.4,1.9.8,1.5,3.4-1.9-.8-1.5ZM694,373.9c0-.2-.2-.4-.4-.4s-.4.2-.4.4.2.4.4.4.4-.2.4-.4ZM394.1,478.1c-1.9,1.3-2.5,1.8-4.4,2.2-3.7.8-7.2,2.1-10.7,3.8,7.3.6,13.1-2.6,19.6-4.7l7.8-2.5c6.3-2,12.5-3.8,18.5-6.9,3.8-2,8.6-2.1,12-4.8,1-.8.7-2.8,3-3.1,3.2-.4,6.3-1.9,9.3-3.1l12.9-5.2c2-.8,3.6-.8,5.7-1.2,4.5-1,8.6-2.9,13-4.5l23-8.7,20.4-7.3,24.3-8.7,23.8-8.7,37-12.6,34.6-11.3c3.7-1.2,6.6-3.2,10.7-3.8-.3-.9-1-.8-1.5-1.7l5.5-3.1c2.5-1.4,5.6-1.3,7.7-3.5-10.3,2.5-20,5.6-29.8,9-.8.3-1.6,1.2-2,1.8-.3.4,0,1.3.1,2.2-.9.3-1.6-.2-3,.6l1.8,1.2c-2.1-.3-11.9,2.1-12.9,3-1.2,1.1-21.8,7.2-24.9,8.4l-8.2,2.9-36.4,12.3c-3.2,1.1-5.8,2.9-9.2,3.1.8-1.4,2.1-2.5,4-2.5,4.5-3.2,10-3.7,14.2-7.6l-38.1,13.9-17.5,7.1c-5.1,2.1-10.1,3.9-15.3,5.9l-26.8,10.4-21.3,8.7c-4.2,1.7-8.2,3.6-12.5,4.9l-6.2,1.8-17.1,7.5c-3.6,1.6-7.5,2.9-10.8,5.1h0ZM664.5,383.2c3.4.9,5.9-.3,8.4-2.2-2-1-3.2-1.1-4.8-1.1,0,1.1.5,1.7.2,2.4-1.8-.3-3.2-1-3.8.9ZM625.1,392.2c0-.2-.2-.4-.4-.4s-.4.2-.4.4.2.4.4.4.4-.2.4-.4ZM615.7,395.3c0-.2-.2-.4-.4-.4s-.4.2-.4.4.2.4.4.4.4-.2.4-.4ZM574.8,407.3c-.7.2-1.2.9-.8,1.5s1.1.3,1.4,0c.3-.3,1-.8.7-1.4-.2-.3-.8-.3-1.3-.2h0ZM569,417.5c0-.2-.2-.4-.4-.4s-.4.2-.4.4.2.4.4.4.4-.2.4-.4ZM558.4,428.2c0-2.9-2.3-5.2-5.2-5.2s-5.2,2.3-5.2,5.2,2.3,5.2,5.2,5.2,5.2-2.3,5.2-5.2ZM529,432.8c1.5-.8,1.4-1.6-.2-1.6-.7.2-1.6.9-1.6,1.3,0,.4,1,.5,1.9.3h0ZM505.7,440.4c0-.2-.2-.4-.4-.4s-.4.2-.4.4.2.4.4.4.4-.2.4-.4ZM377.6,484.7c0-.2-.2-.4-.4-.4s-.4.2-.4.4.2.4.4.4.4-.2.4-.4ZM375.2,485.5c0-.2-.2-.4-.4-.4s-.4.2-.4.4.2.4.4.4.4-.2.4-.4Z"/>
        <path d="M608.5,486.3l-25.3,9.7c-9.5,3.6-18.3,7.4-27.3,12.2-3.6,1.9-9.7-4.8-9.2-7.6.2-.8.7-2.1,1.9-2.6l21.8-9.8,20.4-8.1,45.4-17.1,7.4-2.7,9.7-3.8,29.5-9.5c5.8-1.9,11.3-4,17.3-5.5,8.2-2,16.3-3.9,24.2-6.6,6.5-2.2,12.8-3.6,19.5-5.1,15-3.3,29.5-6.6,44.2-11.2,2.6-.8,5.2-.6,7.6-1.3l16-4.4c3.7-1,6.8-1.8,10.3-3.1l7.6-2.7,22.5-9.1c2.9-1.2,6.1-1.9,9.1-2.7,11.3-3.1,21.9-6.7,33.1-10.5,11.4-3.9,22.2-8.1,33.9-11.1,2.3-.6,4.2-.6,6.3-1.6,4.3-2,9.6-1,14.2-1.9,5.2-1.1,9.6-.6,13.5,4,.3.9-16.3-2.8-9.7.6,3.1-.2,12.3.7,12.9,2.5.9,3.1-9.6-3.9-20.1,2.4-3.7,2.2-7.3,2.9-11.3,4.5l-16.4,6.3-28.2,9.8-11.8,3.5-20.4,6.3c-4,1.2-7.9,2.5-11.7,4.2-18.6,8.1-23.9,8-41.4,13.3-2.6.8-5,1.1-7.7,1.8l-28.5,7.8-27.9,6.1-30,8.7c-6.5,1.9-12.5,3.5-18.9,5.6l-28.4,8.9c-2.5.8-4.7,1.4-7.1,2.4l-23.9,9.3-23,8.4h0ZM798.7,421.1l8.9-2.5c3.8-1.1,17.1-4.1,18.6-6.3-6.2,0-11.2,3.2-17,4.4l-7.9,1.7c-3,.6-6,.8-8.7,2.9,1.8,1.5,3.8.4,6-.3h0ZM792.2,421.9c0-.4-.4-.8-.8-.8s-.8.4-.8.8.4.8.8.8.8-.4.8-.8Z"/>
        <path d="M608.8,536.4c-5.2-.1-8.3-5.2-7-9.6l24-8.8,8.1-3.1,9.9-4,34.6-11.4,37.5-10.9,16.2-5c4.8-1.5,9.1-3.3,14-4.4,2.3-.5,4.6-1.1,6.9-1.9l29.1-10.1,26.6-7.7,19.9-5.9,12.7-3.8,28.1-7.7c3.3-.9,6.3-1.3,9.5-2.4,8.4-2.9,12.8-4.5,20.8-8.5l12.8-6.3c9.6-4.7,18.9-9.3,29-12.5,4.5-.2,9.1-3,13.4-1.4l7.3,2.7c1.5.6,2.3,3.5,3.4,4.4-2.9,1.7-5.4.1-8.2.4-6.2.6-12.2,2.7-17.2,6.5l-39.1,19.2c-3.9,1.9-8.2,3.8-12.2,5l-26.9,7.4-31.3,8.9c-10,2.8-19.6,5.5-29.6,8.5l-20.8,6.2c-11.8,3.5-22.8,8-34.8,10.9-3.3.8-6.3,2.1-9.6,3.1l-16,4.8c-18.1,5.4-35.8,10.8-54,16.4l-17,5.2c-7.6,2.3-14.3,6.4-22,8.8-6.2,1.9-12,3.6-18,6.9h0Z"/>
        <path d="M686,552l-28.6,10.3c-2.7,1-4.4,2.2-7.4.6-1.4-.7-4.7-1.7-4.6-3.7,0-1.6,1.4-5,2.9-5.8,7-3.5,14.4-5.1,21.7-7.9,6-2.3,11.7-4.4,17.9-6l37.9-10.2,23.8-6.8,22.8-5,16.8-4.6,17.6-4.7c2.5-.7,4.7-1.6,7.3-2.4l19.8-5.3,7.5-1.8c11-2.7,19.2-4.4,30.1-7.1l31.7-8.1c12.3-3.1,23.5-10.9,36.1-11.2l12.6-.3c5.4-.1,9.9,1.8,12.2,6.5.7,1.5,4.2,1.5,4.5,3.8,1.2-.5,1.2-1.4,2.4-1.3-2.1,7.9-6.7-6.5-23.4.9-1.3.6-2.8.2-4,.9-3.5,2.1-7.2,2.8-11,4.1l-25.3,8.6-48.2,11.1-36.1,9.2c-22.5,5.7-44.5,10.8-66.8,16.9l-17.6,4.8-15.2,4.4-23,6.2-14.3,3.7h0ZM873.9,496.2l7.9-2c3.8-.9,7.9-.7,10.9-3.5l-22.6,4.3c-1.6.3-3.1.3-3.8,1.8,2.6.7,4.8.1,7.5-.6h0ZM864,497.2c-2.9-.4-5.2.9-8,1-.9.6-2.1.5-2.1,2.1,3.5-1.3,6.7-1.4,10.1-3.1h0ZM849.9,500.7c-.4-.9-1.3-.7-2-.6-.5,0-.7.7-.2,1.6.5-.6,1-.9,2.2-1.1h0ZM809.6,511.4c-2.4-.1-4.6.2-6.6,1.8,2.3.7,4.8,0,6.6-1.8ZM794.5,515.3c-4.8-.4-8.8,1.5-13.2,2.5-6.8,1.5-13.2,3.6-20.2,5.5-1.1.3-.4.4,0,1.1,0,0,31-6.3,33.3-9h0Z"/>
        <path d="M739.1,582.7l-10,3c-8.9,2.7-17.5,5.6-25.7,10-1.7.9-2.8,1.8-4.5,1.1-3.3-1.2-4.4-7.5-4.4-7.4.4-.9,1.1-2.4,2.2-2.9,6.2-3,12.4-5.6,19-7.8l21.4-7.1,28.7-9.3,28.8-8.2,25.2-6.5,40.8-9.1c5.5-1.2,10.6-2,16-3.2l14.2-3.2c17.1-3.9,27.2-6.8,43.8-12,5.6-1.7,12.3-2.5,18.1-2.2,4.3.3,7.9,3.7,12.5,2.8.2,2,.5,4.1-1,5-2.5,1.7-5.6-.7-8.3,0s-5.9.6-8.2,1.7c-3,1.5-6.9,1.6-9.3,3.2-3.6,2.4-6.3,3.8-10.5,4.7l-17.4,4-45,10.1-41.9,9.5-37.2,9.3-27.8,7.9c-6.5,1.9-12.5,4.4-19.3,6.4h0Z"/>
        <path d="M781.2,619.3c-8.8,2.8-16.9,6-25.5,8.1-2.8.7-5.1-2.3-5.7-4.2s-.7-6.3,1.9-7c4.3-1.3,8.3-2.2,12.4-3.7l15.4-5.3,32.8-10.8c19.8-6.5,41.4-11.5,61.8-16.4l21.7-5.2c4.3-1,8.4-1.9,12.7-3.1l19.8-5.7,11-2.7c12.4-3.1,7-1.2,20.4,1.2-3.8,3.4-8.7,3.8-13.4,5.4s-8.3,4.5-12.9,6l-25.6,8.5c-4.7,1.5-9.2,2.4-13.9,3.5l-11,2.5-22.1,5.6-26.7,7.2-29.7,8.8-23.2,7.4h0ZM948.7,566.2c-2.1-.7-3.2-.8-4,0,1.6.5,2.9.5,4,0ZM941.8,566.5c-2-.1-2.3.9-.4,1,.9-.1,1.2-.5.4-1Z"/>
        <path d="M804.6,655.5c-1.2.9-2.3,1.4-3.4,1.2-2.2-.2-4.8-4.6-4-7.1.7-2.1,9.4-7.7,11.5-8.6,10.8-4.6,21.7-8.1,33-11.4l7-2.1c3.6-1.1,6.8-2.3,10.5-3.5l14-4.7c3.9-1.3,7.4-2.6,11.3-3.7l19.8-5.7,25.7-9.1c5.5-2,11-3.3,16.7-4.6-.3,0,7.8.2,8.4,1.8.8,2.2-10.4,7.3-9,6.9l-8.4,2.7c-1.4.5-21.4,11-36.3,14.3-4.5,1-8.7,2.1-13.1,3.6l-40.3,13.4c-9.5,3.1-35.6,11.5-43.1,16.7h0Z"/>
        <path d="M867.9,677.5c-5.9,1.7-11,3.7-16.2,6.2-1.7.8-3.7,0-5.6-.4-.8-2.6-2.2-5.4-1.5-8.1.3-1.2,10.8-6.3,12.9-6.9,11.8-3.4,22.4-8.6,34-12.5l27.3-9.1c10.5-3.5,20.6-6.8,31.5-9-.3,0,12,.8,11.8,2.8-2-.1-2.6,2.7-4,3.2-5.6,2-11.1,3.5-15.9,7.2l-28.4,9.8-20,6.9c-8.7,3-16.7,7.1-25.9,9.8h0Z"/>
        <path d="M922.4,695.5c-20.2,10.7-19,5.5-33.5,12.9-1.4.7-2.2,1.6-3.8,1.2-4.1-.9-4.8-9.4-1.2-11.6,11.2-6.8,19-3.8,32.5-11.7,6.6-3.9,13.1-7.2,20.3-9.6,6.2-2.1,17.8-7.4,24-3.3l-10.3,6.6c-5.4,3.5-8.5,5.1-14.1,8.1l-14,7.4Z"/>
        <path d="M834.1,371.7c-2.1.4-4,.8-6.5,1,3.2-3.1,12.7-2.1,6.5-1Z"/>
        <circle cx="822.1" cy="373.9" r=".5"/>
        <circle cx="824.1" cy="373.2" r=".4"/>
        <path d="M645.5,388.5c-1,1.1-1.7,1.2-2.2.5.6-.7.9-1.1,1.2-1.2.5-.3,1.4.2,1,.7h0Z"/>
        <path d="M651.2,386.4c-1.6.9-2.9,1.7-4.8,1.1,1.5-.7,2.9-1.5,4.8-1.1Z"/>
        <circle cx="640.1" cy="389.3" r=".8"/>
      </g>
      <circle cx="473.3" cy="448.3" r=".5"/>
      <circle cx="406" cy="474.4" r=".5"/>
      <circle cx="533.8" cy="426.2" r=".4"/>
      <circle cx="518" cy="431.7" r=".4"/>
      <circle cx="507.7" cy="435.6" r=".4"/>
      <circle cx="484.8" cy="444.4" r=".4"/>
      <circle cx="469.7" cy="449.9" r=".4"/>
    </g>
  </g>
</svg>