<?xml version="1.0" encoding="UTF-8"?>
<svg id="Layer_2" xmlns="http://www.w3.org/2000/svg" version="1.1" viewBox="0 0 1000 1000">
  <!-- Generator: Adobe Illustrator 30.1.0, SVG Export Plug-In . SVG Version: 2.1.1 Build 136)  -->
  <g id="Layer_1-2">
    <g>
      <path d="M815.4,505.6c-1.1-1.1-3.2,3-3,3.7,1.1,0,3.2-3.6,3-3.7Z"/>
      <path d="M418.1,430.9c1.4,1.9,2.8,14.8,3.6,14.8,2-.7,13.1-5.9,13.7-6.9.6-1.1-.2-3.7.3-5.3,1-3.5,14.2-5.7,16.3-3.5,1.2,1.3-1,1.5-1.5,1.8-2.7,1.8-5.7,3.3-8.2,5.4-.4,1.5,3.1,7.5,3.5,9.8,1.3,8-1.4,16.5-4.8,23.4-1.6,0-3.4-.4-3.7-2.2-.8-3.7,2.8-12.8,2.6-17.6,0-1.8-1.7-8.9-3.4-9.4s-13.8,7-14.4,8.7c-.3,8,.3,16.2,1.9,24-1.3,6.7-6.5,1.6-7.1-2.6-.3-1.7.9-3.3.6-4.2-.4-1.3-3-.6-2.2-2.7l3.7,1.5-1.5-13.5c-2.1.8.4,4.5,0,6-2-.6-1.5-4-3-4.9-3-1.9-4.3,1.8-4.9,4.1-2.2,7.8-2.8,16.9-5.2,24.7-2.7,2.4-5,5.1-8.9,3.1-1-.7-.4-4.3-.2-5.5,1.1-7.5,4.1-19.4,6-27,1.9-7.4,5-14.7,6.2-22.3,1.3-2.5,9-2,10.6.2h0Z"/>
      <path d="M545.7,414.2c-1.4,1.9-2.3,3.4-2.9,5.7-2.8,10.3-.8,23.6-4.4,33.8-4.1,11.6-18.7,9.9-26.8,3.1-3.5-2.9-4.8-6.7-7.9-9.7l-8.8,38c-2.5,5.9-11.1,6.5-10.5.8,2.5-11.1,6.2-21.9,9.2-32.8.8-2.9,2-12.6,3-14.2,1.1-1.7,7.6-2.6,9.3-1.1,1,.9.9,2.5,1.6,3.6,2.3,3.4,11.5,18.8,15.8,17.6,6.3-1.6,8.9-21.2,10.6-26.9,1.5-4.9,4.3-15,8.4-17.9,1.3-.9,2-.2,3.2,0h0Z"/>
      <path d="M150.1,490.6c1.8,5.5.2,10.8,0,16.1,0,2.7.9,8.1.7,9.6-.3,1.7-2.7,2.7-1.4,5-2.6.2-4.8,1.2-6.2-1.7l-1.9-49.2,8.1-.8c.9,3.2,2.4,7,3.9,10,3.2,6.5,6.8,15.5,14.1,17.7.7-.8-.2-7.9,0-9.3.7-6.9,2.8-11,2-18.6,0-.8-1.3-1.5-1.2-3.1,0-4.2,6.8-12.8,7.5-6.1.6,5.5.7,11.8,1.5,17.3.7,5,3.1,12.8,3,17.3-.2,11-17,7.2-22.8,2.6-1.2-1-6.3-7.7-7.1-6.7h0Z"/>
      <path d="M213.6,453.3c.6.8.6,3.2,1,3.5.7.5,12.1-1.5,16.7.9,10.4,5.3,4.5,25.8-.8,33.4-3.6,5.1-10.2,6.6-13,9.6-.8.8-.5,2.4-1.2,2.7-2.5.8-9-2-10.8-4.2l2.2-.4c0-4.5-3.3-8.5-3.7-13.1-.6-6.4,2.4-12.2,3-18,.5-4.8-1.1-10.7-.7-15.6.6-2.8,6.5.4,7.2,1.2h0ZM226.4,460.1c-4.8-2.3-8.8,2.9-10.2,7.1l1.4,27.9c9.7-7.5,14.9-23.9,8.8-35Z"/>
      <path d="M125.4,477.1c1.4,1.4-1.2,1.5-1.6,1.7-3.1,1.5-8,2.8-10.5,4.5-2.9,1.8-1.7,7.3-2,10.3l10.7-4.5.5-1.5,1.5,1.1-12.4,10.9c-.4,3.4-1.7,20.3,2.3,20.9,7.8-5,10.3-15.4,14.9-23.2.6-1-.1-1.9,1.9-1.5l-1.5,4.2,1.5.8c.3,1.9-3.2,15.3-4.4,17.3-.2.3-4.8,4.4-5.1,4.6-.9.6-3.5,1.6-4.5,1.6-1.6,0-2.2-1.1-3-1.2-1-.1-2,.5-3.2.2-12.1-3-8.4-11.8-9.1-21.7l-4.4-2.3c.8-1.2,2.5-1.1,3.4-1.8,1.4-1.2,2.3-11.4-.1-11.8-.8-.1-1.8.7-2.7.3l-3.5-1.7,7.6-3.1,1.4-15.2,7,.2c2.6,1.2,2.7,2.8,2.8,5.4,0,1.9-1.6,6.6.4,7.1,2.8-.7,10-3.8,12.3-1.4h0Z"/>
      <g>
        <path d="M226.5,552c.5,2.5-3.2,1.7-4.7,2.3-.2.1-3.8,2.7-4,2.9-9.1,8.6,13.3,16.4,10.6,27-1.3,5.1-12.1,12.4-17.2,12.6-2.4,0-7.9-2.3-8.9-2-1.4.4-4.1,4.6-6.8,4.2-.7-.1-3.6-1.6-2.8-2.8,3.4-.6,5-8.4,3.9-11-1.2-2.9-8.9-5.4-11.8-7-.8,9-2.4,16.8-12.4,19.1-8.2,1.9-13.5-1.8-13.2-10.4.2-4.6,4-17.9,5.7-22.6,1.6-4.5,4.3-6.9,9.3-4.1.9.5.1,1.8,1,2.3,1.6.9,4.8.3,6.7,2.2,1.2,1.1.9,3.2,2.6,3.8,2.3-6.7,15.8-15.6,22.5-12.4.3.2.9,1,.7,1.1-5.6-.8-19.3,10.6-19.4,15.3-.2,7.9,15.3,6,15.7,14.2.2,2.8-2.2,6.5,1.7,6.4,3.8-.2,14-8.5,14.6-12.5,1-7.7-14.3-13-9.7-22.4,3.1-6.3,9.5-6.6,15.9-6.2h0ZM174.8,566.3c-1.4-.3-1.5.4-2.1,1.3-1.8,2.8-5.3,18.8-5.3,22.3,0,.9.6,1.7.6,2.6,2.4,1.8,7.6-10.7,7.9-12.7.8-4.2-.1-9.4-1.2-13.5h0Z"/>
        <path d="M146.1,591.5c2.2-1.9,4.8-6.5,8.5-6.5.9.9-2.9,8-3.7,9.2-.6.8-1.7.9-2.3,1.7-5,6.2-11.6,14.4-20.5,13.8-2.5-.2-9.5-2.1-10.6-4.4-1.9-3.9,1.4-15.1,1.9-19.9,1-9.4,1.6-18.7.8-28.1,2.8,0,8.5-.4,10.5,1.9,3.8,4.3-2.5,32-3,39-.1,2.1-.9,7.5,2,6.5,4.3-1.5,12.5-9.7,16.5-13.1h0Z"/>
      </g>
      <g>
        <path d="M774.9,400c3.9-.6,7.7,2,11.1,2.6,1.5.2,8.6.5,10.2.4,4.7-.4,14.2-5.9,17.2-5.3,1.9.4,1.6,3.3,4.9,2.3-.1,1.8.3,3.8,0,5.6-1.7,9-8.8,19.8-10.7,28.3-.2,1.1,0,1.8.2,2.8-5,.3-4.7-6.5-4.5-10.1.3-7.5,4.1-13.9,4.5-21.3l-14.1,3.1c-.7.6-2.9,16-3.9,18.9-.9,2.7-3,5.6-4.1,8.7-.7,1.8-2.3,11.8-3.8,12-3.5-1-2.2-6.3-1.8-9.3.5-4.1,7.2-27.4,5.9-28.9l-12,5.5c-1.2,1.5-1.1,11.9-1.6,14.9-.7,4.1-3,8.3-3.8,12-.5,2.6-.2,5.9-.5,8.5-.3,2.2-2.2,1.1-3.1,0-2.9-3.9,2-30.8.8-31.9-2,.2-4.5-.4-6.4,0-2.2.4-5.3,9.4-6.7,12-3.3,5.7-6.1,7.5-12.4,4,4-8.4,7.9-16.9,12.4-25,1.6-2.9,7.6-14.9,9.9-15.6.9-.3,1.9-.3,2.8-.2,8.6.8,6,11.7,9,17.3l8.6-4.8-8.2-6.4h0ZM765.9,414.1l-1-7.4-4.1,8.2,5.2-.8ZM767.4,430.7c3.4-1.4,1.1-2.5,1.1-3.3.1-2.6.7-5.2.3-7.9-1-.2-1.2,1.4-1.2,2-.1,2.9,0,6.3-.2,9.3Z"/>
        <path d="M865.4,391.1c.2.2,1.4,3.7,1.5,4,.5,6.7-3.6,13.6-5.2,19.9-1.2,4.7-3.3,20.3-6.1,23.1-.9.9-2.2,1.5-3.4,1.2-.9-.3-7-4-7.5-4.7-4.4-6.6-3.7-20.3-6-27.9-1.1-.2-1,1.3-1.3,2-1.4,3.5-2.7,7.8-3.6,11.4-2,7.9.7,17.7-11.5,13.4-2.5-2.9,11.4-35.9,12-41.8,9.8-.6,10.3,7.1,11.7,14.8.9,4.8.9,10.6,1.9,15.4.3,1.4.3,2.5,2,2l10.9-33c.6-1.2,4.2-.3,4.7.2ZM854.3,416.4c1.1-.2,1.5-1.4,1.8-2.3,2.1-4.7,4.1-11.5,4.9-16.5l-4.1,9-2.7,9.7h0Z"/>
        <path d="M886,406.2c-2.2,2.9-6.4,19.2-6.9,23.4-.2,1.5-1.2,3.8.3,4.8,3.3-5.2,4.7-11.1,4.1-17.2,2.7.5,5,1.6,7.9,1.6,5,0,10.2-3.7,14.6-1.1-2.7,6.6-9.1,7.7-15.7,7.2-.9.5-2.3,16.1-6.1,19-2.7,2-8.9-1.1-10.3-3.8-4.8-9.3,6.7-35.8,11.2-45.1,4.5-2.8,16.5,10.1,8.6,13.3l-4.7-3.6c-.6,0-2.6,1.1-3,1.6h0Z"/>
      </g>
      <g>
        <path d="M307.4,451.7c2.9,1.8,3.8,28.5,3.9,33.2,0,1.4.8,2.9.8,4.5,0,5.8-2.8,6.7-7.9,6.4-11-.6-10.7-11-16.1-18-.6,2.2,3,11.8,2.6,12.8-.3.8-1.8,1.3-2.2,2.3-.4.9.7,2.2-.7,2.9l-5.7-1-5.6-39.4c1.7-2.9,2.8-.3,3.8-.3.6,0,3-2.3,4.9,0,5.7,10.2,10.4,20.8,14.6,31.7,1.2-.8,1.1-2.1,1.2-3.3.4-5.2-1.1-28.8,2.7-31.2.8-.5,3.2-1,3.9-.6h0Z"/>
        <path d="M335.7,446.6c-1.8-1.6-3.4,0-4.6,1.3-6.9,7.6-9.9,30.3,1.8,35.2,1.6-1.2.3-15.9,1.5-18.4,6.8.8,13.2-4.1,19.2-4.8,1.5-.2,1.1.2,1.1,1.5l-12.4,6c-1.4,8.6,3.3,19.8-9.7,18.8-22.6-1.8-14-39.8-2.1-42.5,3.3-.8,9.5-.5,12.2,1.8,1.6,1.3,5.5,8.3,4.2,10.1-3.7,5.1-9.8-7.6-11.1-8.8h0ZM321.7,474.5c-.3-4.5,0-9.6,0-14.2s2-3.9,1.5-5.6c-3.1,2.5-3.8,9.3-3.8,13.1,0,2.8.2,8,3,9.4.5-1.1-.7-2.1-.7-2.6Z"/>
      </g>
      <path d="M584.6,422.4c0,0-.3-1.3.5-1.5,1.5-.4,3.9.3,5.5,0,2.9,2.6-12.1,4.4-13.1,4.5-2.8.3-5.7-.3-8.5.2l-3.2,6.2,1.9,1.1-.3,1.5c4.8,1,8.1-4.5,12.7-3.4-4.5,5.1-10.4,7-17.1,7.2-13.6,31.8,21.1,28.9,30,6.7h2.1c-2,13.5-17.4,22.3-30.4,18.7-17.2-4.8-5.9-27.5-1.2-38l-.6-1.4c-9-5-.5-2.8,1.7-3.5,1.9-.6,3.8-10.1,10.2-7.4,1.5,1.5-5.4,6.7-4.5,9,2.3-.5,13.2.7,14.2,0Z"/>
      <g>
        <path d="M715,444.9h-2.9c-.7-1.6-1-3.2-.9-4.9.3-7.1,4.2-17.6,5.2-25.6.2-2,1.5-8.7.1-9.7-1.5-1.1-15.8,4-18.6,4.8-2.4.6-5.3-.5-7.4,1.7l2.7,19.1-1.7,19.3c-.4,1.6-4,3.5-4.3.9-.6-3.7.3-8.8,0-12.8-.3-5-.9-11.5-1.6-16.4-.3-2.5-1.3-10.2-3.4-10.8-4.6-1.3-13-.2-16-5.4l16.5,1.5c0-9.6,4.8-1.6,7.3-.9,2.1.6,15.9-1.7,19.1-2.3,3.2-.6,9.9-3.8,12.2-2.1,4.1,3.1,3,7.8,2.5,12.3-.3,2.8-1,7.7-1.8,10.2-1.5,5-6.8,13.3-7.6,17.9-.2,1.2.3,1.9.4,3h0Z"/>
        <path d="M640.1,413.4c-5.7,1-6.6-7.7-12.2-6.6-10.2,1.9-13.5,25.4-12.3,33.8.5,3.4,3.2,9.2,7,9.5,6.9.6,7.3-4.3,7.8-10.1.2-2,.6-12-1.1-12.3-2.8,1.8-6.5,1.2-8.6-1.5l8.2-1.1-.8-4.1c1.5.1,3.3-.3,4.7,0,.5.1.4,1,1.1,1.4.7.3,1.9-.1,2.8.8,3.6,3.9-1.3,25.6-2.4,31.3-.6,2.9-.6,13.5-5.8,12.9-.8-.1-1.5-.5-2-1.1-1.2-1.5,2.6-12.5,2.3-15.4-7.3,2.2-14.6-.6-16.9-8.2-2.7-9.2,0-27.4,6.5-34.7,5.7-6.4,21.2-4.5,21.6,5.5h0Z"/>
        <path d="M660.3,416.4c.6,1.4-1.2,2.7-1.2,3.4,0,1.3,5.1,7.2,5.7,10.5.4,2.3.3,7.8-.5,9.9-2,4.9-14.3,7.9-18.7,6.4-8.9-3-6.2-9.1-3.6-15.9,3.4-8.8,6.9-18.1,18.3-14.2h0ZM655.8,425.4c-1.3-.3-1.5.5-2.2,1.1-4,3.1-9.2,8.8-8.9,14.3.3,6.5,11.2-1.4,11.2-3.8v-11.6h0Z"/>
      </g>
      <path d="M353.8,564.9v1.8c.1,0-1.1,1.1-1.1,1.1-12.1-.2-24.4.9-36.5,2.4-11.1,1.4-26.5,5.8-36.8,5.9-3.1,0-5.8-1.5-8.6-2.3-1.5-2,5.1-3.1,6-3.4,16.2-4.1,55.5-9.5,71.6-7.9,2.7.3,3.2,1.2,5.5,2.4h0Z"/>
      <path d="M257.8,454.8l.9,37.7c-3.6,1.7-6.7-2.1-7.3-5.4-1.9-10.4-.4-22.5-1.7-33.2l8.1.9h0Z"/>
    </g>
  </g>
</svg>