<?xml version="1.0" encoding="UTF-8"?>
<svg width="220px" height="220px" viewBox="0 0 220 220" version="1.1" xmlns="http://www.w3.org/2000/svg" xmlns:xlink="http://www.w3.org/1999/xlink">
    <title>square-1 copy 6</title>
    <defs>
        <path d="M0,0 L220,0 L220,220 L0,220 L0,0 Z" id="path-1"></path>
    </defs>
    <g id="square-1-copy-6" stroke="none" fill="none" xlink:href="#path-1" fill-rule="evenodd" opacity="0.980000019" stroke-width="1">
        <g id="For-an-edge" transform="translate(65, 98)" fill="#000000">
            <polygon id="Path" fill-rule="nonzero" points="1.246 17 2.758 17 2.758 12.478 6.006 12.478 6.006 10.966 2.758 10.966 2.758 8.544 7.322 8.544 7.322 7.046 1.246 7.046"></polygon>
            <path d="M10.748087,17.112 L12.232087,17.112 L13.660087,16.426 L14.402087,15.348 L14.654087,14.144 L14.654087,12.492 L14.402087,11.288 L13.660087,10.21 L12.232087,9.51 L10.748087,9.51 L9.33408696,10.21 L8.59208696,11.288 L8.32608696,12.492 L8.32608696,14.144 L8.59208696,15.348 L9.33408696,16.426 L10.748087,17.112 Z M11.028087,15.642 L10.314087,15.278 L9.99208696,14.816 L9.82408696,13.948 L9.82408696,12.66 L9.99208696,11.834 L10.342087,11.344 L11.000087,10.994 L11.966087,10.994 L12.652087,11.344 L12.988087,11.848 L13.170087,12.66 L13.170087,13.948 L12.988087,14.802 L12.680087,15.278 L11.952087,15.642 L11.028087,15.642 Z" id="Shape" fill-rule="nonzero"></path>
            <polygon id="Path" fill-rule="nonzero" points="17.0021739 17 18.5001739 17 18.5001739 12.45 18.7801739 11.848 19.2701739 11.302 19.9141739 10.994 20.3901739 10.994 21.1041739 11.19 21.4681739 9.748 20.6141739 9.51 19.6481739 9.51 18.6681739 9.986 18.5001739 10.154 18.5001739 9.622 17.0021739 9.622"></polygon>
            <path d="M33.0663478,17.182 L34.2703478,16.314 L33.6823478,15.46 L33.6823478,11.47 L33.2903478,10.49 L32.1843478,9.748 L31.2463478,9.51 L29.9443478,9.51 L29.0063478,9.79 L28.3763478,10.196 L27.8163478,10.714 L28.8523478,11.792 L29.2443478,11.414 L29.6223478,11.162 L30.0843478,10.994 L30.9803478,10.994 L31.5963478,11.148 L32.0723478,11.47 L32.1843478,11.75 L32.1843478,12.352 L32.1283478,12.31 L31.2043478,12.002 L30.2803478,12.002 L28.9083478,12.352 L27.8583478,13.416 L27.6483478,14.382 L27.6483478,15.236 L28.4603478,16.412 L29.1463478,16.818 L30.0983478,17.112 L30.9943478,17.112 L32.2823478,16.454 L32.4503478,16.272 L33.0663478,17.182 Z M30.2943478,15.628 L29.7483478,15.446 L29.4963478,15.306 L29.1463478,14.802 L29.1463478,14.522 L29.2443478,14.158 L29.6923478,13.696 L30.4483478,13.486 L30.9943478,13.486 L31.6383478,13.682 L31.9603478,13.836 L32.1843478,14.074 L32.1843478,14.466 L32.0723478,14.774 L31.5963478,15.278 L30.6863478,15.628 L30.2943478,15.628 Z" id="Shape" fill-rule="nonzero"></path>
            <polygon id="Path" fill-rule="nonzero" points="36.7024348 17 38.2004348 17 38.2004348 12.044 38.5364348 11.568 39.4044348 10.994 40.1464348 10.994 40.8464348 11.218 41.1124348 11.596 41.1124348 17 42.6104348 17 42.6104348 11.05 41.7284348 9.86 40.4264348 9.51 39.1664348 9.51 38.2004348 10.07 38.2004348 9.622 36.7024348 9.622"></polygon>
            <path d="M52.4166087,17.112 L53.5926087,17.112 L54.8246087,16.804 L55.9026087,16.09 L55.1186087,14.886 L54.2646087,15.404 L53.4246087,15.628 L52.7106087,15.628 L51.9826087,15.278 L51.3946087,14.452 L51.2546087,14.116 L56.3646087,14.116 L56.3646087,12.436 L56.0286087,11.47 L55.1046087,10.21 L53.6766087,9.51 L52.4166087,9.51 L50.9886087,10.21 L50.0506087,11.47 L49.7566087,12.52 L49.7566087,14.13 L50.0506087,15.152 L50.9886087,16.412 L52.4166087,17.112 Z M51.2686087,12.632 L51.3666087,12.17 L51.9686087,11.358 L52.6546087,10.994 L53.4106087,10.994 L54.1246087,11.386 L54.6986087,12.184 L54.8526087,12.632 L51.2686087,12.632 Z" id="Shape" fill-rule="nonzero"></path>
            <path d="M61.1066957,17.112 L62.4226957,17.112 L63.2766957,16.594 L63.2766957,17 L64.7606957,17 L64.7606957,6.444 L63.2626957,6.444 L63.2626957,9.902 L63.1506957,9.818 L62.3106957,9.51 L61.0786957,9.51 L59.6506957,10.21 L58.7126957,11.47 L58.4046957,12.52 L58.4046957,14.13 L58.7126957,15.152 L59.6506957,16.426 L61.1066957,17.112 Z M61.3866957,15.628 L60.6166957,15.264 L60.0426957,14.452 L59.9026957,13.962 L59.9026957,12.702 L60.0426957,12.17 L60.6306957,11.372 L61.3306957,10.98 L62.1286957,10.98 L62.5906957,11.148 L63.0386957,11.428 L63.2626957,11.708 L63.2626957,14.592 L62.9126957,15.096 L62.1426957,15.628 L61.3866957,15.628 Z" id="Shape" fill-rule="nonzero"></path>
            <path d="M69.9927826,19.352 L71.2387826,19.352 L72.2467826,19.002 L73.3667826,18.26 L73.7167826,17.21 L73.7167826,9.622 L72.2327826,9.622 L72.2327826,9.902 L72.1207826,9.818 L71.2807826,9.51 L70.0347826,9.51 L68.6207826,10.21 L67.6827826,11.47 L67.3747826,12.52 L67.3747826,13.808 L67.6827826,14.844 L68.6627826,16.118 L70.1047826,16.678 L71.3927826,16.678 L72.2327826,16.174 L72.2327826,17 L72.1067826,17.308 L71.6027826,17.672 L71.0567826,17.868 L70.2027826,17.868 L69.5587826,17.7 L69.3067826,17.504 L68.8447826,17.042 L67.7947826,18.12 L68.2987826,18.624 L69.0407826,19.1 L69.9927826,19.352 Z M70.3287826,15.194 L69.5727826,14.9 L68.9987826,14.116 L68.8727826,13.626 L68.8727826,12.702 L69.0127826,12.17 L69.6007826,11.372 L70.2867826,10.98 L71.0987826,10.98 L71.5607826,11.148 L71.9947826,11.428 L72.2327826,11.708 L72.2327826,14.116 L71.8827826,14.662 L71.1127826,15.194 L70.3287826,15.194 Z" id="Shape" fill-rule="nonzero"></path>
            <path d="M78.9628696,17.112 L80.1388696,17.112 L81.3708696,16.804 L82.4488696,16.09 L81.6648696,14.886 L80.8108696,15.404 L79.9708696,15.628 L79.2568696,15.628 L78.5288696,15.278 L77.9408696,14.452 L77.8008696,14.116 L82.9108696,14.116 L82.9108696,12.436 L82.5748696,11.47 L81.6508696,10.21 L80.2228696,9.51 L78.9628696,9.51 L77.5348696,10.21 L76.5968696,11.47 L76.3028696,12.52 L76.3028696,14.13 L76.5968696,15.152 L77.5348696,16.412 L78.9628696,17.112 Z M77.8148696,12.632 L77.9128696,12.17 L78.5148696,11.358 L79.2008696,10.994 L79.9568696,10.994 L80.6708696,11.386 L81.2448696,12.184 L81.3988696,12.632 L77.8148696,12.632 Z" id="Shape" fill-rule="nonzero"></path>
        </g>
    </g>
</svg>