<?xml version="1.0" encoding="UTF-8"?>
<svg width="220px" height="220px" viewBox="0 0 220 220" version="1.1" xmlns="http://www.w3.org/2000/svg" xmlns:xlink="http://www.w3.org/1999/xlink">
    <title>square-2 copy 30</title>
    <g id="square-2-copy-30" stroke="none" fill="none" fill-rule="evenodd" stroke-width="1">
        <g id="for-an-edge" transform="translate(82, 101)" fill="#000000">
            <path d="M4.632,4.728 C4.848,4.728 5.04,4.512 5.04,4.248 C5.04,3.624 4.308,3.528 3.72,3.528 C2.676,3.528 1.08,4.404 1.08,7.176 C0.84,7.296 0.732,7.392 0.372,7.488 C0.348,7.5 0.288,7.524 0.288,7.56 C0.288,7.644 0.408,7.764 0.456,7.776 C0.708,7.8 0.924,7.8 1.08,7.8 L1.08,11.184 C1.08,11.508 0.804,11.64 0.564,11.712 C0.432,11.76 0.288,11.808 0.288,11.928 C0.288,12.024 0.432,12.036 0.528,12.036 C1.008,12.036 1.104,11.976 1.524,11.976 C1.944,11.976 1.992,12.036 2.472,12.036 C2.568,12.036 2.712,12.024 2.712,11.928 C2.712,11.808 2.568,11.76 2.436,11.712 C2.196,11.64 1.92,11.496 1.92,11.184 L1.92,7.98 C1.92,7.86 1.968,7.776 2.4,7.776 L3.552,7.776 C3.636,7.776 3.708,7.5 3.708,7.332 C3.708,7.26 3.696,7.2 3.66,7.2 L2.22,7.2 C2.064,7.2 1.92,7.152 1.92,6.936 L1.92,6.3 C1.92,4.68 2.472,4.02 3.216,4.02 C4.14,4.02 4.308,4.728 4.632,4.728 Z" id="Path" fill-rule="nonzero"></path>
            <path d="M7.07828571,7.032 C5.60228571,7.032 4.45028571,8.424 4.45028571,9.756 C4.45028571,11.16 5.49428571,12.168 6.83828571,12.168 C8.63828571,12.168 9.55028571,10.848 9.55028571,9.444 C9.55028571,8.148 8.47028571,7.032 7.07828571,7.032 Z M6.87428571,7.404 C7.89428571,7.404 8.56628571,8.592 8.56628571,9.732 C8.56628571,10.2 8.51828571,10.776 8.32628571,11.148 C8.08628571,11.616 7.63028571,11.808 7.09028571,11.808 C6.13028571,11.808 5.43428571,10.668 5.43428571,9.48 C5.43428571,8.904 5.49428571,8.292 5.81828571,7.884 C6.10628571,7.512 6.44228571,7.404 6.87428571,7.404 Z" id="Shape" fill-rule="nonzero"></path>
            <path d="M12.4045714,8.832 C12.4045714,8.028 12.8605714,7.824 13.2445714,7.824 C13.4845714,7.824 13.7605714,8.04 13.9645714,8.04 C14.2045714,8.04 14.4325714,7.656 14.4325714,7.416 C14.4325714,7.2 14.1925714,7.032 13.8565714,7.032 C13.5685714,7.032 13.1245714,7.212 12.7525714,7.548 C12.6685714,7.62 12.5125714,7.848 12.4645714,7.848 C12.4525714,7.848 12.4525714,7.848 12.4525714,7.824 C12.4765714,7.44 12.4885714,7.008 12.4885714,6.924 C12.4765714,6.888 12.4525714,6.84 12.4165714,6.84 C12.4045714,6.84 12.4045714,6.852 12.3925714,6.852 C12.0685714,7.044 11.6725714,7.368 11.0605714,7.512 C11.0125714,7.524 10.9525714,7.584 10.9525714,7.656 C10.9525714,7.728 11.0125714,7.8 11.0725714,7.812 C11.4685714,7.896 11.5645714,8.244 11.5645714,8.676 L11.5645714,11.256 C11.5525714,11.58 11.3485714,11.64 11.1085714,11.712 C10.9765714,11.76 10.8325714,11.808 10.8325714,11.928 C10.8325714,12.024 10.9885714,12.036 11.0725714,12.036 C11.5525714,12.036 11.6245714,11.976 12.0445714,11.976 C12.4645714,11.976 12.6085714,12.036 13.0885714,12.036 C13.1725714,12.036 13.3285714,12.024 13.3285714,11.928 C13.3285714,11.808 13.1845714,11.76 13.0525714,11.712 C12.8125714,11.64 12.4165714,11.52 12.4045714,11.196 L12.4045714,8.832 Z" id="Path" fill-rule="nonzero"></path>
            <path d="M22.0251429,11.616 C21.6771429,11.616 21.5931429,11.16 21.5931429,10.692 L21.6531429,8.1 C21.6651429,7.512 21.2331429,7.032 20.6691429,7.032 C20.0331429,7.032 19.2531429,7.548 18.8811429,7.884 C18.5811429,8.148 18.4011429,8.46 18.4011429,8.712 C18.4011429,8.748 18.4251429,8.82 18.4971429,8.82 C18.6531429,8.82 19.3251429,8.568 19.3251429,8.4 C19.3251429,8.34 19.3131429,8.292 19.3131429,8.232 C19.3131429,8.148 19.3251429,8.064 19.3611429,8.004 C19.4571429,7.836 19.8051429,7.62 20.0931429,7.62 C20.5251429,7.62 20.8131429,7.98 20.8011429,8.388 L20.7771429,9.156 C20.7651429,9.48 20.7531429,9.504 20.4411429,9.636 L19.2171429,10.14 C18.6291429,10.38 18.3411429,10.716 18.3411429,11.22 C18.3411429,11.688 18.8811429,12.168 19.3731429,12.168 C20.3571429,12.156 20.6931429,11.544 20.8491429,11.544 C20.9451429,11.544 21.0531429,12.168 21.7371429,12.168 C22.1931429,12.168 22.6971429,11.652 22.6971429,11.556 C22.6971429,11.46 22.5771429,11.376 22.5051429,11.448 C22.3731429,11.568 22.2411429,11.616 22.0251429,11.616 Z M19.3011429,10.956 C19.3011429,10.68 19.5771429,10.32 20.5011429,10.008 C20.5611429,9.984 20.6331429,9.972 20.6691429,9.972 C20.7651429,9.972 20.7891429,10.044 20.7771429,10.224 L20.7531429,10.812 C20.7411429,11.112 20.6931429,11.22 20.6091429,11.292 C20.4171429,11.46 20.2011429,11.616 19.8891429,11.616 C19.6611429,11.616 19.3011429,11.412 19.3011429,10.956 Z" id="Shape" fill-rule="nonzero"></path>
            <path d="M26.5714286,7.608 C27.2194286,7.62 27.6514286,8.04 27.6514286,8.736 L27.6514286,11.256 C27.6514286,11.58 27.3754286,11.64 27.1354286,11.712 C27.0034286,11.76 26.8594286,11.808 26.8594286,11.928 C26.8594286,12.024 27.0154286,12.036 27.0994286,12.036 C27.5794286,12.036 27.6634286,11.976 28.0834286,11.976 C28.5034286,11.976 28.5634286,12.036 29.0434286,12.036 C29.1394286,12.036 29.2834286,12.024 29.2834286,11.928 C29.2834286,11.808 29.1394286,11.76 29.0074286,11.712 C28.7674286,11.64 28.4914286,11.58 28.4914286,11.256 L28.4914286,8.7 C28.4914286,7.764 27.9154286,7.032 27.1354286,7.032 C26.3794286,7.032 25.7614286,7.302 25.2034286,7.836 C25.186458,7.81902942 25.1794286,7.764 25.1794286,7.692 C25.1794286,7.464 25.2394286,7.032 25.2394286,6.924 C25.2394286,6.876 25.1914286,6.84 25.1554286,6.84 C24.7474286,7.116 24.4474286,7.368 23.8234286,7.512 C23.7754286,7.524 23.7394286,7.584 23.7394286,7.656 C23.7394286,7.728 23.7754286,7.8 23.8354286,7.812 C24.2434286,7.896 24.3054325,8.244 24.3034286,8.676 L24.3034286,11.256 C24.3034286,11.58 24.0274286,11.64 23.7874286,11.712 C23.6554286,11.76 23.5114286,11.808 23.5114286,11.928 C23.5114286,12.024 23.6554286,12.036 23.7514286,12.036 C24.2314286,12.036 24.3034286,11.976 24.7234286,11.976 C25.1434286,11.976 25.2154286,12.036 25.6954286,12.036 C25.7914286,12.036 25.9354286,12.024 25.9354286,11.928 C25.9354286,11.808 25.7914286,11.76 25.6594286,11.712 C25.4194286,11.64 25.1434286,11.58 25.1434286,11.256 L25.1434286,8.784 C25.1434286,8.292 25.3234286,8.028 25.4674286,7.92 C25.7674286,7.68 26.1634286,7.608 26.5714286,7.608 Z" id="Path" fill-rule="nonzero"></path>
            <path d="M35.544,7.404 C36.012,7.404 36.528,7.668 36.528,8.148 C36.528,8.28 36.492,8.472 36.408,8.484 C36.156,8.532 35.88,8.544 35.532,8.544 L34.548,8.544 C34.38,8.544 34.32,8.46 34.32,8.364 C34.32,8.052 34.872,7.404 35.544,7.404 Z M35.736,7.032 C34.38,7.032 33.348,8.208 33.348,9.564 C33.348,11.16 34.272,12.168 35.364,12.168 C36.468,12.168 37.14,11.484 37.26,11.064 C37.284,10.968 37.272,10.824 37.188,10.824 C37.152,10.824 37.092,10.872 37.056,10.908 C36.744,11.316 36.204,11.448 35.904,11.448 C34.824,11.448 34.092,10.44 34.092,9.36 C34.092,8.952 34.2,8.916 34.392,8.916 L36.888,8.916 C37.2,8.916 37.308,8.736 37.308,8.376 C37.308,7.488 36.66,7.032 35.736,7.032 Z" id="Shape" fill-rule="nonzero"></path>
            <path d="M40.9302857,7.452 C41.8662857,7.452 42.4062857,8.268 42.4062857,8.94 L42.4062857,10.56 C42.4062857,11.136 41.9382857,11.628 41.2662857,11.628 C40.7382857,11.628 39.4902857,11.256 39.4902857,9.444 C39.4902857,7.836 40.4622857,7.452 40.9302857,7.452 Z M42.2382857,7.284 C42.1662857,7.2 41.6382857,7.032 41.3022857,7.032 C39.6222857,7.032 38.6022857,8.328 38.6022857,9.72 C38.6022857,10.932 39.4542857,12.168 40.8222857,12.168 C41.6142857,12.168 42.1542857,11.688 42.3942857,11.316 L42.3942857,11.388 C42.3942857,11.592 42.3342857,12.024 42.3342857,12.18 C42.3342857,12.216 42.3222857,12.228 42.3702857,12.228 C42.4422857,12.228 42.6102857,12.18 42.6582857,12.156 C43.0062857,12.012 43.4382857,11.832 44.0622857,11.748 C44.1222857,11.748 44.2302857,11.712 44.2302857,11.58 C44.2302857,11.436 44.1102857,11.412 44.0502857,11.424 C43.9302857,11.448 43.6182857,11.46 43.4982857,11.46 C43.3062857,11.46 43.2462857,11.184 43.2462857,10.68 L43.2462857,5.256 C43.2462857,4.176 43.3302857,3.768 43.3302857,3.624 C43.3182857,3.576 43.2942857,3.552 43.2462857,3.552 C43.0782857,3.552 42.6582857,3.828 41.7822857,4.032 C41.7222857,4.044 41.6982857,4.116 41.6982857,4.176 C41.6982857,4.248 41.7342857,4.32 41.7942857,4.332 C42.2022857,4.416 42.4062857,4.56 42.4062857,5.208 L42.4062857,7.104 C42.4062857,7.32 42.3942857,7.392 42.3582857,7.392 C42.3342857,7.392 42.2862857,7.344 42.2382857,7.284 Z" id="Shape" fill-rule="nonzero"></path>
            <path d="M49.0885714,8.46 C49.0885714,8.28 49.0885714,8.04 49.1365714,7.908 C49.3045714,7.884 49.1965714,7.812 49.8805714,7.812 C49.9525714,7.812 49.9885714,7.716 49.9885714,7.608 C49.9885714,7.5 49.9645714,7.344 49.8805714,7.344 C49.7605714,7.344 49.4365714,7.38 49.2445714,7.38 C49.0045714,7.38 48.8527785,7.37932031 48.6085714,7.332 C48.1015474,7.2337641 47.8645714,7.008 47.3245714,7.008 C46.2325714,7.008 45.2365714,7.788 45.2365714,8.904 C45.2365714,9.804 46.0812053,10.4382601 46.2325714,10.476 C46.0525714,10.752 45.7525714,10.86 45.5245714,11.028 C45.3565714,11.16 45.2485714,11.292 45.2485714,11.472 C45.2485714,12.036 45.9205714,12.288 46.3285714,12.372 C46.1485714,12.66 45.8245714,12.864 45.4885714,13.08 C45.2845714,13.2 44.9005714,13.548 44.9005714,14.112 C44.9005714,15.168 46.1005714,15.48 47.1085714,15.48 C48.3205714,15.48 49.7845714,14.244 49.7845714,12.924 C49.7845714,11.916 48.6325714,11.808 47.1085714,11.664 C46.7245714,11.628 45.9565714,11.508 45.9565714,11.172 C45.9565714,11.016 46.2325714,10.776 46.4845714,10.584 C46.6733063,10.6890485 47.0125714,10.728 47.1325714,10.728 C48.2005714,10.728 49.0885714,9.696 49.0885714,8.46 Z M47.1685714,7.368 C47.8405714,7.368 48.3085714,8.10003516 48.3085714,8.82 C48.3085714,9.6 47.8525714,10.308 47.2525714,10.308 C46.5685714,10.308 46.1005714,9.51255469 46.1005714,8.76 C46.1005714,8.184 46.4843136,7.368 47.1685714,7.368 Z M45.7525714,13.608 C45.7525714,13.416 45.8365714,13.2 46.0405714,12.96 C46.1965714,12.804 46.4965714,12.504 46.6405714,12.408 C46.7125714,12.384 46.8325714,12.408 46.9165714,12.408 C47.1925714,12.42 47.7925714,12.468 48.0925714,12.528 C48.4885714,12.612 49.0525714,12.864 49.0525714,13.308 C49.0525714,14.304 48.2125714,15 47.2765714,15 C46.3285714,15 45.7525714,14.4 45.7525714,13.608 Z" id="Shape" fill-rule="nonzero"></path>
            <path d="M53.0588571,7.404 C53.5268571,7.404 54.0428571,7.668 54.0428571,8.148 C54.0428571,8.28 54.0068571,8.472 53.9228571,8.484 C53.6708571,8.532 53.3948571,8.544 53.0468571,8.544 L52.0628571,8.544 C51.8948571,8.544 51.8348571,8.46 51.8348571,8.364 C51.8348571,8.052 52.3868571,7.404 53.0588571,7.404 Z M53.2508571,7.032 C51.8948571,7.032 50.8628571,8.208 50.8628571,9.564 C50.8628571,11.16 51.7868571,12.168 52.8788571,12.168 C53.9828571,12.168 54.6548571,11.484 54.7748571,11.064 C54.7988571,10.968 54.7868571,10.824 54.7028571,10.824 C54.6668571,10.824 54.6068571,10.872 54.5708571,10.908 C54.2588571,11.316 53.7188571,11.448 53.4188571,11.448 C52.3388571,11.448 51.6068571,10.44 51.6068571,9.36 C51.6068571,8.952 51.7148571,8.916 51.9068571,8.916 L54.4028571,8.916 C54.7148571,8.916 54.8228571,8.736 54.8228571,8.376 C54.8228571,7.488 54.1748571,7.032 53.2508571,7.032 Z" id="Shape" fill-rule="nonzero"></path>
        </g>
    </g>
</svg>