<?xml version="1.0" encoding="UTF-8"?>
<svg width="220px" height="220px" viewBox="0 0 220 220" version="1.1" xmlns="http://www.w3.org/2000/svg" xmlns:xlink="http://www.w3.org/1999/xlink">
    <title>square-2 copy 14</title>
    <defs>
        <path d="M0,0 L220,0 L220,220 L0,220 L0,0 Z" id="path-1"></path>
    </defs>
    <g id="square-2-copy-14" stroke="none" fill="none" xlink:href="#path-1" fill-rule="evenodd" stroke-width="1">
        <g id="For-an-edge-to-give" transform="translate(46, 60)" fill="#000000">
            <polygon id="Path" fill-rule="nonzero" points="1.246 15 2.758 15 2.758 10.478 6.006 10.478 6.006 8.966 2.758 8.966 2.758 6.544 7.322 6.544 7.322 5.046 1.246 5.046"></polygon>
            <path d="M10.322,15.112 L11.806,15.112 L13.234,14.426 L13.976,13.348 L14.228,12.144 L14.228,10.492 L13.976,9.288 L13.234,8.21 L11.806,7.51 L10.322,7.51 L8.908,8.21 L8.166,9.288 L7.9,10.492 L7.9,12.144 L8.166,13.348 L8.908,14.426 L10.322,15.112 Z M10.602,13.642 L9.888,13.278 L9.566,12.816 L9.398,11.948 L9.398,10.66 L9.566,9.834 L9.916,9.344 L10.574,8.994 L11.54,8.994 L12.226,9.344 L12.562,9.848 L12.744,10.66 L12.744,11.948 L12.562,12.802 L12.254,13.278 L11.526,13.642 L10.602,13.642 Z" id="Shape" fill-rule="nonzero"></path>
            <polygon id="Path" fill-rule="nonzero" points="16.15 15 17.648 15 17.648 10.45 17.928 9.848 18.418 9.302 19.062 8.994 19.538 8.994 20.252 9.19 20.616 7.748 19.762 7.51 18.796 7.51 17.816 7.986 17.648 8.154 17.648 7.622 16.15 7.622"></polygon>
            <path d="M31.362,15.182 L32.566,14.314 L31.978,13.46 L31.978,9.47 L31.586,8.49 L30.48,7.748 L29.542,7.51 L28.24,7.51 L27.302,7.79 L26.672,8.196 L26.112,8.714 L27.148,9.792 L27.54,9.414 L27.918,9.162 L28.38,8.994 L29.276,8.994 L29.892,9.148 L30.368,9.47 L30.48,9.75 L30.48,10.352 L30.424,10.31 L29.5,10.002 L28.576,10.002 L27.204,10.352 L26.154,11.416 L25.944,12.382 L25.944,13.236 L26.756,14.412 L27.442,14.818 L28.394,15.112 L29.29,15.112 L30.578,14.454 L30.746,14.272 L31.362,15.182 Z M28.59,13.628 L28.044,13.446 L27.792,13.306 L27.442,12.802 L27.442,12.522 L27.54,12.158 L27.988,11.696 L28.744,11.486 L29.29,11.486 L29.934,11.682 L30.256,11.836 L30.48,12.074 L30.48,12.466 L30.368,12.774 L29.892,13.278 L28.982,13.628 L28.59,13.628 Z" id="Shape" fill-rule="nonzero"></path>
            <polygon id="Path" fill-rule="nonzero" points="34.572 15 36.07 15 36.07 10.044 36.406 9.568 37.274 8.994 38.016 8.994 38.716 9.218 38.982 9.596 38.982 15 40.48 15 40.48 9.05 39.598 7.86 38.296 7.51 37.036 7.51 36.07 8.07 36.07 7.622 34.572 7.622"></polygon>
            <path d="M49.434,15.112 L50.61,15.112 L51.842,14.804 L52.92,14.09 L52.136,12.886 L51.282,13.404 L50.442,13.628 L49.728,13.628 L49,13.278 L48.412,12.452 L48.272,12.116 L53.382,12.116 L53.382,10.436 L53.046,9.47 L52.122,8.21 L50.694,7.51 L49.434,7.51 L48.006,8.21 L47.068,9.47 L46.774,10.52 L46.774,12.13 L47.068,13.152 L48.006,14.412 L49.434,15.112 Z M48.286,10.632 L48.384,10.17 L48.986,9.358 L49.672,8.994 L50.428,8.994 L51.142,9.386 L51.716,10.184 L51.87,10.632 L48.286,10.632 Z" id="Shape" fill-rule="nonzero"></path>
            <path d="M57.698,15.112 L59.014,15.112 L59.868,14.594 L59.868,15 L61.352,15 L61.352,4.444 L59.854,4.444 L59.854,7.902 L59.742,7.818 L58.902,7.51 L57.67,7.51 L56.242,8.21 L55.304,9.47 L54.996,10.52 L54.996,12.13 L55.304,13.152 L56.242,14.426 L57.698,15.112 Z M57.978,13.628 L57.208,13.264 L56.634,12.452 L56.494,11.962 L56.494,10.702 L56.634,10.17 L57.222,9.372 L57.922,8.98 L58.72,8.98 L59.182,9.148 L59.63,9.428 L59.854,9.708 L59.854,12.592 L59.504,13.096 L58.734,13.628 L57.978,13.628 Z" id="Shape" fill-rule="nonzero"></path>
            <path d="M66.158,17.352 L67.404,17.352 L68.412,17.002 L69.532,16.26 L69.882,15.21 L69.882,7.622 L68.398,7.622 L68.398,7.902 L68.286,7.818 L67.446,7.51 L66.2,7.51 L64.786,8.21 L63.848,9.47 L63.54,10.52 L63.54,11.808 L63.848,12.844 L64.828,14.118 L66.27,14.678 L67.558,14.678 L68.398,14.174 L68.398,15 L68.272,15.308 L67.768,15.672 L67.222,15.868 L66.368,15.868 L65.724,15.7 L65.472,15.504 L65.01,15.042 L63.96,16.12 L64.464,16.624 L65.206,17.1 L66.158,17.352 Z M66.494,13.194 L65.738,12.9 L65.164,12.116 L65.038,11.626 L65.038,10.702 L65.178,10.17 L65.766,9.372 L66.452,8.98 L67.264,8.98 L67.726,9.148 L68.16,9.428 L68.398,9.708 L68.398,12.116 L68.048,12.662 L67.278,13.194 L66.494,13.194 Z" id="Shape" fill-rule="nonzero"></path>
            <path d="M74.702,15.112 L75.878,15.112 L77.11,14.804 L78.188,14.09 L77.404,12.886 L76.55,13.404 L75.71,13.628 L74.996,13.628 L74.268,13.278 L73.68,12.452 L73.54,12.116 L78.65,12.116 L78.65,10.436 L78.314,9.47 L77.39,8.21 L75.962,7.51 L74.702,7.51 L73.274,8.21 L72.336,9.47 L72.042,10.52 L72.042,12.13 L72.336,13.152 L73.274,14.412 L74.702,15.112 Z M73.554,10.632 L73.652,10.17 L74.254,9.358 L74.94,8.994 L75.696,8.994 L76.41,9.386 L76.984,10.184 L77.138,10.632 L73.554,10.632 Z" id="Shape" fill-rule="nonzero"></path>
            <polygon id="Path" fill-rule="nonzero" points="87.128 15.112 87.8 15.112 89.228 14.79 88.85 13.334 87.716 13.628 87.422 13.628 87.044 13.46 86.792 13.124 86.792 9.288 88.626 9.288 88.626 7.804 86.792 7.804 86.792 5.228 85.294 5.228 85.294 7.804 84.034 7.804 84.034 9.288 85.294 9.288 85.294 13.586 86.092 14.72"></polygon>
            <path d="M92.634,15.112 L94.118,15.112 L95.546,14.426 L96.288,13.348 L96.54,12.144 L96.54,10.492 L96.288,9.288 L95.546,8.21 L94.118,7.51 L92.634,7.51 L91.22,8.21 L90.478,9.288 L90.212,10.492 L90.212,12.144 L90.478,13.348 L91.22,14.426 L92.634,15.112 Z M92.914,13.642 L92.2,13.278 L91.878,12.816 L91.71,11.948 L91.71,10.66 L91.878,9.834 L92.228,9.344 L92.886,8.994 L93.852,8.994 L94.538,9.344 L94.874,9.848 L95.056,10.66 L95.056,11.948 L94.874,12.802 L94.566,13.278 L93.838,13.642 L92.914,13.642 Z" id="Shape" fill-rule="nonzero"></path>
            <path d="M3.346,37.352 L4.592,37.352 L5.6,37.002 L6.72,36.26 L7.07,35.21 L7.07,27.622 L5.586,27.622 L5.586,27.902 L5.474,27.818 L4.634,27.51 L3.388,27.51 L1.974,28.21 L1.036,29.47 L0.728,30.52 L0.728,31.808 L1.036,32.844 L2.016,34.118 L3.458,34.678 L4.746,34.678 L5.586,34.174 L5.586,35 L5.46,35.308 L4.956,35.672 L4.41,35.868 L3.556,35.868 L2.912,35.7 L2.66,35.504 L2.198,35.042 L1.148,36.12 L1.652,36.624 L2.394,37.1 L3.346,37.352 Z M3.682,33.194 L2.926,32.9 L2.352,32.116 L2.226,31.626 L2.226,30.702 L2.366,30.17 L2.954,29.372 L3.64,28.98 L4.452,28.98 L4.914,29.148 L5.348,29.428 L5.586,29.708 L5.586,32.116 L5.236,32.662 L4.466,33.194 L3.682,33.194 Z" id="Shape" fill-rule="nonzero"></path>
            <path d="M9.678,26.474 L11.638,26.474 L11.638,24.444 L9.678,24.444 L9.678,26.474 Z M9.916,35 L11.414,35 L11.414,27.622 L9.916,27.622 L9.916,35 Z" id="Shape" fill-rule="nonzero"></path>
            <polygon id="Path" fill-rule="nonzero" points="16.08 35 17.354 35 20.28 27.622 18.684 27.622 16.71 32.676 14.75 27.622 13.154 27.622"></polygon>
            <path d="M23.756,35.112 L24.932,35.112 L26.164,34.804 L27.242,34.09 L26.458,32.886 L25.604,33.404 L24.764,33.628 L24.05,33.628 L23.322,33.278 L22.734,32.452 L22.594,32.116 L27.704,32.116 L27.704,30.436 L27.368,29.47 L26.444,28.21 L25.016,27.51 L23.756,27.51 L22.328,28.21 L21.39,29.47 L21.096,30.52 L21.096,32.13 L21.39,33.152 L22.328,34.412 L23.756,35.112 Z M22.608,30.632 L22.706,30.17 L23.308,29.358 L23.994,28.994 L24.75,28.994 L25.464,29.386 L26.038,30.184 L26.192,30.632 L22.608,30.632 Z" id="Shape" fill-rule="nonzero"></path>
            <polygon id="Path" fill-rule="nonzero" points="34.474 37.282 36.098 37.282 40.452 27.622 38.786 27.622 36.826 32.074 34.866 27.622 33.172 27.622 36.014 33.88"></polygon>
            <path d="M43.48,35.112 L44.964,35.112 L46.392,34.426 L47.134,33.348 L47.386,32.144 L47.386,30.492 L47.134,29.288 L46.392,28.21 L44.964,27.51 L43.48,27.51 L42.066,28.21 L41.324,29.288 L41.058,30.492 L41.058,32.144 L41.324,33.348 L42.066,34.426 L43.48,35.112 Z M43.76,33.642 L43.046,33.278 L42.724,32.816 L42.556,31.948 L42.556,30.66 L42.724,29.834 L43.074,29.344 L43.732,28.994 L44.698,28.994 L45.384,29.344 L45.72,29.848 L45.902,30.66 L45.902,31.948 L45.72,32.802 L45.412,33.278 L44.684,33.642 L43.76,33.642 Z" id="Shape" fill-rule="nonzero"></path>
            <polygon id="Path" fill-rule="nonzero" points="51.632 35.112 52.752 35.112 53.732 34.552 53.732 35 55.216 35 55.216 27.622 53.718 27.622 53.718 32.592 53.368 33.054 52.5 33.642 51.856 33.642 51.184 33.46 50.862 33.026 50.862 27.622 49.364 27.622 49.364 33.544 50.302 34.762"></polygon>
            <path d="M67.138,35.182 L68.342,34.314 L67.754,33.46 L67.754,29.47 L67.362,28.49 L66.256,27.748 L65.318,27.51 L64.016,27.51 L63.078,27.79 L62.448,28.196 L61.888,28.714 L62.924,29.792 L63.316,29.414 L63.694,29.162 L64.156,28.994 L65.052,28.994 L65.668,29.148 L66.144,29.47 L66.256,29.75 L66.256,30.352 L66.2,30.31 L65.276,30.002 L64.352,30.002 L62.98,30.352 L61.93,31.416 L61.72,32.382 L61.72,33.236 L62.532,34.412 L63.218,34.818 L64.17,35.112 L65.066,35.112 L66.354,34.454 L66.522,34.272 L67.138,35.182 Z M64.366,33.628 L63.82,33.446 L63.568,33.306 L63.218,32.802 L63.218,32.522 L63.316,32.158 L63.764,31.696 L64.52,31.486 L65.066,31.486 L65.71,31.682 L66.032,31.836 L66.256,32.074 L66.256,32.466 L66.144,32.774 L65.668,33.278 L64.758,33.628 L64.366,33.628 Z" id="Shape" fill-rule="nonzero"></path>
            <polygon id="Path" fill-rule="nonzero" points="70.348 35 71.846 35 71.846 30.044 72.182 29.568 73.05 28.994 73.792 28.994 74.492 29.218 74.758 29.596 74.758 35 76.256 35 76.256 29.05 75.374 27.86 74.072 27.51 72.812 27.51 71.846 28.07 71.846 27.622 70.348 27.622"></polygon>
            <polygon id="Path" fill-rule="nonzero" points="78.752 37.282 80.376 37.282 84.73 27.622 83.064 27.622 81.104 32.074 79.144 27.622 77.45 27.622 80.292 33.88"></polygon>
            <polygon id="Path" fill-rule="nonzero" points="88.108 35.112 88.78 35.112 90.208 34.79 89.83 33.334 88.696 33.628 88.402 33.628 88.024 33.46 87.772 33.124 87.772 29.288 89.606 29.288 89.606 27.804 87.772 27.804 87.772 25.228 86.274 25.228 86.274 27.804 85.014 27.804 85.014 29.288 86.274 29.288 86.274 33.586 87.072 34.72"></polygon>
            <polygon id="Path" fill-rule="nonzero" points="91.976 35 93.474 35 93.474 30.072 93.81 29.568 94.678 28.994 95.476 28.994 96.036 29.19 96.316 29.596 96.316 35 97.814 35 97.814 29.05 96.932 27.874 95.714 27.51 94.44 27.51 93.474 28.056 93.474 24.444 91.976 24.444"></polygon>
            <path d="M100.226,26.474 L102.186,26.474 L102.186,24.444 L100.226,24.444 L100.226,26.474 Z M100.464,35 L101.962,35 L101.962,27.622 L100.464,27.622 L100.464,35 Z" id="Shape" fill-rule="nonzero"></path>
            <polygon id="Path" fill-rule="nonzero" points="104.78 35 106.278 35 106.278 30.044 106.614 29.568 107.482 28.994 108.224 28.994 108.924 29.218 109.19 29.596 109.19 35 110.688 35 110.688 29.05 109.806 27.86 108.504 27.51 107.244 27.51 106.278 28.07 106.278 27.622 104.78 27.622"></polygon>
            <path d="M115.284,37.352 L116.53,37.352 L117.538,37.002 L118.658,36.26 L119.008,35.21 L119.008,27.622 L117.524,27.622 L117.524,27.902 L117.412,27.818 L116.572,27.51 L115.326,27.51 L113.912,28.21 L112.974,29.47 L112.666,30.52 L112.666,31.808 L112.974,32.844 L113.954,34.118 L115.396,34.678 L116.684,34.678 L117.524,34.174 L117.524,35 L117.398,35.308 L116.894,35.672 L116.348,35.868 L115.494,35.868 L114.85,35.7 L114.598,35.504 L114.136,35.042 L113.086,36.12 L113.59,36.624 L114.332,37.1 L115.284,37.352 Z M115.62,33.194 L114.864,32.9 L114.29,32.116 L114.164,31.626 L114.164,30.702 L114.304,30.17 L114.892,29.372 L115.578,28.98 L116.39,28.98 L116.852,29.148 L117.286,29.428 L117.524,29.708 L117.524,32.116 L117.174,32.662 L116.404,33.194 L115.62,33.194 Z" id="Shape" fill-rule="nonzero"></path>
            <polygon id="Path" fill-rule="nonzero" points="122.092 36.876 123.352 34.804 123.352 33.054 121.462 33.054 121.462 34.734 122.148 35 121.364 36.47"></polygon>
            <polygon id="Path" fill-rule="nonzero" points="2.492 75 3.822 75 5.362 70.534 6.916 75 8.246 75 10.388 67.622 8.82 67.622 7.532 72.326 5.964 67.888 4.774 67.888 3.206 72.34 1.904 67.622 0.35 67.622"></polygon>
            <polygon id="Path" fill-rule="nonzero" points="12.198 75 13.696 75 13.696 70.072 14.032 69.568 14.9 68.994 15.698 68.994 16.258 69.19 16.538 69.596 16.538 75 18.036 75 18.036 69.05 17.154 67.874 15.936 67.51 14.662 67.51 13.696 68.056 13.696 64.444 12.198 64.444"></polygon>
            <path d="M22.66,75.112 L23.836,75.112 L25.068,74.804 L26.146,74.09 L25.362,72.886 L24.508,73.404 L23.668,73.628 L22.954,73.628 L22.226,73.278 L21.638,72.452 L21.498,72.116 L26.608,72.116 L26.608,70.436 L26.272,69.47 L25.348,68.21 L23.92,67.51 L22.66,67.51 L21.232,68.21 L20.294,69.47 L20,70.52 L20,72.13 L20.294,73.152 L21.232,74.412 L22.66,75.112 Z M21.512,70.632 L21.61,70.17 L22.212,69.358 L22.898,68.994 L23.654,68.994 L24.368,69.386 L24.942,70.184 L25.096,70.632 L21.512,70.632 Z" id="Shape" fill-rule="nonzero"></path>
            <polygon id="Path" fill-rule="nonzero" points="28.768 75 30.266 75 30.266 70.044 30.602 69.568 31.47 68.994 32.212 68.994 32.912 69.218 33.178 69.596 33.178 75 34.676 75 34.676 69.05 33.794 67.86 32.492 67.51 31.232 67.51 30.266 68.07 30.266 67.622 28.768 67.622"></polygon>
            <polygon id="Path" fill-rule="nonzero" points="41.614 75 43.112 75 43.112 69.288 44.89 69.288 44.89 67.804 43.112 67.804 43.112 66.32 43.364 65.956 43.756 65.816 44.05 65.816 45.226 66.11 45.618 64.626 44.218 64.332 43.644 64.332 42.426 64.696 41.614 65.9 41.614 67.804 40.354 67.804 40.354 69.288 41.614 69.288"></polygon>
            <path d="M51.544,75.182 L52.748,74.314 L52.16,73.46 L52.16,69.47 L51.768,68.49 L50.662,67.748 L49.724,67.51 L48.422,67.51 L47.484,67.79 L46.854,68.196 L46.294,68.714 L47.33,69.792 L47.722,69.414 L48.1,69.162 L48.562,68.994 L49.458,68.994 L50.074,69.148 L50.55,69.47 L50.662,69.75 L50.662,70.352 L50.606,70.31 L49.682,70.002 L48.758,70.002 L47.386,70.352 L46.336,71.416 L46.126,72.382 L46.126,73.236 L46.938,74.412 L47.624,74.818 L48.576,75.112 L49.472,75.112 L50.76,74.454 L50.928,74.272 L51.544,75.182 Z M48.772,73.628 L48.226,73.446 L47.974,73.306 L47.624,72.802 L47.624,72.522 L47.722,72.158 L48.17,71.696 L48.926,71.486 L49.472,71.486 L50.116,71.682 L50.438,71.836 L50.662,72.074 L50.662,72.466 L50.55,72.774 L50.074,73.278 L49.164,73.628 L48.772,73.628 Z" id="Shape" fill-rule="nonzero"></path>
            <path d="M56.91,75.112 L58.226,75.112 L59.08,74.594 L59.08,75 L60.564,75 L60.564,64.444 L59.066,64.444 L59.066,67.902 L58.954,67.818 L58.114,67.51 L56.882,67.51 L55.454,68.21 L54.516,69.47 L54.208,70.52 L54.208,72.13 L54.516,73.152 L55.454,74.426 L56.91,75.112 Z M57.19,73.628 L56.42,73.264 L55.846,72.452 L55.706,71.962 L55.706,70.702 L55.846,70.17 L56.434,69.372 L57.134,68.98 L57.932,68.98 L58.394,69.148 L58.842,69.428 L59.066,69.708 L59.066,72.592 L58.716,73.096 L57.946,73.628 L57.19,73.628 Z" id="Shape" fill-rule="nonzero"></path>
            <path d="M65.398,75.112 L66.574,75.112 L67.806,74.804 L68.884,74.09 L68.1,72.886 L67.246,73.404 L66.406,73.628 L65.692,73.628 L64.964,73.278 L64.376,72.452 L64.236,72.116 L69.346,72.116 L69.346,70.436 L69.01,69.47 L68.086,68.21 L66.658,67.51 L65.398,67.51 L63.97,68.21 L63.032,69.47 L62.738,70.52 L62.738,72.13 L63.032,73.152 L63.97,74.412 L65.398,75.112 Z M64.25,70.632 L64.348,70.17 L64.95,69.358 L65.636,68.994 L66.392,68.994 L67.106,69.386 L67.68,70.184 L67.834,70.632 L64.25,70.632 Z" id="Shape" fill-rule="nonzero"></path>
            <path d="M1.26,97.282 L2.758,97.282 L2.758,94.72 L2.87,94.804 L3.696,95.112 L4.942,95.112 L6.37,94.412 L7.308,93.152 L7.616,92.102 L7.616,90.492 L7.308,89.47 L6.37,88.196 L4.914,87.51 L3.598,87.51 L2.744,88.028 L2.744,87.622 L1.26,87.622 L1.26,97.282 Z M3.892,93.642 L3.43,93.474 L2.982,93.194 L2.758,92.914 L2.758,90.03 L3.108,89.526 L3.878,88.994 L4.634,88.994 L5.404,89.358 L5.978,90.17 L6.118,90.674 L6.118,91.92 L5.978,92.452 L5.39,93.25 L4.69,93.642 L3.892,93.642 Z" id="Shape" fill-rule="nonzero"></path>
            <path d="M11.89,95.112 L13.066,95.112 L14.298,94.804 L15.376,94.09 L14.592,92.886 L13.738,93.404 L12.898,93.628 L12.184,93.628 L11.456,93.278 L10.868,92.452 L10.728,92.116 L15.838,92.116 L15.838,90.436 L15.502,89.47 L14.578,88.21 L13.15,87.51 L11.89,87.51 L10.462,88.21 L9.524,89.47 L9.23,90.52 L9.23,92.13 L9.524,93.152 L10.462,94.412 L11.89,95.112 Z M10.742,90.632 L10.84,90.17 L11.442,89.358 L12.128,88.994 L12.884,88.994 L13.598,89.386 L14.172,90.184 L14.326,90.632 L10.742,90.632 Z" id="Shape" fill-rule="nonzero"></path>
            <polygon id="Path" fill-rule="nonzero" points="17.732 95 19.23 95 19.23 90.45 19.51 89.848 20 89.302 20.644 88.994 21.12 88.994 21.834 89.19 22.198 87.748 21.344 87.51 20.378 87.51 19.398 87.986 19.23 88.154 19.23 87.622 17.732 87.622"></polygon>
            <polygon id="Path" fill-rule="nonzero" points="24.106 95 25.604 95 25.604 89.288 27.382 89.288 27.382 87.804 25.604 87.804 25.604 86.32 25.856 85.956 26.248 85.816 26.542 85.816 27.718 86.11 28.11 84.626 26.71 84.332 26.136 84.332 24.918 84.696 24.106 85.9 24.106 87.804 22.846 87.804 22.846 89.288 24.106 89.288"></polygon>
            <path d="M30.984,95.112 L32.468,95.112 L33.896,94.426 L34.638,93.348 L34.89,92.144 L34.89,90.492 L34.638,89.288 L33.896,88.21 L32.468,87.51 L30.984,87.51 L29.57,88.21 L28.828,89.288 L28.562,90.492 L28.562,92.144 L28.828,93.348 L29.57,94.426 L30.984,95.112 Z M31.264,93.642 L30.55,93.278 L30.228,92.816 L30.06,91.948 L30.06,90.66 L30.228,89.834 L30.578,89.344 L31.236,88.994 L32.202,88.994 L32.888,89.344 L33.224,89.848 L33.406,90.66 L33.406,91.948 L33.224,92.802 L32.916,93.278 L32.188,93.642 L31.264,93.642 Z" id="Shape" fill-rule="nonzero"></path>
            <polygon id="Path" fill-rule="nonzero" points="36.812 95 38.31 95 38.31 90.45 38.59 89.848 39.08 89.302 39.724 88.994 40.2 88.994 40.914 89.19 41.278 87.748 40.424 87.51 39.458 87.51 38.478 87.986 38.31 88.154 38.31 87.622 36.812 87.622"></polygon>
            <polygon id="Path" fill-rule="nonzero" points="42.934 95 44.432 95 44.432 90.044 44.768 89.568 45.636 88.994 46.392 88.994 47.092 89.218 47.358 89.596 47.358 95 48.856 95 48.856 90.044 49.192 89.568 50.06 88.994 50.816 88.994 51.516 89.218 51.782 89.596 51.782 95 53.28 95 53.28 89.05 52.398 87.86 51.096 87.51 49.822 87.51 48.87 88.056 48.394 88.448 47.974 87.86 46.672 87.51 45.398 87.51 44.432 88.07 44.432 87.622 42.934 87.622"></polygon>
            <polygon id="Path" fill-rule="nonzero" points="57.414 95.112 58.646 95.112 59.626 94.832 60.34 94.314 60.886 93.488 60.886 92.228 60.312 91.304 59.486 90.758 57.442 90.352 57.148 90.198 56.952 89.946 56.952 89.47 57.078 89.246 57.218 89.12 57.722 88.98 58.548 88.98 59.22 89.19 59.976 89.708 60.802 88.476 59.808 87.804 58.702 87.51 57.47 87.51 56.63 87.748 55.944 88.266 55.468 89.092 55.468 90.408 56.084 91.248 57.022 91.752 58.912 92.144 59.22 92.354 59.402 92.648 59.402 93.054 59.22 93.306 58.94 93.502 58.478 93.642 57.666 93.642 56.854 93.418 56.546 93.18 56.182 92.76 55.132 93.768 55.58 94.272 56.252 94.818"></polygon>
            <path d="M69.406,95.112 L70.582,95.112 L71.814,94.804 L72.892,94.09 L72.108,92.886 L71.254,93.404 L70.414,93.628 L69.7,93.628 L68.972,93.278 L68.384,92.452 L68.244,92.116 L73.354,92.116 L73.354,90.436 L73.018,89.47 L72.094,88.21 L70.666,87.51 L69.406,87.51 L67.978,88.21 L67.04,89.47 L66.746,90.52 L66.746,92.13 L67.04,93.152 L67.978,94.412 L69.406,95.112 Z M68.258,90.632 L68.356,90.17 L68.958,89.358 L69.644,88.994 L70.4,88.994 L71.114,89.386 L71.688,90.184 L71.842,90.632 L68.258,90.632 Z" id="Shape" fill-rule="nonzero"></path>
            <polygon id="Path" fill-rule="nonzero" points="76.942 95 78.216 95 81.142 87.622 79.546 87.622 77.572 92.676 75.612 87.622 74.016 87.622"></polygon>
            <path d="M84.618,95.112 L85.794,95.112 L87.026,94.804 L88.104,94.09 L87.32,92.886 L86.466,93.404 L85.626,93.628 L84.912,93.628 L84.184,93.278 L83.596,92.452 L83.456,92.116 L88.566,92.116 L88.566,90.436 L88.23,89.47 L87.306,88.21 L85.878,87.51 L84.618,87.51 L83.19,88.21 L82.252,89.47 L81.958,90.52 L81.958,92.13 L82.252,93.152 L83.19,94.412 L84.618,95.112 Z M83.47,90.632 L83.568,90.17 L84.17,89.358 L84.856,88.994 L85.612,88.994 L86.326,89.386 L86.9,90.184 L87.054,90.632 L83.47,90.632 Z" id="Shape" fill-rule="nonzero"></path>
            <polygon id="Path" fill-rule="nonzero" points="90.726 95 92.224 95 92.224 90.044 92.56 89.568 93.428 88.994 94.17 88.994 94.87 89.218 95.136 89.596 95.136 95 96.634 95 96.634 89.05 95.752 87.86 94.45 87.51 93.19 87.51 92.224 88.07 92.224 87.622 90.726 87.622"></polygon>
            <polygon id="Path" fill-rule="nonzero" points="101.258 95.112 101.93 95.112 103.358 94.79 102.98 93.334 101.846 93.628 101.552 93.628 101.174 93.46 100.922 93.124 100.922 89.288 102.756 89.288 102.756 87.804 100.922 87.804 100.922 85.228 99.424 85.228 99.424 87.804 98.164 87.804 98.164 89.288 99.424 89.288 99.424 93.586 100.222 94.72"></polygon>
            <path d="M106.149531,97.1669922 C105.821406,97.3037109 105.593542,97.3720703 105.465937,97.3720703 L105.465937,96.6201172 C105.926224,96.4879557 106.247513,96.2532552 106.429805,95.9160156 C106.543737,95.7063802 106.616654,95.4010417 106.648555,95 L105.465937,95 L105.465937,92.9628906 L107.571406,92.9628906 L107.571406,94.7265625 C107.571406,95.0410156 107.530391,95.3657227 107.448359,95.7006836 C107.366328,96.0356445 107.213659,96.3261719 106.990352,96.5722656 C106.75793,96.8320312 106.477656,97.0302734 106.149531,97.1669922 Z M107.537227,89.8798828 L105.465937,89.8798828 L105.465937,87.8427734 L107.537227,87.8427734 L107.537227,89.8798828 Z" id="Shape" fill-rule="nonzero"></path>
        </g>
    </g>
</svg>