<?xml version="1.0" encoding="UTF-8"?>
<svg width="220px" height="220px" viewBox="0 0 220 220" version="1.1" xmlns="http://www.w3.org/2000/svg" xmlns:xlink="http://www.w3.org/1999/xlink">
    <title>square-2 copy 33</title>
    <g id="square-2-copy-33" stroke="none" fill="none" fill-rule="evenodd" stroke-width="1">
        <g id="for-an-edge-to-give" transform="translate(81, 83)" fill="#000000">
            <path d="M4.632,4.728 C4.848,4.728 5.04,4.512 5.04,4.248 C5.04,3.624 4.308,3.528 3.72,3.528 C2.676,3.528 1.08,4.404 1.08,7.176 C0.84,7.296 0.732,7.392 0.372,7.488 C0.348,7.5 0.288,7.524 0.288,7.56 C0.288,7.644 0.408,7.764 0.456,7.776 C0.708,7.8 0.924,7.8 1.08,7.8 L1.08,11.184 C1.08,11.508 0.804,11.64 0.564,11.712 C0.432,11.76 0.288,11.808 0.288,11.928 C0.288,12.024 0.432,12.036 0.528,12.036 C1.008,12.036 1.104,11.976 1.524,11.976 C1.944,11.976 1.992,12.036 2.472,12.036 C2.568,12.036 2.712,12.024 2.712,11.928 C2.712,11.808 2.568,11.76 2.436,11.712 C2.196,11.64 1.92,11.496 1.92,11.184 L1.92,7.98 C1.92,7.86 1.968,7.776 2.4,7.776 L3.552,7.776 C3.636,7.776 3.708,7.5 3.708,7.332 C3.708,7.26 3.696,7.2 3.66,7.2 L2.22,7.2 C2.064,7.2 1.92,7.152 1.92,6.936 L1.92,6.3 C1.92,4.68 2.472,4.02 3.216,4.02 C4.14,4.02 4.308,4.728 4.632,4.728 Z" id="Path" fill-rule="nonzero"></path>
            <path d="M7.07828571,7.032 C5.60228571,7.032 4.45028571,8.424 4.45028571,9.756 C4.45028571,11.16 5.49428571,12.168 6.83828571,12.168 C8.63828571,12.168 9.55028571,10.848 9.55028571,9.444 C9.55028571,8.148 8.47028571,7.032 7.07828571,7.032 Z M6.87428571,7.404 C7.89428571,7.404 8.56628571,8.592 8.56628571,9.732 C8.56628571,10.2 8.51828571,10.776 8.32628571,11.148 C8.08628571,11.616 7.63028571,11.808 7.09028571,11.808 C6.13028571,11.808 5.43428571,10.668 5.43428571,9.48 C5.43428571,8.904 5.49428571,8.292 5.81828571,7.884 C6.10628571,7.512 6.44228571,7.404 6.87428571,7.404 Z" id="Shape" fill-rule="nonzero"></path>
            <path d="M12.4045714,8.832 C12.4045714,8.028 12.8605714,7.824 13.2445714,7.824 C13.4845714,7.824 13.7605714,8.04 13.9645714,8.04 C14.2045714,8.04 14.4325714,7.656 14.4325714,7.416 C14.4325714,7.2 14.1925714,7.032 13.8565714,7.032 C13.5685714,7.032 13.1245714,7.212 12.7525714,7.548 C12.6685714,7.62 12.5125714,7.848 12.4645714,7.848 C12.4525714,7.848 12.4525714,7.848 12.4525714,7.824 C12.4765714,7.44 12.4885714,7.008 12.4885714,6.924 C12.4765714,6.888 12.4525714,6.84 12.4165714,6.84 C12.4045714,6.84 12.4045714,6.852 12.3925714,6.852 C12.0685714,7.044 11.6725714,7.368 11.0605714,7.512 C11.0125714,7.524 10.9525714,7.584 10.9525714,7.656 C10.9525714,7.728 11.0125714,7.8 11.0725714,7.812 C11.4685714,7.896 11.5645714,8.244 11.5645714,8.676 L11.5645714,11.256 C11.5525714,11.58 11.3485714,11.64 11.1085714,11.712 C10.9765714,11.76 10.8325714,11.808 10.8325714,11.928 C10.8325714,12.024 10.9885714,12.036 11.0725714,12.036 C11.5525714,12.036 11.6245714,11.976 12.0445714,11.976 C12.4645714,11.976 12.6085714,12.036 13.0885714,12.036 C13.1725714,12.036 13.3285714,12.024 13.3285714,11.928 C13.3285714,11.808 13.1845714,11.76 13.0525714,11.712 C12.8125714,11.64 12.4165714,11.52 12.4045714,11.196 L12.4045714,8.832 Z" id="Path" fill-rule="nonzero"></path>
            <path d="M22.0251429,11.616 C21.6771429,11.616 21.5931429,11.16 21.5931429,10.692 L21.6531429,8.1 C21.6651429,7.512 21.2331429,7.032 20.6691429,7.032 C20.0331429,7.032 19.2531429,7.548 18.8811429,7.884 C18.5811429,8.148 18.4011429,8.46 18.4011429,8.712 C18.4011429,8.748 18.4251429,8.82 18.4971429,8.82 C18.6531429,8.82 19.3251429,8.568 19.3251429,8.4 C19.3251429,8.34 19.3131429,8.292 19.3131429,8.232 C19.3131429,8.148 19.3251429,8.064 19.3611429,8.004 C19.4571429,7.836 19.8051429,7.62 20.0931429,7.62 C20.5251429,7.62 20.8131429,7.98 20.8011429,8.388 L20.7771429,9.156 C20.7651429,9.48 20.7531429,9.504 20.4411429,9.636 L19.2171429,10.14 C18.6291429,10.38 18.3411429,10.716 18.3411429,11.22 C18.3411429,11.688 18.8811429,12.168 19.3731429,12.168 C20.3571429,12.156 20.6931429,11.544 20.8491429,11.544 C20.9451429,11.544 21.0531429,12.168 21.7371429,12.168 C22.1931429,12.168 22.6971429,11.652 22.6971429,11.556 C22.6971429,11.46 22.5771429,11.376 22.5051429,11.448 C22.3731429,11.568 22.2411429,11.616 22.0251429,11.616 Z M19.3011429,10.956 C19.3011429,10.68 19.5771429,10.32 20.5011429,10.008 C20.5611429,9.984 20.6331429,9.972 20.6691429,9.972 C20.7651429,9.972 20.7891429,10.044 20.7771429,10.224 L20.7531429,10.812 C20.7411429,11.112 20.6931429,11.22 20.6091429,11.292 C20.4171429,11.46 20.2011429,11.616 19.8891429,11.616 C19.6611429,11.616 19.3011429,11.412 19.3011429,10.956 Z" id="Shape" fill-rule="nonzero"></path>
            <path d="M26.5714286,7.608 C27.2194286,7.62 27.6514286,8.04 27.6514286,8.736 L27.6514286,11.256 C27.6514286,11.58 27.3754286,11.64 27.1354286,11.712 C27.0034286,11.76 26.8594286,11.808 26.8594286,11.928 C26.8594286,12.024 27.0154286,12.036 27.0994286,12.036 C27.5794286,12.036 27.6634286,11.976 28.0834286,11.976 C28.5034286,11.976 28.5634286,12.036 29.0434286,12.036 C29.1394286,12.036 29.2834286,12.024 29.2834286,11.928 C29.2834286,11.808 29.1394286,11.76 29.0074286,11.712 C28.7674286,11.64 28.4914286,11.58 28.4914286,11.256 L28.4914286,8.7 C28.4914286,7.764 27.9154286,7.032 27.1354286,7.032 C26.3794286,7.032 25.7614286,7.302 25.2034286,7.836 C25.186458,7.81902942 25.1794286,7.764 25.1794286,7.692 C25.1794286,7.464 25.2394286,7.032 25.2394286,6.924 C25.2394286,6.876 25.1914286,6.84 25.1554286,6.84 C24.7474286,7.116 24.4474286,7.368 23.8234286,7.512 C23.7754286,7.524 23.7394286,7.584 23.7394286,7.656 C23.7394286,7.728 23.7754286,7.8 23.8354286,7.812 C24.2434286,7.896 24.3054325,8.244 24.3034286,8.676 L24.3034286,11.256 C24.3034286,11.58 24.0274286,11.64 23.7874286,11.712 C23.6554286,11.76 23.5114286,11.808 23.5114286,11.928 C23.5114286,12.024 23.6554286,12.036 23.7514286,12.036 C24.2314286,12.036 24.3034286,11.976 24.7234286,11.976 C25.1434286,11.976 25.2154286,12.036 25.6954286,12.036 C25.7914286,12.036 25.9354286,12.024 25.9354286,11.928 C25.9354286,11.808 25.7914286,11.76 25.6594286,11.712 C25.4194286,11.64 25.1434286,11.58 25.1434286,11.256 L25.1434286,8.784 C25.1434286,8.292 25.3234286,8.028 25.4674286,7.92 C25.7674286,7.68 26.1634286,7.608 26.5714286,7.608 Z" id="Path" fill-rule="nonzero"></path>
            <path d="M35.544,7.404 C36.012,7.404 36.528,7.668 36.528,8.148 C36.528,8.28 36.492,8.472 36.408,8.484 C36.156,8.532 35.88,8.544 35.532,8.544 L34.548,8.544 C34.38,8.544 34.32,8.46 34.32,8.364 C34.32,8.052 34.872,7.404 35.544,7.404 Z M35.736,7.032 C34.38,7.032 33.348,8.208 33.348,9.564 C33.348,11.16 34.272,12.168 35.364,12.168 C36.468,12.168 37.14,11.484 37.26,11.064 C37.284,10.968 37.272,10.824 37.188,10.824 C37.152,10.824 37.092,10.872 37.056,10.908 C36.744,11.316 36.204,11.448 35.904,11.448 C34.824,11.448 34.092,10.44 34.092,9.36 C34.092,8.952 34.2,8.916 34.392,8.916 L36.888,8.916 C37.2,8.916 37.308,8.736 37.308,8.376 C37.308,7.488 36.66,7.032 35.736,7.032 Z" id="Shape" fill-rule="nonzero"></path>
            <path d="M40.9302857,7.452 C41.8662857,7.452 42.4062857,8.268 42.4062857,8.94 L42.4062857,10.56 C42.4062857,11.136 41.9382857,11.628 41.2662857,11.628 C40.7382857,11.628 39.4902857,11.256 39.4902857,9.444 C39.4902857,7.836 40.4622857,7.452 40.9302857,7.452 Z M42.2382857,7.284 C42.1662857,7.2 41.6382857,7.032 41.3022857,7.032 C39.6222857,7.032 38.6022857,8.328 38.6022857,9.72 C38.6022857,10.932 39.4542857,12.168 40.8222857,12.168 C41.6142857,12.168 42.1542857,11.688 42.3942857,11.316 L42.3942857,11.388 C42.3942857,11.592 42.3342857,12.024 42.3342857,12.18 C42.3342857,12.216 42.3222857,12.228 42.3702857,12.228 C42.4422857,12.228 42.6102857,12.18 42.6582857,12.156 C43.0062857,12.012 43.4382857,11.832 44.0622857,11.748 C44.1222857,11.748 44.2302857,11.712 44.2302857,11.58 C44.2302857,11.436 44.1102857,11.412 44.0502857,11.424 C43.9302857,11.448 43.6182857,11.46 43.4982857,11.46 C43.3062857,11.46 43.2462857,11.184 43.2462857,10.68 L43.2462857,5.256 C43.2462857,4.176 43.3302857,3.768 43.3302857,3.624 C43.3182857,3.576 43.2942857,3.552 43.2462857,3.552 C43.0782857,3.552 42.6582857,3.828 41.7822857,4.032 C41.7222857,4.044 41.6982857,4.116 41.6982857,4.176 C41.6982857,4.248 41.7342857,4.32 41.7942857,4.332 C42.2022857,4.416 42.4062857,4.56 42.4062857,5.208 L42.4062857,7.104 C42.4062857,7.32 42.3942857,7.392 42.3582857,7.392 C42.3342857,7.392 42.2862857,7.344 42.2382857,7.284 Z" id="Shape" fill-rule="nonzero"></path>
            <path d="M49.0885714,8.46 C49.0885714,8.28 49.0885714,8.04 49.1365714,7.908 C49.3045714,7.884 49.1965714,7.812 49.8805714,7.812 C49.9525714,7.812 49.9885714,7.716 49.9885714,7.608 C49.9885714,7.5 49.9645714,7.344 49.8805714,7.344 C49.7605714,7.344 49.4365714,7.38 49.2445714,7.38 C49.0045714,7.38 48.8527785,7.37932031 48.6085714,7.332 C48.1015474,7.2337641 47.8645714,7.008 47.3245714,7.008 C46.2325714,7.008 45.2365714,7.788 45.2365714,8.904 C45.2365714,9.804 46.0812053,10.4382601 46.2325714,10.476 C46.0525714,10.752 45.7525714,10.86 45.5245714,11.028 C45.3565714,11.16 45.2485714,11.292 45.2485714,11.472 C45.2485714,12.036 45.9205714,12.288 46.3285714,12.372 C46.1485714,12.66 45.8245714,12.864 45.4885714,13.08 C45.2845714,13.2 44.9005714,13.548 44.9005714,14.112 C44.9005714,15.168 46.1005714,15.48 47.1085714,15.48 C48.3205714,15.48 49.7845714,14.244 49.7845714,12.924 C49.7845714,11.916 48.6325714,11.808 47.1085714,11.664 C46.7245714,11.628 45.9565714,11.508 45.9565714,11.172 C45.9565714,11.016 46.2325714,10.776 46.4845714,10.584 C46.6733063,10.6890485 47.0125714,10.728 47.1325714,10.728 C48.2005714,10.728 49.0885714,9.696 49.0885714,8.46 Z M47.1685714,7.368 C47.8405714,7.368 48.3085714,8.10003516 48.3085714,8.82 C48.3085714,9.6 47.8525714,10.308 47.2525714,10.308 C46.5685714,10.308 46.1005714,9.51255469 46.1005714,8.76 C46.1005714,8.184 46.4843136,7.368 47.1685714,7.368 Z M45.7525714,13.608 C45.7525714,13.416 45.8365714,13.2 46.0405714,12.96 C46.1965714,12.804 46.4965714,12.504 46.6405714,12.408 C46.7125714,12.384 46.8325714,12.408 46.9165714,12.408 C47.1925714,12.42 47.7925714,12.468 48.0925714,12.528 C48.4885714,12.612 49.0525714,12.864 49.0525714,13.308 C49.0525714,14.304 48.2125714,15 47.2765714,15 C46.3285714,15 45.7525714,14.4 45.7525714,13.608 Z" id="Shape" fill-rule="nonzero"></path>
            <path d="M53.0588571,7.404 C53.5268571,7.404 54.0428571,7.668 54.0428571,8.148 C54.0428571,8.28 54.0068571,8.472 53.9228571,8.484 C53.6708571,8.532 53.3948571,8.544 53.0468571,8.544 L52.0628571,8.544 C51.8948571,8.544 51.8348571,8.46 51.8348571,8.364 C51.8348571,8.052 52.3868571,7.404 53.0588571,7.404 Z M53.2508571,7.032 C51.8948571,7.032 50.8628571,8.208 50.8628571,9.564 C50.8628571,11.16 51.7868571,12.168 52.8788571,12.168 C53.9828571,12.168 54.6548571,11.484 54.7748571,11.064 C54.7988571,10.968 54.7868571,10.824 54.7028571,10.824 C54.6668571,10.824 54.6068571,10.872 54.5708571,10.908 C54.2588571,11.316 53.7188571,11.448 53.4188571,11.448 C52.3388571,11.448 51.6068571,10.44 51.6068571,9.36 C51.6068571,8.952 51.7148571,8.916 51.9068571,8.916 L54.4028571,8.916 C54.7148571,8.916 54.8228571,8.736 54.8228571,8.376 C54.8228571,7.488 54.1748571,7.032 53.2508571,7.032 Z" id="Shape" fill-rule="nonzero"></path>
            <path d="M2.268,30.168 C3,30.168 3.672,29.568 3.672,29.436 C3.672,29.34 3.624,29.232 3.552,29.28 C3.36,29.424 3.12,29.508 2.652,29.508 C2.28,29.508 1.86,29.268 1.86,28.38 L1.86,26.112 C1.86,25.788 1.932,25.776 2.34,25.776 L3.528,25.776 C3.588,25.776 3.648,25.632 3.648,25.488 C3.648,25.344 3.588,25.2 3.528,25.2 L2.16,25.2 C2.004,25.2 1.836,25.14 1.86,25.032 L1.956,24.504 C1.968,24.396 1.824,24.384 1.752,24.384 C1.632,24.384 1.116,25.272 0.48,25.452 C0.456,25.464 0.42,25.5 0.42,25.536 C0.42,25.62 0.516,25.776 0.564,25.776 C0.936,25.776 1.02,25.812 1.02,25.956 L1.02,28.74 C1.02,29.736 1.524,30.168 2.268,30.168 Z" id="Path" fill-rule="nonzero"></path>
            <path d="M7.33028571,25.032 C5.85428571,25.032 4.70228571,26.424 4.70228571,27.756 C4.70228571,29.16 5.74628571,30.168 7.09028571,30.168 C8.89028571,30.168 9.80228571,28.848 9.80228571,27.444 C9.80228571,26.148 8.72228571,25.032 7.33028571,25.032 Z M7.12628571,25.404 C8.14628571,25.404 8.81828571,26.592 8.81828571,27.732 C8.81828571,28.2 8.77028571,28.776 8.57828571,29.148 C8.33828571,29.616 7.88228571,29.808 7.34228571,29.808 C6.38228571,29.808 5.68628571,28.668 5.68628571,27.48 C5.68628571,26.904 5.74628571,26.292 6.07028571,25.884 C6.35828571,25.512 6.69428571,25.404 7.12628571,25.404 Z" id="Shape" fill-rule="nonzero"></path>
            <path d="M17.9708571,26.46 C17.9708571,26.28 17.9708571,26.04 18.0188571,25.908 C18.1868571,25.884 18.0788571,25.812 18.7628571,25.812 C18.8348571,25.812 18.8708571,25.716 18.8708571,25.608 C18.8708571,25.5 18.8468571,25.344 18.7628571,25.344 C18.6428571,25.344 18.3188571,25.38 18.1268571,25.38 C17.8868571,25.38 17.7350642,25.3793203 17.4908571,25.332 C16.9838332,25.2337641 16.7468571,25.008 16.2068571,25.008 C15.1148571,25.008 14.1188571,25.788 14.1188571,26.904 C14.1188571,27.804 14.963491,28.4382601 15.1148571,28.476 C14.9348571,28.752 14.6348571,28.86 14.4068571,29.028 C14.2388571,29.16 14.1308571,29.292 14.1308571,29.472 C14.1308571,30.036 14.8028571,30.288 15.2108571,30.372 C15.0308571,30.66 14.7068571,30.864 14.3708571,31.08 C14.1668571,31.2 13.7828571,31.548 13.7828571,32.112 C13.7828571,33.168 14.9828571,33.48 15.9908571,33.48 C17.2028571,33.48 18.6668571,32.244 18.6668571,30.924 C18.6668571,29.916 17.5148571,29.808 15.9908571,29.664 C15.6068571,29.628 14.8388571,29.508 14.8388571,29.172 C14.8388571,29.016 15.1148571,28.776 15.3668571,28.584 C15.555592,28.6890485 15.8948571,28.728 16.0148571,28.728 C17.0828571,28.728 17.9708571,27.696 17.9708571,26.46 Z M16.0508571,25.368 C16.7228571,25.368 17.1908571,26.1000352 17.1908571,26.82 C17.1908571,27.6 16.7348571,28.308 16.1348571,28.308 C15.4508571,28.308 14.9828571,27.5125547 14.9828571,26.76 C14.9828571,26.184 15.3665993,25.368 16.0508571,25.368 Z M14.6348571,31.608 C14.6348571,31.416 14.7188571,31.2 14.9228571,30.96 C15.0788571,30.804 15.3788571,30.504 15.5228571,30.408 C15.5948571,30.384 15.7148571,30.408 15.7988571,30.408 C16.0748571,30.42 16.6748571,30.468 16.9748571,30.528 C17.3708571,30.612 17.9348571,30.864 17.9348571,31.308 C17.9348571,32.304 17.0948571,33 16.1588571,33 C15.2108571,33 14.6348571,32.4 14.6348571,31.608 Z" id="Shape" fill-rule="nonzero"></path>
            <path d="M20.1771429,23.22 C20.1771429,23.556 20.4411429,23.82 20.7771429,23.82 C21.1251429,23.82 21.3891429,23.556 21.3891429,23.22 C21.3891429,22.872 21.1251429,22.608 20.7771429,22.608 C20.4411429,22.608 20.1771429,22.872 20.1771429,23.22 Z M21.3291429,24.792 C21.2331429,24.792 20.6931429,25.284 19.8891429,25.476 C19.8411429,25.488 19.8051429,25.56 19.8051429,25.62 C19.8051429,25.692 19.8411429,25.764 19.9011429,25.776 C20.3091429,25.86 20.4651429,26.22 20.4651429,26.652 L20.4651429,29.256 C20.4651429,29.58 20.1891429,29.64 19.9491429,29.712 C19.8171429,29.76 19.6731429,29.808 19.6731429,29.928 C19.6731429,30.024 19.8171429,30.036 19.9131429,30.036 C20.3811429,30.036 20.4651429,29.976 20.8851429,29.976 C21.3051429,29.976 21.4011429,30.036 21.8571429,30.036 C21.9651429,30.036 22.0971429,30.024 22.0971429,29.928 C22.0971429,29.808 21.9531429,29.76 21.8211429,29.712 C21.5811429,29.64 21.3051429,29.58 21.3051429,29.256 L21.3051429,26.472 C21.3051429,25.932 21.3651429,25.344 21.4131429,24.852 C21.4131429,24.816 21.3771429,24.792 21.3291429,24.792 Z" id="Shape" fill-rule="nonzero"></path>
            <path d="M26.3674286,25.464 C26.5354286,25.512 26.6674286,25.728 26.6674286,26.028 C26.6674286,26.16 26.6434286,26.304 26.5834286,26.46 L25.7194286,28.68 C25.6594286,28.848 25.6354286,28.836 25.5754286,28.668 L24.6874286,26.28 C24.6514286,26.184 24.6394286,26.064 24.6394286,25.956 C24.6394286,25.728 24.7114286,25.512 24.8794286,25.464 C25.0114286,25.416 25.1554286,25.368 25.1554286,25.248 C25.1554286,25.152 24.9994286,25.14 24.9154286,25.14 C24.4474286,25.14 24.4354286,25.2 24.0154286,25.2 C23.5954286,25.2 23.6074286,25.14 23.1394286,25.14 C23.0554286,25.14 22.8994286,25.152 22.8994286,25.248 C22.8994286,25.368 23.0434286,25.416 23.1754286,25.464 C23.4154286,25.536 23.6074286,25.764 23.7274286,26.052 L25.1914286,29.796 C25.2274286,29.904 25.3714286,30.264 25.4314286,30.264 C25.4914286,30.264 25.7554286,29.724 25.7554286,29.724 C25.7554286,29.724 26.1394286,28.656 26.1994286,28.524 L27.1354286,26.268 C27.3034286,25.872 27.6394286,25.536 27.8794286,25.464 C28.0114286,25.416 28.1554286,25.368 28.1554286,25.248 C28.1554286,25.152 27.9994286,25.14 27.9154286,25.14 C27.6874286,25.14 27.6274286,25.2 27.2074286,25.2 C26.7874286,25.2 26.5114286,25.14 26.3314286,25.14 C26.2474286,25.14 26.0914286,25.152 26.0914286,25.248 C26.0914286,25.368 26.2354286,25.416 26.3674286,25.464 Z" id="Path" fill-rule="nonzero"></path>
            <path d="M31.0457143,25.404 C31.5137143,25.404 32.0297143,25.668 32.0297143,26.148 C32.0297143,26.28 31.9937143,26.472 31.9097143,26.484 C31.6577143,26.532 31.3817143,26.544 31.0337143,26.544 L30.0497143,26.544 C29.8817143,26.544 29.8217143,26.46 29.8217143,26.364 C29.8217143,26.052 30.3737143,25.404 31.0457143,25.404 Z M31.2377143,25.032 C29.8817143,25.032 28.8497143,26.208 28.8497143,27.564 C28.8497143,29.16 29.7737143,30.168 30.8657143,30.168 C31.9697143,30.168 32.6417143,29.484 32.7617143,29.064 C32.7857143,28.968 32.7737143,28.824 32.6897143,28.824 C32.6537143,28.824 32.5937143,28.872 32.5577143,28.908 C32.2457143,29.316 31.7057143,29.448 31.4057143,29.448 C30.3257143,29.448 29.5937143,28.44 29.5937143,27.36 C29.5937143,26.952 29.7017143,26.916 29.8937143,26.916 L32.3897143,26.916 C32.7017143,26.916 32.8097143,26.736 32.8097143,26.376 C32.8097143,25.488 32.1617143,25.032 31.2377143,25.032 Z" id="Shape" fill-rule="nonzero"></path>
            <path d="M36.7542857,32.988 C36.7542857,33.252 37.0782857,33.42 37.3662857,33.42 C37.7142857,33.42 38.0022857,33.252 38.1462857,32.928 C38.6382857,31.776 39.2502857,30.264 39.2982857,30.156 L40.9302857,26.268 C41.0862857,25.884 41.3982857,25.536 41.6382857,25.464 C41.7702857,25.416 41.9142857,25.368 41.9142857,25.248 C41.9142857,25.152 41.7582857,25.14 41.6742857,25.14 C41.4102857,25.14 41.4102857,25.2 40.9662857,25.2 C40.5222857,25.2 40.3302857,25.14 40.1142857,25.14 C40.0302857,25.14 39.8742857,25.176 39.8742857,25.272 C39.8742857,25.392 40.0902857,25.5 40.2222857,25.56 C40.3662857,25.62 40.4622857,25.716 40.4622857,26.016 C40.4622857,26.136 40.4142857,26.352 40.3662857,26.46 L39.5622857,28.596 C39.5022857,28.764 39.4542857,28.776 39.3822857,28.608 L38.4342857,26.256 C38.3982857,26.172 38.3382857,26.016 38.3382857,25.92 C38.3382857,25.692 38.4102857,25.584 38.5782857,25.536 C38.7102857,25.5 38.9262857,25.392 38.9262857,25.272 C38.9262857,25.176 38.7822857,25.14 38.6862857,25.14 C38.2062857,25.14 38.1942857,25.2 37.7742857,25.2 C37.3542857,25.2 37.3782857,25.14 36.8982857,25.14 C36.8142857,25.14 36.6582857,25.152 36.6582857,25.248 C36.6582857,25.368 36.8022857,25.416 36.9342857,25.464 C37.1742857,25.536 37.3542857,25.764 37.4742857,26.052 L38.8662857,29.568 C38.9022857,29.664 38.9142857,29.784 38.9142857,29.916 C38.9142857,30.024 38.9022857,30.12 38.8782857,30.192 C38.5302857,31.116 38.0382857,32.136 37.7862857,32.568 C37.7262857,32.664 37.6542857,32.7 37.5582857,32.7 C37.4262857,32.7 37.2582857,32.628 37.0782857,32.628 C36.8382857,32.628 36.7542857,32.796 36.7542857,32.988 Z" id="Path" fill-rule="nonzero"></path>
            <path d="M45.2965714,25.032 C43.8205714,25.032 42.6685714,26.424 42.6685714,27.756 C42.6685714,29.16 43.7125714,30.168 45.0565714,30.168 C46.8565714,30.168 47.7685714,28.848 47.7685714,27.444 C47.7685714,26.148 46.6885714,25.032 45.2965714,25.032 Z M45.0925714,25.404 C46.1125714,25.404 46.7845714,26.592 46.7845714,27.732 C46.7845714,28.2 46.7365714,28.776 46.5445714,29.148 C46.3045714,29.616 45.8485714,29.808 45.3085714,29.808 C44.3485714,29.808 43.6525714,28.668 43.6525714,27.48 C43.6525714,26.904 43.7125714,26.292 44.0365714,25.884 C44.3245714,25.512 44.6605714,25.404 45.0925714,25.404 Z" id="Shape" fill-rule="nonzero"></path>
            <path d="M53.8868571,25.02 C53.4548571,25.14 53.5508571,25.176 52.3388571,25.236 C52.2908571,25.236 52.0628571,25.272 52.0628571,25.416 C52.0628571,25.584 52.2788571,25.62 52.3388571,25.62 C52.5788571,25.632 53.1188571,25.728 53.1188571,26.22 L53.1188571,28.416 C53.1188571,28.908 52.7588571,29.184 52.5788571,29.316 C52.2788571,29.544 51.9788571,29.556 51.5708571,29.556 C51.0548571,29.556 50.5628571,29.04 50.5628571,28.464 L50.5628571,26.124 C50.5628571,25.764 50.5868571,25.572 50.6348571,25.2 C50.6468571,25.08 50.5868571,25.02 50.4668571,25.032 C49.9988571,25.14 49.8788571,25.212 49.2308571,25.236 C49.1708571,25.248 49.0508571,25.284 49.0508571,25.44 C49.0508571,25.56 49.1708571,25.608 49.2068571,25.62 C49.5668571,25.764 49.7228571,25.956 49.7228571,26.304 L49.7228571,28.74 C49.7228571,29.676 50.3108571,30.168 51.0908571,30.168 C51.8348571,30.168 52.4468571,29.928 53.0708571,29.316 L53.0708571,29.388 C53.0708571,29.592 53.0108571,30.024 53.0108571,30.18 C53.0108571,30.216 52.9988571,30.228 53.0468571,30.228 C53.1188571,30.228 53.2868571,30.18 53.3348571,30.156 C53.6828571,30.012 54.1148571,29.832 54.7388571,29.748 C54.7988571,29.748 54.9068571,29.712 54.9068571,29.58 C54.9068571,29.436 54.7868571,29.412 54.7268571,29.424 C54.6068571,29.448 54.2948571,29.46 54.1748571,29.46 C53.9828571,29.46 53.9588571,29.124 53.9588571,28.632 L53.9588571,26.088 C53.9588571,25.896 54.0068571,25.32 54.0548571,25.236 C54.1148571,25.14 54.0188571,25.02 53.9108571,25.02 L53.8868571,25.02 Z" id="Path" fill-rule="nonzero"></path>
            <path d="M4.104,47.616 C3.756,47.616 3.672,47.16 3.672,46.692 L3.732,44.1 C3.744,43.512 3.312,43.032 2.748,43.032 C2.112,43.032 1.332,43.548 0.96,43.884 C0.66,44.148 0.48,44.46 0.48,44.712 C0.48,44.748 0.504,44.82 0.576,44.82 C0.732,44.82 1.404,44.568 1.404,44.4 C1.404,44.34 1.392,44.292 1.392,44.232 C1.392,44.148 1.404,44.064 1.44,44.004 C1.536,43.836 1.884,43.62 2.172,43.62 C2.604,43.62 2.892,43.98 2.88,44.388 L2.856,45.156 C2.844,45.48 2.832,45.504 2.52,45.636 L1.296,46.14 C0.708,46.38 0.42,46.716 0.42,47.22 C0.42,47.688 0.96,48.168 1.452,48.168 C2.436,48.156 2.772,47.544 2.928,47.544 C3.024,47.544 3.132,48.168 3.816,48.168 C4.272,48.168 4.776,47.652 4.776,47.556 C4.776,47.46 4.656,47.376 4.584,47.448 C4.452,47.568 4.32,47.616 4.104,47.616 Z M1.38,46.956 C1.38,46.68 1.656,46.32 2.58,46.008 C2.64,45.984 2.712,45.972 2.748,45.972 C2.844,45.972 2.868,46.044 2.856,46.224 L2.832,46.812 C2.82,47.112 2.772,47.22 2.688,47.292 C2.496,47.46 2.28,47.616 1.968,47.616 C1.74,47.616 1.38,47.412 1.38,46.956 Z" id="Shape" fill-rule="nonzero"></path>
            <path d="M8.65028571,43.608 C9.29828571,43.62 9.73028571,44.04 9.73028571,44.736 L9.73028571,47.256 C9.73028571,47.58 9.45428571,47.64 9.21428571,47.712 C9.08228571,47.76 8.93828571,47.808 8.93828571,47.928 C8.93828571,48.024 9.09428571,48.036 9.17828571,48.036 C9.65828571,48.036 9.74228571,47.976 10.1622857,47.976 C10.5822857,47.976 10.6422857,48.036 11.1222857,48.036 C11.2182857,48.036 11.3622857,48.024 11.3622857,47.928 C11.3622857,47.808 11.2182857,47.76 11.0862857,47.712 C10.8462857,47.64 10.5702857,47.58 10.5702857,47.256 L10.5702857,44.7 C10.5702857,43.764 9.99428571,43.032 9.21428571,43.032 C8.45828571,43.032 7.84028571,43.302 7.28228571,43.836 C7.26531513,43.8190294 7.25828571,43.764 7.25828571,43.692 C7.25828571,43.464 7.31828571,43.032 7.31828571,42.924 C7.31828571,42.876 7.27028571,42.84 7.23428571,42.84 C6.82628571,43.116 6.52628571,43.368 5.90228571,43.512 C5.85428571,43.524 5.81828571,43.584 5.81828571,43.656 C5.81828571,43.728 5.85428571,43.8 5.91428571,43.812 C6.32228571,43.896 6.38428962,44.244 6.38228571,44.676 L6.38228571,47.256 C6.38228571,47.58 6.10628571,47.64 5.86628571,47.712 C5.73428571,47.76 5.59028571,47.808 5.59028571,47.928 C5.59028571,48.024 5.73428571,48.036 5.83028571,48.036 C6.31028571,48.036 6.38228571,47.976 6.80228571,47.976 C7.22228571,47.976 7.29428571,48.036 7.77428571,48.036 C7.87028571,48.036 8.01428571,48.024 8.01428571,47.928 C8.01428571,47.808 7.87028571,47.76 7.73828571,47.712 C7.49828571,47.64 7.22228571,47.58 7.22228571,47.256 L7.22228571,44.784 C7.22228571,44.292 7.40228571,44.028 7.54628571,43.92 C7.84628571,43.68 8.24228571,43.608 8.65028571,43.608 Z" id="Path" fill-rule="nonzero"></path>
            <path d="M12.1165714,50.988 C12.1165714,51.252 12.4405714,51.42 12.7285714,51.42 C13.0765714,51.42 13.3645714,51.252 13.5085714,50.928 C14.0005714,49.776 14.6125714,48.264 14.6605714,48.156 L16.2925714,44.268 C16.4485714,43.884 16.7605714,43.536 17.0005714,43.464 C17.1325714,43.416 17.2765714,43.368 17.2765714,43.248 C17.2765714,43.152 17.1205714,43.14 17.0365714,43.14 C16.7725714,43.14 16.7725714,43.2 16.3285714,43.2 C15.8845714,43.2 15.6925714,43.14 15.4765714,43.14 C15.3925714,43.14 15.2365714,43.176 15.2365714,43.272 C15.2365714,43.392 15.4525714,43.5 15.5845714,43.56 C15.7285714,43.62 15.8245714,43.716 15.8245714,44.016 C15.8245714,44.136 15.7765714,44.352 15.7285714,44.46 L14.9245714,46.596 C14.8645714,46.764 14.8165714,46.776 14.7445714,46.608 L13.7965714,44.256 C13.7605714,44.172 13.7005714,44.016 13.7005714,43.92 C13.7005714,43.692 13.7725714,43.584 13.9405714,43.536 C14.0725714,43.5 14.2885714,43.392 14.2885714,43.272 C14.2885714,43.176 14.1445714,43.14 14.0485714,43.14 C13.5685714,43.14 13.5565714,43.2 13.1365714,43.2 C12.7165714,43.2 12.7405714,43.14 12.2605714,43.14 C12.1765714,43.14 12.0205714,43.152 12.0205714,43.248 C12.0205714,43.368 12.1645714,43.416 12.2965714,43.464 C12.5365714,43.536 12.7165714,43.764 12.8365714,44.052 L14.2285714,47.568 C14.2645714,47.664 14.2765714,47.784 14.2765714,47.916 C14.2765714,48.024 14.2645714,48.12 14.2405714,48.192 C13.8925714,49.116 13.4005714,50.136 13.1485714,50.568 C13.0885714,50.664 13.0165714,50.7 12.9205714,50.7 C12.7885714,50.7 12.6205714,50.628 12.4405714,50.628 C12.2005714,50.628 12.1165714,50.796 12.1165714,50.988 Z" id="Path" fill-rule="nonzero"></path>
            <path d="M19.9988571,48.168 C20.7308571,48.168 21.4028571,47.568 21.4028571,47.436 C21.4028571,47.34 21.3548571,47.232 21.2828571,47.28 C21.0908571,47.424 20.8508571,47.508 20.3828571,47.508 C20.0108571,47.508 19.5908571,47.268 19.5908571,46.38 L19.5908571,44.112 C19.5908571,43.788 19.6628571,43.776 20.0708571,43.776 L21.2588571,43.776 C21.3188571,43.776 21.3788571,43.632 21.3788571,43.488 C21.3788571,43.344 21.3188571,43.2 21.2588571,43.2 L19.8908571,43.2 C19.7348571,43.2 19.5668571,43.14 19.5908571,43.032 L19.6868571,42.504 C19.6988571,42.396 19.5548571,42.384 19.4828571,42.384 C19.3628571,42.384 18.8468571,43.272 18.2108571,43.452 C18.1868571,43.464 18.1508571,43.5 18.1508571,43.536 C18.1508571,43.62 18.2468571,43.776 18.2948571,43.776 C18.6668571,43.776 18.7508571,43.812 18.7508571,43.956 L18.7508571,46.74 C18.7508571,47.736 19.2548571,48.168 19.9988571,48.168 Z" id="Path" fill-rule="nonzero"></path>
            <path d="M27.1491429,47.184 L27.1491429,44.664 C27.1491429,43.728 26.5611429,43.032 25.7811429,43.032 C25.0251429,43.032 24.3411429,43.512 23.9691429,43.788 C23.9091429,43.716 23.8731429,43.488 23.8731429,43.344 L23.8731429,41.256 C23.8731429,39.972 23.9811429,39.768 23.9811429,39.624 C23.9571429,39.588 23.9451429,39.54 23.8971429,39.54 C23.8971429,39.54 23.8851429,39.552 23.8731429,39.552 C23.4891429,39.696 23.0931429,39.888 22.4811429,40.032 C22.4331429,40.044 22.3971429,40.104 22.3971429,40.176 C22.3971429,40.248 22.4331429,40.32 22.4931429,40.332 C22.9011429,40.416 23.0331429,40.776 23.0331429,41.208 L23.0331429,47.22 C23.0211429,47.544 22.7571429,47.64 22.5171429,47.712 C22.3851429,47.76 22.2411429,47.808 22.2411429,47.928 C22.2411429,48.024 22.3971429,48.036 22.4811429,48.036 C22.9611429,48.036 23.0331429,47.976 23.4531429,47.976 C23.8731429,47.976 23.8851429,48.036 24.3651429,48.036 C24.4611429,48.036 24.6051429,48.024 24.6051429,47.928 C24.6051429,47.808 24.4611429,47.76 24.3291429,47.712 C24.0891429,47.64 23.8851429,47.544 23.8731429,47.22 L23.8731429,44.784 C23.8731429,44.292 23.9451429,44.124 24.1971429,43.92 C24.4251429,43.74 24.8931429,43.656 25.1931429,43.656 C25.7091429,43.656 26.3091429,44.136 26.3091429,44.736 L26.3091429,47.184 C26.3091429,47.508 26.0811429,47.64 25.8411429,47.712 C25.7091429,47.76 25.5651429,47.808 25.5651429,47.928 C25.5651429,48.024 25.7091429,48.036 25.8051429,48.036 C26.2851429,48.036 26.3211429,47.976 26.7411429,47.976 C27.1611429,47.976 27.1971429,48.036 27.6771429,48.036 C27.7731429,48.036 27.9171429,48.024 27.9171429,47.928 C27.9171429,47.808 27.7731429,47.76 27.6411429,47.712 C27.4011429,47.64 27.1491429,47.508 27.1491429,47.184 Z" id="Path" fill-rule="nonzero"></path>
            <path d="M29.4994286,41.22 C29.4994286,41.556 29.7634286,41.82 30.0994286,41.82 C30.4474286,41.82 30.7114286,41.556 30.7114286,41.22 C30.7114286,40.872 30.4474286,40.608 30.0994286,40.608 C29.7634286,40.608 29.4994286,40.872 29.4994286,41.22 Z M30.6514286,42.792 C30.5554286,42.792 30.0154286,43.284 29.2114286,43.476 C29.1634286,43.488 29.1274286,43.56 29.1274286,43.62 C29.1274286,43.692 29.1634286,43.764 29.2234286,43.776 C29.6314286,43.86 29.7874286,44.22 29.7874286,44.652 L29.7874286,47.256 C29.7874286,47.58 29.5114286,47.64 29.2714286,47.712 C29.1394286,47.76 28.9954286,47.808 28.9954286,47.928 C28.9954286,48.024 29.1394286,48.036 29.2354286,48.036 C29.7034286,48.036 29.7874286,47.976 30.2074286,47.976 C30.6274286,47.976 30.7234286,48.036 31.1794286,48.036 C31.2874286,48.036 31.4194286,48.024 31.4194286,47.928 C31.4194286,47.808 31.2754286,47.76 31.1434286,47.712 C30.9034286,47.64 30.6274286,47.58 30.6274286,47.256 L30.6274286,44.472 C30.6274286,43.932 30.6874286,43.344 30.7354286,42.852 C30.7354286,42.816 30.6994286,42.792 30.6514286,42.792 Z" id="Shape" fill-rule="nonzero"></path>
            <path d="M35.5097143,43.608 C36.1577143,43.62 36.5897143,44.04 36.5897143,44.736 L36.5897143,47.256 C36.5897143,47.58 36.3137143,47.64 36.0737143,47.712 C35.9417143,47.76 35.7977143,47.808 35.7977143,47.928 C35.7977143,48.024 35.9537143,48.036 36.0377143,48.036 C36.5177143,48.036 36.6017143,47.976 37.0217143,47.976 C37.4417143,47.976 37.5017143,48.036 37.9817143,48.036 C38.0777143,48.036 38.2217143,48.024 38.2217143,47.928 C38.2217143,47.808 38.0777143,47.76 37.9457143,47.712 C37.7057143,47.64 37.4297143,47.58 37.4297143,47.256 L37.4297143,44.7 C37.4297143,43.764 36.8537143,43.032 36.0737143,43.032 C35.3177143,43.032 34.6997143,43.302 34.1417143,43.836 C34.1247437,43.8190294 34.1177143,43.764 34.1177143,43.692 C34.1177143,43.464 34.1777143,43.032 34.1777143,42.924 C34.1777143,42.876 34.1297143,42.84 34.0937143,42.84 C33.6857143,43.116 33.3857143,43.368 32.7617143,43.512 C32.7137143,43.524 32.6777143,43.584 32.6777143,43.656 C32.6777143,43.728 32.7137143,43.8 32.7737143,43.812 C33.1817143,43.896 33.2437182,44.244 33.2417143,44.676 L33.2417143,47.256 C33.2417143,47.58 32.9657143,47.64 32.7257143,47.712 C32.5937143,47.76 32.4497143,47.808 32.4497143,47.928 C32.4497143,48.024 32.5937143,48.036 32.6897143,48.036 C33.1697143,48.036 33.2417143,47.976 33.6617143,47.976 C34.0817143,47.976 34.1537143,48.036 34.6337143,48.036 C34.7297143,48.036 34.8737143,48.024 34.8737143,47.928 C34.8737143,47.808 34.7297143,47.76 34.5977143,47.712 C34.3577143,47.64 34.0817143,47.58 34.0817143,47.256 L34.0817143,44.784 C34.0817143,44.292 34.2617143,44.028 34.4057143,43.92 C34.7057143,43.68 35.1017143,43.608 35.5097143,43.608 Z" id="Path" fill-rule="nonzero"></path>
            <path d="M43.332,44.46 C43.332,44.28 43.332,44.04 43.38,43.908 C43.548,43.884 43.44,43.812 44.124,43.812 C44.196,43.812 44.232,43.716 44.232,43.608 C44.232,43.5 44.208,43.344 44.124,43.344 C44.004,43.344 43.68,43.38 43.488,43.38 C43.248,43.38 43.096207,43.3793203 42.852,43.332 C42.344976,43.2337641 42.108,43.008 41.568,43.008 C40.476,43.008 39.48,43.788 39.48,44.904 C39.48,45.804 40.3246339,46.4382601 40.476,46.476 C40.296,46.752 39.996,46.86 39.768,47.028 C39.6,47.16 39.492,47.292 39.492,47.472 C39.492,48.036 40.164,48.288 40.572,48.372 C40.392,48.66 40.068,48.864 39.732,49.08 C39.528,49.2 39.144,49.548 39.144,50.112 C39.144,51.168 40.344,51.48 41.352,51.48 C42.564,51.48 44.028,50.244 44.028,48.924 C44.028,47.916 42.876,47.808 41.352,47.664 C40.968,47.628 40.2,47.508 40.2,47.172 C40.2,47.016 40.476,46.776 40.728,46.584 C40.9167349,46.6890485 41.256,46.728 41.376,46.728 C42.444,46.728 43.332,45.696 43.332,44.46 Z M41.412,43.368 C42.084,43.368 42.552,44.1000352 42.552,44.82 C42.552,45.6 42.096,46.308 41.496,46.308 C40.812,46.308 40.344,45.5125547 40.344,44.76 C40.344,44.184 40.7277422,43.368 41.412,43.368 Z M39.996,49.608 C39.996,49.416 40.08,49.2 40.284,48.96 C40.44,48.804 40.74,48.504 40.884,48.408 C40.956,48.384 41.076,48.408 41.16,48.408 C41.436,48.42 42.036,48.468 42.336,48.528 C42.732,48.612 43.296,48.864 43.296,49.308 C43.296,50.304 42.456,51 41.52,51 C40.572,51 39.996,50.4 39.996,49.608 Z" id="Shape" fill-rule="nonzero"></path>
        </g>
    </g>
</svg>