<?xml version="1.0" encoding="UTF-8"?>
<svg width="220px" height="220px" viewBox="0 0 220 220" version="1.1" xmlns="http://www.w3.org/2000/svg" xmlns:xlink="http://www.w3.org/1999/xlink">
    <title>square-2 copy 17</title>
    <defs>
        <path d="M0,0 L220,0 L220,220 L0,220 L0,0 Z" id="path-1"></path>
    </defs>
    <g id="square-2-copy-17" stroke="none" fill="none" xlink:href="#path-1" fill-rule="evenodd" stroke-width="1">
        <g id="For-an-edge-to-give" transform="translate(46, 90)" fill="#000000">
            <polygon id="Path" fill-rule="nonzero" points="1.246 15 2.758 15 2.758 10.478 6.006 10.478 6.006 8.966 2.758 8.966 2.758 6.544 7.322 6.544 7.322 5.046 1.246 5.046"></polygon>
            <path d="M10.322,15.112 L11.806,15.112 L13.234,14.426 L13.976,13.348 L14.228,12.144 L14.228,10.492 L13.976,9.288 L13.234,8.21 L11.806,7.51 L10.322,7.51 L8.908,8.21 L8.166,9.288 L7.9,10.492 L7.9,12.144 L8.166,13.348 L8.908,14.426 L10.322,15.112 Z M10.602,13.642 L9.888,13.278 L9.566,12.816 L9.398,11.948 L9.398,10.66 L9.566,9.834 L9.916,9.344 L10.574,8.994 L11.54,8.994 L12.226,9.344 L12.562,9.848 L12.744,10.66 L12.744,11.948 L12.562,12.802 L12.254,13.278 L11.526,13.642 L10.602,13.642 Z" id="Shape" fill-rule="nonzero"></path>
            <polygon id="Path" fill-rule="nonzero" points="16.15 15 17.648 15 17.648 10.45 17.928 9.848 18.418 9.302 19.062 8.994 19.538 8.994 20.252 9.19 20.616 7.748 19.762 7.51 18.796 7.51 17.816 7.986 17.648 8.154 17.648 7.622 16.15 7.622"></polygon>
            <path d="M31.362,15.182 L32.566,14.314 L31.978,13.46 L31.978,9.47 L31.586,8.49 L30.48,7.748 L29.542,7.51 L28.24,7.51 L27.302,7.79 L26.672,8.196 L26.112,8.714 L27.148,9.792 L27.54,9.414 L27.918,9.162 L28.38,8.994 L29.276,8.994 L29.892,9.148 L30.368,9.47 L30.48,9.75 L30.48,10.352 L30.424,10.31 L29.5,10.002 L28.576,10.002 L27.204,10.352 L26.154,11.416 L25.944,12.382 L25.944,13.236 L26.756,14.412 L27.442,14.818 L28.394,15.112 L29.29,15.112 L30.578,14.454 L30.746,14.272 L31.362,15.182 Z M28.59,13.628 L28.044,13.446 L27.792,13.306 L27.442,12.802 L27.442,12.522 L27.54,12.158 L27.988,11.696 L28.744,11.486 L29.29,11.486 L29.934,11.682 L30.256,11.836 L30.48,12.074 L30.48,12.466 L30.368,12.774 L29.892,13.278 L28.982,13.628 L28.59,13.628 Z" id="Shape" fill-rule="nonzero"></path>
            <polygon id="Path" fill-rule="nonzero" points="34.572 15 36.07 15 36.07 10.044 36.406 9.568 37.274 8.994 38.016 8.994 38.716 9.218 38.982 9.596 38.982 15 40.48 15 40.48 9.05 39.598 7.86 38.296 7.51 37.036 7.51 36.07 8.07 36.07 7.622 34.572 7.622"></polygon>
            <path d="M49.434,15.112 L50.61,15.112 L51.842,14.804 L52.92,14.09 L52.136,12.886 L51.282,13.404 L50.442,13.628 L49.728,13.628 L49,13.278 L48.412,12.452 L48.272,12.116 L53.382,12.116 L53.382,10.436 L53.046,9.47 L52.122,8.21 L50.694,7.51 L49.434,7.51 L48.006,8.21 L47.068,9.47 L46.774,10.52 L46.774,12.13 L47.068,13.152 L48.006,14.412 L49.434,15.112 Z M48.286,10.632 L48.384,10.17 L48.986,9.358 L49.672,8.994 L50.428,8.994 L51.142,9.386 L51.716,10.184 L51.87,10.632 L48.286,10.632 Z" id="Shape" fill-rule="nonzero"></path>
            <path d="M57.698,15.112 L59.014,15.112 L59.868,14.594 L59.868,15 L61.352,15 L61.352,4.444 L59.854,4.444 L59.854,7.902 L59.742,7.818 L58.902,7.51 L57.67,7.51 L56.242,8.21 L55.304,9.47 L54.996,10.52 L54.996,12.13 L55.304,13.152 L56.242,14.426 L57.698,15.112 Z M57.978,13.628 L57.208,13.264 L56.634,12.452 L56.494,11.962 L56.494,10.702 L56.634,10.17 L57.222,9.372 L57.922,8.98 L58.72,8.98 L59.182,9.148 L59.63,9.428 L59.854,9.708 L59.854,12.592 L59.504,13.096 L58.734,13.628 L57.978,13.628 Z" id="Shape" fill-rule="nonzero"></path>
            <path d="M66.158,17.352 L67.404,17.352 L68.412,17.002 L69.532,16.26 L69.882,15.21 L69.882,7.622 L68.398,7.622 L68.398,7.902 L68.286,7.818 L67.446,7.51 L66.2,7.51 L64.786,8.21 L63.848,9.47 L63.54,10.52 L63.54,11.808 L63.848,12.844 L64.828,14.118 L66.27,14.678 L67.558,14.678 L68.398,14.174 L68.398,15 L68.272,15.308 L67.768,15.672 L67.222,15.868 L66.368,15.868 L65.724,15.7 L65.472,15.504 L65.01,15.042 L63.96,16.12 L64.464,16.624 L65.206,17.1 L66.158,17.352 Z M66.494,13.194 L65.738,12.9 L65.164,12.116 L65.038,11.626 L65.038,10.702 L65.178,10.17 L65.766,9.372 L66.452,8.98 L67.264,8.98 L67.726,9.148 L68.16,9.428 L68.398,9.708 L68.398,12.116 L68.048,12.662 L67.278,13.194 L66.494,13.194 Z" id="Shape" fill-rule="nonzero"></path>
            <path d="M74.702,15.112 L75.878,15.112 L77.11,14.804 L78.188,14.09 L77.404,12.886 L76.55,13.404 L75.71,13.628 L74.996,13.628 L74.268,13.278 L73.68,12.452 L73.54,12.116 L78.65,12.116 L78.65,10.436 L78.314,9.47 L77.39,8.21 L75.962,7.51 L74.702,7.51 L73.274,8.21 L72.336,9.47 L72.042,10.52 L72.042,12.13 L72.336,13.152 L73.274,14.412 L74.702,15.112 Z M73.554,10.632 L73.652,10.17 L74.254,9.358 L74.94,8.994 L75.696,8.994 L76.41,9.386 L76.984,10.184 L77.138,10.632 L73.554,10.632 Z" id="Shape" fill-rule="nonzero"></path>
            <polygon id="Path" fill-rule="nonzero" points="87.128 15.112 87.8 15.112 89.228 14.79 88.85 13.334 87.716 13.628 87.422 13.628 87.044 13.46 86.792 13.124 86.792 9.288 88.626 9.288 88.626 7.804 86.792 7.804 86.792 5.228 85.294 5.228 85.294 7.804 84.034 7.804 84.034 9.288 85.294 9.288 85.294 13.586 86.092 14.72"></polygon>
            <path d="M92.634,15.112 L94.118,15.112 L95.546,14.426 L96.288,13.348 L96.54,12.144 L96.54,10.492 L96.288,9.288 L95.546,8.21 L94.118,7.51 L92.634,7.51 L91.22,8.21 L90.478,9.288 L90.212,10.492 L90.212,12.144 L90.478,13.348 L91.22,14.426 L92.634,15.112 Z M92.914,13.642 L92.2,13.278 L91.878,12.816 L91.71,11.948 L91.71,10.66 L91.878,9.834 L92.228,9.344 L92.886,8.994 L93.852,8.994 L94.538,9.344 L94.874,9.848 L95.056,10.66 L95.056,11.948 L94.874,12.802 L94.566,13.278 L93.838,13.642 L92.914,13.642 Z" id="Shape" fill-rule="nonzero"></path>
            <path d="M3.346,37.352 L4.592,37.352 L5.6,37.002 L6.72,36.26 L7.07,35.21 L7.07,27.622 L5.586,27.622 L5.586,27.902 L5.474,27.818 L4.634,27.51 L3.388,27.51 L1.974,28.21 L1.036,29.47 L0.728,30.52 L0.728,31.808 L1.036,32.844 L2.016,34.118 L3.458,34.678 L4.746,34.678 L5.586,34.174 L5.586,35 L5.46,35.308 L4.956,35.672 L4.41,35.868 L3.556,35.868 L2.912,35.7 L2.66,35.504 L2.198,35.042 L1.148,36.12 L1.652,36.624 L2.394,37.1 L3.346,37.352 Z M3.682,33.194 L2.926,32.9 L2.352,32.116 L2.226,31.626 L2.226,30.702 L2.366,30.17 L2.954,29.372 L3.64,28.98 L4.452,28.98 L4.914,29.148 L5.348,29.428 L5.586,29.708 L5.586,32.116 L5.236,32.662 L4.466,33.194 L3.682,33.194 Z" id="Shape" fill-rule="nonzero"></path>
            <path d="M9.678,26.474 L11.638,26.474 L11.638,24.444 L9.678,24.444 L9.678,26.474 Z M9.916,35 L11.414,35 L11.414,27.622 L9.916,27.622 L9.916,35 Z" id="Shape" fill-rule="nonzero"></path>
            <polygon id="Path" fill-rule="nonzero" points="16.08 35 17.354 35 20.28 27.622 18.684 27.622 16.71 32.676 14.75 27.622 13.154 27.622"></polygon>
            <path d="M23.756,35.112 L24.932,35.112 L26.164,34.804 L27.242,34.09 L26.458,32.886 L25.604,33.404 L24.764,33.628 L24.05,33.628 L23.322,33.278 L22.734,32.452 L22.594,32.116 L27.704,32.116 L27.704,30.436 L27.368,29.47 L26.444,28.21 L25.016,27.51 L23.756,27.51 L22.328,28.21 L21.39,29.47 L21.096,30.52 L21.096,32.13 L21.39,33.152 L22.328,34.412 L23.756,35.112 Z M22.608,30.632 L22.706,30.17 L23.308,29.358 L23.994,28.994 L24.75,28.994 L25.464,29.386 L26.038,30.184 L26.192,30.632 L22.608,30.632 Z" id="Shape" fill-rule="nonzero"></path>
        </g>
    </g>
</svg>