<?xml version="1.0" encoding="UTF-8"?>
<svg id="Layer_2" xmlns="http://www.w3.org/2000/svg" version="1.1" viewBox="0 0 1000 1000">
  <!-- Generator: Adobe Illustrator 30.1.0, SVG Export Plug-In . SVG Version: 2.1.1 Build 136)  -->
  <g id="Layer_1-2">
    <g>
      <path d="M492.3,458.8c-.8-.9-10,3.7-11,5.9,0,0,0,.2,0,.3-.9,13.5.9,27.8,0,41.2,0,1.3-.6,2.6-.9,3.9-.1.8.6,2.7-1.2,2-1.1-.4-2.8-1.5-2.8-2.8l-.8-40.5c0-.7-.7-1.2-1.4-1-3.1,1.2-5.1,3.5-8.6,3.6-4.8.2,0-2.9,1.7-3.9,6.3-3.7,9.3-3.1,8.4-11.8,0-.6.4-1.1,1-1.1h2.6c.6,0,1,.5,1,1,.2,6.5,7.7-.3,11.8-.9,1.7-.3,2.8.7,3.7.5s1.9-1.2,3.3-1.5c4.9-.7,10.4.8,11.4,6.1,1.6,8.1.6,17.1-1.8,25-1.8,5.8-5.3,10.6-12,9.5-6.7-1-6.3-8.7-6-14,.3-6,.9-12.4,1.6-18.4,0-.8.2-3.4,0-3.5h0ZM497.1,491.5c.6.8,2.8-1.5,3.2-2,3.7-4.5,6.2-20.5,5.5-26.3-.4-3.8-2.6-10-6.7-5.2-.8,1-1.9,5.4-2,6.8-.1,1.3.5,2.4.4,3.1-.6,5-2.9,15.3-1.9,19.8,0,.4,1.3,3.6,1.5,3.7h0Z"/>
      <g>
        <path d="M618.3,455.7c-1.2-1.5-1.7,1.1-2,1.6-2.4,4.4-3.4,9.4-9.6,9.6-1.6,0-3.5-1-3.6-.9-.6.6-2,9.1-2.4,10.8-.2,1.2-.3,8.1-2.1,8.4-1.9.3-3.3-.8-4.7-1.8-.3-.2-.5-.5-.5-.9.3-6.1,1.8-12,2.3-18.1,0-.9-1-1.5-1.7-.9-2.8,2.4-5.4,4.8-9.6,3.9-1.3-.3-5.2-3.2-6.1-2.2-.3.3-1.4,7-1.6,8.4-.3,2.1-.2,9.3-1.7,10.7-.5.5-5.4,0-6.2-.9-2.1-2.2-.2-6.7-.1-9,.2-4.4-.4-8.5-.8-12.8,0-.8-.3-2.8-1.2-2.8-.3,0-3.6,3.4-4,4-1.7,2.5-1.5,7-1.3,10,.3,4.2,2,9.2,2.4,13.6.2,2.7.8,6.3-2.7,6-5.1-.5-2.6-3.4-2.8-6-.1-3-1.3-8.4-1.7-11.9,0-.6-.6-3.5-.8-3.6-.5-.6-5.2,2.7-6.1,4.2-.1.2-.1.3-.1.5.2,5.8-2.3,11.1-3.3,16.4-.7,4-1.3,9.4-1.7,13.5-.2,2,.7,7.1-.7,8.1-1,.7-4.5.7-5.3-.4-1.9-2.8.7-14.3,1.2-18,.2-1.3-.1-2.6,0-3.9.7-4.4,2.2-9.3,3-13.9,0-.4,0-.8-.4-1-1-.7-3.1-1.3-1.9-2.3.1,0,1,0,1.6-.4,2.8-2,1.9-5.9,2.4-8.7.2-1,.9,1.3.9-2.4,0-1.7.8-4.2.7-6l1.6.8c-.1-1.6-1-2.5-.8-4.3.1-1.1,2.1-9.7,2.5-9.9,1.2-.8,7.1-.2,7.8.8.3.4,0,1.7.3,2.5.4,1.2,1,2.4,1.2,3.6s.7,7.1,1,7.4c1.3,1.5,4.6-5.2,6.9-5.4.4,0,4,.8,4.3,1,.8.5.6,1.6.9,2.3,2.2,4.8,4.7-4.6,5.6-5.6.6-.6,5.8-3.4,6.6-3.4s4.1,1.5,4.3,1.7c2,2-4.4,10.5-4.7,13.1-.2,1.4.2,4.1,2,3.6,2.6-.8,7.5-10.8,8.8-13.6.9-1.9.7-5.2,3.2-5.6,6.5-.9,3.7,3.9,4.4,4.8,0,0,2.1,0,2.3-.1.3-.4.2-1.3.9-1.9,1.9-1.8,6.6-1.7,7.2.9.2.8-5.3,8.3-6,10.7h0c-.3,1.1,1.2,1.8,1.9.9,4.6-6.6,6.5-14.9,10-22.1,0-.2.2-.3.4-.4,2.8-1.7,6.4-.6,6.6,3,0,1.2-.8,2.2-.8,3.2-.6,12.3-2.7,24.4-2.5,36.7,0,1.4,1.6,3.6-1.2,3.6-4.5,0-4.5-9.2-4.3-12.3.2-3.7.5-7.5.7-11.2,0-1.2,1.4-4.5.8-5.1h0ZM554.5,458c-2.1-.1-1.3-.1-1.6,1.2s-1.9,8-1.6,8.4c.1.1,2.9-1.6,3-1.8,2-2.1,0-5.4.2-7.8h0Z"/>
        <path d="M637.5,468.4c1.1-.2,1.7-1.4,2-2.4,3.8-10.1,7.4-20.6,12-30.3.4-.8,2.2-3.9,2.7-4.4,2-2.1,4.5-1.2,3.9,1.5l-6.1,14.6s0,0,0,0c-3.1,9.5-4.2,24.3-9,32.4-.5.8-3.8,4.3-4.4,4.4-.3,0-4.8-.7-5.4-.8-.6-.2-1.1-.7-1.5-1.2-.2-.2-.2-.4-.3-.6-.4-8.6-.8-17.7-.4-26.4.2-4.4,1.2-9.8,1.6-14.3.2-2-.9-6.9,1.2-7.5,1.2-.3,4.3-.4,5,.9,0,.1,0,.3,0,.4l-1.5,33.6h0Z"/>
        <path d="M678.9,434.9c.3.2-1.9,3.1-2.4,3.6-3.1,3-7.8,6.1-11.1,8.8-2.8,2.2-4.6,5-4.9,8.7-.1,2,1,1,2.4,0,3-2.2,10.8-10.7,13.3-11.4.6-.2,2.6-.2,2.7-.1,2,1.9-5,7.7-6.4,9.2-2,2-4,4.6-6.4,6.4-1.5,1.1-7.3,3.1-7.6,3.6-.2.2-1,4.5-1.1,5.3-.2,1.7-.4,5.3.3,6.8,1.9,3.7,5.5,1.3,8-.8,3.2-2.6,9.2-15.9,10.4-15.9.1,0,2,.8,2,1.2,0,.7,0,1.6,0,2.3-.3,2-3.2,9.9-4.4,11.6-5.8,8.2-15.2,9.5-22.1,1.9-.2-.2-.3-.4-.3-.6-1.2-13.7,6.5-26.4,10.3-39.4,0-.1,0-.2.2-.3,1.2-1.3,4,.2,4,2.2,0,.4-.2,1-.4,1.6-.3.9.8,1.6,1.6,1.1,1.3-.9,2.8-1.8,3.9-2.7,1.5-1.3,1.8-3.9,5.2-3.6.4,0,2.7.7,2.8.8h0Z"/>
      </g>
      <g>
        <path d="M383.8,495.3c0-1-1.3-1.4-1.9-.6-.5.7-.7,1.7-1.3,2.1-1.2.8-2.9-.1-4.5,1.1-3,2.4-5.5,8.6-5.2,12.4.5,5.7,1.4,9.8-.1,15.8-.5,2.1-1.5,3.9-3.6,4.4-6.5,1.3-2-1.6-1.2-3.6.4-.9.4-2.4.8-3.5,0-.2,0-.4,0-.7-1-2.9-.3-6.1-1.2-9-.2-.7-1.1-1-1.7-.5-2.7,2.2-4.8,3.5-5.5,7.6-.7,4.1,1.1,18.6-3.9,20.1-.8.2-4.9.3-5.1.1-.5-.5-.1-11.4,0-13.2.5-7.2,2.1-17.4,3.3-24.7,1.1-6.8,2.7-13.6,5.1-20,0-.3.3-.5.6-.6,1.7-.7,6.1-.9,7.1-.2.8.6,4.1,9.7,4.5,11.4.2.8,0,2.5,1.4,1.8,3-1.4,7.9-13.9,10.8-15.6,1.4-.8,5,1.6,6.6,1.2.6-.2,3.1-2.1,3.8-2.7,4.9-4.3,4.8-9.6,13.1-8.4.4,0,1.4,2.6,1.7,3.2,1.5,4,.7,10.2.4,14.8-.1,2-2.5,6.4,1.1,5.1.6-.2,3.5-3.2,4-4,2.2-3.2,4.5-11.6,5.2-15.6.4-2.3-.4-9.8,2.8-10,.4,0,4.2.7,4.3.9.6.5.2,14.2,0,16.3-.3,5-2.1,10.8-2.4,15.9-.2,2.9.7,5.6.6,7.9,0,1.3-1,3.6-.7,5.4,0,.2,0,.4,0,.5-1.1,2.4-6.2,0-6.2-1v-14.4c0-.2,2.2-2.3-.4-2-2.2,2.4-4.9,4.3-7.6,6-.7.4-1.5.3-1.5.4v17.4c0,.6-.4,1-1,1-3.9.2-5.3-.6-7.2-4.3-.9-1.8-4.1-11.4-3.4-12.5,1-1.7,6-2.3,6-3.6v-18.2c0-.9-1.2-1.4-1.8-.7-.2.2-.4.4-.6.6-2.6,2.1-6.1,4.6-8.4,6.8-2.9,2.7-.7,8.1-.6,11.7.4,8.2-.8,16.4.2,24.6.8,6.6-4.9,4.2-5.5,2.3-.3-1,0-2.1,0-3.1-.2-.8-.8-1.5-.8-1.6v-24.6h0ZM361.8,509.2c1.3-1.2,1.8-3.4,2.7-4.9.1-.2.2-.5.2-.7-1-6.6-2.2-11.2-3.9-1.2-.3,1.8-.4,3.9-.6,5.9-.1,1,1,1.5,1.7.9h0Z"/>
        <path d="M323.9,530.7c-.3-.4-2.2,0-2.3-2.1-.1-1.8,1-2.2,1.5-3.4,1.6-4.4.8-17.8.2-22.9-.3-2.5-3-6.6-2.3-8.8.7-2.4,3.2-.5,4.4-.5,2.2,0,3.3-4.5,5.5-5.4.1,0,.2,0,.4,0,4.3-.2,7.9-1.9,11.3,1.9.8.9,3.9,7,3.8,7.9-.1,1.2-1.4,3.7-1.7,5.5-.8,4.2-.9,7.4-2.8,11.5-1.7,3.7-9.3,11.4-9.7,14.2-.2,1.4,0,3.2,0,4.8-.3,5.3-.4,12.8,0,18.4.3,3.8,2.6,11,2.3,14.1s-.9,3.6-2.6,3.8c-8.2,1.2-5.5-6.1-6-11.6-.3-2.9-1.4-6.7-1.6-9.6-.2-2.8.5-17.1,0-17.9h0ZM331.1,518.7c1.8,2,5.7-7.6,6-8.7.8-2.8,2.6-17.6-.8-17.6s-6.6,24.8-5.2,26.3Z"/>
      </g>
    </g>
  </g>
</svg>