<?xml version="1.0" encoding="UTF-8"?>
<svg id="Layer_2" xmlns="http://www.w3.org/2000/svg" version="1.1" viewBox="0 0 1000 1000">
  <!-- Generator: Adobe Illustrator 30.1.0, SVG Export Plug-In . SVG Version: 2.1.1 Build 136)  -->
  <g id="Layer_1-2">
    <g>
      <g>
        <path d="M812.5,454.6c1.8,2.1-1.5,7.1-2.7,9.3-5.4,10.4-12.9,22.5-19.3,32.4-2.1,3.2-5.6,4.2-2.9,9,3.7,6.5,12.4-.3,14.1-5.2,1-2.9.7-7.5,1.3-10.6.7-3.4,5-15.7,8.5-16.3,4.9-.8,8.3,5.1,7.9,9.4-.3,3.8-6.1,16-8.4,19.4-.6.9-3.7,2.1-2,4.1,1.7,2.1,11.9-.4,14.3-1.5.7-.3,1.5-2.4,3.5-2.3,0-4,3.2-13.5,6.4-15.7,3.7-2.5,8.6,3.3,10.1,2.3,4.2-10.8,9.4-22.7,15.9-32.4,3.6-5.3,4.3-5.7,10-2.1.6.8.4,1.6.2,2.5-.7,3.4-6.2,12-8,16-4,8.8-7,18-11.8,26.5-1,4,.5,7.8,5.2,7.5,4.4-.3,13.5-8.6,15.2-12.6,1-2.2,1.7-10.3,2.9-10.6,10.8,1.7,7.4,6.8,6.3,14.6-.2,1.2-.2,1.2,1.1,1.1,8.8-1.2,6.2-5.2,9.8-10.4,2.3-3.3,9.1-9.3,13-10.2,5.4-1.3,15.2,3.3,13.5,9.6-.2.7-8.6,5.9-10,6.7-2.3,1.3-10.8,4.4-11.8,5.5-3.1,3.4,2.3,10.1,5.3,11.9,2.6,1.5,11.8,2.6,14,1.1.5-.3,1.5-6.3,4.6-7.7,6.6-3.1,4.3,10.5,5.2,13.9-12.2,2.7-24.6-.9-32.9-10.1-2.9-3.2-1.6-5.9-7.4-3.7-.9.4-4.2,2.2-4.5,3-.5,7.8-1.6,16.7-3.3,24.4-2.2,10-4,16.8-15.9,16.3-4.8-.2-12.5-3.2-15.6-6.9-6.4-7.5,3.7-19.6,9.2-25.1,1.4-1.4,5.7-3.7,6-4.1,1.1-1.3-.3-1.2-1.1-1.5-2.1-.6-4.5-.9-6.5-1.7-2.2-.8-3.8-3.5-6.5-2.7-1.5,5.4-6.7,7.8-11.9,6.1-2.2-.7-4.4-3.5-6.6-3.9-3.4-.6-8.1.3-11.9-.1-2.4-.3-5.4-2.1-6.9-2.2-1.7,0-5.9,3.1-8.3,3.6-5,.9-12.8-.4-15.2-5.1h-1.5c-4.4,8.5-13.5,19.9-23.2,10.8,4.5-2.8,9-5.9,12.4-10.1,8.2-10,7.3-12.6,10.3-24.2.8-2.9,2.7-7.5,3.9-10.3,3.4-7.5,16.1-29,25.6-17.8h0ZM806,455.9c-1.2-1.3-7.7,5.6-8.6,6.7-1.8,2.2-2.8,5.1-4.7,7.2l-4.6,15.2c4.3-3.3,7.5-8.7,10.3-13.2,1.9-3,5.8-9.5,7-12.4.5-1.2.8-2.2.6-3.5h0ZM849.7,478.3l-2.2,4.4,1.1.6,2.2-4.4-1.1-.6ZM807.5,491.1c1.6-2,3.8-6.1,4.7-8.4.4-1.2.8-2.2.6-3.5-3.5,2.5-5,7.8-5.2,12h0ZM783.5,489.6c2.2-1.3,2.1-5.2,2.2-7.5-1.9,1.3-1.7,5.4-2.2,7.5ZM908.6,484.4c-3.9-.3-8,3.6-9.7,6.7.5.5,9.4-4.9,9.7-6.7ZM868.9,515.1c-1.5-1.6-13.3,9.5-14.5,11.3-4.3,6-10,20.5,3.5,17,8.3-2.1,10.5-21.1,11-28.3h0Z"/>
        <path d="M612,464.9l-17.2,56.9c5.4-5.8,10.2-13,13.5-20.2l5.9,1.4c-.5,3.3-3.6,6.6.5,8.9,9.3,1.3,18.4-22.9,23.8-23.9,7.9-1.3,5.7,12.8,4.7,17.4-.6,2.7-2.3,5-2.8,7.7-.1.9-.4,2.4,1.1,1.8,1.4-.6,7.3-7.7,8.6-9.4.7-.9.8-2.1,1.5-3,3-3.8,15.9-20.7,19.2-21.4h2l2.7,1.5v1.1c-1.1,3.1-2.1,6.3-3.3,9.4-2.4,6-5.7,8.9-4.1,16.5,1.1.2,1.8-.2,2.8-.6,3.9-1.5,13.2-10.9,16.3-14.4,1.4-1.6,3-5.1,4.4-6.1,2.1-1.3,4.3-.2,5.5-.9.3-.2,3-4.7,4.2-5.9,6.8-6.2,16.8-2.9,17.6,6.5.2,2.4-.8,4.8-1,7.2-.3,4.1,2.5.3,3.9-1.4,1.7-2.1,8.4-13.7,9.1-14.1,2.7-1.6,4.5,1.1,6.7,2l-8,20.7.6,9.9c7.6-.2,11.2-17.7,16.8-18,.6,0,1.5-.1,1.8.1l.2,2h2.1v1.2c-3.5,3.1-3.3,6.9-3,11.3,0,1.1-.6,2.2,1.1,1.9,4.1-4.7,12.4-23.7,18.7-24,1.1,0,1.4,0,1.2,1.2-.3,1.9-4.6,7.1-5.6,10.1-1.7,4.8-3.3,19.5-9.9,20.1-2.4.2-9.6-3.2-9.2-6.6h-1.1c-5.6,6.9-16.1,7.4-18.6-2.4l-.8-7.3c-6.2,3.8-10.5,10.6-15.7,15-11.6,9.8-26.5,6.1-23.6-10.5-5.3,2.1-10.2,8-16.5,6.4-4.2-1.1-6.2-4.9-6-9,0-3.8,2.8-7.1,2.7-10.9-7.3,5.9-15.7,26.2-25.1,28.1-1.9.4-5.1-1.8-5.2-3.8-.2-2.7,2.3-8.9,2.8-12.1.5-3.1,1-7,.5-10-6.8,8.1-11.7,23.2-25.3,17.8-1.4-.6-2.1-2.5-3.8-2-4.5,3-9,16.3-15.1,15.7-4.2-1.2-3.7-5.8-3.3-9.3,1.1-9.6,6.9-31.3,10.2-40.7,1.8-5.2,4.5-13.4,11.5-12.2h0ZM706.1,508.8c3.1-4.2,11-24.2,4.5-27.1-5.2-2.3-11.7,10.4-13.3,14.2-2.5,6.1-5.5,12.3,1.4,16.9,1.7.4,6.4-2.5,7.4-3.9ZM691.4,508.3l-1.5.4c0,2.3-.8,10.2,2,10.8l7.8-4.1c-3.4-2.2-7.3-2.4-8.2-7.1h0Z"/>
      </g>
      <g>
        <path d="M85.9,447.1c1.9,1.9,1.8,6.2,1.7,8.8,3-1.5,4.7.2,6.4.4,1,.1,2.1-.5,3.6-.3.8.2,6.3,4.4,6.6,4.9,1.9,3.2.2,11.5,0,15.2,3.5-.1,2.6-5,3.2-6.9,1.1-3.9,4.9-16.2,9.2-17,7.8-1.5,11.9,1.4,9.5,9.5-1.5,5-11.2,13.8-11.4,15.6-1,6.6,7.1,6.7,11.6,4.8,2.8-1.2,13.9-12.2,14.6-14.7.7-2.9-1.7-4.7,1.6-9.6,12-17.9,39.2,3.4,20.9,17.9-7.1,5.7-12,3.5-19.6.5-10.1,9.7-23.5,14.8-35.8,5.5-5.9,5.4-12.4,9.4-20.1,11.8l-2.3,36.9c-2.8,2.5-6.6.7-9.7.5l2.9-85.1c1.5-1,6.1.1,7.3,1.4ZM154.7,473.6c5-4.7,7.7-15.5.6-19.2-2.8-.3-8.1,4.5-9.3,7.1,1.3,1.8,2.6,0,4.7.5,1.1.2,2.1.9,2.8,1.8-2.7,2.9-4.5,8.6-1.1,11.6.6-.8,1.7-1.1,2.4-1.8h0ZM87.6,486.6c3.9-1.7,7.6-7.5,8.2-11.7.3-1.9.6-15.3-2.5-14.5-1.4.3-5.6,10-5.6,11.6,0,0,0,14.6,0,14.6Z"/>
        <path d="M242.3,459.2c.3-.3,1.1-.3,1.2-.8-2.3-4.7,1.2-20.5,5.8-22.6,2.3-1,6.1-.9,8.2.4,6.5,3.6-1.4,20.7-5.8,24.6,3,2.7,7.1.5,10.3-.2.8-.2,2.6-.8,2.4.6-2.7,1.1-6.7,3.3-9.5,3.6-2.1.2-4.6-1.3-6.5-1.1-3.6.4-6.9,4-12.1,3.9-4.2-.1-11.6-4.3-13.4-4.1-1.3.1-8,5.3-10.1,6.4-6.6,3.4-11.3,4.2-18.7,4.9l-4,34.6c-1.6,2.7-5.6.1-8-.3-1-1.6,3.8-32.9,4.4-37.7.4-3.2.1-15.4,1.8-16.9.9-.8,2.7-.8,3.7-1.5,2.1-1.4,3.2-4.7,6.7-6.1,2.3-.9,10.5.1,12.2,1.6,1.9,1.6,3,9.5,2.6,12.1.3.4,7-4.5,7.4-5.8.5-1.9-.8-4.4-.7-6.6.3-10.3,3.5-33.8,18.9-25.6,3.5,1.9,4,2.8,4.3,6.9,1.1,13.3-7.6,20.3-14.9,29.8,3.6,7.6,9.2,5.4,13.7,0h0ZM228.4,446.9c3.2-6.3,9.3-14.6,5.6-21.7-3.9-.8-7.8,18.3-7.1,21.3l1.5.4h0ZM205.2,451.4c-1.2-1.1-4.3,3.7-4.8,4.6-1.1,1.8-5.3,12.1-4.2,13.4,9-2.6,11.4-9.2,9-18h0Z"/>
      </g>
      <path d="M416.3,410.3c1,1.7-1,21.3-1.6,24.8-1.5,9.8-5.1,19.3-7.1,28.9-.9,4.5-.9,10.1-1.9,14.6-.2,1-.2,2.4-1.6,2.1-4.8-.8-3.6-10.8-3.3-14.5.4-4,5.5-22.5,2.9-24.4-5.3,6.6-7.4,12.6-17.4,10.3-2-.5-3.5-2.7-5.4-3.6-2.8,4.8-9.8,13.4-15.8,9-4.7-3.5,1.2-20.2-.4-25.8,10.3-4.5,7.2,8.5,6,14.5,3.4-.9,3.3-5.4,7.7-5.1,7.3.5,5.3,5.4,9,8.6,4,3.4,11.7-8.3,13.4-11.3,4.8-8.5,7.2-19.1,7.5-28.9,1.5-1.5,7.3-.5,8,.8ZM403,464.9c1.4-.3,1.2-1.6,1.5-2.6,1.5-5.4,3.4-12.2,3-17.6l-4.5,20.2h0Z"/>
      <g>
        <path d="M522.7,501c1.1.8,1,5.5.9,6.9-1.2,16.1-6.5,31.4-10.1,46.8-1.2,4.9-3,12.3,0,16.5.9.3,6.1-3.3,7.5-3.8,2.7-.8-.1,4.1-3.4,4.9-5.8,1.4-10.6,0-11.9-6.2-2.1-10.5,4.2-30.1,6.4-41.2,1.6-8.3,2.4-16.9,3.9-25.2,1.2-1.7,4.9,1.5,6.6,1.2h0Z"/>
        <path d="M471.7,540.8c.2,0,.1,1.1.7,1.2,1.5.4,3.8,0,5.5.8-1.1,3.3-1.1,6.8,1.5,9.4,5.6,5.5,12.3-3.9,16.5-7.2-2.4,13.2-13.4,12.7-23.5,7.4-3.8,6.6-13.9,11-20.2,5.3-5.2-4.7-2.2-27-1.4-34,1.5-2.1,5.8.3,7.2,1.7-.2,8.7-2.1,17.3-1.2,25.9.1,1.1,0,1.9,1.2,2.6,4.7-1.9,8.3-15.7,13.7-13.2h0Z"/>
      </g>
      <g>
        <path d="M721.5,400.6c-2,3.4,13.6,18.8,7.9,23.7-1.1.9-12.6,4-12.5,1.3,9-5.4,4.2-14.3.3-21.4-1.7-.3-14.6,8.1-16.4,9.8-3.8,3.6-6.3,12.4-13.1,9.3-4.3-2-5-16.1-6.4-16.1-6.3,5.3-15.6,19.2-24,20.2-5.5.6-8.5-3.4-10.4-3.4-1.3,0-6.1,2.4-8.3,2.7-4.9.6-9.9,0-13.8-3.4-1.3-1.1-2.6-3.9-3.8-4.4-1.7-.7-8.3.3-7.5-4.2,9.3,2.5,8.2-1.5,11.1-7.2,3-6,10.5-20.7,17.3-10.4,0,1.4-8.2,15.9-9.7,17.8s-5.3,2.2-3.4,6.5c1.7,3.8,6.9,1.8,9.8.8,8.8-3,5.3-3.8,6.4-10.9.4-2.7,4.2-11.5,5.9-13.5,3-3.6,9.4-3.5,13.1-1.1,10.6,6.8-4.5,23-13.1,24-.3,2.1,1.3,4,3.3,4.5,3,0,11.6-7.4,14-9.7,2.2-2.1,12.2-14.6,13.1-14.9,6.4-1.9,6.6,10.8,7.6,14.7.3,1.1-.5,2,1.2,1.8,1.7-.3,5-4.5,6.9-5.9,3.3-2.4,17.4-9.5,18.1-11.9.5-1.7-1.1-4.5.6-5.5,3.1-1.9,11.4-.3,9.7,3.8-.6,1.5-3.8,2.8-4,3.2h0ZM660.6,398.3c-6.3-2.6-12.1,15.2-10.4,17.2,6-2.4,13.4-10.4,10.4-17.2Z"/>
        <g>
          <path d="M582,408.7c-2.1,8.9-12.1,19.2-21.8,16.9-1.9-.4-5-2-5.2-4.2h-1.1c-4.2,6.9-12,14-20.8,13.3-16.2-1.3-2-24.5,5-29.8,3.6-2.7,13-6.1,17.4-6.6,1.5-.2,2.2-.5,3.2.9-6.2,3.4-13.6,5.2-18.7,10.5-4,4.2-10.5,14.9-9,20.8,5.7,3.9,14.1-7.2,16.6-11.7,1.7-3.1,2.1-9,6.1-8.5,5.2.6,2.8,4.5,4.2,8.4,2.7,7.8,8,3.5,12.1-.7,2.8-2.9,9.5-15,11.2-15.8,4.7-2.1,7,7.6,7.1,10.9,4-2.5,14.3-17.4,18.7-17.2.6,0,1.3,1.1.8,2.2-1.6,3.2-5.8,6.9-7.9,10.1-3.2,5-3.4,10.2-9.9,12.6-1.4.5-5.5-.5-6.2-1.7-1.5-2.6,1.4-8.7-1.9-10.5h0Z"/>
          <path d="M515.9,405.9c1.3,1.5-.2,3.7.2,4.2,1.3.1,3.3.3,3,2.3-3.3,0-6.5-1.2-8.6-3.7-2.1,1.8-3.8,4.6-4.9,7.1-4.4,10-8.2,31.3,9.6,25.3,2.8-1,6-3.9,9.1-2.8-10.6,10-26.7,9.2-29.6-7.1-.9-5,3.1-20.5,6.5-24.3,3.5-3.9,11.1-5.2,14.7-1h0Z"/>
        </g>
      </g>
      <g>
        <path d="M271.1,539l-3,14.2c3.8-2.4,5.3-10,10.2-10.5,1.4-.1,6.3.5,7.2,1.4,4.2,4.1,2,17.9,8,24.2,1.2,1.2,3.2.7,3.1,2.8l6.1-3.7c4.4-3.5,13-13.5,15.4-18.5,1.1-2.2,1.7-7.4,3.3-8l6.2,1c-2.5,7,1.8,11.5,3.3,18,1.4,1,6.9-5.4,8.3-6.3,2.9-2,10.9-5,12.3-.4-2,1.5-4.2,2.8-6,4.5-2.8,2.6-11.9,11.4-12.1,14.7-.6,8.4,1.4,16-3.6,24.3-4.7,7.7-16.6,7.1-17.3-1.1s8.5-23.2,13.8-29.4l-2.9-10.7c-1.4-.3-1.5.4-2.1,1.2-6.4,8.2-11.3,19.2-24.4,17.4-10.4-1.4-14.4-13.6-16.2-22.4-6.5,5.4-7.8,20.9-19.3,17-1-.9-.2-5.2,0-6.7.7-4.6,3.3-19.4,6.5-22,1-.8,1.6-1.3,3-1.1h0ZM321.3,599c5.8-2.3,6.2-11.1,6.7-16.5-1.7,1.4-2.9,5.2-3.5,7.3-.6,2-.4,5.2-.8,6-.8,1.8-2.9,1-2.4,3.2h0Z"/>
        <g>
          <path d="M138.2,579.9c-1.1,1.6-3.1,2-1.1,5.1,3.2,5,10.2-1.6,11.7-5.4,1.1-2.8,1.1-7.2,1.9-10.1,2-6.9,8.8-22.6,17.8-15.9l-14.4,24.6c-1.4,4.8-1.2,11.1,4.6,6.1,4.1-3.6,10.2-15.3,11.9-20.3.4-1.2.5-6.8,1.4-7h5.6c-.7,5.6-4.8,27.6-.3,30.7,3.4,2.4,9.8-2.9,12.3-5.5,5.8-5.9,6.9-13.6,11.6-19.9l1.6,1.5,2.5-.5,1.6.8c-2.4,5.3-2.7,10-2.3,15.8.8,11.4,7.1-3.9,8.4-7.4,2.7-7,3.9-15,7.7-21.5.6-1-.1-1.9,1.9-1.5l-1.5,17.6c-.6,3.8-3.6,17-6.9,18.6-2.6,1.2-7.8,1.5-10.5.4l-4.7-5c-5.1,6.9-18.5,14.9-25.9,7.1-2.8-3-1.8-5.7-2.2-9-.4-3.7-2.1,1.1-2.7,1.8-4.9,6.9-12.2,11.9-19.4,4.6-4.7,5.3-10.4,4.8-15.7.7-4.9,6.2-15.7,15.1-23.9,15-2.4,0-7.9-2.4-8.9-2.2-.7.2-6.8,5.8-9.6,6.9s-10.3,2.5-9.4-1.8c.5-2.3,13.2-8.9,14.4-13.4-.8-10.4,1.5-22.2,4.4-32.2,1.2-4.1,6.6-18.2,10.3-19.7,8-3.3,12.6,3.7,11.8,11-.9,8.2-5.5,26.8-9.8,33.7-1.9,3-7.2,7.9-8.5,11-1.1,2.8,1.8,3.7,4.2,3.4,7-.9,17-11.4,22.1-16.2-2.4-8.4-1.3-28.7,7.9-32.5,5.6-2.3,13.9-.3,14.2,6.7.2,4.9-10.7,19.3-13.9,24h0ZM115.3,542c-1,0-1.5-.2-2.3.5-1.1,1-6.3,11.9-6.9,13.9-2.5,7.8-3.5,16.9-5,25,0,.4-1.4,2.7.3,2.6.7,0,6.9-9.5,7.7-11,1.4-2.5,6.5-13.6,6.7-15.8.2-1.4-.8-2.6-.6-4l1.5-.4c-2.1-1-1-10.3-1.5-10.9h0ZM142,568c3.8-4.4,2.9-4,3.4-8.9.4-3.7,2.4-4.3-2.1-8.1-7,5.2-6.9,15-8.6,22.8,2.8,1.9,3.7-3.5,4.9-4.8.7-.8,2-.7,2.3-1h0ZM155.8,568.2c1.4,1.4,6.2-7.7,6.7-8.7.5-1.1,1-2,.8-3.3-4.1,2.6-5.1,8.1-7.5,12h0Z"/>
          <path d="M237.4,548.8l-3,33.3-1.9.4c-3.1-10.9,0-22.7,2-33.6h2.9q0-.1,0,0Z"/>
        </g>
      </g>
      <path d="M234.4,532.3c-1.8-1.8,3.3-1.6,4.1-1.5,1.3.1,2.4-.2,3.3,1.2-2.5,3-4.5,1.4-7.5.4Z"/>
    </g>
  </g>
</svg>