<?xml version="1.0" encoding="UTF-8"?>
<svg id="Layer_2" xmlns="http://www.w3.org/2000/svg" version="1.1" viewBox="0 0 1000 1000">
  <!-- Generator: Adobe Illustrator 30.1.0, SVG Export Plug-In . SVG Version: 2.1.1 Build 136)  -->
  <g id="Layer_1-2">
    <g>
      <path d="M55.2,508.1c-.6-5.3,2-10.7.7-15.8-1-4.3-2.1-8.1,1.5-11.9-.8-2.2,1.2-15.1-2.5-9.3-.5-2.3-.9-5.7.6-8.2,1.4-2.5,3.8-.7,5.2,0,2.5,1.2.4,3.6,1.1,6.6,4.7-4,10.4-6.7,15.9-3.5,8,4.7,4.6,22.8,5,30.1,8-4.7.4-7.3,3.5-12.9,1.7,2.8-1.1,5.9,2.5,7.1.6-7.2-1.9-14-.1-20.8.7-2.7-1.4-3.5-1.6-5.3-.4-3.7,1.5-8.6,4.1-11.6,1.9-2.2,8-1.1,8.8,1.6,9,30.6-6.7,33.7-4.9,41.5.3,1.3,1.3,3.5,3.2,3.4,3.1-.1,4.3-3.5,7-5.3.9,3.2-1.5,5.3-3.1,6.5-7,5-12.7-4.5-20.3.3-4.9,8.9-3.9,15.9-16.2,18.4l-.6,30.9c0,3.6,1,7.4-.3,10.8-1.3,1.9-7,1.1-7.7-.8-1.2-5.4-3.9-31.4-2.9-34.4,4.4-12.4-6.4-15.8,1.1-17.4h0ZM93.1,481.2c3.4-6.8,2.8-14,1.7-21.1-2.8,7.2-2.7,13.9-1.7,21.1ZM79.8,490.9c.9-6.4,1-9.5-1.9-15.7-.5,2.9,1.4,5.2.2,8.3-2.8-4.8-2-10.4-5.9-15.6-15,15.9-5.4,24.7-7.3,46,0,.8,1.4,1.6,1.9,2,2.1,1.6,10.3-6.4,11.3-13.4l1.7-11.7ZM60.9,531.7c.2-4.7,1.2-8.9-.5-13.9-1.3,4.8-1.6,9.5.5,13.9Z"/>
      <path d="M272.8,448.8c-3.3,4.3-4.4,18.5-9.9,18.4-1.4,0-4.9-.6-4.7-2.7.6-7,2.1-13.8.9-21.5-6.4,8.3-8.4,29.3-12.6,35.1-1.6,2.3-7.1,0-7.1-2.2-.1-4.4,1-7.8,2.2-11.5.4-1.1-.7-2.5-.6-3.9.9-7.8,1.1-15.1,1.2-22.9,0-1.9,2.4-2.3,3.9-1.7,3.1,1.3,2.8,4.6,3.1,7.8,3.4-3.2,3.7-7.6,7.5-9.7,2.2-1.2,5.6,0,8.2.3l2.5,6.3,4.9-4c1.8-.3,5.4.3,7.1,1.3,5.5,6,1,27.2.1,35.7-10.2.2-4.7-18.8-6.6-24.8h0Z"/>
      <path d="M149.5,596.7c-2.9-3-2.8-7.1-3.5-11.2-3.3.8-3.8,13.9-10.3,10.9-1.1-.5-2.7-.5-3.3-1.2-2.8-2.9.5-12.4-1.4-17.6-6.6,15.1-1.7,14.1-8.4,32.3-1,2.6-1.5,4.3-4.4,4.1s-4.6-2.1-3.8-5.5c2.6-10.1,3.7-20.1,4.4-30.6.5-6.4-.5-12.8.8-19,.9-1,3.4,0,4,.9.8,1.1.4,2.2.5,3.9l.4,13.9,5.2-10.6c1.1-2.2,6.4-.6,7.6,1.5,1.9,3.5,1.2,7.2,2.2,10.6,1.5-2.1,2.1-4.5,3.7-5,1.8-.5,5.9-.8,7.2.9,6.1,8.1-.4,17.1,2.7,20.6.5.6,3.4,0,3.3,1.1-.5,3.3-4.8,1.8-6.8-.3h0Z"/>
      <path d="M434,468.6c-4.3-3.3-4.6-8.8-5.3-14.1-3.1,3.3-5,7.1-9.1,9.3-3.5,1.9-10.5-.6-11.3-4.8-1.7-9.6,2.4-18,6.9-25.9,5.2-9.2,15.9-13.7,25.9-9.5-.5,9.7-1.6,18.7-3.3,27.9-.9,4.7-.9,9.5-.4,14.2.7.9.5,1.8.3,2.3-.3.7-2.3,1.6-3.6.5h0ZM422.8,449.3l5.9-14.2c1-2.3,2.1-4.3,2-7.3-8.5,2.1-16.8,23.3-16.7,32,4.7-1.7,7-6.1,8.8-10.6h0ZM410.2,454.1c3-6.9,5-13.3,8.8-20-5,5.4-9.3,12.2-8.8,20Z"/>
      <path d="M85.2,606.5c-3.3,2.6-7.4,12.9-14,15.4-4,1.6-10.4.3-13.1-3.5-2.2-3.1-2.1-7.7-1.4-10.7,1.8,2.6-.2,5.5,2.2,7.7.5-9.5,2.8-17.4,5.1-26.6-3,1.6-2.3,4.7-4.4,6.6,1.9-7.7,4.9-14.6,9.1-21.1,2.5-3.8,6.3-4.7,10.4-3.9s6.1,4.1,7.8,9c1.4-2.7.9-5.7,2.7-8.1,1.2-1.6,4.3-.6,5.5.4,1.4,1.1,2,3.4,1.1,5.5-3.4,8.4-3.2,17.4-4,26.4-.4,4.5-1.1,8.6,4,11.3-6.2,1.6-9.9-2-11-8.5h0ZM76.5,607.3l5.6-8.9c2.6-4.2,4.6-9.9,4.3-15.1-.3-3.8-4.4-7.5-7.1-9.4-3,.4-4.6,3.4-5.9,5.8-4.3,8.5-12.4,28.8-8.5,39,5.5-1.3,8.6-6.7,11.6-11.5h0Z"/>
      <path d="M156.7,494.5c-1.8,1.2-6.8.7-7.5-1.4-1.6-8.6-1.4-17-.9-25.3-2.3-.2-4.1-.3-5.5-2,5.3-6.4,6.7-1.3,6.8-12.6,1.2,0,1.1,1.5,1.6.9.2-.3.6-1.3.3-1.5-1.6-1.3,0-2.8-.1-3.8-.5-6.7,3.4-18.2,6.2-20.3l4.2-3.2c1.6-1.2,9.2-1.6,9.4,2.1,0,.5-.6,1.3-1.4,1.2-.5,0-.8-.7-1.9-1.6-5.5,4.1-9.3,19.6-9.5,27.3,3.9-1.4,6.2-3.9,10.2-3.9-.8,3.3-10.2,6.5-10.6,11.2-.7,8.5-.1,16.8.6,25.3.2,2.6,1.2,5.6-1.9,7.7h0Z"/>
      <path d="M177.1,484.3c-3.6-1.3-5.2-3.6-4.8-7.6,1-9.3,6.4-29.1,14.6-34.5.4-1.1-.5-2.2.3-3.4,1.7-.5,5.9.3,6.7,2.6,2.8,7.7,2.3,15.8,1.6,24-.4,5.3-3,9.7-5.4,14.1-2.8,5-7.5,6.9-13.1,4.8h0ZM180.8,479.4c5.1-6.7,8.3-20.5,6.6-27.8-2.8,6.4-9.5,22.5-6.6,27.8ZM181,456.7c.3-.6.9-.9.5-1.5-.2-.4-.7-.6-1.2-.4,0,0-8.1,17.1-5.6,20.5,2.9-6.1,3.1-12.7,6.3-18.6Z"/>
      <g>
        <path d="M674.8,460.9c-8.9.8-17,3.6-24.2-2.9-1.3-1.1-2.5-2.8-.9-4.4,2.3,7.4,18,4,21.3-.7-1.7-.7-5.1-.3-5.4-2.6-1.4-10.3,1.2-20.2,3.4-30.1-1.5-.8-2.8-1.1-3.8-2.2.5-2.3.7-4.5,1.7-6.6l4.8,1.2c2.3-8.8,4.8-17.7,11.8-24,1.8-1.6,4.4-2.1,4.1-5.4,4.7,2.1,6.2,5.3,7.3,8.8.4,1.2,2.6,4.1.6,4.4-2.7.4-3.3-3.1-5.1-5.2-3.3,6-5.7,11.8-8.4,17.7-.5,1.2.5,3.2-.3,4.3,2.5,0,4.2-.6,6.3.9-2.3,2.4-5.8,3-9.2,4.3-4.3,9.7-3.5,20.1-1,30.4,1,4,.6,9.7-2.9,11.9h0Z"/>
        <path d="M646.8,408.3c1.1-1.4,3.1-1,3.9-.9,1.2.2,2.4,2.5,1.5,4-4.5,7.3-9,14.6-10,23.7,5.1-2.2,13.3-20.9,14.9-26.1-.6-1.7-2.8-2.3-2.6-4.6,3.5-1.6,10.2,2.4,9.7,6.8-.8,6.8-4.3,12.5-6.8,18.5-1.9,4.7-5.4,8.9-9.5,11.9-3,2.2-7.2.1-9.4-1.6-2.8-2.3-3.8-6-2.7-9.7,2.4-7.8,6-15.3,10.9-22h0Z"/>
      </g>
      <g>
        <path d="M350.9,481.3c-5.4-4.2-6.5-10.7-7.7-17.2-2.9,2.3-5,4.8-7.7,4.1-3.1-.8-7.3-1.7-7.5-5.3-.3-5.5,3-10,4.8-14.7,2.2-5.7,6.9-9.5,12.2-12,1.2-3.9,2.7-29.4,7.4-29.6,1.9.7,3.5,1.8,5.9,1.6.5,7-1.2,13.5-2.1,20.5l-4,30.3c-.9,6.9-.2,13.8-.2,20.7,0,.3,1,.9,1.1,1.1.2.4.3.8-.5,1.1-.3.1-1-.2-1.7-.7h0ZM334.9,462c4.6-5.8,7.5-11.8,8.9-18.9-5.2,5.2-7.8,11.7-8.9,18.9Z"/>
        <path d="M310.7,471.8c4.1-1.5,6.6-4.7,10.7-7-1.5,4-5,7.8-9.4,9.1-7,2.2-12.6-2.5-15.2-8.5-1.8-4.1-.9-7.6-.6-11.8.4-5.7,1.9-10.6,3.9-15.9,2.4-6.5,8.1-10.1,15.3-7.8,2,.7,4.3,1.5,3.8,4.5-1.6,8.6-7.3,15-14.3,20-1.2,3.8-1.9,20.2,5.9,17.3h0Z"/>
      </g>
      <path d="M211.1,471.2c-2.3-2.4-.7-6.3-.4-9.2s-.8-5.9,0-8.8c.9-3.1,2.4-20.2,3.4-21.1.4-.3,1.7-.8,2.5-.5,4.2,1.7,4.5,5.8,3.5,10.4,5.4-4.5,8-10.8,14.9-13.7-5.7,16.6-12,22.8-13.1,40.7,0,1.4-.8,3.1-1.8,3.8-2.4,1.6-5.5-.2-9.2-1.5h0Z"/>
      <path d="M118.7,493c-1.2-4.9-3.8-22.9-.4-25,2.1-1.4,2.8,4.7,3.1,6.4,3.2-5.6,6.5-16.9,13.4-19.9-2.5,18.5-5.5,20.9-5.7,40.6,0,2.3-4.2,2.2-6,1.9-1.5-.2-3.9-1.7-4.4-3.9Z"/>
      <g>
        <path d="M866.1,403.9c-3.1,0-11.2,37.3-16.9,33.4-.8-.5-2.6-2-2.2-3.2l9.2-28.6c-2.9,2.1-3.2,5.1-4.8,8.1-3.7,6.6-7.5,14.9-14.4,18.6-15.3-1.7,1.5-30.3,6.3-36.9,1.3-1.8,6.6.8,6.1,2.5-2,1.8-4.5,3-5.7,5.3-2.5,4.6-11.2,20.9-8.3,25.7,2.5-2.7,5.4-4.5,7.1-7.3,8.7-13.8,15.3-28.6,21.6-43.9,2.8-.2,5.9,2,7,3.9-.2,3.2-3.9,14.3-3.4,15.1,1.3,2.5,7,3.1,6.4,8.1-.4,3.6-1.6,7.1-1.1,10.8,3.5-3.5,4.7-8.1,8.7-10.7,1.9-1.2,5.3,2,6.1,3.7-3.9,9.9-10.2,19-13.4,28.7-.5,1.5-3-.7-3.1-1.9-.6-5.5-6.8-5-6.7-9.2.1-6.7,3.8-22.2,1.7-22.2h0Z"/>
        <path d="M905.6,414.7c-10,.8-11,18.1-16.8,10.8-2.7-3.3,2.5-18.9,8.9-21.4,2.2,4-.8,6.9-2.4,10.7,4.7-1.7,9.2-2.2,13.8-3.6,2.1-.7,5.8-2.1,7.2.5-.2,5.1-4.3,9.5-3.7,15.4,10.7-5.4,1.1-7.3,10.6-24.5,3.2-5.8,12.6-21.2,17.4-24.5,2-1.4,4.7-.3,5.8,1.3,1.1,1.5,1.7,3.7.7,5.9-4.5,10.2-10.3,19.4-15.8,29.1l-7.3,13c2.6,3.6,6.4,2.2,11.1,3.1-2.6,4.2-8.8,2.2-12.1-.4-3.1-.2-5.2,2.8-8.1,2.8s-4.8-3.2-6.7-5.7c-2.7,3.3-7.6,10.5-12,7.4-6.1-4.2,7.5-15.9,9.6-20.2ZM931.5,398.9c-.3,2.7-3.7,4.7-3.3,7.7.7,6.4,16-22,15.8-23.7-3.1.6-2.5,4.8-4.2,5.8-2.3,1.3-3.6,3-5.3,4.6-2.1,1.9-2.6,2.5-3,5.7h0Z"/>
        <path d="M822.1,430.7c-5.7-3.8-4.4-10.1-6.2-15.7-4,5.8-7,12.1-12.7,15.2-3.5,1.9-6.8-3.2-6.7-6.5.3-7.6,3.5-13.2,5.4-21-15,8.6-12.1,9.5-20.9,20.6-2,2.5-2.6,5.8-5.8,7.6-2,1.2-6.9-2.1-6-4.8,3.4-10,6.6-19.5,7.8-30.5,8.5,2.5,3.4,10,3.8,15.3,4.3-2.7,22.7-13.9,25.9-12.4,7,3.3-2.8,16.6-.5,18.3,3.8-4,5.1-9,9.2-12.4l6.2,3.7c-.3,7.7-.3,14.8.3,22.6h0Z"/>
        <path d="M762.7,412.3c-.7,5.7-8.3,23.4-12.4,29.3-.5.7-3.2.8-3-.2l8.3-31.1c-4.6-1.2-9.9-1.3-12.2-6.3,4.8.9,8.6,2.7,13,1.3,1.5-6,1.5-12.1,1.2-18.3-.2-4.7-4.3-4.2-3.2-6.8,1.1-2.6,6.8,2.2,9,3.3,2.2,6.8,2.5,13.6.8,20.6,1.8.4,3.3-.7,4.6,1.4-3.5,1.5-5.8,3.4-6.2,7h0Z"/>
        <path d="M721.4,438.8c-2.8,1-5.5,3.1-7.7,0,4.5-3.5,9.3-8.8,9.3-15,0-5.2-7.4-16.1-2.3-21.1,3.2-3.1,15.8-3.7,16.3,2.3-4.1,0-8.7-1.4-11.2,1.5-3.5,4,2.2,12.9,3.6,17.5,2,6.6-1.5,12.4-7.9,14.8h0Z"/>
      </g>
      <g>
        <path d="M171.2,592.6c1.9-3.4,2.1-24,2-28.9,0-1.7,1.3-3.1,2.3-3.4,1.6-.4,3.7.1,3.8,2.4.1,2.1-.6,4.1.3,6.1,2.7-.9,2.8-3.7,4.8-4.8,2.5-1.3,5.8-.6,8.6.3,2.6,9.2-1.9,21,1.5,28.2,4-.7,10-12.3,10.1-13.7l2.6-21.9c.5-4.1,1.8-8.3,4.3-11.7,1-1.4,5.9-1.3,6.4.3,1.5,4.9-.2,10-.7,14.7-1.9,15.9-7.4,22.1-6.6,29.7.3,2.9,2.6,3.6,5.3,4.2-2.4,2.5-5.4.4-7.5-1.1-4.9-3.7-4.3,6.4-15.2,3.4-4-1.1-7.4-4.2-7.5-9.1v-11.9c-4.9,7.7-5.1,15.6-8.3,23.4-1.1,1.6-4,0-5.2-.5-1.8-.8-2.2-3.8-1.1-5.9h0Z"/>
        <path d="M286.6,569.8c-4.8,5.1-8,15.3-17,11.6-4.6-1.9-6.6-6.2-5.3-11.2,4.2-16,11.6-18.1,16.1-24,.7-1,.2-2.7,1.3-3.2,1-.4,2.2-.9,3.5-.5,5,1.5,6.8,5.8,7.8,10.6,2.6,12.1,5.3,23.8,9,35.8-9.2,5.5-12.6-12.4-15.4-19.1h0ZM281.8,553.8c-4.9,3.1-13.5,19.8-10.9,23.9,1.8,2.9,18.2-16.8,10.9-23.9Z"/>
        <path d="M240.5,584.4c-2.1,3.3-5.4,5.6-9.6,3.4,2.8-3.1,5-5.8,5.3-9.3.9-9.7-11.6-12.8-9.5-19.7,2.5-8.2,16.6-20.2,25.6-12.4-7.2.4-11.8,3.3-16.2,7.8-3.4,3.6-4.3,8.1-.7,12.1l4.6,5c3.5,3.8,3.4,8.6.5,13Z"/>
        <path d="M257.8,571.9c-1.5,4.9-2.6,10.9-4.6,10.8-1.2-.1-2.2-1.2-2.2-2.7l.3-19.8c0-3.4-.5-6.5-1.8-10.2,3.3-1.2,8.1.9,9,4.7,1.3,5.6,1,11.7-.7,17.1h0Z"/>
      </g>
      <g>
        <path d="M504.9,432.2c-2.1,7.3-6.5,19.5-15.3,16.5l-6.3-2.1c-2.1,4.4-5.2,18.2-6.3,23.6-.3,1.4-3.2,1.2-4,.6-4.3-3.4-1.7-11.8,0-18.3,4.2-16.1,5.3-31.7,10.3-47.8,1.4-1.6,4.8-.3,6,.6,1.4,1,2.6,3.2,2.2,5.5l-3.3,16.5,7.4-2.5c1.4-.5,3.7.8,4.1,1.9,1.6,5-10,7.1-13.9,13.9-1.4,2.3,2.9,4.3,5,3.7,8.2-2.1,9.2-8.7,14.1-12h0ZM472.9,461.1c2.2-1.7,1.5-4,2-6.1,1.1-4.8,3.4-9.1,2.8-14.4-2.2,5.5-4.2,14.4-4.7,20.5Z"/>
        <path d="M577.8,434l-7.6,9.1c-2.8,3.3-7.2,3.4-10.6,1.6-10.1-5.7,1.2-24.3,6.8-31.4,3.9-4.9,9.7-6,15.4-2.6,1.6-6,2.8-18.3,5.6-22.5,1-1.4,6,.1,5.7,1.7l-9,44.3c-1.1,5.5-1,10.7,2,16.1-3,0-4.7-2.7-5.4-5.4l-2.9-11h0ZM580.8,412.8c-9.1-6.4-26.6,25.2-19.4,29.8.9.5,2.6.2,4-.9,8.8-7,14.5-16.8,15.4-28.9Z"/>
        <path d="M550.4,443c-6.4-1.3-2.3-13.3-4.5-18.5-7.7,3.4-13,18.6-18.3,17.1-1.8-.5-5.4-2.4-4.3-4.9,6.1-14.5,3.6-12.7,7-27.5,2.2-.3,4.6,1.9,4.3,3.9l-1.6,12.6c4-2.8,5.9-6.9,10.5-7.5,1.9-.3,5.7.7,7.3,2,5,4.1-.9,15.6-.4,22.9h0Z"/>
        <path d="M510.5,444.2l-3.3,16.3c-.2,1.1,0,1.7-1.1,1.7-3.9-.1,1.3-23.2,1.8-27.1.9-5.8,1.9-11.7,3.5-17.2,2.5-.5,5.1,2.3,4.6,4.6l-3.2,15.4c-.5,2.2-1.8,4-2.3,6.3h0Z"/>
      </g>
    </g>
  </g>
</svg>