<?xml version="1.0" encoding="UTF-8"?>
<svg id="Layer_2" xmlns="http://www.w3.org/2000/svg" version="1.1" viewBox="0 0 1000 1000">
  <!-- Generator: Adobe Illustrator 30.1.0, SVG Export Plug-In . SVG Version: 2.1.1 Build 136)  -->
  <g id="Layer_1-2">
    <g>
      <path d="M623.1,508.3c-.9,5.8-.3,11.2-.8,16.8-.4,4.3-1,8.3-.7,12.7.2,2.7,0,5.4-1.4,7.6-2.5-.8-4.9-1.2-7.1-2.2-1.9-3.8-.2-7.8-.1-11.8.1-7.8.8-15.7-.2-23.5-.3-2.2-2.3-4.7,0-7,.6-.6,1.2-3.6.2-3.4-5.2,1-6.9,6.2-20-1.9-2.2,3.4-5.1,7.1-9.4,7.6-3.9.4-8.2-1.3-11.2-3.7-5.2-4.2-3.8-18-3-24.3.2-1.7,1.1-3.2,2.4-3.5,1.7-.5,3.2.3,4.3,1.9,3,4.5-2,15.4,2.8,24.3,6.2-5.9,8.1-13.5,9.6-21.3,2.1-.4,7.4.1,7.7,2.6.7,5.3,0,10.3,3.1,14.9,3.9,5.9,9.3-6.9,11-9.8l5.4-1.6c1.2-5.4,2.9-10.4,5.6-15,1.9-3.2,5.5-3.4,8.5-1.8,4.1,2.3,6.8,4.9,8.8,9.7,4.1-4,10.7-5.2,13.1-9.9l4.6-8.9c1.9-3.8,8.4-4.9,11.7-1.3,5.9,6.4,4.4,16.7,5.1,25.1,4.7-6.3,7.5-13,10.9-20,.7-1.4,1.5-3.2,3.1-3.9,2.1-.9,4,.8,5.2,1.8,3.1,2.6.1,8.8,2.4,9.2,1.4-1.9,2.1-4.4,4.3-5.5,2-1,4.6.4,6.2,2.1,2.5,2.8,3.3,7.2,2.8,11.1-.9,6.8-1,13.8,0,20.4-3.5,2.4-7.9-8.7-8.4-11.7-.5-2.4,1.1-4.5-.8-7-1.1,3.1-1.3,5.7-3.1,7.8-2.3,2.9-5.4,2.7-8.5,1.2-2.3-1.1-4.2-2.2-3.3-5.7-.3-1.6-1.7-1.5-1.8.2-4.6,8.7-10.5,21.9-22.7,16.4-3.6-1.6-8.1-3.5-10-7.3-2.4-5,2.7-13.3.5-14.6-15.3,9.4-8.2,5.4-11.5,17.3-2.6,9.3-6.1,10.6-15,15.8h0ZM657.7,488.2c7.9-3.3,9.9-26,6.3-32.4-3.4,2.2-6.6,6.6-5.2,8.4l2.6,3.4c.9,1.2-6,16.4-3.8,20.6h0ZM622.3,489.8l8.8-7.8c.5-4-.4-8.1-2.6-11.4-2.8,3.5-4,7.2-4.9,11.3-.8,2.5-2,4.8-1.3,7.8h0ZM623.4,503.1c4-3.7,6.3-7.2,7.1-11.9-3,1.8-6.2,3.1-8,6.1-.9,1.6-.5,4.5.9,5.8h0Z"/>
      <path d="M509.5,516.4c-6-1.1-8.1,9.3-20.7,5.5-9.5-2.9-10.2-18.4-8.9-23.9l2-8.4c.7-2.9,2.6-5.1,4.8-5.9,2.7-1,5.6-.2,8.2,1.8,3,2.3,4.5,8.3,2.8,12.1-2,4.6-6.8,7-11.5,7.3-1.2,4.4,0,8.5,1.8,12.4,1.1,2.4,3.8,3.9,6.5,2.1,2.1-1.3,6.6-3.8,7.3-6.5,5.1-33,14.2-26.4,16.4-29.3,1-1.3-1.6-26.6,1.7-32.8.8-1.6,5.9-.9,5.9.9l.4,16.5c.1,5,.4,11.4.1,16.1-.2,4.9-1.5,8.8-2.3,13.7-1.2,7.5,1.5,17.4,8.2,21.7,5.7,3.6,13.4,1,18.4-1.9,2-1.2,3.6-1.8,5.4-.6-6.6,5.8-15.2,6.7-23.1,5.2-7.9-1.5-11.1-10.6-13.6-10.6s-3.9,6-9.9,4.9h0ZM489.2,489.8c-2.7,3.1-3,6.5-2.6,10.2,2.4-2.9,4.2-6,2.6-10.2Z"/>
      <path d="M314.5,514.6c-1.6,3.9-6.7,5.9-8,10-2.2,6.9,3.9,18.8,0,20-.9.3-3.1,0-3.4-1.3l-3.5-12.5c-.6-2.1-7.6.8-7.1-2.3.4-2.5,3.3-3.3,4.5-5.9-3.1-7.5-6.8-15.7-13.3-20.7-4-3.1-8.3-5.1-10.7-10.1-.2-.5-1-1.1-.6-1.9.2-.5.8-1.3,1.7-1.1,3.2.6,1.9,5.1,6.9,8.5,10.8,7.2,13,14.2,18.8,24.8-.2-5.8,3-26,6.5-28.2.9-.6,4-.7,4,.5,0,4.4-2.2,8.3-3.4,12.5s-.6,8.3-1.4,12.9c0,1.4,11.1-10.1,9-5.1h0Z"/>
      <path d="M281.1,547.9c.1,1.1-.2,2.1-.7,2.2s-2.2-.1-2.5-.9c-6-14.9-1.6-17.1-3-26.1-1-6.7-1.7-13.1-3.2-19.6-.2-.8,1.2-1.5,1.6-1.2,4.5,2.7,5.5,22.7,6.1,29l1.6,16.6h0Z"/>
      <path d="M727,486.1c-2.4-.5-5.6-1.5-8-2.9,2.7-1.5,5.9-2.4,8.7-1.2,1.2.5.5,3.8-.7,4.1h0Z"/>
      <path d="M465.4,476.5c0,1.1-1.3,1.2-1.7.6-.5-.6-2-1.1-1.3-1.8,1.6,0,3.1-.1,3,1.1h0Z"/>
      <g>
        <path d="M435.2,522.6c-13.9,10.3-17.6,5.1-21.2,6.6-2.6,1-4.3,3.3-7.1,4.1-1.2.4-4-.2-4-1.8,0-1.8,2.1-3.3,3.3-4.4,5-5-2.3-6.7.3-18.7,1-4.7,3-16,10.3-15.4,3,.3,6.1,1.4,6.9,4.7,2.3,10.2-3,18.1-7.1,27.4,4.2,2.4,12.2-5.7,14.1-9.2,1.3-2.6.5-5.8,0-8.5-.9-6.2.9-36.2,5.4-41.3,1.6-1.8,5.1-1.3,7-.2,1.6.9,3.3,3,3.8,5.6.8,4.9,2.1,9.9,2.1,14.9,0,7.6-3.6,21.5-6.9,27l-2.9,4.9c-.5.9.4,1.8.9,2.2,6.6,4.8,16.8-25,18.1-29.7,1.3-.8,4.2-.5,5.1.5,2.1,2.3,2.5,5.4,2.5,8.5l.2,15.8c0,2.3,1.7,5.7.3,7.4s-4-.7-4.6-2.2c-1.6-4.1-1.8-7.8-2.3-12.4-2.6,3.1-2.9,6.7-5.1,9.7-4.5,6.2-11.8,8.3-19.1,4.5h0ZM435.2,506.9c2.4-1.3,2.3-3.6,3-5.6,4-10.5,5.2-21.7,2.2-32.4-2.3,1.8-2.3,4.2-2.9,6.5-3.3,13.1-2.6,17.6-2.3,31.5h0ZM412.1,517.3c2.5-5.9,6.5-15.4,4.6-20.6-4.5,2-8.3,17.8-4.6,20.6Z"/>
        <path d="M374.6,528.1c-.7-5.6-.9-28.2,7.4-29.1,5.3-.5-3.6,8-1.8,11.1,3.7-6.5,5.9-12.4,11.5-16.3.6-.4,1.6-.7,2.1-.4.4.3.7,1.2.2,1.8-10.2,14.5-8.3,24.7-13.3,34-.8,1.5-5.9.6-6.1-1.2Z"/>
      </g>
    </g>
  </g>
</svg>