<?xml version="1.0" encoding="UTF-8"?>
<svg id="Layer_2" xmlns="http://www.w3.org/2000/svg" version="1.1" viewBox="0 0 1000 1000">
  <!-- Generator: Adobe Illustrator 30.1.0, SVG Export Plug-In . SVG Version: 2.1.1 Build 136)  -->
  <g id="Layer_1-2">
    <g>
      <g>
        <path d="M498.6,474.5c2,4.1,3.5,8.5,5.2,12.7.9,2.2,2.3,4.2,3.2,6.4,1.1,2.7,3.3,9.6,1.6,12-.8,1.2-2.7.5-3.9.9-2.7.8-2.9,2.3-6.4.5-.7-.4-3.9-2.8-4.5-3.5-2.6-2.5-5.2-6.8-8.4-9.2l-3.3-2.5c3.7,14.2,10.3,27.1,16.4,40.4h0c0,.5-6.1,3.9-7.2,2.4-6.5-11.9-11.3-24.7-17.4-36.9-.2-1,1.3-1.7,1.5-3.1.5-3.2-2.9-7.5,1-9.4,6.7-3.2,9.4,1.1,14.7,4.4.2,1.7,7,8.2,8.2,7,.6-.6-3.8-12.7-4-15.5,0-.9.6-6.5.8-6.8,0-.1,1.8,0,2.3,0h0Z"/>
        <path d="M528,468.2c3.3,3.2,6.9,11.1,8,15.5,1.6,6.5,0,13-1.8,19.4-.4,1.5-2,4.1-2,5.2,0,1.6,3.7,6.2,2.4,7.5-.2.2-4.8,1.6-5.2,1.7-1.3,0-2-1.2-2.7-2.1-1.6-2.5-3.7-7.2-5.1-10.1-3.6-7.7-6.6-15-11.1-22.4-.8-1.3-4.6-5.9-4.6-6.5,0-1.4,4.5-2.6,5.1-3.5.9-1.4,0-4.1.5-5.9,1-3.4,6.8-3.4,9.7-2.8,1.2.3,5.8,3.1,6.7,4h0ZM529.8,500.7h0v-13.1c0-.7-2.5-7-3-8.1-1.2-2.5-5.4-8.6-7.7-9.8-1.5-.8-1.3,1.3-1.2,2,.6,6.7,6,19.7,9.2,25.9.6,1.1,1.6,2.8,2.7,3.2h0Z"/>
        <path d="M474.2,522.9c.1.2,2,2,2.5,2.6,3.3,3.5,4.9,2.8,5.2-2,0-1.2.6-2.4,1.6-1.2.1.1,0,2.9,0,3.6-.9,5.2-7.3,5.4-11.1,3.2-1.4-.8-2-3.1-4-2.8,2.3,6.1,1.6,12.7,1.5,19-4.2,2.7-9.3,5.1-13.9,1.7-3.4-2.5-5.5-7.4-7.7-10.6-2.1-3-13-17.6-12.5-20,.2-.8,2.2-2.3,3.1-2.5.7-.2,1.3.3,2,.3,1.2,0,2.3-1.2,3.3,0,3.9,6.3,7.3,12.9,11.1,19.2.6,1,.7,2.4,1.4,3.4.4.7,4.7,5.9,5.1,6.1,1.6.8,1.2-1.3,1.2-2,.1-5.1-.8-9.9-1.8-14.9-.5-2.3-4-13.7-3.8-14.5.2-.7,4.5-2.6,5.1-2.6,3,0,5.5,4,7.2,6.2,1.8,2.4,3.1,5.7,4.7,7.7Z"/>
      </g>
      <path d="M552.8,452.2c.3.4.1,1.5.6,2.2,5.8,9.6,9.8,17.5,10.8,29.1.5,6.3.1,12.8-7.6,13.2-3.6.2-4.4-2.5-5.6-5.6-3.1-7.5-5.9-22.8-5.2-30.8.2-2,1.3-3.4,1.5-4.9.1-1-.6-2.1-.3-2.6,1-2,4.9-1.9,5.9-.6ZM557.7,489.6c.2-.2.1-4.3,0-5.2-.4-5-2.7-13-4.6-17.7-.4-1-.4-2.4-1.8-2.6-.6,8.7,1.6,16.5,4.6,24.5.3.9.8,2.1,1.8,1h0Z"/>
    </g>
  </g>
</svg>