<?xml version="1.0" encoding="UTF-8"?>
<svg id="Layer_2" xmlns="http://www.w3.org/2000/svg" version="1.1" viewBox="0 0 1000 1000">
  <!-- Generator: Adobe Illustrator 30.1.0, SVG Export Plug-In . SVG Version: 2.1.1 Build 136)  -->
  <g id="Layer_1-2">
    <g>
      <path d="M449.4,492.1c-4.3,3.1-1.9,3.4,2.2,3.8,1.4,1.4-4.5,12-5.2,14.6-1.8,6-2.4,11,.4,16.9l1.5.8c2.1.2,7-3.9,7.9-5.6,1.7-2.9,0-8,3-11.9,2.9-3.8,9.1-3.9,12.3-.5,5.6,6.1-10.1,16.3-5.6,19.5,1.2.9,4.6-2.4,7.1-2.3,1.4,0,1,1.5,2,1.8,1.3.5,2.8.2,3.8.6.7.2,1,2.1,2.8,1.4-.6,4-4.8,3.2-7,3.7-.6.2-.4,2.5-2,1.5,0,0,.2-1-.5-1.5-1.5-.8-4.1-.4-5.6-1-1.7-.6-3.7-2.8-5.5-2.8-1.3,0-2.5,1.8-4.5,2.2-7.4,1.2-10.9-1.8-16.4-5.9-5.7,7.5-9.4,12.7-18,5.2-.7-6.7-1.5-4.1-5.3-5.9-1.9-.9-3.2-2.3-5.1-3-3.6,3.4-3.6,6.8-8.9,8.4-7,2.1-7.9-3.9-10.1-4.6-1.4-.4-3.3,0-5-.3-3.7-.8-4.7-4.7-4.3-8.1-1.4-.3-1.4.5-2.1,1.3-3.8,4.2-6.2,11.7-13.3,7-1.7-2.5,2-14.3,2.2-18.2.3-5.6-4.9,1.8-5.8,3.2-2.2,3.3-9,17.6-10.5,18.7-1.5,1.2-4.3.3-4.8-1.3-1.1-3.4,7.3-20.6,7.5-25.6,2.1-.4,4.2-.4,4.5,2.2h1.1c3.6-4.7,8-7.5,13.4-3,2.4,2-.3,8.5.5,11.3,1.7-1.3,2.7-3.6,4.1-5.2.9-1,2.9-3.2,3.9-3.6,3.6-1.2,3.3,2.4,6.9,2.2.9,1-3,13.9-1.1,16.4,7.4,0,11.6-22,23.8-19.3,5.3,1.2,2.2,6.2,2,9.9-.1,2.4-.6,9.1,2,10,5.8,2,6-3.4,8.6-6.9,3.1-4.1,6.2-5.5,11.4-5.1l6.1-19.4,5.6-1.5h0ZM401.5,524.3c3.7-2.8,5.4-7.8,6.7-12-3.6,2.7-5.4,7.8-6.7,12ZM435.9,518.4c-1.6-1.7-8.7,9.3-8.2,11.2,1.6,1.7,8.8-10.6,8.2-11.2Z"/>
      <path d="M286.9,519.1c.4.5-2.2,6.1-2.6,7.4-1,3.9-2.6,11.2-2.2,15.1.4,3.7,4.5-.8,5.9-1.6l12-14.3c1-1.5,3.7.4,4.1,0,1.3-.9,3-14.2,10.7-11.8,7.1,2.1,2.4,14.9,1.5,19.9-.4,2-.1,5.9-.4,7.2-.2.6-5.4,7.4-6.2,7.9-3.2,1.6-6.3.8-8.9-1.4-3.4-2.9-1.7-5.2-3.8-8.2l-8.6,7.8c-10,1.6-10.1-2.4-10.5-10.5,0-.8.5-2.1-.7-1.8-1.2,5.2-6.1,16.4-13,12-1.8-1.1-1.5-5.6-3.5-6.8-1.1,4.6-4,8.4-9.2,7.3-2.7-.5-4.1-3.1-6.5-3.6-.8,3.3-2.5,8.9-5.3,10.8-5.3,3.7-10.5,1.4-10.5-5.2,0-3.8,1.7-13,2.5-17.1.6-3.1,1.6-11.4,5.8-7.6-1.4,7.1-3.3,14.4-3.8,21.6,0,.8-.7,5.7,1.1,4.9,3.9-2.4,8.6-21.7,9.9-22.5,1.5-1.1,4.1.5,4.6,2.1,1,3.3-1.2,9.3,1.3,12.2,1.2,1.4,2.5-1.1,3.2-2,7.3-9.7,10.5-26.2,14.4-37.7l3.7,1.9c-1.5,9.3-6.1,19.9-6.6,29.2-.2,2.9-.3,6.4,1.9,8.6l16.5-25.3,3.4,1.4h0ZM313.8,519.1c-2-.4-1.3.5-1.9,1.5-2.1,3.5-5.1,9.9-2.2,13.5,2-4.7,4.4-9.6,4.1-15ZM304.1,544.6c3.6-1.8,2.3-6.9-1.5-7.5l1.5,7.5Z"/>
      <path d="M494.4,453.2l-.5,1.5c-2.3.6-3.2,3-3.3,5.2l-3.8-1.2c-1.7,3-5.1,4.4-7.1,7.2-2.6,3.7-2.5,8.1-7.7,9.5-4.5,1.2-6.4-1.7-9.8-2.6-4.9-1.4-12.3-.2-12.8-7.6l9.5-4.7c-.6-3.9,2.8-10.1,6.7-11,3.6-.9,10.2,2.8,11.7,2.7,1.1,0,3.5-1.9,5.1-2.3,5.1-1.3,7.5,1.4,11.8,3.2h0ZM474.1,454.7c1.3-1.7-4.7-4.8-7.4-1-.4.6-2,5.1-1.6,5.5l9-4.5h0ZM486.9,452.4l-6.8,2.6v3.4c1.5,1.3,7.7-5.2,6.8-6h0ZM476.4,457.7c-4.2-.2-5.8,4.6-7.9,6.7-1.4,1.4-3.7.8-3.3,3,5-.6,12.3-3.4,11.2-9.7ZM459.9,469.7c1.6-1.5-3.7-5.7-5.2-2.6,1.1.7,3.7,4,5.2,2.6Z"/>
      <g>
        <path d="M630.4,468.5c19.3,10.9,39.9,20.1,59.5,30.8,45.4,24.7,80.6,65.1,133.8,76l22.8,5.3c-23.2-1.6-47.1-9.2-67.9-19.3-10.1-4.9-21.9-11.3-31.3-17.4-10.4-6.7-18.5-15.1-28.6-22.3-29.7-21.3-64.3-34.9-95.1-54-18.3-11.3-37.5-16.6-59-17.4-15.7-.6-33.7,3.5-49.5,4.5-3.4.2-10.1,1.1-11.6-2.2,4.8-1.8,9.8-1,14.6-1.5,49.7-4.8,68-7.5,112.5,17.5h0Z"/>
        <path d="M937.1,408.2c0,1-2.2,1.5-3,1.8-2.3.8-5.2,1.5-7.6,2.2-37.6,9.6-78.5,18.8-116.6,26.5-31.3,6.3-66,8.2-97.9,6.2-15.8-1-31.5-6-47.2-7.5-27.2-2.6-55.2-1.1-82.4,1.5-5,.5-10,2.4-15.4,1.5,1.1-2.1,4.9-1.3,6.9-1.7,29-5.7,59.8-7.2,89.3-4.3,13.5,1.3,27,5.1,40.6,6.6,76.4,8.9,138.7-15.2,211.5-29.5,7.2-1.4,14.4-2.8,21.8-3.3h0Z"/>
        <path d="M898.9,591.8c-2.8-11.8-7-23.7-5.3-35.9l-2.3-.4c.8-6-.5-12.2-.7-17.9-.5-16.3-.1-32.7,0-48.7.1-11.5-.2-22.9.8-34.4l.6-.9c1.3-.6,3-.6,4.2.3,2,1.5-.2,12.4-.4,15.4-.3,3.1.4,6.6,0,9.7-.3,2.4-2.3,5.5-2.2,8.3,0,3.3,2.1,6.2,1.6,11.3-2.6,23-1.5,50,1.5,73.3.7,5.6,2.9,12.2,3.2,17.9,0,1.1.5,1.7-1,2.1h0Z"/>
        <path d="M827,486.9l-2.2-.8c.9,10.6,1.5,21.2,2.2,31.8.2,2.7,1.5,6.5,1.5,9,0,2.4-1.4,5.3-1.2,7.5,0,1.2,1.2,2.2,1.2,3.7,0,1.7-1.4,2.5-1.6,3.8-.3,2.3.7,7.4,0,10.1l2.2-12,.7,25.1c.6,2.9,4.5.6,2.7,4.9-5.3,3.1-5.8-3.4-6.3-7.2-1.6-11.5-.3-23.6-.8-35.2-.8-17.9-3.1-41.4-6.1-59-.6-3.4-1.2-6.8-2.9-9.8,1.2-1.7,2.6-1.3,4.3-.6,6.5,2.9,4.3,22.3,6.2,28.6h0Z"/>
        <path d="M787.3,551.3c-9.4,1.3-11.6-13.7-12.7-20.7-3.1-20.7-6.4-53.6-4.6-74.1.1-1.5.7-5,1.3-6.2,1-2,3.4-2.4,3.8-.5.2,1.2-1.3,7.5-1.4,9.7-1,20.6,1,46.1,3.9,66.6,1.2,8.9,2.3,19.2,9.7,25.2h0Z"/>
        <path d="M729.6,519.1c8.5-1.6,3.3,4.7-2.1,2.1-2.5-4.6-1.4-9.5-1.7-14.4-.9-16.3,0-36.5-4.6-52.4-.7-2.5-2.1-4.4-2.9-6.8,6.4-3.8,8.1,7.7,8.6,12.2.8,7.4,1.4,16.2,1.7,23.7.5,11.8-.5,23.8,1,35.6h0Z"/>
      </g>
      <g>
        <path d="M626.1,487c.4.6.2,5.7.1,7-.7,8-5.3,23.6-2.8,30.6,3.1,8.6,8.1,3.9,11.8-1.2-6.7-5.1,4.8-19.8,11.3-15.8,1.9,1.2-1,2.6-.8,4.1,2.7.2,2.3,2.3,2.2,4.5,6.7-5.4,1.4-15.3,5.7-21.7,2.8-1,4.5,1.9,7.1,2.6-1.8,10-2.5,20.3,0,30.3.7.5,7.1-4.3,7.7-5.4,1.2-2.6.1-5.6.7-8.3,1.1-5.1,6.9-9,11.1-4.7,5,5.1-3.9,14.7-1.9,19.1.5,1.1,4.1,4.2,5.4,4.4,3,.5,7.3-2.9,10.7-1.4-1.6,7.2-6.8,7.4-12.9,5.2-.7-.3-.8-1.3-1.5-1.7-2.7-1.5-5.5-2.8-7.8-4.8-2.7,1.4-6.3,1.5-8.7,2.3-1.9.6-1.6,2.7-5.2,1.9-4.9-1-4.3-10.4-7.7-11.1-.6-.1-5.6-.6-5.9-.5-.8.1-1.7,1.4-2.7,1.7-1.4.4-3.1.3-4.3.9-3.7,1.6-2,9.4-11.6,7.6-4.4-.8-8-5.6-8.5-5.7-1-.2-3.1.8-5.1.6-1.2-.2-5.3-2.1-6.1-2.9-3.9-3.8,2.2-17.5,5.6-20.7,1.3-1.2,4.2-1.7,4.4-1.9.8-1.2.4-12.4,2.4-15.2,1.5-2.2,6.7-.6,7.3.4h0Z"/>
        <path d="M512.4,500.7c.7-2.1,5.8-.8,7.2.3-.9,1.4-.8,21.3,1.8,19.5l5.2-14.7c7.1-1.5,6.7,4.3,7.9,9.4l3.4-12,8.2,1.4c.9-3.9,4.1-15.2,7.8-16.6,4.4-1.7,9.2,3.9,9.5,8,.8,8.2-.3,17.6-6.5,23.6-1.5,1.5-5.2,2.2-6,3.8-1.6,3.5.9,16.8-2.6,18.4-.4.2-5.4-1.2-6-1.6-3.8-2.1.4-15-.8-19.1-3.1,2.4-9.1-1.2-10.7-.7-1.9.6-1.7,6.7-8.3,5.9-1-.1-5.8-1.9-6.5-2.6-.9-.9-3.7-8-3.7-9,0-3-.6-12.3,0-14.2h0ZM555.8,499.6c-2.1-.4-1.3.4-1.7,1.6-1.6,4.4-3.2,9.4-3.5,14.1,1.9.4,1.3-.4,1.9-1.5,2.5-4.6,2.6-9.3,3.4-14.3h0Z"/>
        <path d="M588.8,516.5c.2.6,1.7,1.5,2.2,1.1,2.7-5.5,5.3-10.9,4.5-17.2-2.8-.8-3.1,3.4-5.6,3-2.1-.4.4-6,2.4-6.6,16.8-5.1,10.3,24.6,3.5,26.7-3.5,1.1-11.2-1.5-13.3-4.4-2.7-3.8-1.4-10.5-1.9-14.6-.1-1,.4-1.3-1.1-1.1-10.1,4.3-5.6,16-5.6,24.7-6.3,1.5-7-6.2-7.4-11-.7-7.2.5-20.1,1.5-27.5.2-1.5,1.8-10.1,2.6-10.3,10.3-.4,2.6,13.2,4,19.5.4.4,6.9-.3,8.5,0,.5.1.5,1.2,1.1,1.4,1.1.5,4.7,1.4,4.7,3.4,0,2.9-.6,10.7,0,12.7h0Z"/>
      </g>
      <path d="M484.6,486.1c.4,2.4-1.9,3.8-3.5,5.2l-2.5-1.8,6-3.4h0Z"/>
      <path d="M427,462.2c.2.1,1.1,2.7-.4,2.9l-4-1.1c.6-1,3.8-2.4,4.5-1.9h0Z"/>
      <path d="M442.6,475.7l1.6,4.4c-1.7,1.2-6.1-4.2-4.1-4.5h2.5Z"/>
      <path d="M459.9,482.4c-1.6,2.2-5.7,2.8-8.2,3,1.6-2.5,5.7-2.2,8.2-3Z"/>
      <path d="M485.9,435.3c3.5-.3.6,6.1-2.7,1.8l2.7-1.8Z"/>
      <path d="M500.4,471.2c.4.4-.1,3.7-1.1,3.7-3.9,0-.8-5.6,1.1-3.7Z"/>
      <polygon points="516.1 475.7 515.7 477.2 512.4 477.2 512.4 473.4 516.1 475.7"/>
      <path d="M484.6,480.1c-1.5-.2-4.7,1.3-5.2-.7l5.2.7Z"/>
      <path d="M501.9,462.9c.5-.5,3,.3,3,1.1,0,2.2-4.4.2-3-1.1Z"/>
      <g>
        <path d="M202.2,554.3l-7.3,3.6c-7.9,1.5-7.7-2.6-12.1-4-3.1-1-6.2-.1-9.6-2.4-1.9-1.3-2.2-3.5-4.2-3.9-1.1.2-6.8,7.3-8.8,8.5s-5.9,1.7-6.8,3c-2.5,3.3.8,14.3-4.8,13.7-3.9-.4-1.4-13.5-1-16.5.4-3.3,1.5-6.6,2-9.9l-.3-7c-1.6,3.1-2.2,6.3-4,9.5-.9,1.7-5.8,8.8-7.1,9.4-1.1.5-2.6.3-3.4.7-1.3.8-3,6.5-6.6,7.3-8.5,1.7-13.6.2-15.3-9-6.6,3.5-11.9,3.6-18.5.1-1.5-.8-2.5-2.6-3.8-3-1.6-.5-6.1.1-6.2-2.8l5.3-.4c-.3-8.9.4-18.4,6.4-25.4,3-3.5,7.3-6.4,11.6-3.3.4.9.6,1.9.7,2.9.4,4.8-2.3,15.7-4.6,20.1-2,3.8-4.8,6.6-8.1,9.1,2.5,3.8,7.3,3.2,11,1.3,10-5.2,7.5-13.7,12.9-22.1.5-.8,2-1,2.6-2.1,2.5-3.7,3.4-10,9-9.8,10.6.4,6.5,17.5,5.8,24.4,0,.8.5,1.8.4,2.8-.2,1.5-2,3.5-1,5,6.6-6.8,10.2-16.2,11.6-25.5,4.5.4,5.4,1.7,6.7,5.7,5.2-1.7,4.3,2.6,8.9,1.9.6.5-.2,4.5,2.3,3.7,4.2-4.6,4.9-24.8,9.9-27.2,4.6-2.2,7.6,1.2,7.3,5.8,0,1.8-1.5,5.9-2.1,7.7-2.7,7.1-13.1,19-3.5,24.2,6.3-1.5,4.2-5.5,5.1-9.9s4.2-16.6,10.2-15.8c1,.1,2.6.6,3.2,1.3,1.4,1.7-1.1,12.2-1.9,14.7-1.7,5.2-9.9,11.5-3.7,15.6,4,0,7.8-3.1,11.5-2.1h0ZM93.6,548.3c1.4,1.6,7.1-8.1,7.6-9.2,1.5-3.1,3.8-9.8,4.2-13,.2-1.3.2-1.6-1-2.4-7.9,5.3-11,15.4-10.9,24.7h0ZM129.5,555.8c1.7-6.2,4-12.6,4.5-19.1.2-2.4.6-16.8-4.1-10.8-2.3,3-5.2,12.2-5.7,16.1-.5,4.5,0,12.5,5.2,13.9ZM135.5,542.3l1.5-10.5c-1.8,1.1-2,5.8-2.2,8,0,.8-.7,2.7.7,2.5h0ZM160.3,540.8c-1.6-1.9-6.4,9.6-5.2,11.2,4.2-2.6,5.8-6.3,5.2-11.2ZM127.2,557.4c-4.5-1.6-5.4-6-7-9.8-2.7,2.4-2.4,15.1-.3,16.4,2.8,1.7,8.5-4.5,7.3-6.5h0Z"/>
        <path d="M70.4,553.6c-1,.9,1.3,17.9-.2,21.2-.9,1.9-3.9,1.2-5.1.2-1.3-1.1-.8-11.6-.8-14.3s.1-5.9,0-9c-.2-8.6,0-17.4-1.5-25.8,9.3,2.7,5.8-11.2,14.5-9.7.4,0,5.4,1.7,5.7,1.9,5.4,3.2,2.6,22.9.5,28.2-2,5.1-7.9,8.1-13.3,7.3h0ZM71.1,550.6c10.9-.3,10.7-18,9.8-25.9-.1-1.2-.7-3.6-1.9-4.1-1.1-.5-2.3,2.4-2.7,3.2-4.2,7.6-4.6,18.2-5.1,26.7Z"/>
      </g>
    </g>
  </g>
</svg>